<?xml version="1.0" standalone="no"?>
<!DOCTYPE svg PUBLIC "-//W3C//DTD SVG 20010904//EN"
 "http://www.w3.org/TR/2001/REC-SVG-20010904/DTD/svg10.dtd">
<svg version="1.0" xmlns="http://www.w3.org/2000/svg"
 width="1400.000000pt" height="1400.000000pt" viewBox="0 0 1400.000000 1400.000000"
 preserveAspectRatio="xMidYMid meet">
<metadata>
Created by potrace 1.14, written by Peter Selinger 2001-2017
</metadata>
<g transform="translate(0.000000,1400.000000) scale(0.100000,-0.100000)"
fill="#000000" stroke="none">
<path d="M11650 11065 c-199 -40 -433 -149 -864 -404 -100 -59 -212 -125 -251
-146 -272 -150 -379 -270 -378 -428 0 -45 7 -88 18 -115 10 -24 16 -44 14 -46
-2 -2 -92 -30 -199 -61 -358 -104 -462 -163 -515 -289 -23 -55 -21 -154 5
-213 64 -145 197 -193 484 -173 77 6 182 12 231 15 l90 6 -273 -76 c-698 -191
-1087 -317 -1198 -388 -56 -35 -119 -107 -135 -153 -44 -131 18 -268 148 -326
101 -45 385 -46 743 -4 63 8 116 13 118 11 1 -1 -55 -17 -125 -34 -635 -159
-1105 -326 -1236 -441 -89 -79 -111 -196 -53 -294 53 -91 147 -126 336 -126
247 0 559 42 1505 200 780 131 1211 197 1221 188 5 -6 -372 -87 -1186 -254
-1214 -250 -1479 -310 -1646 -374 -171 -65 -235 -174 -169 -286 49 -84 161
-115 478 -135 430 -26 957 36 2142 251 209 38 461 83 560 100 99 17 256 44
348 61 93 17 172 29 177 27 5 -2 -181 -52 -413 -112 -1333 -344 -2081 -542
-2487 -657 -222 -63 -459 -139 -464 -148 -17 -27 619 98 1514 298 l215 48 3
-1200 c1 -660 0 -1202 -2 -1205 -3 -2 -99 14 -213 37 -428 84 -916 157 -1373
205 -121 13 -597 56 -622 56 -5 0 -8 18 -8 41 0 52 -12 73 -50 89 -32 13 -40
30 -15 30 9 0 19 10 24 23 7 19 5 23 -18 28 l-26 7 27 1 c24 1 27 4 26 41 0
22 -7 45 -14 51 -24 19 -16 32 15 26 l30 -6 7 69 7 70 43 0 44 0 0 100 0 100
39 0 c22 0 41 4 43 10 2 5 13 7 26 4 21 -6 23 -10 26 -78 1 -14 43 -43 150
-102 81 -46 149 -84 151 -84 2 0 8 15 14 33 10 30 18 36 85 57 74 23 80 23
147 -5 15 -6 15 -2 3 37 -7 24 -16 65 -19 91 l-6 48 -31 -43 c-17 -24 -32 -44
-33 -46 -3 -3 -105 -20 -105 -17 0 1 9 28 20 60 11 32 19 59 18 61 -7 6 -201
114 -206 114 -3 0 -13 -7 -22 -15 -15 -13 -20 -13 -48 1 -18 8 -38 14 -45 11
-6 -2 -17 3 -23 11 -5 7 -28 15 -50 15 -33 2 -39 5 -37 22 2 16 29 206 47 322
3 20 -2 22 -63 28 -165 15 -161 14 -161 47 0 29 1 30 33 23 17 -4 46 -8 62 -9
17 -1 46 -6 65 -11 29 -6 33 -5 24 6 -6 8 -39 54 -74 103 l-63 89 12 59 c24
116 12 108 160 108 125 0 129 1 135 23 18 68 -1 98 -71 116 -135 35 -123 28
-111 64 7 17 24 44 40 59 46 43 34 105 -26 128 -36 13 -76 -5 -94 -42 -10 -22
-10 -33 1 -60 18 -43 5 -102 -21 -94 -9 3 -54 15 -100 27 -124 33 -122 36
-190 -224 -52 -196 -54 -208 -38 -231 9 -15 34 -30 58 -37 24 -7 44 -13 46
-14 1 -1 -3 -24 -10 -50 l-13 -48 -87 7 c-56 3 -88 2 -88 -4 0 -6 -13 -10 -29
-10 -51 0 -74 -35 -98 -145 -12 -55 -27 -138 -33 -183 -13 -96 -2 -125 51
-144 16 -5 29 -16 29 -23 0 -7 18 -15 45 -19 44 -7 45 -8 45 -44 0 -20 3 -67
6 -104 l7 -67 36 -3 36 -3 -4 -72 -3 -73 32 0 32 0 -7 -97 c-7 -93 -8 -98 -41
-128 -27 -26 -34 -40 -34 -70 l0 -38 -132 7 c-73 3 -393 9 -710 12 l-578 7 0
812 0 811 293 68 c969 225 1188 284 1302 351 77 44 93 115 38 167 -60 57 -366
28 -1258 -117 -933 -153 -1169 -184 -1575 -210 -52 -3 -92 -4 -89 -1 3 3 311
64 685 135 1466 280 2042 412 2262 517 90 44 126 90 126 165 0 79 -57 137
-155 158 -63 14 -374 14 -584 1 -286 -18 -697 -63 -1009 -110 -71 -11 -134
-20 -140 -19 -6 0 69 22 167 49 488 133 785 247 916 350 121 96 133 249 27
337 -47 38 -100 54 -205 61 l-84 5 166 57 c203 69 288 110 343 166 112 112 84
285 -57 357 -40 20 -82 31 -150 40 l-95 11 40 35 c96 87 102 222 14 317 -50
54 -99 73 -217 82 l-94 7 99 65 c112 73 227 181 249 234 36 86 6 159 -83 203
-48 23 -60 25 -140 21 -164 -10 -385 -105 -762 -328 -96 -56 -210 -124 -254
-149 -204 -120 -281 -250 -231 -391 8 -24 14 -44 13 -45 -2 -1 -67 -21 -145
-43 -271 -79 -360 -123 -406 -204 -35 -61 -41 -109 -22 -174 20 -71 77 -128
148 -149 60 -18 200 -19 371 -4 65 5 120 8 122 7 2 -2 -54 -19 -124 -37 -196
-52 -622 -175 -772 -224 -233 -76 -325 -130 -364 -211 -20 -41 -21 -125 -3
-169 19 -43 87 -103 134 -117 68 -21 240 -23 436 -5 177 16 244 16 162 1 -79
-15 -451 -121 -615 -176 -289 -96 -409 -161 -449 -242 -38 -80 -23 -158 42
-215 112 -98 318 -84 1407 97 616 103 918 150 950 149 35 -1 -70 -25 -575
-130 -1379 -286 -1455 -303 -1605 -354 -102 -35 -147 -67 -172 -121 -22 -51
-18 -88 14 -129 47 -60 131 -81 380 -95 346 -20 730 25 1698 200 570 102 852
151 856 148 1 -2 -230 -63 -514 -137 -1473 -381 -2142 -565 -2142 -588 0 -17
403 60 1001 193 185 40 341 74 347 74 9 0 12 -196 12 -785 l0 -784 -32 -5
c-18 -3 -98 -8 -178 -11 -711 -28 -1687 -151 -2439 -306 -145 -30 -524 -116
-549 -124 -9 -3 -12 168 -12 833 l0 838 228 53 c774 180 936 223 1028 276 49
29 70 69 55 108 -15 39 -40 47 -145 47 -143 0 -359 -30 -1161 -159 -499 -81
-909 -130 -1000 -119 -16 1 98 27 255 57 1054 198 1665 329 1929 413 171 54
211 85 219 167 4 47 2 53 -30 85 -19 19 -52 39 -73 45 -50 14 -364 14 -550 1
-192 -14 -396 -36 -609 -66 -98 -14 -183 -23 -189 -21 -5 1 46 18 114 36 197
52 503 157 588 201 174 90 229 185 169 292 -36 63 -76 82 -187 86 l-95 5 149
51 c159 55 200 74 253 113 68 51 94 162 53 229 -41 67 -86 88 -234 110 l-38 5
27 21 c33 26 63 92 64 137 0 51 -37 118 -81 148 -27 18 -62 28 -125 36 l-88
12 60 37 c199 123 268 237 194 321 -75 85 -215 72 -460 -44 -121 -57 -519
-287 -588 -339 -96 -73 -134 -169 -99 -252 14 -34 14 -37 -1 -42 -273 -78
-355 -111 -404 -163 -67 -70 -65 -169 4 -240 55 -56 121 -68 309 -53 78 6 143
10 145 8 2 -2 -70 -23 -159 -47 -213 -57 -571 -165 -651 -197 -177 -71 -237
-168 -171 -280 48 -82 149 -104 390 -85 77 6 158 14 180 16 22 3 -48 -19 -155
-49 -369 -104 -576 -181 -649 -241 -44 -38 -67 -105 -52 -154 10 -34 69 -101
89 -101 4 0 34 -4 66 -10 113 -18 350 10 1036 125 490 81 720 117 732 113 10
-4 -171 -42 -1082 -232 -618 -129 -704 -153 -765 -210 -45 -43 -49 -98 -10
-145 45 -53 153 -72 410 -72 266 -1 566 39 1270 166 434 78 606 107 610 103 2
-2 -229 -63 -513 -137 -981 -253 -1542 -408 -1565 -430 -19 -19 360 54 846
163 l237 53 0 -841 0 -841 -193 -54 c-608 -170 -1209 -399 -1742 -661 -228
-112 -589 -309 -581 -317 1 -1 76 27 167 63 1086 437 2400 757 3829 933 987
122 1843 169 2885 158 663 -7 971 -21 1560 -68 1746 -140 3382 -495 4686
-1017 96 -38 201 -82 233 -96 33 -14 61 -25 63 -23 5 6 -287 177 -452 264
-636 338 -1417 631 -2260 848 -99 26 -197 51 -217 56 l-38 10 0 1282 0 1283
403 93 c683 158 1197 282 1313 317 236 72 361 143 379 217 12 48 -14 99 -65
125 -111 56 -447 18 -1835 -208 -830 -135 -1202 -185 -1560 -210 -331 -24
-295 -12 310 104 1580 301 2109 410 2600 536 412 105 596 175 656 251 65 80
60 188 -11 259 -65 65 -102 73 -385 78 -446 7 -979 -36 -1695 -139 -113 -16
-221 -31 -240 -34 -19 -3 6 6 55 20 400 112 512 144 665 195 382 126 561 211
672 321 55 54 69 75 83 124 21 72 15 129 -22 196 -53 99 -140 139 -318 147
l-120 5 205 68 c264 88 390 150 458 223 103 113 110 265 18 373 -61 70 -193
122 -316 123 -25 0 -55 3 -67 6 -20 6 -19 8 20 38 26 19 53 55 72 91 25 49 30
70 30 129 -1 89 -27 146 -94 209 -58 54 -110 72 -255 86 -54 6 -100 11 -102
13 -1 2 52 39 118 83 204 135 328 274 328 370 0 46 -40 116 -87 151 -69 53
-178 66 -313 39z m-273 -3291 c-3 -3 -12 -4 -19 -1 -8 3 -5 6 6 6 11 1 17 -2
13 -5z m-4380 -750 c-3 -3 -12 -4 -19 -1 -8 3 -5 6 6 6 11 1 17 -2 13 -5z
m-4030 -410 c-3 -3 -12 -4 -19 -1 -8 3 -5 6 6 6 11 1 17 -2 13 -5z m5159 -520
c-3 -9 -6 -29 -6 -46 0 -26 -2 -29 -15 -18 -18 15 -20 51 -3 68 17 17 31 15
24 -4z m55 -12 c6 -15 2 -28 -11 -44 l-19 -23 -1 48 c0 51 16 61 31 19z m-337
-429 c-10 -41 -12 -43 -44 -43 -28 0 -29 1 -19 27 12 31 26 43 52 43 14 0 16
-5 11 -27z m296 -23 c38 -38 18 -111 -35 -124 -13 -3 -31 -19 -39 -34 l-15
-29 159 -74 c146 -67 181 -89 148 -89 -18 0 -338 153 -338 162 0 17 66 108 78
108 20 0 10 44 -11 48 -10 2 -20 -4 -23 -15 -13 -41 -41 -87 -67 -115 -34 -33
-30 -53 10 -61 41 -8 343 -155 343 -167 0 -19 -25 -10 -205 74 -206 96 -208
99 -156 182 20 33 28 57 24 74 -3 17 3 35 17 53 27 34 80 37 110 7z m-322 -72
c-2 -17 -11 -24 -30 -26 -24 -3 -28 0 -28 22 0 22 4 26 31 26 26 0 30 -3 27
-22z m-25 -54 c9 -3 12 -14 9 -30 -3 -17 -11 -24 -28 -24 -26 0 -40 20 -30 45
6 16 24 19 49 9z m-5 -101 c3 -20 -1 -23 -27 -23 -27 0 -31 4 -31 26 0 22 4
25 28 22 19 -2 28 -9 30 -25z m-8 -98 c0 -32 -4 -45 -14 -45 -24 0 -46 29 -46
61 0 26 3 29 30 29 29 0 30 -2 30 -45z m754 -51 c9 -3 16 -11 16 -16 0 -16
-92 -118 -101 -112 -15 9 -10 21 11 27 20 5 63 84 54 99 -6 10 -1 10 20 2z
m-426 -136 c12 -12 17 -58 7 -58 -8 0 -54 53 -55 63 0 11 35 8 48 -5z m-21
-84 c-10 -10 -47 7 -57 26 -5 10 -7 25 -4 34 4 11 13 7 36 -20 17 -19 28 -37
25 -40z m-77 -499 c0 -8 -4 -15 -9 -15 -13 0 -22 16 -14 24 11 11 23 6 23 -9z
m62 -10 c0 -5 -5 -11 -11 -13 -6 -2 -11 4 -11 13 0 9 5 15 11 13 6 -2 11 -8
11 -13z m73 6 c7 -12 -12 -24 -25 -16 -11 7 -4 25 10 25 5 0 11 -4 15 -9z"/>
<path d="M8325 6038 c-28 -87 -29 -84 47 -190 39 -54 76 -97 82 -95 9 3 83
249 85 285 1 9 -26 12 -104 12 -76 0 -107 -4 -110 -12z"/>
<path d="M9400 5411 c0 -14 -10 -20 -38 -25 -92 -14 -115 -126 -37 -182 24
-18 26 -24 18 -54 l-9 -34 -19 25 c-17 23 -23 25 -52 16 -18 -6 -33 -16 -33
-23 0 -18 48 -72 71 -79 13 -5 19 -14 17 -28 -2 -14 3 -23 15 -25 12 -2 17 3
17 17 0 17 6 21 31 21 46 0 89 47 89 98 0 33 -6 45 -35 71 -35 30 -42 54 -26
80 7 11 10 10 18 -3 11 -20 61 -13 70 9 6 18 -24 63 -48 70 -11 4 -19 15 -19
30 0 12 -7 25 -15 29 -10 3 -15 -1 -15 -13z m-27 -122 c-4 -13 -9 -17 -15 -11
-11 11 -3 32 12 32 4 0 6 -9 3 -21z m19 -161 c-15 -15 -24 -6 -16 16 5 12 10
14 17 7 8 -8 8 -14 -1 -23z"/>
<path d="M8704 5336 c-4 -9 -5 -18 -3 -20 11 -8 98 -56 102 -56 3 0 7 7 11 15
4 10 -8 24 -35 41 -57 35 -68 38 -75 20z"/>
<path d="M8625 5330 c-9 -14 -17 -8 100 -74 107 -60 115 -63 115 -43 0 8 -44
38 -97 68 -118 66 -110 62 -118 49z"/>
<path d="M9888 5077 l-186 -51 -6 -51 c-3 -27 -8 -79 -12 -113 l-6 -64 -27 26
c-15 14 -30 26 -34 26 -3 0 -12 -18 -18 -41 l-12 -40 78 -79 c52 -52 82 -76
86 -67 4 6 12 85 19 174 l13 161 81 26 c44 13 116 35 160 48 43 12 80 28 83
34 5 14 -14 64 -24 63 -5 -1 -92 -24 -195 -52z"/>
<path d="M8385 5039 c-4 -6 -5 -12 -3 -14 2 -3 76 -45 163 -94 150 -85 174
-93 175 -59 0 8 -303 178 -318 178 -6 0 -14 -5 -17 -11z"/>
<path d="M9149 4812 l-33 -29 32 -39 32 -38 -39 -41 c-38 -40 -39 -40 -21 -68
26 -41 25 -41 74 -8 l46 32 31 -36 c17 -19 34 -35 38 -35 4 0 22 13 41 29 l35
29 -35 37 c-39 40 -40 35 25 80 20 13 19 14 -11 45 l-32 32 -37 -25 -38 -26
-34 42 c-20 23 -37 43 -38 45 -2 2 -18 -10 -36 -26z"/>
<path d="M9960 4740 c-27 -27 -25 -62 3 -88 44 -41 107 -16 107 42 0 60 -68
88 -110 46z"/>
<path d="M10029 4601 l-144 -139 27 -28 27 -28 113 109 c62 59 128 122 146
140 l32 31 -28 27 -29 27 -144 -139z"/>
<path d="M10071 4464 c-26 -34 -26 -54 -1 -82 42 -45 110 -17 110 46 0 59 -72
83 -109 36z"/>
<path d="M6405 3960 c-1810 -49 -3437 -296 -4676 -710 -207 -69 -502 -180
-496 -186 2 -2 35 5 73 16 145 43 589 151 814 199 2009 429 4628 567 7050 371
1316 -107 2554 -315 3509 -590 58 -16 106 -28 108 -26 2 1 -74 33 -169 71
-1212 474 -2892 772 -4768 845 -374 14 -1101 19 -1445 10z"/>
</g>
</svg>
