<?xml version="1.0" encoding="UTF-8"?>
<svg width="71px" height="61px" viewBox="0 0 71 61" version="1.1" xmlns="http://www.w3.org/2000/svg" xmlns:xlink="http://www.w3.org/1999/xlink">
    <title>analytics</title>
    <g id="Page-1" stroke="none" stroke-width="1" fill="none" fill-rule="evenodd">
        <g id="Home-09" transform="translate(-938.000000, -5498.000000)" fill="#999999" fill-rule="nonzero">
            <g id="CLIENT-SETUP" transform="translate(0.000000, 5252.000000)">
                <g id="st--4" transform="translate(857.250000, 246.000000)">
                    <g id="analytics" transform="translate(81.000000, 0.000000)">
                        <path d="M24.1807617,17.4350586 C19.8270898,17.4350586 16.2853906,20.9767578 16.2853906,25.3304297 C16.2853906,29.6854687 19.8270898,33.227168 24.1807617,33.227168 C28.5344336,33.227168 32.0775,29.6854687 32.0775,25.3304297 C32.0775,20.9767578 28.5344336,17.4350586 24.1807617,17.4350586 Z" id="Path"></path>
                        <path d="M67.4876563,0 L2.51097656,0 C1.12423828,0 0,1.12423828 0,2.51111328 L0,42.7601563 C0,44.1468945 1.12410156,45.2711328 2.51097656,45.2711328 L3.70289062,45.2711328 L14.924082,34.0499414 C15.2039453,33.7700781 15.2314258,33.3202734 14.9774023,33.0166211 C13.1527539,30.8351367 12.0870313,27.9983594 12.1916211,24.9153516 C12.4066797,18.5773437 17.6055469,13.4581836 23.9461523,13.3366406 C30.7593945,13.2059375 36.3263086,18.785293 36.1752344,25.601543 C36.0344141,31.9473438 30.8963867,37.129668 24.5519531,37.322168 C22.6492383,37.38 20.8425,36.9917188 19.2259375,36.2554883 C18.9341797,36.1225977 18.5912891,36.1826172 18.3644727,36.4094336 L9.50154297,45.2711328 L67.4876563,45.2711328 C68.8737109,45.2711328 70,44.1448437 70,42.7601563 L70,2.51248047 C70,1.12779297 68.8737109,0 67.4876563,0 Z M43.5063672,35.6000586 C43.5063672,36.7331836 42.5891211,37.6504297 41.4559961,37.6504297 C40.3242383,37.6504297 39.405625,36.7331836 39.405625,35.6000586 L39.405625,27.6870508 C39.405625,26.555293 40.3242383,25.6366797 41.4559961,25.6366797 C42.5891211,25.6366797 43.5063672,26.555293 43.5063672,27.6870508 L43.5063672,35.6000586 Z M49.930918,35.6000586 C49.930918,36.7331836 49.0136719,37.6504297 47.8805469,37.6504297 C46.7487891,37.6504297 45.8301758,36.7331836 45.8301758,35.6000586 L45.8301758,14.0177734 C45.8301758,12.8860156 46.7487891,11.9674023 47.8805469,11.9674023 C49.0136719,11.9674023 49.930918,12.8860156 49.930918,14.0177734 L49.930918,35.6000586 Z M56.4619727,35.6000586 C56.4619727,36.7331836 55.5433594,37.6504297 54.4116016,37.6504297 C53.2784766,37.6504297 52.3612305,36.7331836 52.3612305,35.6000586 L52.3612305,19.4854297 C52.3612305,18.3536719 53.2784766,17.4350586 54.4116016,17.4350586 C55.5433594,17.4350586 56.4619727,18.3536719 56.4619727,19.4854297 L56.4619727,35.6000586 Z M62.9972656,35.6000586 C62.9972656,36.7331836 62.0786523,37.6504297 60.9468945,37.6504297 C59.8137695,37.6504297 58.8965234,36.7331836 58.8965234,35.6000586 L58.8965234,24.9530859 C58.8965234,23.8213281 59.8137695,22.9027148 60.9468945,22.9027148 C62.0786523,22.9027148 62.9972656,23.8213281 62.9972656,24.9530859 L62.9972656,35.6000586 Z" id="Shape"></path>
                        <path d="M51.4163672,56.4347656 L51.4026953,56.4288867 C48.2148242,55.0619727 44.9119727,54.1095898 41.5302344,53.5748828 L41.5302344,49.6835937 C41.5302344,49.2600391 41.1869336,48.9166016 40.7632422,48.9166016 L39.4049414,48.9166016 L37.4296289,48.9166016 L29.2367578,48.9166016 C28.8132031,48.9166016 28.4697656,49.2600391 28.4697656,49.6835937 L28.4697656,53.5798047 C25.1066211,54.1141016 21.8218164,55.0614258 18.6510352,56.4189062 C17.6348047,56.8539453 17.1000977,58.0152344 17.4920703,59.0488281 C17.9086523,60.1475 19.1515625,60.6673047 20.2196094,60.2080664 C24.9164453,58.1902344 29.8901367,57.1660742 35.0021875,57.1641602 L35.0449805,57.1641602 C40.113418,57.1641602 45.1288086,58.1961133 49.7855859,60.1971289 L49.8112891,60.2082031 C50.075293,60.3216797 50.3495508,60.3752734 50.6198437,60.3752734 C51.5673047,60.3751367 52.4603516,59.7145117 52.6472461,58.6527539 C52.810625,57.7226562 52.2842578,56.8067773 51.4163672,56.4347656 Z" id="Path"></path>
                        <path d="M3.70302734,45.2709961 L0.625351562,48.3548242 C-0.175683594,49.1558594 -0.175683594,50.4530469 0.625351562,51.254082 C1.02580078,51.6545312 1.55080078,51.8541406 2.07566406,51.8541406 C2.60052734,51.8541406 3.12552734,51.6545312 3.52460938,51.254082 L9.50140625,45.2709961 L3.70302734,45.2709961 Z" id="Path"></path>
                    </g>
                </g>
            </g>
        </g>
    </g>
</svg>