<?xml version="1.0" encoding="UTF-8"?>
<svg width="80px" height="87px" viewBox="0 0 80 87" version="1.1" xmlns="http://www.w3.org/2000/svg" xmlns:xlink="http://www.w3.org/1999/xlink">
    <title>trophy</title>
    <g id="Page-1" stroke="none" stroke-width="1" fill="none" fill-rule="evenodd">
        <g id="Home-09" transform="translate(-681.000000, -4711.000000)" fill="#003850" fill-rule="nonzero">
            <g id="CONSULTING" transform="translate(0.000000, 4148.000000)">
                <g id="lower-row" transform="translate(225.000000, 561.000000)">
                    <g id="s--2" transform="translate(370.000000, 2.000000)">
                        <g id="trophy" transform="translate(86.000000, 0.000000)">
                            <path d="M16.2169052,28.743909 C19.9608976,36.4045339 28.5870453,42.7070263 32.4545453,45.2560604 L32.4545453,52.0836854 L17.0900227,61.30303 L55.1483861,61.30303 L39.6666665,52.013818 L39.6666665,45.2560604 C43.5341665,42.7061248 52.1603142,36.4036324 55.9043066,28.7430075 C68.6697611,27.4006514 72.1212118,11.9531893 72.1212118,3.60606059 C72.1212118,1.61448832 70.5067235,0 68.5151512,0 L3.60606059,0 C1.61448832,0 -4.8042378e-15,1.61448832 -4.8042378e-15,3.60606059 C-4.8042378e-15,11.9531893 3.45145074,27.4006514 16.2169052,28.743909 Z M57.6969695,20.8213939 L57.6969695,7.21212118 L64.6305225,7.21212118 C64.0837535,11.5308295 62.4659846,18.467087 57.6969695,20.8213939 Z M14.4242424,7.21212118 L14.4242424,20.8213939 C9.65477647,18.467087 8.03700754,11.5290265 7.49068936,7.21212118 L14.4242424,7.21212118 Z" id="Shape"></path>
                            <path d="M77.5303027,61.30303 C74.5442831,61.2998004 72.1244414,58.8799588 72.1212118,55.8939392 C72.1212118,54.898153 71.3139677,54.0909089 70.3181815,54.0909089 C69.3223954,54.0909089 68.5151512,54.898153 68.5151512,55.8939392 C68.5119216,58.8799588 66.09208,61.2998004 63.1060603,61.30303 C62.1102742,61.30303 61.30303,62.1102742 61.30303,63.1060603 C61.30303,64.1018465 62.1102742,64.9090906 63.1060603,64.9090906 C66.09208,64.9123202 68.5119216,67.3321619 68.5151512,70.3181815 C68.5151512,71.3139677 69.3223954,72.1212118 70.3181815,72.1212118 C71.3139677,72.1212118 72.1212118,71.3139677 72.1212118,70.3181815 C72.1244414,67.3321619 74.5442831,64.9123202 77.5303027,64.9090906 C78.5260888,64.9090906 79.333333,64.1018465 79.333333,63.1060603 C79.333333,62.1102742 78.5260888,61.30303 77.5303027,61.30303 Z" id="Path"></path>
                            <path d="M70.3181815,28.4369431 C69.3223954,28.4369431 68.5151512,29.2441872 68.5151512,30.2399734 C68.5119216,33.225993 66.09208,35.6458346 63.1060603,35.6490642 C62.1102742,35.6490642 61.30303,36.4563084 61.30303,37.4520945 C61.30303,38.4478807 62.1102742,39.2551248 63.1060603,39.2551248 C66.09208,39.2583544 68.5119216,41.6781961 68.5151512,44.6642157 C68.5151512,45.6600019 69.3223954,46.467246 70.3181815,46.467246 C71.3139677,46.467246 72.1212118,45.6600019 72.1212118,44.6642157 C72.1244414,41.6781961 74.5442831,39.2583544 77.5303027,39.2551248 C78.5260888,39.2551248 79.333333,38.4478807 79.333333,37.4520945 C79.333333,36.4563084 78.5260888,35.6490642 77.5303027,35.6490642 C74.5442831,35.6458346 72.1244414,33.225993 72.1212118,30.2399734 C72.1212118,29.2441872 71.3139677,28.4369431 70.3181815,28.4369431 Z" id="Path"></path>
                            <path d="M18.030303,48.681818 C18.030303,47.6860318 17.2230588,46.8787877 16.2272727,46.8787877 C13.241253,46.8755581 10.8214114,44.4557164 10.8181818,41.4696968 C10.8181818,40.4739107 10.0109376,39.6666665 9.01515148,39.6666665 C8.01936534,39.6666665 7.21212118,40.4739107 7.21212118,41.4696968 C7.20889157,44.4557164 4.78904993,46.8755581 1.8030303,46.8787877 C0.80724416,46.8787877 -4.8042378e-15,47.6860318 -4.8042378e-15,48.681818 C-4.8042378e-15,49.6776041 0.80724416,50.4848483 1.8030303,50.4848483 C4.78904993,50.4880779 7.20889157,52.9079195 7.21212118,55.8939392 C7.21212118,56.8897253 8.01936534,57.6969695 9.01515148,57.6969695 C10.0109376,57.6969695 10.8181818,56.8897253 10.8181818,55.8939392 C10.8214114,52.9079195 13.241253,50.4880779 16.2272727,50.4848483 C17.2230588,50.4848483 18.030303,49.6776041 18.030303,48.681818 Z" id="Path"></path>
                            <path d="M14.4828408,82.9393936 C14.4828408,84.9309659 16.0973292,86.5454542 18.0889014,86.5454542 L54.1495073,86.5454542 C56.1410796,86.5454542 57.7555679,84.9309659 57.7555679,82.9393936 L57.7555679,64.9090906 L14.4828408,64.9090906 L14.4828408,82.9393936 Z" id="Path"></path>
                        </g>
                    </g>
                </g>
            </g>
        </g>
    </g>
</svg>