<?xml version="1.0" encoding="UTF-8"?>
<svg width="110px" height="93px" viewBox="0 0 110 93" version="1.1" xmlns="http://www.w3.org/2000/svg" xmlns:xlink="http://www.w3.org/1999/xlink">
    <title>Asset 1</title>
    <g id="Page-1" stroke="none" stroke-width="1" fill="none" fill-rule="evenodd">
        <g id="Homepage-Final-Blue-Fonts" transform="translate(-672.000000, -4704.000000)">
            <g id="CONSULTING" transform="translate(0.000000, 4141.000000)">
                <g id="lower-row" transform="translate(225.000000, 561.000000)">
                    <g id="s--2" transform="translate(370.000000, 2.000000)">
                        <g id="Asset-1" transform="translate(77.000000, 0.000000)">
                            <path d="M41.091954,92.1977011 L8.85057471,92.1977011 L8.85057471,23.3908046 L41.091954,23.3908046 L41.091954,92.1977011 Z M11.3793103,89.6689655 L38.5632184,89.6689655 L38.5632184,25.9195402 L11.3793103,25.9195402 L11.3793103,89.6689655 Z" id="Shape" fill="#003850" fill-rule="nonzero"></path>
                            <rect id="Rectangle" fill="#003850" x="9.37931034" y="25.2873563" width="30.183908" height="64.4827586"></rect>
                            <rect id="Rectangle-Copy-4" fill="#003850" x="40.091954" y="1.89655172" width="30.183908" height="87.8735632"></rect>
                            <rect id="Rectangle-Copy-5" fill="#003850" x="69.8045977" y="53.7356322" width="29.816092" height="36.6666667"></rect>
                            <path d="M70.8045977,92.1977011 L38.5632184,92.1977011 L38.5632184,0 L70.8045977,0 L70.8045977,92.1977011 Z M41.091954,89.6689655 L68.2758621,89.6689655 L68.2758621,2.52873563 L41.091954,2.52873563 L41.091954,89.6689655 Z" id="Shape" fill="#003850" fill-rule="nonzero"></path>
                            <path d="M100.517241,92.5137931 L68.2758621,92.5137931 L68.2758621,52.4712644 L100.517241,52.4712644 L100.517241,92.5137931 Z M70.8045977,89.9850575 L97.9885057,89.9850575 L97.9885057,55 L70.8045977,55 L70.8045977,89.9850575 Z" id="Shape" fill="#003850" fill-rule="nonzero"></path>
                            <rect id="Rectangle" fill="#003850" fill-rule="nonzero" x="0" y="89.9850575" width="110" height="2.52873563"></rect>
                            <rect id="Rectangle" fill="#FFFFFF" fill-rule="nonzero" x="47.9827586" y="8.97701149" width="4.17241379" height="4.17241379"></rect>
                            <rect id="Rectangle" fill="#FFFFFF" fill-rule="nonzero" x="47.9827586" y="17.8402299" width="4.17241379" height="4.17241379"></rect>
                            <rect id="Rectangle" fill="#FFFFFF" fill-rule="nonzero" x="47.9827586" y="26.6086207" width="4.17241379" height="4.17241379"></rect>
                            <rect id="Rectangle" fill="#FFFFFF" fill-rule="nonzero" x="47.9827586" y="35.8132184" width="4.17241379" height="4.17241379"></rect>
                            <rect id="Rectangle" fill="#FFFFFF" fill-rule="nonzero" x="47.9827586" y="44.5626437" width="4.17241379" height="4.17241379"></rect>
                            <rect id="Rectangle" fill="#FFFFFF" fill-rule="nonzero" x="57.7816092" y="8.97701149" width="4.17241379" height="4.17241379"></rect>
                            <rect id="Rectangle" fill="#FFFFFF" fill-rule="nonzero" x="57.7816092" y="17.8402299" width="4.17241379" height="4.17241379"></rect>
                            <rect id="Rectangle" fill="#FFFFFF" fill-rule="nonzero" x="57.7816092" y="26.6086207" width="4.17241379" height="4.17241379"></rect>
                            <rect id="Rectangle" fill="#FFFFFF" fill-rule="nonzero" x="57.7816092" y="35.8132184" width="4.17241379" height="4.17241379"></rect>
                            <rect id="Rectangle" fill="#FFFFFF" fill-rule="nonzero" x="57.7816092" y="44.5626437" width="4.17241379" height="4.17241379"></rect>
                            <rect id="Rectangle" fill="#FFFFFF" fill-rule="nonzero" x="77.4109195" y="61.6821839" width="4.17241379" height="4.17241379"></rect>
                            <rect id="Rectangle" fill="#FFFFFF" fill-rule="nonzero" x="77.4109195" y="70.5390805" width="4.17241379" height="4.17241379"></rect>
                            <rect id="Rectangle" fill="#FFFFFF" fill-rule="nonzero" x="77.4109195" y="79.3137931" width="4.17241379" height="4.17241379"></rect>
                            <rect id="Rectangle" fill="#FFFFFF" fill-rule="nonzero" x="87.2097701" y="61.5241379" width="4.17241379" height="4.17241379"></rect>
                            <rect id="Rectangle" fill="#FFFFFF" fill-rule="nonzero" x="87.2097701" y="70.3810345" width="4.17241379" height="4.17241379"></rect>
                            <rect id="Rectangle" fill="#FFFFFF" fill-rule="nonzero" x="87.2097701" y="79.1494253" width="4.17241379" height="4.17241379"></rect>
                            <rect id="Rectangle" fill="#FFFFFF" fill-rule="nonzero" x="48.0143678" y="44.6068966" width="4.17241379" height="4.17241379"></rect>
                            <rect id="Rectangle" fill="#FFFFFF" fill-rule="nonzero" x="48.0143678" y="53.4637931" width="4.17241379" height="4.17241379"></rect>
                            <rect id="Rectangle" fill="#FFFFFF" fill-rule="nonzero" x="48.0143678" y="62.2321839" width="4.17241379" height="4.17241379"></rect>
                            <rect id="Rectangle" fill="#FFFFFF" fill-rule="nonzero" x="48.0143678" y="71.4367816" width="4.17241379" height="4.17241379"></rect>
                            <rect id="Rectangle" fill="#FFFFFF" fill-rule="nonzero" x="48.0143678" y="80.1862069" width="4.17241379" height="4.17241379"></rect>
                            <rect id="Rectangle" fill="#FFFFFF" fill-rule="nonzero" x="57.8132184" y="44.4425287" width="4.17241379" height="4.17241379"></rect>
                            <rect id="Rectangle" fill="#FFFFFF" fill-rule="nonzero" x="57.8132184" y="53.2994253" width="4.17241379" height="4.17241379"></rect>
                            <rect id="Rectangle" fill="#FFFFFF" fill-rule="nonzero" x="57.8132184" y="62.0741379" width="4.17241379" height="4.17241379"></rect>
                            <rect id="Rectangle" fill="#FFFFFF" fill-rule="nonzero" x="57.8132184" y="71.2724138" width="4.17241379" height="4.17241379"></rect>
                            <rect id="Rectangle" fill="#FFFFFF" fill-rule="nonzero" x="57.8132184" y="80.0218391" width="4.17241379" height="4.17241379"></rect>
                            <rect id="Rectangle" fill="#FFFFFF" fill-rule="nonzero" x="17.9856322" y="35.591954" width="4.17241379" height="4.17241379"></rect>
                            <rect id="Rectangle" fill="#FFFFFF" fill-rule="nonzero" x="17.9856322" y="44.4488506" width="4.17241379" height="4.17241379"></rect>
                            <rect id="Rectangle" fill="#FFFFFF" fill-rule="nonzero" x="17.9856322" y="53.2235632" width="4.17241379" height="4.17241379"></rect>
                            <rect id="Rectangle" fill="#FFFFFF" fill-rule="nonzero" x="17.9856322" y="62.4218391" width="4.17241379" height="4.17241379"></rect>
                            <rect id="Rectangle" fill="#FFFFFF" fill-rule="nonzero" x="17.9856322" y="71.1712644" width="4.17241379" height="4.17241379"></rect>
                            <rect id="Rectangle" fill="#FFFFFF" fill-rule="nonzero" x="27.7844828" y="35.4275862" width="4.17241379" height="4.17241379"></rect>
                            <rect id="Rectangle" fill="#FFFFFF" fill-rule="nonzero" x="27.7844828" y="44.2908046" width="4.17241379" height="4.17241379"></rect>
                            <rect id="Rectangle" fill="#FFFFFF" fill-rule="nonzero" x="27.7844828" y="53.0591954" width="4.17241379" height="4.17241379"></rect>
                            <rect id="Rectangle" fill="#FFFFFF" fill-rule="nonzero" x="27.7844828" y="62.2637931" width="4.17241379" height="4.17241379"></rect>
                            <rect id="Rectangle" fill="#FFFFFF" fill-rule="nonzero" x="27.7844828" y="71.0132184" width="4.17241379" height="4.17241379"></rect>
                        </g>
                    </g>
                </g>
            </g>
        </g>
    </g>
</svg>