<?xml version="1.0" encoding="UTF-8"?>
<svg width="88px" height="88px" viewBox="0 0 88 88" version="1.1" xmlns="http://www.w3.org/2000/svg" xmlns:xlink="http://www.w3.org/1999/xlink">
    <title>lamp</title>
    <g id="Page-1" stroke="none" stroke-width="1" fill="none" fill-rule="evenodd">
        <g id="Home-09" transform="translate(-1047.000000, -4410.000000)" fill="#003850" fill-rule="nonzero">
            <g id="CONSULTING" transform="translate(0.000000, 4148.000000)">
                <g id="upper-row" transform="translate(225.000000, 262.000000)">
                    <g id="s--3" transform="translate(740.000000, 0.000000)">
                        <g id="lamp" transform="translate(82.000000, 0.000000)">
                            <path d="M44,12.6756667 C42.482,12.6756667 41.25,11.4436667 41.25,9.92566667 L41.25,2.75 C41.25,1.232 42.482,-1.22124533e-15 44,-1.22124533e-15 C45.518,-1.22124533e-15 46.75,1.232 46.75,2.75 L46.75,9.92566667 C46.75,11.4436667 45.518,12.6756667 44,12.6756667 Z" id="Path"></path>
                            <path d="M68.0936667,22.6563333 C67.3896667,22.6563333 66.6856667,22.3886667 66.1503333,21.8496667 C65.076,20.7753333 65.076,19.0336667 66.1503333,17.9593333 L71.225,12.8846667 C72.2993333,11.8103333 74.041,11.8103333 75.1153333,12.8846667 C76.1896667,13.959 76.1896667,15.7006667 75.1153333,16.775 L70.0406667,21.8496667 C69.5016667,22.385 68.7976667,22.6563333 68.0936667,22.6563333 L68.0936667,22.6563333 Z" id="Path"></path>
                            <path d="M85.25,46.75 L78.0743333,46.75 C76.5563333,46.75 75.3243333,45.518 75.3243333,44 C75.3243333,42.482 76.5563333,41.25 78.0743333,41.25 L85.25,41.25 C86.768,41.25 88,42.482 88,44 C88,45.518 86.768,46.75 85.25,46.75 Z" id="Path"></path>
                            <path d="M73.1683333,75.9183333 C72.4643333,75.9183333 71.7603333,75.6506667 71.225,75.1116667 L66.1503333,70.037 C65.076,68.9626667 65.076,67.221 66.1503333,66.1466667 C67.2246667,65.0723333 68.9663333,65.0723333 70.0406667,66.1466667 L75.1153333,71.2213333 C76.1896667,72.2956667 76.1896667,74.0373333 75.1153333,75.1116667 C74.5763333,75.6506667 73.8723333,75.9183333 73.1683333,75.9183333 Z" id="Path"></path>
                            <path d="M14.8316667,75.9183333 C14.1276667,75.9183333 13.4236667,75.6506667 12.8883333,75.1116667 C11.814,74.0373333 11.814,72.2956667 12.8883333,71.2213333 L17.963,66.1466667 C19.0373333,65.0723333 20.779,65.0723333 21.8533333,66.1466667 C22.9276667,67.221 22.9276667,68.9626667 21.8533333,70.037 L16.7786667,75.1116667 C16.2396667,75.6506667 15.5356667,75.9183333 14.8316667,75.9183333 L14.8316667,75.9183333 Z" id="Path"></path>
                            <path d="M9.92566667,46.75 L2.75,46.75 C1.232,46.75 -1.22124533e-15,45.518 -1.22124533e-15,44 C-1.22124533e-15,42.482 1.232,41.25 2.75,41.25 L9.92566667,41.25 C11.4436667,41.25 12.6756667,42.482 12.6756667,44 C12.6756667,45.518 11.4436667,46.75 9.92566667,46.75 Z" id="Path"></path>
                            <path d="M19.9063333,22.6563333 C19.2023333,22.6563333 18.4983333,22.3886667 17.963,21.8496667 L12.8883333,16.775 C11.814,15.7006667 11.814,13.959 12.8883333,12.8846667 C13.9626667,11.8103333 15.7043333,11.8103333 16.7786667,12.8846667 L21.8533333,17.9593333 C22.9276667,19.0336667 22.9276667,20.7753333 21.8533333,21.8496667 C21.3106667,22.385 20.6103333,22.6563333 19.9063333,22.6563333 L19.9063333,22.6563333 Z" id="Path"></path>
                            <path d="M55,77 L55,81.5833333 C55,85.1033333 52.1033333,88 48.5833333,88 L39.4166667,88 C36.3366667,88 33,85.6533333 33,80.52 L33,77 L55,77 Z" id="Path"></path>
                            <path d="M60.17,24.0533333 C54.1566667,19.1766667 46.2366667,17.27 38.5,18.92 C28.7833333,20.9366667 20.9,28.8566667 18.8833333,38.5733333 C16.83,48.5466667 20.57,58.4466667 28.5633333,64.4966667 C30.7266667,66.11 32.23,68.6033333 32.7433333,71.5 L32.7433333,71.5366667 C32.8166667,71.5 32.9266667,71.5 33,71.5 L55,71.5 C55.0733333,71.5 55.11,71.5 55.1833333,71.5366667 L55.1833333,71.5 C55.6966667,68.7133333 57.3466667,66.1466667 59.8766667,64.1666667 C66.0733333,59.2533333 69.6666667,51.92 69.6666667,44 C69.6666667,36.2266667 66.22,28.9666667 60.17,24.0533333 Z M57.75,45.8333333 C56.2466667,45.8333333 55,44.5866667 55,43.0833333 C55,37.51 50.49,33 44.9166667,33 C43.4133333,33 42.1666667,31.7533333 42.1666667,30.25 C42.1666667,28.7466667 43.4133333,27.5 44.9166667,27.5 C53.4966667,27.5 60.5,34.5033333 60.5,43.0833333 C60.5,44.5866667 59.2533333,45.8333333 57.75,45.8333333 Z" id="Shape"></path>
                            <path d="M32.7433333,71.5 L33,71.5 C32.9266667,71.5 32.8166667,71.5 32.7433333,71.5366667 L32.7433333,71.5 Z" id="Path"></path>
                            <path d="M55.1833333,71.5 L55.1833333,71.5366667 C55.11,71.5 55.0733333,71.5 55,71.5 L55.1833333,71.5 Z" id="Path"></path>
                        </g>
                    </g>
                </g>
            </g>
        </g>
    </g>
</svg>