<?xml version="1.0" encoding="UTF-8"?>
<svg width="75px" height="74px" viewBox="0 0 75 74" version="1.1" xmlns="http://www.w3.org/2000/svg" xmlns:xlink="http://www.w3.org/1999/xlink">
    <title>lamp (1)</title>
    <g id="Page-1" stroke="none" stroke-width="1" fill="none" fill-rule="evenodd">
        <g id="Home-09" transform="translate(-681.000000, -5484.000000)" fill-rule="nonzero">
            <g id="CLIENT-SETUP" transform="translate(0.000000, 5252.000000)">
                <g id="st--3" transform="translate(593.500000, 232.000000)">
                    <g id="lamp-(1)" transform="translate(88.000000, 0.000000)">
                        <path d="M37,10.6590833 C35.7235,10.6590833 34.6875,9.62308333 34.6875,8.34658333 L34.6875,2.3125 C34.6875,1.036 35.7235,0 37,0 C38.2765,0 39.3125,1.036 39.3125,2.3125 L39.3125,8.34658333 C39.3125,9.62308333 38.2765,10.6590833 37,10.6590833 Z" id="Path" fill="#003850"></path>
                        <path d="M57.2605833,19.0519167 C56.6685833,19.0519167 56.0765833,18.8268333 55.6264167,18.3735833 C54.723,17.4701667 54.723,16.0055833 55.6264167,15.1021667 L59.89375,10.8348333 C60.7971667,9.93141667 62.26175,9.93141667 63.1651667,10.8348333 C64.0685833,11.73825 64.0685833,13.2028333 63.1651667,14.10625 L58.8978333,18.3735833 C58.4445833,18.82375 57.8525833,19.0519167 57.2605833,19.0519167 L57.2605833,19.0519167 Z" id="Path" fill="#003850"></path>
                        <path d="M71.6875,39.3125 L65.6534167,39.3125 C64.3769167,39.3125 63.3409167,38.2765 63.3409167,37 C63.3409167,35.7235 64.3769167,34.6875 65.6534167,34.6875 L71.6875,34.6875 C72.964,34.6875 74,35.7235 74,37 C74,38.2765 72.964,39.3125 71.6875,39.3125 Z" id="Path" fill="#003850"></path>
                        <path d="M61.5279167,63.8404167 C60.9359167,63.8404167 60.3439167,63.6153333 59.89375,63.1620833 L55.6264167,58.89475 C54.723,57.9913333 54.723,56.52675 55.6264167,55.6233333 C56.5298333,54.7199167 57.9944167,54.7199167 58.8978333,55.6233333 L63.1651667,59.8906667 C64.0685833,60.7940833 64.0685833,62.2586667 63.1651667,63.1620833 C62.7119167,63.6153333 62.1199167,63.8404167 61.5279167,63.8404167 Z" id="Path" fill="#003850"></path>
                        <path d="M12.4720833,63.8404167 C11.8800833,63.8404167 11.2880833,63.6153333 10.8379167,63.1620833 C9.9345,62.2586667 9.9345,60.7940833 10.8379167,59.8906667 L15.10525,55.6233333 C16.0086667,54.7199167 17.47325,54.7199167 18.3766667,55.6233333 C19.2800833,56.52675 19.2800833,57.9913333 18.3766667,58.89475 L14.1093333,63.1620833 C13.6560833,63.6153333 13.0640833,63.8404167 12.4720833,63.8404167 L12.4720833,63.8404167 Z" id="Path" fill="#003850"></path>
                        <path d="M8.34658333,39.3125 L2.3125,39.3125 C1.036,39.3125 0,38.2765 0,37 C0,35.7235 1.036,34.6875 2.3125,34.6875 L8.34658333,34.6875 C9.62308333,34.6875 10.6590833,35.7235 10.6590833,37 C10.6590833,38.2765 9.62308333,39.3125 8.34658333,39.3125 Z" id="Path" fill="#003850"></path>
                        <path d="M16.7394167,19.0519167 C16.1474167,19.0519167 15.5554167,18.8268333 15.10525,18.3735833 L10.8379167,14.10625 C9.9345,13.2028333 9.9345,11.73825 10.8379167,10.8348333 C11.7413333,9.93141667 13.2059167,9.93141667 14.1093333,10.8348333 L18.3766667,15.1021667 C19.2800833,16.0055833 19.2800833,17.4701667 18.3766667,18.3735833 C17.9203333,18.82375 17.3314167,19.0519167 16.7394167,19.0519167 L16.7394167,19.0519167 Z" id="Path" fill="#003850"></path>
                        <path d="M46.25,64.75 L46.25,68.6041667 C46.25,71.5641667 43.8141667,74 40.8541667,74 L33.1458333,74 C30.5558333,74 27.75,72.0266667 27.75,67.71 L27.75,64.75 L46.25,64.75 Z" id="Path" fill="#003850"></path>
                        <path d="M50.6496391,20.2706154 C45.5929724,16.1697821 38.9329724,14.5664487 32.4271391,15.9539487 C24.2563057,17.6497821 17.6271391,24.3097821 15.9313057,32.4806154 C14.2046391,40.8672821 17.3496391,49.1922821 24.0713057,54.2797821 C25.8904724,55.6364487 27.1546391,57.7331154 27.5863057,60.1689487 L27.5863057,60.1997821 C27.6479724,60.1689487 27.7404724,60.1689487 27.8021391,60.1689487 L46.3021391,60.1689487 C46.3638057,60.1689487 46.3946391,60.1689487 46.4563057,60.1997821 L46.4563057,60.1689487 C46.8879724,57.8256154 48.2754724,55.6672821 50.4029724,54.0022821 C55.6138057,49.8706154 58.6354724,43.7039487 58.6354724,37.0439487 C58.6354724,30.5072821 55.7371391,24.4022821 50.6496391,20.2706154 Z" id="Shape" fill="#003850"></path>
                        <g id="exclamation-sign" transform="translate(34.253906, 24.570312)" fill="#FFFFFF">
                            <path d="M0.630979548,21.3705507 C0.401969993,21.3705507 0.216381684,21.556139 0.216381684,21.7851485 L0.216381684,26.023352 C0.216381684,26.2523616 0.401969993,26.4380017 0.630979548,26.4380017 L4.8691313,26.4380017 C5.09819261,26.4380017 5.28378092,26.2523616 5.28378092,26.023352 L5.28378092,21.7854591 C5.28378092,21.5564495 5.09819261,21.3708612 4.8691313,21.3708612 L0.630979548,21.3708612 L0.630979548,21.3705507 L0.630979548,21.3705507 Z" id="Path"></path>
                            <path d="M1.73100172,19.6212282 L3.76916089,19.6212282 C3.99811869,19.6212282 4.20176899,19.4365715 4.223609,19.2084935 L5.48235937,6.20380417 L5.48235937,0.414597864 C5.48235937,0.185588309 5.29666756,0 5.06770976,0 L0.414597864,0 C0.185588309,0 1.47092498e-15,0.185588309 1.47092498e-15,0.414597864 L1.47092498e-15,6.20380417 L1.27608782,19.208804 C1.29839361,19.4365715 1.50204392,19.6212282 1.73100172,19.6212282 Z" id="Path"></path>
                        </g>
                        <path d="M27.5341667,60.125 L27.75,60.125 C27.6883333,60.125 27.5958333,60.125 27.5341667,60.1558333 L27.5341667,60.125 Z" id="Path" fill="#003850"></path>
                        <path d="M46.4041667,60.125 L46.4041667,60.1558333 C46.3425,60.125 46.3116667,60.125 46.25,60.125 L46.4041667,60.125 Z" id="Path" fill="#003850"></path>
                    </g>
                </g>
            </g>
        </g>
    </g>
</svg>