<?xml version="1.0" encoding="UTF-8"?>
<svg width="70px" height="70px" viewBox="0 0 70 70" version="1.1" xmlns="http://www.w3.org/2000/svg" xmlns:xlink="http://www.w3.org/1999/xlink">
    <title>cog</title>
    <g id="Page-1" stroke="none" stroke-width="1" fill="none" fill-rule="evenodd">
        <g id="Home-09" transform="translate(-1128.000000, -1598.000000)" fill="#003850" fill-rule="nonzero">
            <g id="PHILOSOPHY" transform="translate(0.000000, 1296.000000)">
                <g id="philosophy-points" transform="translate(108.000000, 237.000000)">
                    <g id="ph--3" transform="translate(877.000000, 0.000000)">
                        <g id="oval+icon" transform="translate(78.000000, 0.000000)">
                            <g id="cog" transform="translate(65.000000, 65.000000)">
                                <g id="gear">
                                    <path d="M68.2639927,28.4899969 L62.0171933,27.739597 C61.3787934,25.3567973 60.4435935,23.1055975 59.2395936,21.0167977 L63.1231932,16.0803983 C63.7167931,15.3215984 63.6495932,14.1483985 62.9635932,13.4651986 L56.5263939,7.02519924 C55.848794,6.34479932 54.6727941,6.27199933 53.9111942,6.86559926 L48.9663947,10.7547988 C46.885995,9.55079897 44.6347952,8.61559907 42.2575955,7.98279914 L41.5099955,1.73599981 C41.3951955,0.781199916 40.5131956,0 39.5499957,0 L30.4443967,0 C29.4811968,0 28.5991969,0.781199916 28.4871969,1.73599981 L27.736797,7.98279914 C25.3567973,8.61839907 23.1027975,9.55639897 21.0223977,10.7575988 L16.0803983,6.87399926 C15.3243984,6.28039932 14.1483985,6.35039932 13.4679986,7.03079924 L7.02799924,13.4735986 C6.35039932,14.1511985 6.28039932,15.3271984 6.87679926,16.0887983 L10.7575988,21.0279977 C9.55359897,23.1111975 8.61839907,25.3651973 7.98279914,27.747997 L1.73879981,28.4955969 C0.783999916,28.6075969 0,29.4895968 0,30.4555967 L0,39.5611957 C0,40.5243956 0.781199916,41.4007955 1.73879981,41.5183955 L7.98559914,42.2687955 C8.62399907,44.6431952 9.55639897,46.894395 10.7603988,48.9775947 L6.87959926,53.9223942 C6.28879932,54.6811941 6.35599932,55.854394 7.03919924,56.5375939 L13.4679986,62.9803932 C14.1483985,63.6579932 15.3243984,63.7335931 16.0803983,63.1399932 L21.0251977,59.2479936 C23.1083975,60.4519935 25.3595973,61.3899934 27.739597,62.0227933 L28.4899969,68.2667927 C28.6047969,69.2243926 29.4839968,70.0027925 30.4471967,70.0027925 L39.5527957,70.0027925 C40.5187956,70.0027925 41.3979955,69.2243926 41.5099955,68.2667927 L42.2603955,62.0227933 C44.6431952,61.3843934 46.894395,60.4491935 48.9747947,59.2479936 L53.9195942,63.1315932 C54.6783941,63.7251931 55.851594,63.6551932 56.5319939,62.9747932 L62.9691932,56.5319939 C63.6523932,55.854394 63.7223931,54.6783941 63.1259932,53.9139942 L59.2395936,48.9747947 C60.4463935,46.891595 61.3787934,44.6403952 62.0171933,42.2631955 L68.2611927,41.5127955 C69.2187926,41.3979955 70,40.5243956 70,39.5555957 L70,30.4499967 C70.0027925,29.4811968 69.2243926,28.6047969 68.2639927,28.4899969 Z M35.0027981,52.4999981 C25.3371973,52.4999981 17.5027981,44.6655952 17.5027981,34.9999981 C17.5027981,25.3343973 25.3371973,17.4999981 35.0027981,17.4999981 C44.6683952,17.4999981 52.5027981,25.3343973 52.5027981,34.9999981 C52.5027981,44.6655952 44.6711952,52.4999981 35.0027981,52.4999981 Z" id="Shape"></path>
                                </g>
                                <g id="checked" transform="translate(27.000000, 29.000000)">
                                    <polygon id="Path" points="0 6.7367412 5.66950097 12.4170642 16.556 1.54132302 14.993065 -9.12703608e-16 5.66950097 9.31274197 1.54129091 5.18456402"></polygon>
                                </g>
                            </g>
                        </g>
                    </g>
                </g>
            </g>
        </g>
    </g>
</svg>