<?xml version="1.0" encoding="UTF-8"?>
<svg width="70px" height="73px" viewBox="0 0 70 73" version="1.1" xmlns="http://www.w3.org/2000/svg" xmlns:xlink="http://www.w3.org/1999/xlink">
    <title>cogs-on-wheels-interface-symbol-for-settings-edition-button</title>
    <g id="Page-1" stroke="none" stroke-width="1" fill="none" fill-rule="evenodd">
        <g id="Home-09" transform="translate(-185.000000, -5485.000000)" fill="#003850" fill-rule="nonzero">
            <g id="CLIENT-SETUP" transform="translate(0.000000, 5252.000000)">
                <g id="st--1" transform="translate(104.000000, 233.000000)">
                    <g id="cogs-on-wheels-interface-symbol-for-settings-edition-button" transform="translate(81.000000, 0.000000)">
                        <path d="M52.9062383,37.1143071 L50.4426597,37.1143071 C50.0168099,35.7396339 49.4676877,34.4228614 48.797161,33.1751961 L50.5491222,31.423235 C52.5849832,29.3873739 52.5849832,26.0833022 50.5491222,24.0437056 L48.6720209,22.1722077 C47.6970489,21.1916324 46.3690699,20.644378 44.9831901,20.644378 L44.9831901,20.644378 C43.5973104,20.644378 42.2730669,21.1916324 41.2887561,22.1722077 L39.5367949,23.9241688 C38.2891296,23.2573777 36.9723571,22.7026522 35.597684,22.2786702 L35.597684,19.8132238 C35.597684,16.9312663 33.2629809,14.5965633 30.3810235,14.5965633 L27.7288009,14.5965633 C24.8468435,14.5965633 22.5121405,16.9312663 22.5121405,19.8132238 L22.5121405,22.2786702 C21.1374673,22.7026522 19.8206948,23.2555099 18.5730295,23.9241688 L16.8210684,22.1722077 C14.7814718,20.1326111 11.4774001,20.1326111 9.44153904,22.1722077 L7.56630557,24.0437056 C5.53044453,26.0795667 5.53044453,29.3836384 7.56630557,31.4194994 L9.31826672,33.1714606 C8.65707882,34.4228614 8.10235338,35.7396339 7.67650355,37.1143071 L5.21666044,37.1143071 C2.33470303,37.1143071 0,39.4508778 0,42.3290997 L0,44.9813224 C0,47.8595443 2.33470303,50.1979828 5.21666044,50.1979828 L7.68023907,50.1979828 C8.10608891,51.5707882 8.65707882,52.8875607 9.32200224,54.135226 L7.56817333,55.8890549 C5.53231229,57.9286515 5.53231229,61.2271199 7.56817333,63.2685842 L9.4434068,65.1438177 C10.4202465,66.1187897 11.7482256,66.6697796 13.1322376,66.6697796 L13.1322376,66.6697796 C14.5143818,66.6697796 15.8423609,66.1187897 16.8229361,65.1438177 L18.5748973,63.3918566 C19.8225626,64.0549122 21.1393351,64.6096377 22.5140082,65.0336197 L22.5140082,67.4990661 C22.5140082,70.3810235 24.8487112,72.7157266 27.7306687,72.7157266 L30.3828913,72.7157266 C33.2648487,72.7157266 35.5995517,70.3810235 35.5995517,67.4990661 L35.5995517,65.0336197 C36.9742249,64.6096377 38.2909974,64.0586477 39.5386627,63.3918566 L41.2924916,65.1438177 C42.2655958,66.1187897 43.5935749,66.6697796 44.9813224,66.6697796 C46.3634666,66.6697796 47.6914456,66.1187897 48.6701532,65.1438177 L50.5453866,63.2685842 C52.5812477,61.2308554 52.5812477,57.9286515 50.5416511,55.8927904 L48.78969,54.1408293 C49.4564811,52.8894285 50.0112066,51.572656 50.4351886,50.1998506 L52.900635,50.1998506 C55.7825925,50.1998506 58.1173055,47.861412 58.1173055,44.9831901 L58.1173055,42.3309675 C58.1228988,39.4508778 55.7881957,37.1143071 52.9062383,37.1143071 Z M29.0586477,55.5790064 C22.484124,55.5790064 17.1367202,50.2316025 17.1367202,43.6570788 C17.1367202,37.0806873 22.484124,31.7332835 29.0586477,31.7332835 C35.6350392,31.7332835 40.9843108,37.0825551 40.9843108,43.6570788 C40.9843108,50.2316025 35.636907,55.5790064 29.0586477,55.5790064 Z M67.9790811,8.68135973 L67.0302578,8.68135973 C66.8658947,8.15651849 66.651102,7.64475159 66.3952185,7.16473665 L67.0694808,6.49047441 C67.853941,5.70227867 67.853941,4.43220022 67.0694808,3.64587225 L66.3466567,2.92304819 C65.9675009,2.54389242 65.4519985,2.33470303 64.9196862,2.33470303 L64.9196862,2.33470303 C64.3873739,2.33470303 63.8718715,2.54389242 63.4964513,2.92304819 L62.8184535,3.5935749 C62.3403063,3.33769145 61.8378782,3.12663429 61.3018304,2.9622712 L61.3018304,2.00971236 C61.3036982,0.896525962 60.4034367,0 59.2902503,0 L58.2685842,0 C57.1553978,0 56.2588719,0.896525962 56.2588719,2.00971236 L56.2588719,2.9622712 C55.7302951,3.12663429 55.2185282,3.33769145 54.740381,3.5935749 L54.0679866,2.92304819 C53.2797908,2.13485245 52.0059768,2.13485245 51.2215166,2.92304819 L50.5005603,3.64026896 C49.7123646,4.4284647 49.7123646,5.70227867 50.5005603,6.48860665 L51.1748226,7.16286888 C50.9133358,7.64475159 50.6985431,8.15465073 50.5379156,8.67949197 L49.5853567,8.67949197 C48.4703026,8.67949197 47.5756444,9.58348898 47.5756444,10.6929399 L47.5756444,11.7146059 C47.5756444,12.8277923 48.4703026,13.7280538 49.5853567,13.7280538 L50.5379156,13.7280538 C50.6985431,14.2566306 50.9133358,14.7683975 51.1748226,15.2484124 L50.4968248,15.9226746 C49.7123646,16.7071349 49.7123646,17.9809488 50.4968248,18.765409 L51.2215166,19.4901009 C51.6006724,19.8673889 52.1143071,20.078446 52.6503549,20.078446 L52.6503549,20.078446 C53.1807994,20.078446 53.6944341,19.8673889 54.0735898,19.4901009 L54.7459843,18.8158386 C55.2297348,19.0754576 55.7340306,19.2865148 56.2663429,19.4508778 L56.2663429,20.3997012 C56.2663429,21.5128876 57.1610011,22.413149 58.2741875,22.413149 L59.2958536,22.413149 C60.4109077,22.413149 61.3093015,21.5128876 61.3093015,20.3997012 L61.3093015,19.4546134 C61.8378782,19.2902503 62.3515129,19.0791931 62.8259245,18.8195742 L63.5039223,19.4938364 C63.8830781,19.8711244 64.394845,20.0821815 64.9271573,20.0821815 C65.4594696,20.0821815 65.9712365,19.8711244 66.3503922,19.4938364 L67.0732163,18.7691446 C67.8576765,17.9846843 67.8576765,16.7071349 67.0732163,15.9264102 L66.4026896,15.2521479 C66.6623086,14.7702652 66.8733657,14.2603661 67.0377288,13.7317893 L67.9902876,13.7317893 C69.103474,13.7317893 70,12.8315278 70,11.7183414 L70,10.6948076 C69.992529,9.58722451 69.0922675,8.68135973 67.9790811,8.68135973 Z M58.7822189,15.8068734 C56.2476653,15.8068734 54.1856556,13.7448637 54.1856556,11.2065745 C54.1856556,8.67202092 56.2476653,6.61001121 58.7822189,6.61001121 C61.3167725,6.61001121 63.3825177,8.67202092 63.3825177,11.2065745 C63.3825177,13.7448637 61.3186403,15.8068734 58.7822189,15.8068734 Z" id="Shape"></path>
                    </g>
                </g>
            </g>
        </g>
    </g>
</svg>