<?xml version="1.0" encoding="UTF-8"?>
<svg width="20px" height="20px" viewBox="0 0 20 20" version="1.1" xmlns="http://www.w3.org/2000/svg" xmlns:xlink="http://www.w3.org/1999/xlink">
    <title>arroba</title>
    <g id="Page-1" stroke="none" stroke-width="1" fill="none" fill-rule="evenodd">
        <g id="Homepage-Final" transform="translate(-523.000000, -1152.000000)" fill="#999999" fill-rule="nonzero">
            <g id="COMPANY" transform="translate(0.000000, 715.000000)">
                <g id="content" transform="translate(195.000000, 216.000000)">
                    <g id="txt-info-data" transform="translate(325.000000, 17.000000)">
                        <g id="arroba" transform="translate(3.000000, 204.000000)">
                            <path d="M10.0390625,8.203125 C9.06976563,8.203125 8.28125,8.99164063 8.28125,9.9609375 C8.28125,10.9302344 9.06976563,11.71875 10.0390625,11.71875 C11.0083594,11.71875 11.796875,10.9302344 11.796875,9.9609375 C11.796875,8.99164063 11.0083594,8.203125 10.0390625,8.203125 Z" id="Path"></path>
                            <path d="M9.9609375,0 C4.46835938,0 0,4.46835938 0,9.9609375 C0,15.4535156 4.46835938,20 9.9609375,20 C15.4535156,20 20,15.4535156 20,9.9609375 C20,4.46835937 15.4535156,0 9.9609375,0 Z M14.140625,12.890625 C13.3487109,12.890625 12.6503125,12.4937109 12.2258984,11.8907812 C11.6886719,12.4988672 10.9122656,12.890625 10.0390625,12.890625 C8.42371094,12.890625 7.109375,11.5762891 7.109375,9.9609375 C7.109375,8.34558594 8.42371094,7.03125 10.0390625,7.03125 C10.7010937,7.03125 11.3057031,7.26035156 11.796875,7.63214844 L11.796875,7.6171875 C11.796875,7.29332031 12.0589453,7.03125 12.3828125,7.03125 C12.7066797,7.03125 12.96875,7.29332031 12.96875,7.6171875 C12.96875,8.9203125 12.96875,9.24316406 12.96875,10.546875 C12.96875,11.1928906 13.4946094,11.71875 14.140625,11.71875 C14.7866406,11.71875 15.3125,11.1928906 15.3125,10.546875 C15.3125,6.62535156 12.7175,4.6875 10.0390625,4.6875 C7.13113281,4.6875 4.765625,7.05300781 4.765625,9.9609375 C4.765625,12.8688672 7.13113281,15.234375 10.0390625,15.234375 C11.2109375,15.234375 12.3192969,14.8590234 13.2445703,14.1483203 C13.8626172,13.6765234 14.5703516,14.6078906 13.9586719,15.0775781 C12.8262891,15.9467578 11.4712891,16.40625 10.0390625,16.40625 C6.48511719,16.40625 3.59375,13.5148828 3.59375,9.9609375 C3.59375,6.40699219 6.48511719,3.515625 10.0390625,3.515625 C13.2772266,3.515625 16.484375,5.90371094 16.484375,10.546875 C16.484375,11.8394922 15.4332422,12.890625 14.140625,12.890625 Z" id="Shape"></path>
                        </g>
                    </g>
                </g>
            </g>
        </g>
    </g>
</svg>