<?xml version="1.0" encoding="UTF-8"?>
<svg width="70px" height="60px" viewBox="0 0 70 60" version="1.1" xmlns="http://www.w3.org/2000/svg" xmlns:xlink="http://www.w3.org/1999/xlink">
    <title>danger</title>
    <g id="Page-1" stroke="none" stroke-width="1" fill="none" fill-rule="evenodd">
        <g id="Home-09" transform="translate(-695.000000, -1603.000000)" fill="#003850" fill-rule="nonzero">
            <g id="PHILOSOPHY" transform="translate(0.000000, 1296.000000)">
                <g id="philosophy-points" transform="translate(108.000000, 237.000000)">
                    <g id="ph--2" transform="translate(432.000000, 0.000000)">
                        <g id="oval+icon" transform="translate(90.000000, 0.000000)">
                            <g id="danger" transform="translate(65.000000, 70.000000)">
                                <path d="M69.3840225,53.0060603 L38.6728525,2.07429939 C37.8966992,0.787090797 36.5031233,0 34.9998989,0 C33.4966744,0 32.1030985,0.786954078 31.3269452,2.07429939 L0.616048631,53.0060603 C-0.182663273,54.3307299 -0.206315646,55.9829779 0.5543884,57.329796 C1.31509245,58.6767507 2.74202777,59.5096424 4.28886558,59.5096424 L65.7110689,59.5096424 C67.2579067,59.5096424 68.684842,58.676614 69.445546,57.329796 C70.2062501,55.9828412 70.1827344,54.3307299 69.3840225,53.0060603 Z M35.0228676,17.6178729 C36.7866784,17.6178729 38.2791021,18.6129132 38.2791021,20.3765872 C38.2791021,25.7582538 37.6459568,33.491896 37.6459568,38.8735627 C37.6459568,40.2756152 36.1082791,40.8633698 35.0228676,40.8633698 C33.5758346,40.8633698 32.3546613,40.2754785 32.3546613,38.8735627 C32.3546613,33.491896 31.7216527,25.7582538 31.7216527,20.3765872 C31.7216527,18.6129132 33.1686857,17.6178729 35.0228676,17.6178729 Z M35.0681216,50.948714 C33.0783145,50.948714 31.5857541,49.3206652 31.5857541,47.4664833 C31.5857541,45.5670474 33.0781778,43.9842525 35.0681216,43.9842525 C36.9223035,43.9842525 38.5052351,45.5670474 38.5052351,47.4664833 C38.5052351,49.3206652 36.9223035,50.948714 35.0681216,50.948714 Z" id="Shape"></path>
                            </g>
                        </g>
                    </g>
                </g>
            </g>
        </g>
    </g>
</svg>