<?xml version="1.0" encoding="UTF-8"?>
<svg width="107px" height="90px" viewBox="0 0 107 90" version="1.1" xmlns="http://www.w3.org/2000/svg" xmlns:xlink="http://www.w3.org/1999/xlink">
    <title>mortarboard</title>
    <g id="Page-1" stroke="none" stroke-width="1" fill="none" fill-rule="evenodd">
        <g id="Home-09" transform="translate(-1037.000000, -4709.000000)" fill="#003850" fill-rule="nonzero">
            <g id="CONSULTING" transform="translate(0.000000, 4148.000000)">
                <g id="lower-row" transform="translate(225.000000, 561.000000)">
                    <g id="s--3" transform="translate(740.000000, 0.000000)">
                        <g id="mortarboard" transform="translate(72.000000, 0.000000)">
                            <path d="M104.908294,17.9488348 L54.543052,0.178681668 C53.8682413,-0.0595605561 53.1319893,-0.0595605561 52.4571786,0.178681668 L2.09193642,17.9488348 C0.839701854,18.3906278 0.00167438036,19.5734796 0,20.9013665 C-0.00166937016,22.2292534 0.833641306,23.413986 2.08483095,23.8587049 L52.4500731,41.7638619 C52.7896728,41.8846549 53.1449463,41.9450514 53.5000108,41.9450514 C53.8552843,41.9450514 54.2103488,41.8846549 54.5499485,41.7638619 L104.915191,23.8587049 C106.16638,23.413986 107.001482,22.2292534 107.000021,20.9013665 C106.998347,19.5734796 106.16032,18.3906278 104.908294,17.9488348 Z" id="Path"></path>
                            <path d="M99.4709378,59.7916929 L99.4709378,32.448173 L93.2014056,34.6769917 L93.2014056,59.7916929 C91.3130225,60.8786208 90.0405165,62.9151738 90.0405165,65.2505746 C90.0405165,67.5857663 91.3130225,69.6225284 93.2014056,70.7094563 L93.2014056,86.1149508 C93.2014056,87.8461777 94.6049449,89.249717 96.3361717,89.249717 C98.0673986,89.249717 99.4709378,87.8461777 99.4709378,86.1149508 L99.4709378,70.7096653 C101.359321,69.6229463 102.631827,67.5859753 102.631827,65.2507835 C102.631827,62.9153828 101.35953,60.8786208 99.4709378,59.7916929 Z" id="Path"></path>
                            <path d="M53.5000108,48.2145836 C52.4239501,48.2145836 51.3641901,48.0317223 50.3499888,47.6712242 L22.0361544,37.6054902 L22.0361544,51.400133 C22.0361544,54.7750222 25.5569147,57.6291222 32.5006306,59.8828101 C38.553028,61.8472635 46.0108456,62.9291758 53.5000108,62.9291758 C60.989176,62.9291758 68.4467846,61.8472635 74.499391,59.8828101 C81.4431069,57.6291222 84.9638672,54.7750222 84.9638672,51.400133 L84.9638672,37.6054902 L56.6502417,47.6712242 C55.6358314,48.0317223 54.5760715,48.2145836 53.5000108,48.2145836 L53.5000108,48.2145836 Z" id="Path"></path>
                        </g>
                    </g>
                </g>
            </g>
        </g>
    </g>
</svg>