<?xml version="1.0" encoding="UTF-8"?>
<svg width="61px" height="63px" viewBox="0 0 61 63" version="1.1" xmlns="http://www.w3.org/2000/svg" xmlns:xlink="http://www.w3.org/1999/xlink">
    <title>light-bulb</title>
    <g id="Page-1" stroke="none" stroke-width="1" fill="none" fill-rule="evenodd">
        <g id="Homepage-Final" transform="translate(-801.000000, -3650.000000)" fill="#FFFFFF" fill-rule="nonzero">
            <g id="PORTFOLIOS" transform="translate(0.000000, 3067.000000)">
                <g id="chart-+-center" transform="translate(507.000000, 297.000000)">
                    <g id="light-bulb" transform="translate(294.990030, 286.488877)">
                        <path d="M36.8225354,54.1875634 L36.8225354,55.9993444 C36.8225354,57.4411138 35.7635366,58.6404618 34.3855624,58.8446061 L33.9389966,60.4905199 C33.6965752,61.3836514 32.8927569,62.0088434 31.9613483,62.0088434 L27.5339679,62.0088434 C26.6025594,62.0088434 25.798741,61.3836514 25.5563196,60.4905199 L25.1225129,58.8446061 C23.7317796,58.6277028 22.6727808,57.4411138 22.6727808,55.9865854 L22.6727808,54.1748044 C22.6727808,53.2051187 23.4510811,52.4268184 24.4207667,52.4268184 L35.0745495,52.4268184 C36.0442351,52.4395775 36.8225354,53.2178778 36.8225354,54.1875634 Z M45.0265861,29.7667966 C45.0265861,33.8879605 43.3934314,37.6263538 40.7395549,40.3695433 C38.7236296,42.4620228 37.4222094,45.1286583 36.9884027,47.97392 C36.7970174,49.1987861 35.7380186,50.1046766 34.4876345,50.1046766 L25.0076817,50.1046766 C23.7700566,50.1046766 22.6982989,49.2115451 22.5196726,47.986679 C22.0731068,45.1414173 20.7589276,42.4365048 18.7430023,40.3567843 C16.1401619,37.6518718 14.5197662,33.9772737 14.4814892,29.9326639 C14.392176,21.4351558 21.1544573,14.5580433 29.6519655,14.4942482 C38.1367146,14.4304531 45.0265861,21.2948065 45.0265861,29.7667966 Z M31.4765055,20.5165062 C31.4765055,19.5723386 30.7109642,18.7940383 29.7540376,18.7940383 C23.6807435,18.7940383 18.7302432,23.7317796 18.7302432,29.8178327 C18.7302432,30.7620003 19.4957845,31.5403006 20.4527111,31.5403006 C21.3968787,31.5403006 22.175179,30.7747593 22.175179,29.8178327 C22.175179,25.6328738 25.5818377,22.2389741 29.7540376,22.2389741 C30.7109642,22.2389741 31.4765055,21.4734328 31.4765055,20.5165062 Z M29.7540376,9.47995281 C30.6982052,9.47995281 31.4765055,8.71441153 31.4765055,7.75748494 L31.4765055,1.72246787 C31.4765055,0.778300298 30.7109642,0 29.7540376,0 C28.797111,0 28.0315698,0.765541277 28.0315698,1.72246787 L28.0315698,7.75748494 C28.0315698,8.71441153 28.8098701,9.47995281 29.7540376,9.47995281 Z M9.47995281,29.7540376 C9.47995281,28.8098701 8.71441153,28.0315698 7.75748494,28.0315698 L1.72246787,28.0315698 C0.778300298,28.0315698 0,28.797111 0,29.7540376 C0,30.6982052 0.765541277,31.4765055 1.72246787,31.4765055 L7.75748494,31.4765055 C8.71441153,31.4765055 9.47995281,30.7109642 9.47995281,29.7540376 Z M57.7856074,28.0315698 L51.7505903,28.0315698 C50.8064227,28.0315698 50.0281224,28.797111 50.0281224,29.7540376 C50.0281224,30.6982052 50.7936637,31.4765055 51.7505903,31.4765055 L57.7856074,31.4765055 C58.729775,31.4765055 59.5080753,30.7109642 59.5080753,29.7540376 C59.5080753,28.8098701 58.742534,28.0315698 57.7856074,28.0315698 Z M12.9886837,44.0951775 L8.71441153,48.3694497 C8.03818341,49.0456778 8.03818341,50.1301946 8.71441153,50.8064227 C9.04614609,51.1381573 9.49271183,51.3040246 9.92651856,51.3040246 C10.3603253,51.3040246 10.806891,51.1381573 11.1386256,50.8064227 L15.4128977,46.5321506 C16.0891258,45.8559225 16.0891258,44.7714057 15.4128977,44.0951775 C14.7494286,43.4189494 13.6521528,43.4189494 12.9886837,44.0951775 Z M45.3072846,15.9232586 C45.7410913,15.9232586 46.187657,15.7573913 46.5193916,15.4256567 L50.7936637,11.1513846 C51.4698918,10.4751565 51.4698918,9.39063966 50.7936637,8.71441153 C50.1174356,8.03818341 49.0329188,8.03818341 48.3566907,8.71441153 L44.0824185,12.9886837 C43.4061904,13.6649118 43.4061904,14.7494286 44.0824185,15.4256567 C44.4269121,15.7573913 44.8607188,15.9232586 45.3072846,15.9232586 Z M12.9886837,15.4128977 C13.3204182,15.7446323 13.766984,15.9104995 14.2007907,15.9104995 C14.6345974,15.9104995 15.0811632,15.7446323 15.4128977,15.4128977 C16.0891258,14.7366696 16.0891258,13.6521528 15.4128977,12.9759246 L11.1386256,8.70165251 C10.4623974,8.02542439 9.37788064,8.02542439 8.70165251,8.70165251 C8.02542439,9.37788064 8.02542439,10.4623974 8.70165251,11.1386256 L12.9886837,15.4128977 Z M46.5193916,44.0951775 C45.8431635,43.4189494 44.7586467,43.4189494 44.0824185,44.0951775 C43.4061904,44.7714057 43.4061904,45.8559225 44.0824185,46.5321506 L48.3566907,50.8064227 C48.6884252,51.1381573 49.134991,51.3040246 49.5687977,51.3040246 C50.0026044,51.3040246 50.4491701,51.1381573 50.7809047,50.8064227 C51.4571328,50.1301946 51.4571328,49.0456778 50.7809047,48.3694497 L46.5193916,44.0951775 Z" id="XMLID_49_"></path>
                    </g>
                </g>
            </g>
        </g>
    </g>
</svg>