<?xml version="1.0" encoding="UTF-8"?>
<svg width="1440px" height="320px" viewBox="0 0 1440 320" version="1.1" xmlns="http://www.w3.org/2000/svg" xmlns:xlink="http://www.w3.org/1999/xlink">
    <title>FOOTER</title>
    <g id="Page-1" stroke="none" stroke-width="1" fill="none" fill-rule="evenodd">
        <g id="Home-09" transform="translate(0.000000, -7730.000000)" fill="#003850">
            <g id="FOOTER" transform="translate(-407.000000, 7730.000000)">
                <ellipse id="Oval" cx="1127" cy="214.5" rx="1127" ry="214.5"></ellipse>
                <rect id="Rectangle" x="407" y="312" width="1440" height="226"></rect>
                <path d="M775.320274,406.97034 C782.443816,402.320148 911.799742,377.713292 929.089912,372.615023 C933.025781,371.391804 938.652237,369.645466 942.176468,367.489966 C942.392933,367.390338 942.813211,367.067173 943.013902,366.893284 C943.013902,366.893284 942.82748,367.079857 942.838517,367.089195 C942.576205,367.440961 942.435574,367.788572 942.321837,368.210585 C942.13065,369.051236 942.197064,369.73871 942.514641,370.539974 C942.806912,371.178414 943.137143,371.620887 943.696436,372.036628 C943.906602,372.1803 944.51804,372.439601 944.360101,372.412728 C941.702485,372.145594 937.214458,372.705034 934.541011,373.01008 C919.438376,374.781673 904.53554,377.974015 889.529251,380.362779 C860.151856,385.555714 819.636847,393.942049 790.463292,394.528362 C784.908713,394.414461 779.426037,394.220139 773.899885,393.646509 C771.872658,393.411042 769.941888,393.132758 767.955796,392.650757 C767.072572,392.489551 766.206738,392.083427 765.372509,391.798954 C764.215128,391.285398 763.415625,390.78603 762.492853,389.895508 C761.810347,389.190528 761.385248,388.566444 760.98551,387.664019 C760.527329,386.527661 760.383604,385.584147 760.484688,384.361067 C760.611106,383.280069 760.873334,382.48834 761.405816,381.540059 C761.807142,380.871652 762.192666,380.389568 762.747333,379.84111 C764.428472,378.291548 766.081881,377.514007 768.175439,376.667056 C774.241152,374.298027 781.130838,372.755601 787.484141,371.355426 C829.887224,362.04626 872.658579,354.387039 914.803363,343.92426 C922.440353,341.977244 930.074305,339.978183 937.565144,337.51906 C939.554441,336.856953 941.639276,336.148823 943.53688,335.254399 C943.824442,335.116915 944.374315,334.799187 944.257345,334.873448 C944.014013,335.044187 943.797547,335.257633 943.600061,335.474116 C942.907996,336.262724 942.536686,337.006925 942.233322,338.012184 C942.002671,338.878203 941.942612,339.576632 942.010614,340.47114 C942.106932,341.41942 942.310773,342.130616 942.729462,342.983952 C943.314061,344.072085 943.942889,344.829054 944.966745,345.516416 C945.345998,345.750434 946.346109,346.110645 945.910057,346.026851 C944.028282,345.723562 941.716642,345.718739 939.81352,345.704522 C928.778634,345.805767 917.445902,346.753853 906.45126,347.66411 C867.612764,351.641909 829.035576,360.149867 790.235679,365.293908 C785.371576,365.867537 780.598384,366.336966 775.702649,366.540878 C771.763658,366.654611 768.105875,366.708383 764.30668,365.507269 C762.660323,364.897318 761.554306,364.220911 760.274493,362.99284 C759.269561,361.949866 758.670749,361.006352 758.136706,359.655099 C757.591599,358.109551 757.444641,356.842092 757.627969,355.215202 C757.814363,353.927227 758.12723,352.964674 758.733985,351.820566 C759.168477,351.042941 759.591904,350.447179 760.179708,349.781866 C761.029712,348.857419 761.810319,348.209418 762.834175,347.496632 C767.080459,344.693047 772.236053,342.780068 776.99439,341.028991 C777.789072,340.738302 778.58537,340.444295 779.381808,340.155056 C816.073905,327.680505 859.208544,321.13785 894.023577,306.882869 C896.581642,305.721311 899.915577,304.194746 902.192324,302.544803 C902.968166,301.961724 902.201855,302.582826 901.827368,303.132732 C901.125771,304.239069 900.825613,305.25361 900.661292,306.554185 C900.498587,308.69243 900.928313,310.368492 902.086502,312.173258 C902.892276,313.306383 903.685453,314.074418 904.902057,314.738114 C905.086974,314.902554 905.746543,315.081043 906.013564,315.186943 C906.168437,315.226583 905.203052,315.119065 904.489639,315.112766 C900.79242,315.134871 896.959251,315.646839 893.305454,316.177929 C861.510681,321.207456 832.317282,328.508613 799.908591,330.582129 C795.958509,330.762319 791.994324,330.901391 788.044967,330.610618 C786.267453,330.449412 784.840766,330.229751 783.127939,329.682855 C781.696458,329.186553 780.686815,328.65563 779.465473,327.735922 C778.487463,326.950465 777.822265,326.236146 777.108043,325.197771 C776.211386,323.810279 775.743729,322.621848 775.449813,320.994011 C775.215957,319.386021 775.272867,318.137517 775.661596,316.566686 C775.97909,315.41611 776.358343,314.539025 776.978504,313.526017 C777.765355,312.312247 778.501649,311.488934 779.599778,310.565993 C780.892244,309.524551 782.053527,308.839419 783.522966,308.095134 C786.378069,306.694958 789.271883,305.621794 792.267589,304.564547 C830.207978,291.933557 870.729258,284.256913 907.988675,270.465814 C909.516558,269.900102 910.835806,269.237995 912.291005,268.558354 C913.392311,267.949936 912.142542,268.694221 911.324087,269.70578 C910.758412,270.464253 910.393456,271.147044 910.044218,272.030485 C909.524389,273.463833 909.356919,274.638744 909.421716,276.163804 C909.551256,277.845386 909.919389,279.103395 910.733134,280.579476 C911.355636,281.628807 911.962363,282.376325 912.880369,283.172766 C914.370349,284.342325 915.846059,284.778386 915.522183,284.716697 C909.429604,283.879167 898.441344,284.726314 892.177336,285.124521 C870.700831,286.662933 849.143001,289.39549 827.820588,290.749782 C824.331836,290.900005 821.174178,291.005766 817.740803,290.233075 C816.217658,289.831552 815.113147,289.357439 813.76862,288.508787 C812.56308,287.707608 811.729575,286.92215 810.830549,285.779659 C809.604469,284.116196 808.974024,282.644909 808.605891,280.604648 C808.321479,278.627693 808.433655,277.091512 809.016693,275.187201 C809.446474,273.918878 809.922074,272.964493 810.694683,271.874046 C811.568432,270.704487 812.345026,269.926946 813.496805,269.051422 C817.495882,266.342699 821.844114,264.997829 826.417506,263.577053 C849.647028,256.554766 879.455821,249.777285 901.324874,241.504125 C898.94852,242.532967 897.423787,243.806809 896.004959,245.976609 C894.698307,248.187414 894.214792,250.123447 894.338033,252.692317 C894.57345,255.214579 895.305034,257.039833 896.872409,259.034322 C898.552015,260.971805 900.231538,262.051269 902.702649,262.750534 C894.178478,261.384311 873.755064,264.648544 864.188837,265.713792 C860.862873,266.05672 857.604047,266.355382 854.25601,266.377516 C852.535323,266.367982 851.02642,266.281121 849.320003,265.996564 C848.155459,265.780053 847.191663,265.51303 846.081717,265.08784 C844.240939,264.335638 842.96277,263.515391 841.512282,262.139719 C839.360253,259.930363 838.284253,257.744813 837.819745,254.693078 C837.555873,252.069682 837.859293,250.082358 838.902044,247.676979 C840.134451,245.156334 841.387425,243.661409 843.458882,241.828126 C846.900952,238.94083 850.555502,236.779616 854.45344,234.589244 C854.925863,234.325343 855.396724,234.059854 855.870708,233.802253 C867.228745,227.79211 905.023709,200.986813 915.814511,215.74105 C925.513481,229.720059 878.73374,248.301203 867.32353,254.52861 C866.900103,254.760928 866.38975,255.015462 865.99004,255.268296 C863.833301,256.474093 860.856519,258.123925 858.958942,259.666435 C858.862484,259.750229 859.758334,258.77201 860.418822,257.420757 C861.256284,255.489491 861.455387,253.833331 861.245136,251.734671 C860.847015,249.119861 859.930569,247.215579 858.085918,245.325485 C857.043138,244.336116 856.11404,243.688225 854.791558,243.144619 C854.545077,242.983413 853.830883,242.855379 853.507007,242.765284 C853.061423,242.690939 854.260664,242.78739 854.328611,242.79054 C856.77921,242.795223 859.338056,242.542472 861.77603,242.305305 C877.043013,240.704451 893.29124,237.392745 908.50371,240.250855 C911.167625,241.001607 912.976771,242.147332 914.78745,244.244404 C916.470261,246.381199 917.254687,248.340787 917.507467,251.050374 C917.638706,253.80172 917.121971,255.879892 915.721286,258.252098 C914.213943,260.551465 912.577033,261.93419 910.053722,263.027174 C886.7215,271.483673 857.400207,278.096687 832.996694,285.209932 C831.664737,285.615219 825.080811,288.401437 826.964202,287.108695 C827.777891,286.49236 828.343538,285.875942 828.959769,285.051793 C829.650218,284.073574 830.065786,283.23281 830.449721,282.093302 C830.996389,280.30607 831.09594,278.858422 830.832068,277.006267 C830.484503,275.090751 829.895083,273.696095 828.743304,272.134797 C827.939063,271.110638 827.194853,270.402592 826.117236,269.680524 C825.194604,269.100428 824.377626,268.700688 823.326123,268.425665 C821.379579,267.994286 825.957681,268.348254 826.817216,268.316531 C847.848946,267.302074 869.548216,264.615456 890.80271,263.262585 C899.618456,262.755301 910.824742,262.005413 919.506239,263.409491 C922.495647,264.000654 924.43436,264.737022 926.884931,266.658839 C928.013076,267.638591 928.756449,268.529949 929.521199,269.822607 C930.453419,271.510573 930.876846,272.943921 931.025392,274.869584 C931.099638,276.653861 930.897386,278.014453 930.285948,279.689679 C929.821385,280.87181 929.32689,281.756812 928.573205,282.77297 C926.709545,285.069271 925.037854,286.233199 922.48461,287.615952 C920.280409,288.766527 918.082562,289.679935 915.763871,290.574443 C877.788812,304.126813 837.39629,311.653346 798.944767,323.863996 C796.840229,324.589381 794.571258,325.371688 792.559916,326.321502 C791.997474,326.596441 792.041703,326.63438 792.537759,326.234474 C793.231413,325.646628 793.700686,325.06196 794.199975,324.295374 C794.726103,323.435655 795.037354,322.697754 795.305991,321.719451 C795.655173,320.30269 795.704168,319.17422 795.492413,317.7283 C795.225392,316.253863 794.809824,315.180699 793.996163,313.92584 C793.394117,313.050455 792.825349,312.424531 791.997446,311.762424 C791.232668,311.184028 790.545341,310.771438 789.641577,310.461793 C788.873678,310.215175 789.159678,310.351209 789.824877,310.415937 C792.755869,310.679921 796.083366,310.545588 799.023778,310.435004 C830.332752,308.749408 859.673024,301.713685 890.5625,297.161393 C895.320753,296.511886 899.937594,295.992029 904.74724,296.037773 C906.753036,296.080563 908.456276,296.217963 910.418678,296.665175 C911.643169,296.968715 912.605405,297.312312 913.736727,297.889259 C915.503176,298.848522 916.647123,299.85523 917.821867,301.501856 C919.262852,303.741234 919.779503,305.780045 919.574102,308.434913 C919.334003,310.379615 918.833098,311.776724 917.794973,313.42335 C916.473355,315.36415 915.195047,316.53198 913.325897,317.902134 C909.65705,320.452801 905.740188,322.301109 901.666113,324.110641 C865.248924,338.386724 822.980035,344.522503 785.28936,356.622653 C784.537235,356.919642 783.67299,357.204199 782.898792,357.466455 C779.944166,358.528469 775.271223,360.164195 772.589917,361.793566 C772.455668,361.880427 773.000775,361.382592 773.041799,361.336904 C773.39413,360.938614 773.646938,360.562513 773.906044,360.096234 C774.384793,359.197043 774.617089,358.429036 774.764047,357.420683 C774.917303,356.03149 774.79083,354.94344 774.323229,353.625526 C773.887093,352.509656 773.39413,351.716366 772.564611,350.856647 C771.828317,350.1486 771.122038,349.622277 770.163007,349.268393 C769.110696,348.949215 773.765469,349.413682 775.182792,349.385276 C779.582332,349.265159 783.916378,348.876459 788.291448,348.40544 C827.376481,343.812227 865.985163,335.586456 905.221976,332.206789 C916.666075,331.369176 928.462561,330.51899 939.939826,330.65954 C942.934779,330.708546 945.887872,330.805108 948.83305,331.375504 C950.484118,331.723199 951.63913,332.108805 953.098341,333.008777 C954.436597,333.906518 955.253436,334.808943 956.024484,336.239057 C956.504822,337.222127 956.743444,338.04229 956.854003,339.135859 C956.933014,340.174234 956.858769,340.991247 956.593308,341.997955 C956.174591,343.377614 955.645286,344.329742 954.698853,345.407561 C954.136411,346.023896 953.616526,346.477492 952.940319,346.965709 C951.90852,347.681756 950.947121,348.192162 949.812621,348.721469 C947.284627,349.853061 944.734505,350.71763 942.10055,351.56146 C934.240713,353.98571 926.254486,355.980951 918.262685,357.920051 C875.857986,367.684428 832.770753,375.135724 790.052379,383.502993 C784.425114,384.673973 777.997594,385.992054 772.582085,387.932687 C771.897936,388.198204 770.456923,389.102162 771.111029,388.484294 C771.385994,388.212421 771.583507,387.938987 771.782554,387.605592 C772.16649,386.925979 772.343519,386.341366 772.436688,385.562125 C772.510989,384.617078 772.401935,383.877477 772.046426,382.998858 C771.774695,382.385589 771.490283,381.939994 771.02572,381.461199 C770.820319,381.26197 770.450597,380.933258 770.178865,380.824264 C770.308405,380.904741 770.802928,381.042308 770.957773,381.086547 C772.384572,381.464265 773.850834,381.680777 775.312359,381.872089 C780.448221,382.518362 785.595928,382.766596 790.765012,382.952919 C818.200545,383.20277 859.990601,375.228969 887.934955,370.81338 C903.002836,368.439752 918.433388,365.880332 933.607147,364.391594 C937.354978,364.028093 942.147985,363.525659 945.862594,364.140294 C946.929119,364.348889 947.673301,364.608106 948.586569,365.230797 C949.349702,365.794892 949.817415,366.375072 950.210882,367.244157 C950.61689,368.265946 950.686454,369.130348 950.444654,370.200167 C950.250318,370.933469 949.994333,371.453521 949.550366,372.060322 C949.416061,372.347945 948.801446,372.864652 948.567618,373.112886 C948.073039,373.648576 947.068162,374.1812 946.45508,374.598306 C941.950415,377.090601 936.269501,378.770567 931.342942,380.212612 C925.338041,381.802483 895.071094,389.018423 862.722463,396.423278 L862.722463,507.815112 C927.485332,491.619416 999.797595,481.235748 1076.53454,478.15714 L1076.53454,373.117597 C1032.59089,383.052547 990.32136,392.111917 984.322841,391.808572 C993.293404,385.952498 1156.22399,345.481739 1177.99834,339.061654 C1182.95483,337.520677 1190.04367,335.320939 1194.48025,332.607448 C1194.7553,332.481032 1195.28449,332.072539 1195.53574,331.85586 C1195.53574,331.85586 1195.30041,332.088177 1195.31289,332.100861 C1194.98595,332.54732 1194.80887,332.981933 1194.66361,333.514556 C1194.42496,334.573336 1194.51035,335.439439 1194.90686,336.447624 C1195.27513,337.252038 1195.69053,337.808411 1196.39681,338.334652 C1196.66074,338.516458 1197.43265,338.838786 1197.23031,338.804081 C1193.88623,338.472135 1188.23291,339.176948 1184.86355,339.559432 C1165.84548,341.791005 1147.07327,345.815329 1128.17384,348.817975 C1091.17121,355.359125 1040.14274,365.924682 1003.39529,366.662667 C996.404436,366.515678 989.495046,366.273799 982.534207,365.551648 C979.980824,365.252958 977.550821,364.905374 975.048858,364.298405 C973.934899,364.093044 972.846273,363.582637 971.793962,363.223792 C970.335614,362.577518 969.329121,361.946883 968.169428,360.82948 C967.308276,359.938289 966.772617,359.152748 966.270262,358.016557 C965.691962,356.587892 965.511811,355.395531 965.638201,353.856283 C965.799373,352.495495 966.128014,351.495254 966.799511,350.306629 C967.306715,349.46121 967.791818,348.854297 968.486977,348.162084 C970.604141,346.21203 972.688251,345.232166 975.324519,344.166919 C982.96555,341.179325 991.642281,339.238637 999.644338,337.476466 C1053.05223,325.752584 1106.92247,316.102051 1160.00495,302.928988 C1169.62494,300.471565 1179.24016,297.957136 1188.67373,294.855642 C1191.17962,294.02603 1193.80569,293.131605 1196.19464,292.006285 C1196.55968,291.832396 1197.25083,291.43104 1197.10239,291.524284 C1196.79501,291.739263 1196.5249,292.009435 1196.27365,292.284486 C1195.40467,293.275305 1194.93545,294.214136 1194.54982,295.481594 C1194.26387,296.570397 1194.18639,297.44988 1194.2734,298.578238 C1194.39656,299.769902 1194.65104,300.66756 1195.17717,301.742174 C1195.91661,303.113944 1196.7082,304.062029 1197.99512,304.929665 C1198.47702,305.226905 1199.73632,305.6788 1199.1833,305.574489 C1196.81553,305.195154 1193.90206,305.182582 1191.50665,305.168282 C1177.60649,305.294699 1163.33482,306.489513 1149.48597,307.635238 C1100.56833,312.647398 1051.98108,323.361506 1003.11082,329.840966 C996.982736,330.563118 990.972345,331.152664 984.804739,331.410265 C979.844959,331.55717 975.239265,331.622093 970.454117,330.111251 C968.378006,329.341626 966.982839,328.492863 965.375945,326.942631 C964.108757,325.627784 963.351115,324.44097 962.68115,322.737171 C961.993851,320.790238 961.810607,319.196465 962.041258,317.146698 C962.273581,315.525244 962.668525,314.316325 963.433219,312.87021 C963.980779,311.891991 964.517971,311.139789 965.255854,310.303737 C966.323995,309.139028 967.308276,308.322712 968.597509,307.423605 C973.946019,303.891485 980.442266,301.482984 986.430557,299.278284 C987.433064,298.910184 988.437969,298.541916 989.441312,298.176882 C1035.65217,282.466448 1089.98145,274.223366 1133.83349,256.271938 C1137.05357,254.810101 1141.25404,252.888424 1144.12182,250.807018 C1145.09822,250.071319 1144.13442,250.856024 1143.66203,251.54977 C1142.78343,252.943646 1142.3996,254.217572 1142.19735,255.856365 C1141.99033,258.550788 1142.52914,260.660626 1143.98913,262.933957 C1145.00491,264.361005 1145.99883,265.329886 1147.53463,266.164154 C1147.7669,266.372832 1148.59803,266.598766 1148.93297,266.72995 C1149.13199,266.782189 1147.91388,266.647772 1147.01318,266.635172 C1142.35682,266.663661 1137.53073,267.308429 1132.93128,267.978509 C1092.88312,274.313349 1056.11433,283.509534 1015.29372,286.124176 C1010.31979,286.348605 1005.32603,286.523999 1000.35218,286.155732 C998.112498,285.955137 996.315949,285.68003 994.15765,284.988654 C992.353186,284.362869 991.082932,283.694323 989.545602,282.535998 C988.313195,281.549862 987.475761,280.647438 986.577459,279.340507 C985.447753,277.592663 984.858389,276.09601 984.490311,274.044626 C984.194807,272.02268 984.265931,270.446998 984.755772,268.468427 C985.155426,267.019162 985.631053,265.916143 986.414754,264.637617 C987.403104,263.110941 988.330475,262.070196 989.714605,260.908638 C991.343683,259.597024 992.803619,258.735772 994.655378,257.798558 C998.251541,256.034881 1001.90054,254.683628 1005.66886,253.352947 C1053.45677,237.443424 1104.49391,227.776388 1151.42552,210.403411 C1153.34837,209.692299 1155.00741,208.857863 1156.84011,208.001378 C1158.22747,207.233203 1156.657,208.175184 1155.62515,209.444176 C1154.90942,210.401822 1154.44957,211.261541 1154.01195,212.374178 C1153.35629,214.178943 1153.14459,215.658899 1153.22505,217.580744 C1153.38945,219.698388 1153.85401,221.28352 1154.88102,223.141974 C1155.66154,224.463122 1156.42624,225.406719 1157.5844,226.408577 C1159.45987,227.883961 1161.31793,228.430774 1160.9119,228.356345 C1153.23926,227.299182 1139.39746,228.362729 1131.50928,228.868397 C1104.46083,230.804346 1077.30249,234.244838 1050.44846,235.953209 C1046.05595,236.139782 1042.07983,236.274004 1037.75521,235.300552 C1035.83559,234.794884 1034.44677,234.199066 1032.75056,233.130752 C1031.23221,232.116127 1030.18302,231.131608 1029.05172,229.693326 C1027.5065,227.596255 1026.7133,225.740198 1026.2472,223.173613 C1025.89161,220.684551 1026.03542,218.750135 1026.76388,216.349691 C1027.30737,214.751123 1027.90613,213.548503 1028.87946,212.179799 C1029.98079,210.703746 1030.95719,209.725527 1032.40921,208.620807 C1037.44404,205.210504 1042.92198,203.517019 1048.68037,201.728059 C1077.93923,192.881243 1115.48543,184.344963 1143.02999,173.924695 C1140.03744,175.217437 1138.11363,176.829497 1136.3267,179.557204 C1134.68349,182.344119 1134.07359,184.782642 1134.22676,188.016072 C1134.5224,191.195758 1135.44827,193.492727 1137.42157,196.000772 C1139.53656,198.448745 1141.6569,199.801532 1144.76489,200.686618 C1134.02782,198.963947 1108.30186,203.076079 1096.25652,204.41543 C1092.06787,204.853276 1087.96205,205.226143 1083.74509,205.253127 C1081.57729,205.243677 1079.67578,205.134626 1077.53008,204.772659 C1076.06064,204.502402 1074.84863,204.169007 1073.45037,203.63092 C1071.12931,202.681106 1069.52412,201.649031 1067.69362,199.91376 C1064.9854,197.135626 1063.62813,194.382496 1063.04194,190.536801 C1062.70862,187.235381 1063.09264,184.730486 1064.40721,181.702584 C1065.95864,178.525296 1067.53875,176.641502 1070.14509,174.335752 C1074.48061,170.697732 1079.08321,167.976994 1083.99472,165.217843 C1084.58882,164.884281 1085.18451,164.552503 1085.78004,164.22209 C1100.08333,156.654496 1147.6895,122.894929 1161.27852,141.479223 C1173.4944,159.084433 1114.57615,182.487958 1100.20181,190.329656 C1099.67092,190.625195 1099.02631,190.941391 1098.52697,191.260486 C1095.80938,192.783231 1092.05672,194.858197 1089.66853,196.80053 C1089.54537,196.90788 1090.67494,195.673761 1091.50301,193.973307 C1092.56242,191.54022 1092.8152,189.454103 1092.54974,186.808686 C1092.04572,183.51995 1090.89157,181.117749 1088.57193,178.73534 C1087.25736,177.491604 1086.08672,176.672974 1084.41976,175.991912 C1084.10848,175.789617 1083.21099,175.626794 1082.80495,175.514677 C1082.24234,175.421349 1083.7498,175.5447 1083.83664,175.546149 C1086.92081,175.552616 1090.14563,175.236588 1093.21491,174.933048 C1112.44622,172.91807 1132.9091,168.746646 1152.06853,172.347591 C1155.42604,173.294171 1157.70443,174.735436 1159.98603,177.376365 C1162.10715,180.067638 1163.09469,182.536908 1163.41065,185.948995 C1163.57812,189.414687 1162.92876,192.031782 1161.15991,195.019459 C1159.26392,197.916261 1157.202,199.656215 1154.02617,201.034369 C1124.63367,211.683637 1087.70445,220.016033 1056.96832,228.976053 C1055.2927,229.484871 1046.99917,232.994774 1049.37079,231.367131 C1050.39626,230.589507 1051.10876,229.811966 1051.8846,228.773758 C1052.75196,227.542622 1053.27656,226.482977 1053.76169,225.048013 C1054.44899,222.797568 1054.57546,220.975352 1054.24036,218.63958 C1053.80439,216.229629 1053.06333,214.472922 1051.61122,212.5038 C1050.59843,211.217442 1049.65988,210.324467 1048.3027,209.414293 C1047.14139,208.684141 1046.11124,208.180006 1044.78946,207.833928 C1042.33724,207.290154 1048.1036,207.737449 1049.18587,207.696361 C1075.67188,206.419452 1103.00636,203.033485 1129.77429,201.328264 C1140.87947,200.691329 1154.99456,199.747899 1165.92758,201.514837 C1169.69283,202.259122 1172.13554,203.186718 1175.22361,205.608767 C1176.64406,206.842969 1177.57956,207.966673 1178.54183,209.594399 C1179.71732,211.72166 1180.25137,213.524809 1180.4362,215.948306 C1180.53257,218.197051 1180.27503,219.908683 1179.50548,222.023093 C1178.921,223.510297 1178.30003,224.626 1177.3473,225.902992 C1175.00411,228.797341 1172.89558,230.262412 1169.68018,232.003983 C1166.90256,233.453248 1164.13742,234.602039 1161.21529,235.728864 C1113.38477,252.801451 1062.50631,262.278206 1014.08019,277.662242 C1011.43199,278.572583 1008.57137,279.558719 1006.03858,280.756516 C1005.33077,281.102678 1005.38445,281.150039 1006.00703,280.645932 C1006.8824,279.906414 1007.47486,279.168262 1008.10366,278.20281 C1008.76579,277.117046 1009.15761,276.189366 1009.49732,274.958229 C1009.93644,273.1732 1009.99811,271.752452 1009.73103,269.930403 C1009.39609,268.076632 1008.8715,266.723761 1007.84934,265.143313 C1007.08922,264.040294 1006.37361,263.250153 1005.32915,262.417306 C1004.36533,261.687907 1003.49791,261.169584 1002.36185,260.776032 C1001.39175,260.469538 1001.75671,260.636932 1002.59097,260.720643 C1006.2835,261.052672 1010.47597,260.885083 1014.17965,260.745982 C1053.61144,258.621955 1090.56429,249.760169 1129.47564,244.029676 C1135.46544,243.20943 1141.28241,242.553706 1147.33862,242.613667 C1149.86653,242.669057 1152.00986,242.839601 1154.48276,243.403892 C1156.02636,243.784843 1157.23828,244.217755 1158.66188,244.944673 C1160.88659,246.152171 1162.33145,247.418013 1163.80872,249.493035 C1165.61956,252.314823 1166.272,254.884446 1166.01607,258.225337 C1165.71259,260.674927 1165.07914,262.43615 1163.77087,264.512705 C1162.11022,266.954406 1160.49772,268.422543 1158.14366,270.148364 C1153.52203,273.364456 1148.59001,275.692981 1143.46119,277.971942 C1097.59308,295.950884 1044.35343,303.678067 996.886251,318.918403 C995.935107,319.294504 994.844921,319.651705 993.871565,319.983483 C990.14748,321.319768 984.265819,323.38205 980.88771,325.4302 C980.718596,325.544017 981.402746,324.916643 981.454918,324.858188 C981.898941,324.353969 982.216463,323.883035 982.546721,323.295106 C983.14545,322.16198 983.437861,321.194884 983.624282,319.921822 C983.818675,318.175679 983.657503,316.803742 983.071316,315.142899 C982.519882,313.737873 981.898913,312.740782 980.852901,311.656635 C979.92698,310.763744 979.03584,310.103003 977.827123,309.659024 C976.503081,309.252901 982.364954,309.839214 984.15041,309.804397 C989.69242,309.654174 995.151406,309.16434 1000.66482,308.570975 C1049.88892,302.78526 1098.52215,292.421914 1147.93431,288.169148 C1162.35202,287.111901 1177.20967,286.040437 1191.66771,286.22071 C1195.43619,286.280671 1199.15791,286.403938 1202.86772,287.119818 C1204.94707,287.557664 1206.4007,288.044376 1208.2351,289.177501 C1209.92337,290.310626 1210.95353,291.445396 1211.9268,293.245311 C1212.53041,294.484364 1212.82903,295.517889 1212.96802,296.892865 C1213.06924,298.202109 1212.97763,299.232651 1212.63938,300.496793 C1212.1118,302.238364 1211.44499,303.436384 1210.25843,304.793854 C1209.54423,305.569861 1208.8901,306.138724 1208.04068,306.756592 C1206.73734,307.659016 1205.53002,308.299185 1204.09851,308.966812 C1200.91808,310.392326 1197.70583,311.482773 1194.38547,312.54317 C1184.48737,315.599589 1174.42885,318.110757 1164.36495,320.552457 C1110.95145,332.852338 1056.68307,342.236628 1002.88003,352.773696 C995.791187,354.24975 987.698386,355.909979 980.875057,358.35628 C980.013989,358.691291 978.201666,359.826117 979.023271,359.051726 C979.369275,358.708797 979.620494,358.36258 979.870209,357.94224 C980.352107,357.088821 980.573282,356.349219 980.691757,355.371753 C980.786543,354.178639 980.649116,353.249425 980.201888,352.138406 C979.860705,351.368782 979.498842,350.804491 978.914272,350.202373 C978.656642,349.954389 978.192191,349.540182 977.847663,349.40281 C978.01204,349.500822 978.637719,349.67775 978.828878,349.729989 C980.62696,350.208757 982.47242,350.479041 984.314786,350.720808 C990.784056,351.534755 997.266897,351.849278 1003.77585,352.083044 C1038.33348,352.39609 1090.97027,342.35354 1126.1647,336.792253 C1145.14239,333.799057 1164.57509,330.580763 1183.68945,328.701653 C1188.41128,328.248057 1194.44377,327.615972 1199.12786,328.387158 C1200.46615,328.649525 1201.40937,328.97662 1202.55324,329.760461 C1203.51706,330.47319 1204.10484,331.203426 1204.60265,332.299393 C1205.1161,333.584218 1205.20294,334.67302 1204.89489,336.022657 C1204.64995,336.940915 1204.33084,337.601573 1203.77151,338.36473 C1203.60081,338.726697 1202.8282,339.374671 1202.53281,339.692344 C1201.90861,340.362452 1200.6415,341.034064 1199.87204,341.560221 C1194.19737,344.701271 1187.0461,346.818915 1180.83594,348.628447 C1173.27141,350.633975 1135.15095,359.721861 1094.40936,369.051459 L1094.40936,477.575846 C1104.41958,477.324461 1114.49535,477.190211 1124.63996,477.190211 C1206.18098,477.190211 1283.63618,485.413529 1353.49545,500.189146 L1353.49545,339.693878 C1298.15118,352.208068 1244.90905,363.620493 1237.35573,363.236503 C1248.65524,355.862618 1453.86583,304.88721 1481.29189,296.799648 C1487.53285,294.859015 1496.46247,292.091781 1502.05175,288.671861 C1502.39469,288.512272 1503.06607,288.00022 1503.37908,287.725281 C1503.37908,287.725281 1503.08513,288.020737 1503.1025,288.036543 C1502.6917,288.594422 1502.46581,289.142879 1502.28404,289.812903 C1501.98388,291.146734 1502.08817,292.240303 1502.59047,293.510912 C1503.05359,294.520854 1503.5764,295.220983 1504.46603,295.886324 C1504.79944,296.115407 1505.768,296.521531 1505.51675,296.477236 C1501.30277,296.06013 1494.18408,296.945048 1489.94167,297.427969 C1465.9853,300.237771 1442.34172,305.307522 1418.53487,309.090162 C1371.93361,317.331766 1307.65894,330.632863 1261.37528,331.563693 C1252.56898,331.378849 1243.86942,331.075309 1235.10259,330.166668 C1231.88328,329.790567 1228.82428,329.351188 1225.67056,328.586303 C1224.2723,328.330319 1222.90073,327.685495 1221.57683,327.233432 C1219.73681,326.419653 1218.4697,325.626195 1217.00818,324.215064 C1215.92426,323.097745 1215.25118,322.106758 1214.61753,320.674944 C1213.88923,318.872548 1213.6617,317.372855 1213.82117,315.435373 C1214.02342,313.720618 1214.43584,312.459431 1215.28431,310.964422 C1215.9227,309.899258 1216.53255,309.135934 1217.40942,308.265985 C1220.07657,305.808562 1222.70333,304.574192 1226.0213,303.230939 C1235.64443,299.468119 1246.57592,297.025749 1256.65248,294.802093 C1323.92132,280.039159 1391.76749,267.885348 1458.62793,251.290748 C1470.74436,248.197171 1482.85444,245.028552 1494.73861,241.125014 C1497.89387,240.0773 1501.20172,238.952064 1504.21325,237.532069 C1504.66675,237.314108 1505.54042,236.806684 1505.35405,236.926884 C1504.9668,237.197057 1504.6272,237.536919 1504.30951,237.884531 C1503.21473,239.135487 1502.62531,240.314301 1502.14171,241.910471 C1501.7799,243.283942 1501.68038,244.390111 1501.78952,245.809326 C1501.94746,247.310635 1502.26504,248.440555 1502.93023,249.794958 C1503.86078,251.521448 1504.8547,252.721029 1506.48058,253.80986 C1507.08257,254.184427 1508.66889,254.756523 1507.9753,254.623806 C1504.99227,254.144872 1501.3249,254.132188 1498.3047,254.113288 C1480.79884,254.272877 1462.82129,255.77572 1445.377,257.220302 C1383.76956,263.532953 1322.56877,277.030017 1261.01654,285.186321 C1253.30062,286.097415 1245.7291,286.843401 1237.96248,287.165813 C1231.71261,287.350574 1225.91392,287.432752 1219.88371,285.526072 C1217.2721,284.56062 1215.51499,283.487373 1213.48949,281.535673 C1211.89366,279.881131 1210.94252,278.386038 1210.0972,276.24141 C1209.23128,273.789507 1209.00063,271.78253 1209.28972,269.198523 C1209.58205,267.15369 1210.0814,265.631697 1211.04511,263.811182 C1211.73249,262.581579 1212.40714,261.632629 1213.3393,260.580037 C1214.68558,259.110284 1215.92276,258.084676 1217.54843,256.954756 C1224.28336,252.504462 1232.46395,249.470957 1240.0102,246.694245 C1241.27262,246.232816 1242.53504,245.768098 1243.79986,245.306585 C1302.00402,225.517358 1370.43407,215.135196 1425.66463,192.527331 C1429.7205,190.685296 1435.00965,188.264279 1438.62326,185.64395 C1439.85252,184.71797 1438.64224,185.704106 1438.04337,186.578013 C1436.93582,188.33224 1436.45392,189.937777 1436.19944,192.000143 C1435.93883,195.39556 1436.61816,198.052211 1438.45579,200.917374 C1439.73711,202.714223 1440.98847,203.935157 1442.92325,204.986104 C1443.21558,205.250005 1444.26162,205.532861 1444.68493,205.697133 C1444.93465,205.765094 1443.40208,205.59455 1442.26597,205.580333 C1436.4017,205.615039 1430.32336,206.427369 1424.52706,207.269665 C1374.08631,215.24578 1327.77899,226.832262 1276.36259,230.1249 C1270.09783,230.409373 1263.80531,230.628951 1257.54378,230.165989 C1254.72413,229.913155 1252.45834,229.563871 1249.74066,228.696235 C1247.47027,227.907628 1245.86814,227.066028 1243.93263,225.604191 C1242.38017,224.360455 1241.32476,223.225797 1240.19503,221.580704 C1238.7699,219.379181 1238.02876,217.493855 1237.56436,214.909067 C1237.19132,212.36325 1237.2831,210.381362 1237.90084,207.887533 C1238.40333,206.063868 1239.00209,204.671609 1239.98801,203.061918 C1241.23633,201.137119 1242.40068,199.831638 1244.14425,198.366707 C1246.19519,196.716847 1248.03597,195.629578 1250.37124,194.448952 C1254.89952,192.226913 1259.49189,190.525678 1264.23986,188.84733 C1324.42844,168.811569 1388.71025,156.632474 1447.81979,134.754678 C1450.24353,133.85702 1452.33385,132.808442 1454.64318,131.730511 C1456.39226,130.760376 1454.41091,131.945657 1453.10978,133.548128 C1452.20908,134.753061 1451.63404,135.834058 1451.08102,137.239 C1450.25465,139.511578 1449.98921,141.373322 1450.09024,143.791189 C1450.29726,146.461304 1450.88506,148.458748 1452.17273,150.797754 C1453.15874,152.463503 1454.12162,153.650233 1455.58011,154.91457 C1457.94225,156.769958 1460.28382,157.458185 1459.77352,157.363407 C1450.10599,156.035123 1432.67293,157.37609 1422.7369,158.00968 C1388.66602,160.448315 1354.46724,164.783231 1320.64276,166.932542 C1315.108,167.169626 1310.10011,167.338581 1304.65373,166.113912 C1302.23476,165.476977 1300.48328,164.723103 1298.34864,163.379766 C1296.43676,162.102857 1295.11582,160.860738 1293.68913,159.0497 C1291.74568,156.406568 1290.74718,154.072329 1290.16005,150.838871 C1289.71293,147.701891 1289.89002,145.265654 1290.81343,142.242519 C1291.49443,140.229075 1292.24809,138.718232 1293.47428,136.990961 C1294.86147,135.13404 1296.09235,133.901287 1297.92201,132.508275 C1304.26349,128.211214 1311.1619,126.079353 1318.4149,123.828965 C1355.26672,112.684928 1402.5552,101.932881 1437.24855,88.8103569 C1433.47862,90.4381667 1431.06127,92.4642107 1428.80738,95.9015528 C1426.73754,99.4106195 1425.96646,102.484461 1426.16241,106.555588 C1426.53528,110.562489 1427.69821,113.456141 1430.18512,116.616843 C1432.84829,119.696984 1435.5185,121.402205 1439.43377,122.515539 C1425.91117,120.349725 1393.51039,125.524652 1378.33657,127.214067 C1373.06078,127.760908 1367.8886,128.234909 1362.57972,128.266548 C1359.84555,128.253948 1357.45336,128.116492 1354.74998,127.662896 C1352.90137,127.318267 1351.37188,126.899489 1349.61011,126.224698 C1346.68951,125.031584 1344.66543,123.727803 1342.36179,121.544372 C1338.9489,118.040825 1337.2409,114.57661 1336.50229,109.730479 C1336.08349,105.572407 1336.56377,102.418172 1338.22214,98.6039484 C1340.17654,94.5992772 1342.16431,92.2303045 1345.44749,89.3256697 C1350.90896,84.7402053 1356.706,81.3155467 1362.89415,77.8387881 C1363.64304,77.421431 1364.3904,77.002708 1365.14258,76.5887517 C1383.15561,67.0568029 1443.11753,24.5321789 1460.23165,47.940638 C1475.62023,70.1160929 1401.41128,99.5938753 1383.30734,109.471234 C1382.6389,109.842651 1381.8253,110.242475 1381.19329,110.644611 C1377.77249,112.561661 1373.04826,115.177168 1370.04057,117.620374 C1369.88425,117.754791 1371.30785,116.202776 1372.35135,114.059848 C1373.6866,110.997157 1374.00102,108.366598 1373.66592,105.036689 C1373.03558,100.894534 1371.57949,97.870535 1368.65653,94.8679724 C1367.00387,93.3016567 1365.52652,92.2728152 1363.42828,91.4148804 C1363.03634,91.1571125 1361.90508,90.9532843 1361.39316,90.8126786 C1360.68527,90.6940948 1362.58457,90.8474677 1362.6936,90.8490844 C1366.57869,90.8585344 1370.64103,90.4586833 1374.50505,90.0778435 C1398.72986,87.5413929 1424.50176,82.2905042 1448.63496,86.8199103 C1452.85839,88.0138605 1455.73334,89.8296928 1458.60418,93.1546674 C1461.2744,96.5478542 1462.51949,99.657265 1462.91922,103.95427 C1463.12624,108.316003 1462.30779,111.616642 1460.08622,115.377762 C1457.69565,119.026849 1455.09969,121.21895 1451.09832,122.95489 C1414.07912,136.36972 1367.56478,146.8611 1328.8534,158.145659 C1326.74086,158.788866 1316.29765,163.209138 1319.28394,161.157755 C1320.57629,160.176302 1321.47064,159.2014 1322.45035,157.894386 C1323.54368,156.34159 1324.20403,155.006253 1324.81394,153.199871 C1325.67907,150.363114 1325.84178,148.070047 1325.41832,145.128226 C1324.86923,142.090707 1323.93068,139.881351 1322.10273,137.400262 C1320.82924,135.777108 1319.64736,134.655217 1317.93763,133.510077 C1316.47465,132.590369 1315.18057,131.951845 1313.51133,131.515784 C1310.42547,130.831404 1317.68646,131.39405 1319.05323,131.345044 C1352.41145,129.734573 1386.83937,125.474002 1420.55318,123.326307 C1434.54043,122.523511 1452.31649,121.335749 1466.08951,123.558541 C1470.83115,124.495755 1473.90913,125.66523 1477.79675,128.715321 C1479.58837,130.270319 1480.76568,131.686412 1481.97749,133.733028 C1483.45484,136.410865 1484.12787,138.684976 1484.3649,141.735095 C1484.4833,144.571936 1484.1595,146.728299 1483.19086,149.388017 C1482.4515,151.262277 1481.67251,152.667303 1480.47173,154.276157 C1477.51864,157.921258 1474.86339,159.767113 1470.81543,161.960551 C1467.3157,163.784384 1463.83096,165.233454 1460.15422,166.65278 C1399.91171,188.153528 1335.82909,200.090772 1274.83454,219.466043 C1271.49606,220.615001 1267.89828,221.854054 1264.70269,223.36328 C1263.81476,223.800959 1263.881,223.859498 1264.66799,223.22418 C1265.76916,222.290116 1266.5166,221.364109 1267.30571,220.148722 C1268.14008,218.781802 1268.63619,217.612355 1269.06118,216.063462 C1269.61732,213.813937 1269.69168,212.024838 1269.35666,209.730154 C1268.93641,207.394382 1268.27282,205.690749 1266.98668,203.700275 C1266.02824,202.308016 1265.12932,201.313964 1263.81314,200.26455 C1262.59818,199.349609 1261.50788,198.695335 1260.07484,198.199117 C1258.85665,197.813483 1259.31168,198.023694 1260.36385,198.131072 C1265.01391,198.549879 1270.29523,198.336601 1274.96101,198.159561 C1324.62754,195.485627 1371.17036,184.324307 1420.17554,177.105942 C1427.7217,176.072417 1435.0492,175.24587 1442.67822,175.32186 C1445.86046,175.389738 1448.55762,175.607866 1451.67342,176.315829 C1453.6184,176.799363 1455.1455,177.343137 1456.93729,178.258162 C1459.74027,179.778371 1461.55884,181.375322 1463.41851,183.989351 C1465.70242,187.540343 1466.52241,190.775418 1466.19853,194.987932 C1465.81775,198.075822 1465.02217,200.288328 1463.37113,202.902273 C1461.28072,205.983167 1459.2535,207.832255 1456.2863,210.005233 C1450.46465,214.05576 1444.25041,216.986431 1437.79054,219.854855 C1380.0193,242.501411 1312.96146,252.234066 1253.17568,271.431545 C1251.97797,271.905629 1250.60814,272.354486 1249.38047,272.768582 C1244.69086,274.455516 1237.28299,277.050506 1233.02639,279.632813 C1232.81469,279.775147 1233.67738,278.981689 1233.74201,278.910578 C1234.30147,278.275259 1234.70268,277.684291 1235.11519,276.94154 C1235.87361,275.516025 1236.2418,274.297628 1236.47713,272.694321 C1236.722,270.492798 1236.51668,268.765444 1235.77715,266.676177 C1235.08364,264.906201 1234.3015,263.649892 1232.9837,262.284506 C1231.81534,261.159966 1230.69664,260.325587 1229.17344,259.766174 C1227.50498,259.255573 1234.89242,259.993725 1237.13603,259.949402 C1244.11897,259.759791 1250.99205,259.144989 1257.93544,258.397471 C1319.93793,251.110419 1381.1885,238.056636 1443.42728,232.700795 C1461.58403,231.368581 1480.29796,230.020477 1498.5084,230.246522 C1503.25567,230.323934 1507.94205,230.477223 1512.61496,231.378031 C1515.23626,231.931171 1517.06746,232.54444 1519.37745,233.969871 C1521.49932,235.395302 1522.79826,236.827117 1524.02197,239.094259 C1524.78666,240.655557 1525.16268,241.957721 1525.33968,243.688309 C1525.46607,245.338252 1525.34913,246.634116 1524.9225,248.230203 C1524.26207,250.422304 1523.41911,251.930666 1521.92289,253.642214 C1521.02543,254.618817 1520.20059,255.336397 1519.12944,256.112321 C1517.49244,257.250129 1515.96924,258.057803 1514.1681,258.897006 C1510.15712,260.692154 1506.11392,262.064008 1501.93308,263.401742 C1489.46442,267.248273 1476.79728,270.413826 1464.12153,273.489117 C1396.84647,288.98145 1328.49457,300.798744 1260.72886,314.074474 C1251.80094,315.933012 1241.60115,318.020634 1233.01215,321.101528 C1231.92654,321.525185 1229.64112,322.955299 1230.67755,321.98023 C1231.1153,321.547234 1231.42976,321.111145 1231.74418,320.582452 C1232.35487,319.502988 1232.63282,318.575391 1232.77977,317.345871 C1232.89995,315.841412 1232.72916,314.670237 1232.16357,313.273294 C1231.73465,312.302992 1231.28124,311.591712 1230.54324,310.834744 C1230.21783,310.518715 1229.63471,309.998747 1229.19874,309.826502 C1229.40406,309.951386 1230.19097,310.172581 1230.4343,310.240459 C1232.69931,310.842577 1235.02508,311.182439 1237.34444,311.487429 C1245.48878,312.511587 1253.65914,312.90656 1261.85553,313.200566 C1305.38199,313.597156 1371.6774,300.947294 1416.00657,293.943796 C1439.91091,290.174675 1464.38696,286.119465 1488.46027,283.75289 C1494.40509,283.179177 1502.00738,282.384353 1507.9025,283.3563 C1509.59155,283.689612 1510.77658,284.099052 1512.21982,285.083571 C1513.43325,285.983626 1514.17439,286.905006 1514.79996,288.284693 C1515.44626,289.902802 1515.55685,291.274656 1515.17292,292.970455 C1514.86172,294.130397 1514.46034,294.961599 1513.75409,295.924012 C1513.53754,296.377608 1512.56438,297.196237 1512.19457,297.593691 C1511.407,298.442427 1509.81259,299.287957 1508.84096,299.948447 C1501.69769,303.904224 1492.68446,306.570242 1484.8657,308.850709 C1475.34044,311.375256 1427.32358,322.824283 1376.01061,334.571887 L1376.01061,505.239858 C1455.32869,524.069906 1523.84329,551.527136 1576,585 C1462.16869,534.542246 1301.48172,503.082826 1123.35363,503.082826 C949.50739,503.082826 792.279935,533.047237 679,581.390469 C724.776537,553.036362 782.460817,529.187158 848.531145,511.489455 L848.531145,399.653475 C813.643791,407.540303 780.081704,414.736479 775.320274,414.494545 L775.320274,406.97034 Z M1515,577 C1416.64935,547.513715 1277.81649,529.131406 1123.91557,529.131406 C973.717849,529.131406 837.871834,546.640771 740,574.891388 C828.320527,537.892363 967.905385,514 1125.02617,514 C1285.11335,514 1426.99694,538.801243 1515,577 Z" id="Shape" fill-rule="nonzero" opacity="0.134446644" style="mix-blend-mode: multiply;"></path>
            </g>
        </g>
    </g>
</svg>