<?xml version="1.0" encoding="UTF-8"?>
<svg width="75px" height="54px" viewBox="0 0 75 54" version="1.1" xmlns="http://www.w3.org/2000/svg" xmlns:xlink="http://www.w3.org/1999/xlink">
    <title>hand-shake</title>
    <g id="Page-1" stroke="none" stroke-width="1" fill="none" fill-rule="evenodd">
        <g id="Home-09" transform="translate(-433.000000, -5503.000000)" fill="#999999" fill-rule="nonzero">
            <g id="CLIENT-SETUP" transform="translate(0.000000, 5252.000000)">
                <g id="st--2" transform="translate(354.750000, 251.000000)">
                    <g id="hand-shake" transform="translate(79.000000, 0.000000)">
                        <path d="M74,6.63400867 L74,29.0345881 C74,29.0345881 69.2057415,29.9791063 68.2180735,30.1033301 C67.2335409,30.2272551 64.1395943,31.2262705 61.8972967,29.0710191 C58.4393389,25.7568442 46.1532862,13.5385771 46.1532862,13.5385771 C46.1532862,13.5385771 44.0349137,11.4599204 40.6335433,13.2563862 C37.5112283,14.9020517 32.8828502,17.313813 30.9496189,18.2529562 C27.2950232,20.1981321 24.2660253,17.1119495 24.2660253,14.7611055 C24.2660253,12.9376151 25.4038965,11.7000066 27.0304506,10.789829 C31.4386004,8.11752635 40.7296972,2.90237045 44.5994447,0.846259139 C46.9516325,-0.404787021 48.6464201,-0.511989688 51.8757884,2.20853926 C55.8530372,5.55347149 59.3925169,8.60247658 59.3925169,8.60247658 C59.3925169,8.60247658 60.5469612,9.56595681 62.3880699,9.17790705 C66.909096,8.22204149 74,6.63400867 74,6.63400867 Z M25.0982644,44.5895756 C25.6932541,43.0609671 25.4943768,41.3512488 24.3536687,40.1782904 C23.3286739,39.1291078 21.8321664,38.8525906 20.4052362,39.1795736 C20.8043348,37.7642894 20.5839571,36.2579277 19.5534379,35.1948595 C18.5253076,34.1483644 17.031637,33.8663228 15.6048561,34.196292 C16.0009685,32.7830981 15.7811881,31.2768857 14.7500716,30.2169529 C13.1354621,28.560836 10.3426684,28.6319063 8.50797987,30.3807431 C6.68299632,32.1319688 5.51391988,35.3047497 7.1427136,37.1722858 C8.76881979,39.0304156 10.6372518,37.8998605 12.0616438,37.5752663 C11.6653821,38.9884603 10.4780902,40.302962 11.9402569,42.1527306 C13.4010799,44.003395 15.4346458,42.8806039 16.8605308,42.5589959 C16.4629254,43.9668147 15.3274431,45.4133042 16.7334703,47.1283975 C18.1521886,48.8487167 20.4758586,47.9321189 22.0105887,47.4553806 C21.4182865,48.9781661 20.1505179,50.619651 21.7793117,52.4591173 C23.4055671,54.311872 27.1637821,53.4546986 28.9995158,51.7031743 C30.8303223,49.9519486 31.006057,47.1764745 29.3957774,45.5151318 C28.284035,44.3753196 26.6267236,44.1101498 25.0982644,44.5895756 Z M58.5944692,32.9355409 C45.3240332,19.6649556 51.5658264,25.9094363 44.4243072,18.7525385 C44.4243072,18.7525385 42.2780143,16.6158012 39.4492375,17.8569931 C37.46345,18.7271563 34.9068605,19.9131044 32.9831848,20.8185041 C30.8692915,21.9269618 29.3479991,22.27007 28.6337128,22.2652922 C24.547171,22.2385662 21.2316523,18.9539541 21.2316523,14.8714437 C21.2316523,12.2230301 22.6376795,9.91727697 24.734701,8.60844887 C27.6835209,6.56786552 34.4710324,2.95761416 34.4710324,2.95761416 C34.4710324,2.95761416 32.4032751,0.337419741 27.8735891,0.337419741 C23.345247,0.337419741 13.8842384,6.53546583 13.8842384,6.53546583 C13.8842384,6.53546583 11.2002897,8.25459049 7.37428928,6.70612412 L0,4.13818726 L0,29.7708226 C0,29.7708226 2.10568135,30.3802952 3.9977039,31.1531099 C4.42502149,29.9344635 5.11452276,28.8091341 6.07098555,27.8796959 C9.20987365,24.8899658 14.4126371,24.8589099 17.2684384,27.7995179 C18.1287473,28.6934209 18.7291121,29.7597739 19.0354908,30.9385553 C20.1862024,31.2937574 21.2285169,31.9229385 22.066131,32.7859349 C22.9289781,33.6738657 23.5271033,34.7461909 23.8360202,35.9190001 C24.9853881,36.2745008 26.0262095,36.9060709 26.8666605,37.7696645 C27.8131197,38.7456865 28.4436446,39.9246172 28.7380786,41.2019415 C29.9395547,41.5519179 31.0253177,42.2030472 31.8998107,43.0970995 C33.6160986,44.8599712 34.2252725,47.2517254 33.8561848,49.5588223 C33.8591709,49.5588223 33.8648446,49.5588223 33.8675321,49.5640481 C33.8956019,49.6007777 34.930899,50.7549234 35.5765039,51.4059034 C36.8417342,52.6723282 38.9076998,52.6723282 40.1768122,51.4059034 C41.4375633,50.1399265 41.4430877,48.0779922 40.1768122,46.8055951 C40.1314227,46.760355 35.6121883,42.0332847 35.975901,41.6667352 C36.3369261,41.3027239 42.0946649,47.2938301 42.2018676,47.4034217 C43.4654555,48.6673082 45.5300774,48.6673082 46.799339,47.4034217 C48.0656145,46.1374448 48.062927,44.0755105 46.799339,42.8060995 C46.7372272,42.7469738 46.4780296,42.4986757 46.3818757,42.3998342 C46.3818757,42.3998342 40.6732591,37.3144264 41.1077434,36.8799421 C41.5476028,36.4427702 48.6385068,43.0600713 48.6500034,43.0600713 C49.9246401,44.2079461 51.8880316,44.1994356 53.1142927,42.9725772 C54.3074077,41.7796116 54.3329392,39.8925162 53.2752461,38.6208656 C53.25285,38.5532294 47.8712164,32.9291207 48.2912179,32.5059837 C48.717341,32.0773223 54.0423871,37.5604849 54.0535852,37.5718323 C55.3143363,38.8354202 57.381795,38.8354202 58.6510567,37.5718323 C59.9146446,36.308095 59.9146446,34.2436225 58.6510567,32.9686871 C58.6338863,32.957937 58.6113409,32.9465896 58.5944692,32.9355409 Z" id="Shape"></path>
                    </g>
                </g>
            </g>
        </g>
    </g>
</svg>