<?xml version="1.0" encoding="UTF-8"?>
<svg width="82px" height="60px" viewBox="0 0 82 60" version="1.1" xmlns="http://www.w3.org/2000/svg" xmlns:xlink="http://www.w3.org/1999/xlink">
    <title>handsonwheels W</title>
    <g id="Page-1" stroke="none" stroke-width="1" fill="none" fill-rule="evenodd">
        <g id="Homepage-Final-(all-blue-texts)" transform="translate(-1186.000000, -6106.000000)" fill="#FFFFFF" fill-rule="nonzero">
            <g id="CLIENT-SETUP" transform="translate(0.000000, 5860.000000)">
                <g id="st--5" transform="translate(1102.000000, 246.000000)">
                    <g id="handsonwheels-W" transform="translate(84.000000, 0.000000)">
                        <g id="Group" transform="translate(40.908162, 29.727909) scale(-1, 1) rotate(-180.000000) translate(-40.908162, -29.727909) ">
                            <path d="M39.2008814,59.437757 C39.0179585,59.4255621 38.4265077,59.3706853 37.8899338,59.3158084 C28.7559822,58.419486 20.4878658,53.254962 15.6099211,45.3892761 C14.4148246,43.4746828 13.5002099,41.5356997 12.7624208,39.3833066 C12.481939,38.5784457 12.0063394,36.9565291 12.0063394,36.8223856 C12.0063394,36.7309241 13.3660665,35.7553352 14.0306864,35.371197 C14.6709167,35.0053511 15.1160291,34.8346231 15.5550442,34.7980385 C16.0245464,34.749259 16.2928333,34.9138897 16.9574533,35.6455814 C17.4513452,36.1943502 17.4757349,36.2309348 17.6403656,36.7918984 C18.439129,39.5296449 20.0122662,42.5112887 21.9207621,44.9014816 C22.7622076,45.9563372 24.6707035,47.864833 25.725559,48.7062785 C31.3778775,53.21228 38.6155281,54.9683401 45.6946454,53.5537361 C49.4750526,52.8037521 53.0359523,51.1452509 56.0907652,48.7062785 C57.1456208,47.864833 59.0541167,45.9563372 59.8955621,44.9014816 C61.8040578,42.5112887 63.377195,39.5296449 64.1759584,36.7918984 C64.3405891,36.2309348 64.3649788,36.1943502 64.8588707,35.6455814 C65.5234907,34.9138897 65.7917776,34.749259 66.2612798,34.7980385 C66.7002948,34.8346231 67.1454073,35.0053511 67.7856375,35.371197 C68.4502575,35.7553352 69.8099846,36.7309241 69.8099846,36.8223856 C69.8099846,36.9565291 69.334385,38.5784457 69.0539032,39.3833066 C66.8222435,45.8770706 62.4259957,51.3952456 56.5785597,55.0171196 C52.7554705,57.3890202 48.5482431,58.8280139 43.9568776,59.3219058 C43.1154321,59.4133673 39.9630603,59.4926339 39.2008814,59.437757 Z" id="Path"></path>
                            <path d="M39.1825892,40.84669 C37.7435954,40.6149876 36.3350889,40.1028034 35.1156027,39.3650143 C33.6034398,38.4564971 32.4571228,37.3284723 31.3230006,35.639484 C31.1766623,35.4199765 30.9876419,35.1882741 30.8961805,35.1212023 C30.7681344,35.0358383 29.8535198,34.8407205 27.1462604,34.3285363 L23.560971,33.6517215 L23.4817044,33.2858756 C23.4390224,33.0846604 23.2012226,32.2919944 22.9512279,31.5176206 C22.7012333,30.7493443 22.457336,29.9505809 22.4024591,29.7493657 C22.1402696,28.7676793 21.8658852,28.2554951 21.2744344,27.6152648 L20.9085886,27.2250292 L20.9085886,26.7616245 C20.9085886,26.3409018 20.9207834,26.3043172 21.0488295,26.27383 C21.1219986,26.2555377 23.3292687,25.834815 25.9572614,25.3348256 C29.5974277,24.6458159 30.7742319,24.4019187 30.8961805,24.3104572 C30.9876419,24.2494829 31.1766623,24.0177806 31.3230006,23.798273 C32.4266356,22.1519667 33.3412503,21.237352 34.9875567,20.133717 C35.2070642,19.9873787 35.4387665,19.7983583 35.4997409,19.7068969 C35.5912023,19.5788508 35.8655867,18.2679032 36.6460579,14.1277475 C38.0789541,6.5974203 37.9509081,7.35350174 37.8350569,6.96326616 C37.6460365,6.32303591 37.072878,5.87792345 36.4082581,5.87792345 C36.0241199,5.87792345 35.2558436,6.04255408 34.1095266,6.37181535 C31.1339803,7.23155312 28.2133109,8.74981343 25.725559,10.7314785 C24.6707035,11.572924 22.7622076,13.4814199 21.9207621,14.5362754 C20.7134708,16.0484383 19.6098358,17.8288881 18.8476569,19.5056816 C18.6342468,19.9751838 18.439129,20.3776143 18.4147393,20.4081014 C18.3659598,20.4568809 16.2928333,18.2313186 15.7318697,17.5240166 C15.3782187,17.0789041 14.6282347,15.8899051 14.6282347,15.7740539 C14.6282347,15.6703976 15.4879724,14.2131116 16.0611309,13.3472764 C20.3171378,6.90838928 26.8413889,2.38409551 34.2924495,0.701204561 C36.6094733,0.176825498 38.2862668,0 40.9081621,0 C43.1032373,0 43.9690725,0.0670717406 45.7861069,0.365845858 C53.9810541,1.72557296 61.1516327,6.38401022 65.755193,13.3472764 C66.3283515,14.2131116 67.1880893,15.6703976 67.1880893,15.7740539 C67.1880893,15.8899051 66.4381053,17.0789041 66.0844543,17.5240166 C65.5234907,18.2313186 63.4503641,20.4568809 63.4015847,20.4081014 C63.377195,20.3776143 63.1820772,19.9751838 62.9686671,19.5056816 C62.2064882,17.8288881 61.1028532,16.0484383 59.8955621,14.5362754 C59.0541167,13.4814199 57.1456208,11.572924 56.0907652,10.7314785 C53.6030134,8.74981343 50.6823439,7.23155312 47.7067976,6.37181535 C46.5604806,6.04255408 45.7922043,5.87792345 45.4080662,5.87792345 C44.7434462,5.87792345 44.1702877,6.32303591 43.9812673,6.96326616 C43.8654161,7.35350174 43.7373701,6.5974203 45.1702664,14.1277475 C45.9507375,18.2679032 46.2251219,19.5788508 46.3165834,19.7068969 C46.3775577,19.7983583 46.6092601,19.9873787 46.8287676,20.133717 C48.4750739,21.237352 49.3896886,22.1519667 50.4933236,23.798273 C50.6396619,24.0177806 50.8286823,24.2494829 50.9201438,24.3104572 C51.0420924,24.4019187 52.2188965,24.6458159 55.8590628,25.3348256 C58.4870556,25.834815 60.6943256,26.2555377 60.7735922,26.27383 C60.8955408,26.3043172 60.9077357,26.3409018 60.9077357,26.7616245 L60.9077357,27.2250292 L60.5418898,27.6152648 C59.950439,28.2554951 59.6760546,28.7676793 59.4138651,29.7493657 C59.3589882,29.9505809 59.115091,30.7493443 58.8650963,31.5176206 C58.6151016,32.2919944 58.3773018,33.0846604 58.3346198,33.2858756 L58.2553532,33.6517215 L54.6700638,34.3285363 C51.9628044,34.8407205 51.0481898,35.0358383 50.9201438,35.1212023 C50.8286823,35.1882741 50.6396619,35.4199765 50.4933236,35.639484 C49.3409091,37.3528621 48.206787,38.4625945 46.6336498,39.4015989 C45.6275737,40.0052445 44.3776003,40.493039 43.1337244,40.7552285 C42.334961,40.932054 40.0240346,40.9808335 39.1825892,40.84669 Z M41.7800947,34.5114592 C42.3166687,34.4078029 42.9203143,34.1761005 43.438596,33.8773264 C43.9080981,33.602942 44.7922256,32.7188145 45.06661,32.2493124 C46.2556091,30.1944781 45.9324452,27.8103826 44.2434569,26.2006608 C42.6215402,24.6580108 40.3593933,24.4141136 38.3777283,25.5604306 C37.9082261,25.834815 37.0240986,26.7189425 36.7497142,27.1884447 C35.9448533,28.5786589 35.8168073,30.0542372 36.3838683,31.4993283 C36.8533705,32.7188145 37.9509081,33.8041572 39.1764917,34.267562 C40.0301321,34.5907258 40.9264544,34.6699924 41.7800947,34.5114592 Z" id="Shape"></path>
                            <path d="M10.3295458,38.4321073 C9.65882844,38.3467433 9.03079305,38.1699178 8.10398354,37.7979745 C7.54301989,37.5723696 7.01864083,37.4138364 6.59182066,37.3345698 C5.56745228,37.139452 5.14063211,36.8955547 4.6650325,36.2248373 C4.22601747,35.6150942 4.06748426,35.1212023 4.04919197,34.3651209 C4.03699711,33.6334292 4.06138683,33.6761112 3.31750026,33.1822193 C2.86629036,32.8773477 2.81141349,32.8224709 2.58580854,32.3834558 C2.36020359,31.9322459 2.34800873,31.8773691 2.35410616,31.3773797 C2.35410616,31.0115339 2.41508047,30.5786163 2.54922395,29.9993603 C2.76873147,29.0481611 2.84799807,28.1213516 2.8540955,26.4140709 C2.8540955,25.6640869 2.91506981,24.7616671 3.04311586,23.4568169 C3.21384393,21.7922183 3.23213622,21.4324698 3.2077465,20.2678605 C3.18335677,19.1215435 3.15896705,18.8776463 3.02482357,18.3410723 C2.65897771,16.8959812 1.92118857,15.5118644 0.469999994,13.5484916 C0.201713031,13.1826457 -0.0116970523,12.8777742 0.000497809622,12.8655793 C0.104154136,12.7802153 8.73201893,6.90229185 8.78689581,6.88399956 C8.83567526,6.86570726 9.03689048,7.11570193 9.29298258,7.50593751 C10.4271047,9.26199763 11.1587965,10.7131862 12.0978008,13.0789894 C12.8294925,14.9204136 13.628256,16.5911096 14.1831222,17.4325551 C14.6343321,18.1215648 15.2501726,18.859354 16.3233205,20.0117684 C17.5245144,21.2922289 17.9940166,21.8531926 18.481811,22.5787869 C19.0000927,23.359258 19.2074053,23.7677859 19.4574,24.4933802 C19.6403229,25.0238567 19.6525178,25.1153181 19.6891024,26.27383 C19.7317844,27.7128237 19.7439792,27.7494083 20.3476249,28.4018334 C20.8354194,28.920115 21.0122449,29.2615712 21.2439473,30.0847244 C21.3293113,30.4017908 21.5975983,31.2554311 21.8353981,31.974928 C22.2439259,33.1944142 22.2744131,33.3224602 22.2744131,33.8346444 C22.2805105,34.3163415 22.2622182,34.4260952 22.1097825,34.7248693 C21.9024698,35.1516895 21.3841882,35.6516788 20.9268809,35.8650889 C20.6159119,36.0114273 20.5000607,36.0297196 19.9634868,36.0297196 C19.1098464,36.0297196 18.9696055,35.9504529 17.8476782,34.8346231 C16.811115,33.7980598 16.5062434,33.6090395 15.8416234,33.5724549 C14.8050602,33.5114806 13.5977688,34.0785416 11.6465909,35.5297302 C10.6344174,36.2797142 10.4392996,36.6455601 10.7197814,37.2492057 C10.8661198,37.5601747 11.3234271,37.9991898 11.7929293,38.2796716 L12.1587751,38.4991791 L11.4575706,38.4930817 C11.0734324,38.4869842 10.5673457,38.4625945 10.3295458,38.4321073 Z" id="Path"></path>
                            <path d="M70.0233947,38.2796716 C70.4928969,37.9991898 70.9502042,37.5601747 71.0965426,37.2492057 C71.3770244,36.6455601 71.1819066,36.2797142 70.1697331,35.5297302 C68.2185551,34.0785416 67.0112638,33.5114806 65.9747006,33.5724549 C65.3100806,33.6090395 65.005209,33.7980598 63.9686458,34.8346231 C62.8467185,35.9504529 62.7064776,36.0297196 61.8528372,36.0297196 C61.3162633,36.0297196 61.2004121,36.0114273 60.8894434,35.8650889 C60.4321361,35.6516788 59.9138544,35.1516895 59.7065418,34.7248693 C59.554106,34.4260952 59.5358137,34.3163415 59.5419111,33.8346444 C59.5419111,33.3224602 59.5723983,33.1944142 59.9809262,31.974928 C60.218726,31.2554311 60.4870129,30.4017908 60.572377,30.0847244 C60.8040793,29.2615712 60.9809046,28.920115 61.4686991,28.4018334 C62.0723447,27.7494083 62.0845396,27.7128237 62.1272216,26.27383 C62.1638062,25.1153181 62.1760011,25.0238567 62.358924,24.4933802 C62.8345236,23.1092633 63.5296307,22.1092847 65.4930035,20.0117684 C66.5661514,18.859354 67.1819919,18.1215648 67.6332018,17.4325551 C68.188068,16.5911096 68.9868314,14.9204136 69.7185232,13.0789894 C70.6575275,10.7131862 71.3892192,9.26199763 72.5233414,7.50593751 C72.7794335,7.11570193 72.9806487,6.86570726 73.0294282,6.88399956 C73.0843051,6.90229185 81.7121699,12.7802153 81.8158262,12.8655793 C81.8280211,12.8777742 81.614611,13.1826457 81.346324,13.5484916 C79.8951354,15.5118644 79.1573463,16.8959812 78.7915004,18.3410723 C78.657357,18.8776463 78.6329672,19.1215435 78.6085775,20.2678605 C78.5841878,21.4324698 78.6024801,21.7922183 78.7732081,23.4568169 C78.9012542,24.7616671 78.9622285,25.6640869 78.9622285,26.4140709 C78.9683259,28.1213516 79.0475925,29.0481611 79.2671,29.9993603 C79.535387,31.1700671 79.5414844,31.7371282 79.2853923,32.2797995 C79.05369,32.767594 78.9012542,32.9322246 78.3707777,33.2736808 C78.1390753,33.4200191 77.9134704,33.5846497 77.8646909,33.645624 C77.8037166,33.7187932 77.7732295,33.9383007 77.767132,34.3712183 C77.7488397,35.1212023 77.5842091,35.6150942 77.1512915,36.2248373 C76.6756919,36.8955547 76.2488717,37.139452 75.2245033,37.3345698 C74.7976832,37.4138364 74.2733041,37.5723696 73.7123404,37.7979745 C72.3891979,38.328451 71.541655,38.4991791 70.2672919,38.4991791 L69.6575489,38.4991791 L70.0233947,38.2796716 Z" id="Path"></path>
                        </g>
                    </g>
                </g>
            </g>
        </g>
    </g>
</svg>