<?xml version="1.0" encoding="UTF-8"?>
<svg width="1342px" height="976px" viewBox="0 0 1342 976" version="1.1" xmlns="http://www.w3.org/2000/svg" xmlns:xlink="http://www.w3.org/1999/xlink">
    <title>Wheel-PNG</title>
    <g id="Page-1" stroke="none" stroke-width="1" fill="none" fill-rule="evenodd">
        <g id="Wheel-PNG" transform="translate(0.091836, 0.303789)" fill="#003850" fill-rule="nonzero">
            <g id="Group" transform="translate(670.908164, 487.548105) scale(-1, 1) rotate(-180.000000) translate(-670.908164, -487.548105) translate(0.000000, 0.000000)">
                <path d="M642.908164,974.8 C639.908164,974.6 630.208164,973.7 621.408164,972.8 C471.608164,958.1 336.008164,873.4 256.008164,744.4 C236.408164,713 221.408164,681.2 209.308164,645.9 C204.708164,632.7 196.908164,606.1 196.908164,603.9 C196.908164,602.4 219.208164,586.4 230.108164,580.1 C240.608164,574.1 247.908164,571.3 255.108164,570.7 C262.808164,569.9 267.208164,572.6 278.108164,584.6 C286.208164,593.6 286.608164,594.2 289.308164,603.4 C302.408164,648.3 328.208164,697.2 359.508164,736.4 C373.308164,753.7 404.608164,785 421.908164,798.8 C514.608164,872.7 633.308164,901.5 749.408164,878.3 C811.408164,866 869.808164,838.8 919.908164,798.8 C937.208164,785 968.508164,753.7 982.308164,736.4 C1013.60816,697.2 1039.40816,648.3 1052.50816,603.4 C1055.20816,594.2 1055.60816,593.6 1063.70816,584.6 C1074.60816,572.6 1079.00816,569.9 1086.70816,570.7 C1093.90816,571.3 1101.20816,574.1 1111.70816,580.1 C1122.60816,586.4 1144.90816,602.4 1144.90816,603.9 C1144.90816,606.1 1137.10816,632.7 1132.50816,645.9 C1095.90816,752.4 1023.80816,842.9 927.908164,902.3 C865.208164,941.2 796.208164,964.8 720.908164,972.9 C707.108164,974.4 655.408164,975.7 642.908164,974.8 Z" id="Path"></path>
                <path d="M642.608164,669.9 C619.008164,666.1 595.908164,657.7 575.908164,645.6 C551.108164,630.7 532.308164,612.2 513.708164,584.5 C511.308164,580.9 508.208164,577.1 506.708164,576 C504.608164,574.6 489.608164,571.4 445.208164,563 L386.408164,551.9 L385.108164,545.9 C384.408164,542.6 380.508164,529.6 376.408164,516.9 C372.308164,504.3 368.308164,491.2 367.408164,487.9 C363.108164,471.8 358.608164,463.4 348.908164,452.9 L342.908164,446.5 L342.908164,438.9 C342.908164,432 343.108164,431.4 345.208164,430.9 C346.408164,430.6 382.608164,423.7 425.708164,415.5 C485.408164,404.2 504.708164,400.2 506.708164,398.7 C508.208164,397.7 511.308164,393.9 513.708164,390.3 C531.808164,363.3 546.808164,348.3 573.808164,330.2 C577.408164,327.8 581.208164,324.7 582.208164,323.2 C583.708164,321.1 588.208164,299.6 601.008164,231.7 C624.508164,108.2 622.408164,120.6 620.508164,114.2 C617.408164,103.7 608.008164,96.4 597.108164,96.4 C590.808164,96.4 578.208164,99.1 559.408164,104.5 C510.608164,118.6 462.708164,143.5 421.908164,176 C404.608164,189.8 373.308164,221.1 359.508164,238.4 C339.708164,263.2 321.608164,292.4 309.108164,319.9 C305.608164,327.6 302.408164,334.2 302.008164,334.7 C301.208164,335.5 267.208164,299 258.008164,287.4 C252.208164,280.1 239.908164,260.6 239.908164,258.7 C239.908164,257 254.008164,233.1 263.408164,218.9 C333.208164,113.3 440.208164,39.1 562.408164,11.5 C600.408164,2.9 627.908164,0 670.908164,0 C706.908164,0 721.108164,1.1 750.908164,6 C885.308164,28.3 1002.90816,104.7 1078.40816,218.9 C1087.80816,233.1 1101.90816,257 1101.90816,258.7 C1101.90816,260.6 1089.60816,280.1 1083.80816,287.4 C1074.60816,299 1040.60816,335.5 1039.80816,334.7 C1039.40816,334.2 1036.20816,327.6 1032.70816,319.9 C1020.20816,292.4 1002.10816,263.2 982.308164,238.4 C968.508164,221.1 937.208164,189.8 919.908164,176 C879.108164,143.5 831.208164,118.6 782.408164,104.5 C763.608164,99.1 751.008164,96.4 744.708164,96.4 C733.808164,96.4 724.408164,103.7 721.308164,114.2 C719.408164,120.6 717.308164,108.2 740.808164,231.7 C753.608164,299.6 758.108164,321.1 759.608164,323.2 C760.608164,324.7 764.408164,327.8 768.008164,330.2 C795.008164,348.3 810.008164,363.3 828.108164,390.3 C830.508164,393.9 833.608164,397.7 835.108164,398.7 C837.108164,400.2 856.408164,404.2 916.108164,415.5 C959.208164,423.7 995.408164,430.6 996.708164,430.9 C998.708164,431.4 998.908164,432 998.908164,438.9 L998.908164,446.5 L992.908164,452.9 C983.208164,463.4 978.708164,471.8 974.408164,487.9 C973.508164,491.2 969.508164,504.3 965.408164,516.9 C961.308164,529.6 957.408164,542.6 956.708164,545.9 L955.408164,551.9 L896.608164,563 C852.208164,571.4 837.208164,574.6 835.108164,576 C833.608164,577.1 830.508164,580.9 828.108164,584.5 C809.208164,612.6 790.608164,630.8 764.808164,646.2 C748.308164,656.1 727.808164,664.1 707.408164,668.4 C694.308164,671.3 656.408164,672.1 642.608164,669.9 Z M685.208164,566 C694.008164,564.3 703.908164,560.5 712.408164,555.6 C720.108164,551.1 734.608164,536.6 739.108164,528.9 C758.608164,495.2 753.308164,456.1 725.608164,429.7 C699.008164,404.4 661.908164,400.4 629.408164,419.2 C621.708164,423.7 607.208164,438.2 602.708164,445.9 C589.508164,468.7 587.408164,492.9 596.708164,516.6 C604.408164,536.6 622.408164,554.4 642.508164,562 C656.508164,567.3 671.208164,568.6 685.208164,566 Z" id="Shape"></path>
                <path d="M169.408164,630.3 C158.408164,628.9 148.108164,626 132.908164,619.9 C123.708164,616.2 115.108164,613.6 108.108164,612.3 C91.3081643,609.1 84.3081643,605.1 76.5081643,594.1 C69.3081643,584.1 66.7081643,576 66.4081643,563.6 C66.2081643,551.6 66.6081643,552.3 54.4081643,544.2 C47.0081643,539.2 46.1081643,538.3 42.4081643,531.1 C38.7081643,523.7 38.5081643,522.8 38.6081643,514.6 C38.6081643,508.6 39.6081643,501.5 41.8081643,492 C45.4081643,476.4 46.7081643,461.2 46.8081643,433.2 C46.8081643,420.9 47.8081643,406.1 49.9081643,384.7 C52.7081643,357.4 53.0081643,351.5 52.6081643,332.4 C52.2081643,313.6 51.8081643,309.6 49.6081643,300.8 C43.6081643,277.1 31.5081643,254.4 7.70816425,222.2 C3.30816425,216.2 -0.191835748,211.2 0.00816425189,211 C1.70816425,209.6 143.208164,113.2 144.108164,112.9 C144.908164,112.6 148.208164,116.7 152.408164,123.1 C171.008164,151.9 183.008164,175.7 198.408164,214.5 C210.408164,244.7 223.508164,272.1 232.608164,285.9 C240.008164,297.2 250.108164,309.3 267.708164,328.2 C287.408164,349.2 295.108164,358.4 303.108164,370.3 C311.608164,383.1 315.008164,389.8 319.108164,401.7 C322.108164,410.4 322.308164,411.9 322.908164,430.9 C323.608164,454.5 323.808164,455.1 333.708164,465.8 C341.708164,474.3 344.608164,479.9 348.408164,493.4 C349.808164,498.6 354.208164,512.6 358.108164,524.4 C364.808164,544.4 365.308164,546.5 365.308164,554.9 C365.408164,562.8 365.108164,564.6 362.608164,569.5 C359.208164,576.5 350.708164,584.7 343.208164,588.2 C338.108164,590.6 336.208164,590.9 327.408164,590.9 C313.408164,590.9 311.108164,589.6 292.708164,571.3 C275.708164,554.3 270.708164,551.2 259.808164,550.6 C242.808164,549.6 223.008164,558.9 191.008164,582.7 C174.408164,595 171.208164,601 175.808164,610.9 C178.208164,616 185.708164,623.2 193.408164,627.8 L199.408164,631.4 L187.908164,631.3 C181.608164,631.2 173.308164,630.8 169.408164,630.3 Z" id="Path"></path>
                <path d="M1148.40816,627.8 C1156.10816,623.2 1163.60816,616 1166.00816,610.9 C1170.60816,601 1167.40816,595 1150.80816,582.7 C1118.80816,558.9 1099.00816,549.6 1082.00816,550.6 C1071.10816,551.2 1066.10816,554.3 1049.10816,571.3 C1030.70816,589.6 1028.40816,590.9 1014.40816,590.9 C1005.60816,590.9 1003.70816,590.6 998.608164,588.2 C991.108164,584.7 982.608164,576.5 979.208164,569.5 C976.708164,564.6 976.408164,562.8 976.508164,554.9 C976.508164,546.5 977.008164,544.4 983.708164,524.4 C987.608164,512.6 992.008164,498.6 993.408164,493.4 C997.208164,479.9 1000.10816,474.3 1008.10816,465.8 C1018.00816,455.1 1018.20816,454.5 1018.90816,430.9 C1019.50816,411.9 1019.70816,410.4 1022.70816,401.7 C1030.50816,379 1041.90816,362.6 1074.10816,328.2 C1091.70816,309.3 1101.80816,297.2 1109.20816,285.9 C1118.30816,272.1 1131.40816,244.7 1143.40816,214.5 C1158.80816,175.7 1170.80816,151.9 1189.40816,123.1 C1193.60816,116.7 1196.90816,112.6 1197.70816,112.9 C1198.60816,113.2 1340.10816,209.6 1341.80816,211 C1342.00816,211.2 1338.50816,216.2 1334.10816,222.2 C1310.30816,254.4 1298.20816,277.1 1292.20816,300.8 C1290.00816,309.6 1289.60816,313.6 1289.20816,332.4 C1288.80816,351.5 1289.10816,357.4 1291.90816,384.7 C1294.00816,406.1 1295.00816,420.9 1295.00816,433.2 C1295.10816,461.2 1296.40816,476.4 1300.00816,492 C1304.40816,511.2 1304.50816,520.5 1300.30816,529.4 C1296.50816,537.4 1294.00816,540.1 1285.30816,545.7 C1281.50816,548.1 1277.80816,550.8 1277.00816,551.8 C1276.00816,553 1275.50816,556.6 1275.40816,563.7 C1275.10816,576 1272.40816,584.1 1265.30816,594.1 C1257.50816,605.1 1250.50816,609.1 1233.70816,612.3 C1226.70816,613.6 1218.10816,616.2 1208.90816,619.9 C1187.20816,628.6 1173.30816,631.4 1152.40816,631.4 L1142.40816,631.4 L1148.40816,627.8 Z" id="Path"></path>
            </g>
        </g>
    </g>
</svg>