<?xml version="1.0" encoding="UTF-8"?>
<svg width="52px" height="52px" viewBox="0 0 52 52" version="1.1" xmlns="http://www.w3.org/2000/svg" xmlns:xlink="http://www.w3.org/1999/xlink">
    <title>cog</title>
    <g id="Page-1" stroke="none" stroke-width="1" fill="none" fill-rule="evenodd">
        <g id="Homepage-Final" transform="translate(-578.000000, -3662.000000)" fill="#FFFFFF" fill-rule="nonzero">
            <g id="PORTFOLIOS" transform="translate(0.000000, 3067.000000)">
                <g id="chart-+-center" transform="translate(507.000000, 297.000000)">
                    <g id="cog" transform="translate(71.409690, 298.390492)">
                        <g id="gear">
                            <path d="M49.7419446,20.7598149 L45.1900874,20.2130207 C44.7249044,18.4767453 44.043452,16.8363629 43.166133,15.3143165 L45.9959967,11.7173088 C46.4285354,11.1643938 46.3795687,10.3095179 45.8797009,9.81169039 L41.1891049,5.11905411 C40.695358,4.62326688 39.8384418,4.57021969 39.2834865,5.00275834 L35.680358,7.8367026 C34.1644324,6.95938364 32.52405,6.27793124 30.7918551,5.81682872 L30.2471013,1.26497152 C30.1634499,0.569237184 29.5207628,0 28.8189076,0 L22.183928,0 C21.4820728,0 20.8393857,0.569237184 20.7577746,1.26497152 L20.2109805,5.81682872 C18.4767453,6.27997152 16.8343226,6.96346419 15.3183971,7.83874287 L11.7173088,5.00887917 C11.1664341,4.57634052 10.3095179,4.62734743 9.81373067,5.12313466 L5.12109438,9.81781122 C4.62734743,10.3115582 4.57634052,11.1684744 5.01091944,11.7234296 L7.83874287,15.3224776 C6.96142392,16.8404434 6.27997152,18.4828661 5.81682872,20.2191416 L1.2670118,20.7638954 C0.571277461,20.8455065 0,21.4881936 0,22.1920891 L0,28.8270687 C0,29.5289239 0.569237184,30.1675305 1.2670118,30.2532221 L5.818869,30.8000163 C6.28405207,32.5301708 6.96346419,34.1705533 7.84078315,35.6885191 L5.01295972,39.2916477 C4.58246135,39.8445626 4.63142799,40.6994385 5.12925549,41.197266 L9.81373067,45.8919426 C10.3095179,46.3856896 11.1664341,46.440777 11.7173088,46.0082384 L15.3204373,43.1722538 C16.8384032,44.0495728 18.4787856,44.7330655 20.2130207,45.194168 L20.7598149,49.7439849 C20.8434662,50.4417595 21.4841131,51.0089564 22.1859683,51.0089564 L28.8209479,51.0089564 C29.5248433,51.0089564 30.1654902,50.4417595 30.2471013,49.7439849 L30.7938954,45.194168 C32.5301708,44.7289849 34.1705533,44.0475325 35.6864788,43.1722538 L39.2896074,46.0021175 C39.8425223,46.4346562 40.6973983,46.3836493 41.1931855,45.8878621 L45.8837815,41.1931855 C46.381609,40.6994385 46.4326159,39.8425223 45.998037,39.2855268 L43.166133,35.6864788 C44.0454922,34.168513 44.7249044,32.5281306 45.1900874,30.7959357 L49.7399044,30.2491416 C50.437679,30.1654902 51.0069216,29.5289239 51.0069216,28.8229882 L51.0069216,22.1880085 C51.0089564,21.4820728 50.4417595,20.8434662 49.7419446,20.7598149 Z M25.5054984,38.2551871 C18.4624634,38.2551871 12.7537693,32.5464931 12.7537693,25.5034581 C12.7537693,18.4604231 18.4624634,12.751729 25.5054984,12.751729 C32.5485333,12.751729 38.2572274,18.4604231 38.2572274,25.5034581 C38.2572274,32.5464931 32.5505736,38.2551871 25.5054984,38.2551871 Z" id="Shape"></path>
                        </g>
                        <g id="checked" transform="translate(19.674098, 21.131439)">
                            <polygon id="Path" points="0 4.9088633 4.13119703 9.04794603 12.0638656 1.12311632 10.9250013 -6.6506002e-16 4.13119703 6.78591857 1.12309292 3.77783787"></polygon>
                        </g>
                    </g>
                </g>
            </g>
        </g>
    </g>
</svg>