<?xml version="1.0" encoding="UTF-8"?>
<svg width="491px" height="364px" viewBox="0 0 491 364" version="1.1" xmlns="http://www.w3.org/2000/svg" xmlns:xlink="http://www.w3.org/1999/xlink">
    <title>banner</title>
    <g id="Page-1" stroke="none" stroke-width="1" fill="none" fill-rule="evenodd">
        <g id="Home-09" transform="translate(-475.000000, -199.000000)" fill="#003850">
            <g id="HEADER" transform="translate(-40.000000, 0.000000)">
                <g id="plus-41-LOGO" transform="translate(515.000000, 199.000000)">
                    <path d="M6.879383,339.65397 L6.879383,298.455904 L0,298.455904 L0,291.576549 L19.6540962,291.576549 C25.4149384,291.576549 29.7450114,291.981287 32.6180838,292.803431 C35.4911702,293.612837 37.8920786,295.461068 39.8347087,298.347592 C41.7638312,301.235347 42.7351742,304.634166 42.7351742,308.546526 C42.7351742,311.68982 42.1011012,314.495382 40.8199373,316.977574 C39.5382975,319.473442 37.9603165,321.307717 36.0712549,322.494482 C34.1829771,323.667753 32.0649583,324.464421 29.7041107,324.881855 C27.343669,325.286635 23.7821712,325.489375 19.0065575,325.489375 L15.2164944,325.489375 L15.2164944,339.653984 L22.3387062,339.653984 L22.3387062,346.533297 L0,346.533297 L0,339.653984 L6.879383,339.653984 L6.879383,339.65397 Z M15.2164944,318.852065 L19.964379,318.852065 C25.3601802,318.852065 29.1109383,318.083503 31.1880984,316.545513 C33.2791021,315.007621 34.3178711,312.296374 34.3178711,308.397592 C34.3178711,305.929272 33.7647736,303.879113 32.6589285,302.246765 C31.5519216,300.613998 30.1758687,299.575579 28.5443472,299.13043 C26.9119858,298.685282 24.1869091,298.45589 20.3559873,298.45589 L15.2164944,298.45589 L15.2164944,318.852065 L15.2164944,318.852065 Z M52.2197873,339.815866 L52.2197873,298.293995 L45.4213659,298.293995 L45.4213659,291.576535 L59.7475069,291.576535 L59.7475069,339.815866 L65.6555609,339.815866 L65.6555609,346.533283 L45.4213659,346.533283 L45.4213659,339.815866 L52.2197873,339.815866 L52.2197873,339.815866 Z M111.306248,339.815866 L111.306248,346.533283 L97.1420162,346.533283 L97.1420162,342.14932 C92.7444892,345.508078 88.5354527,347.180962 84.5026168,347.180962 C81.9524949,347.180962 79.8352739,346.614273 78.1620399,345.494584 C76.4892397,344.374882 75.3834227,342.931739 74.8302831,341.151032 C74.2771856,339.370241 73.9934842,336.51069 73.9934842,332.55799 L73.9934842,314.96756 L68.5710877,314.96756 L68.5710877,308.249275 L81.5215816,308.249275 L81.5215816,331.573195 C81.5215816,334.392349 81.6025292,336.294443 81.7644104,337.265744 C81.91242,338.237129 82.3710764,339.046535 83.1404494,339.680188 C83.895125,340.314191 84.866426,340.625341 86.0135358,340.625341 C89.494072,340.625341 93.2027816,338.965615 97.1420162,335.646932 L97.1420162,314.967546 L90.3435807,314.967546 L90.3435807,308.249275 L104.669708,308.249275 L104.669708,339.815852 L111.306248,339.815852 L111.306248,339.815866 Z M116.811944,346.533283 L116.811944,333.420964 L123.529459,333.420964 L123.529459,334.689054 C123.772302,336.483339 124.73011,337.967677 126.429897,339.127524 C128.12974,340.287638 130.139824,340.867386 132.459785,340.867386 C134.888073,340.867386 136.817195,340.449533 138.274168,339.599296 C139.717283,338.749745 140.445769,337.575704 140.445769,336.078643 C140.445769,334.621656 139.838291,333.555942 138.638005,332.868203 C137.437355,332.180631 135.06342,331.545774 131.501936,330.966445 C126.214041,330.076134 122.450588,328.632641 120.198081,326.649124 C117.945168,324.652954 116.811944,322.076264 116.811944,318.906753 C116.811944,315.722628 118.038825,313.052295 120.48097,310.906883 C122.936259,308.762325 126.159689,307.682641 130.153276,307.682641 C133.768328,307.682641 136.870778,308.424677 139.474426,309.909015 L139.474426,308.249289 L146.192292,308.249289 L146.192292,320.956492 L139.474426,320.956492 L139.474426,318.623037 C137.450862,315.479743 134.510714,313.915284 130.638975,313.915284 C128.668938,313.915284 127.036591,314.346645 125.768893,315.196881 C124.487253,316.059856 123.853208,317.193136 123.853208,318.623037 C123.853208,320.080108 124.433306,321.064832 125.606969,321.604086 C126.780688,322.157268 129.316491,322.723789 133.188271,323.344803 C136.898143,323.937975 139.703761,324.6264 141.605533,325.394961 C143.508102,326.17703 145.086069,327.472122 146.340302,329.266658 C147.595304,331.073666 148.215884,333.178163 148.215884,335.56597 C148.215884,339.127538 146.853366,341.946608 144.128275,344.037612 C141.403577,346.128699 137.869472,347.18099 133.525527,347.18099 C129.438283,347.18099 126.106135,346.236606 123.529445,344.361416 L123.529445,346.533325 L116.811944,346.533325 L116.811944,346.533283 Z M175.655561,331.721163 L153.55932,331.721163 L153.55932,325.515914 L176.518578,291.090878 L182.858763,291.090878 L182.858763,325.084637 L191.600584,325.084637 L191.600584,331.721149 L182.858763,331.721149 L182.858763,339.815852 L187.877205,339.815852 L187.877205,346.533269 L169.746738,346.533269 L169.746738,339.815852 L175.655561,339.815852 L175.655561,331.721163 L175.655561,331.721163 Z M175.655561,325.084651 L175.655561,303.419994 L161.181075,325.084651 L175.655561,325.084651 L175.655561,325.084651 Z M206.817107,339.815866 L206.817107,298.213048 L199.290199,298.213048 L199.290199,291.576535 L214.344784,291.576535 L214.344784,339.815866 L221.467416,339.815866 L221.467416,346.533283 L199.290199,346.533283 L199.290199,339.815866 L206.817107,339.815866 L206.817107,339.815866 Z M276.156321,324.194255 L283.305912,328.187016 C281.700566,334.297852 278.448903,339.032691 273.552295,342.392219 C268.669489,345.750893 263.04396,347.423763 256.69031,347.423763 C248.353954,347.423763 241.663104,344.725239 236.631518,339.316336 C231.59954,333.920577 229.077231,327.229223 229.077231,319.270618 C229.077231,310.543102 231.613033,303.595397 236.67155,298.428525 C241.730096,293.262465 248.340475,290.686154 256.488396,290.686154 C263.691513,290.686154 269.735231,292.641564 274.645389,296.567641 L274.645389,291.576549 L281.767558,291.576549 L281.767558,309.22059 L274.645389,309.22059 C273.066568,305.64641 270.625584,302.866953 267.334336,300.911571 C264.029189,298.955042 260.562062,297.970247 256.933167,297.970247 C251.442882,297.970247 246.937043,299.953722 243.416445,303.905694 C239.895834,307.858044 238.142479,312.849569 238.142479,318.892909 C238.142479,325.098578 240.030308,330.157123 243.794616,334.082472 C247.571913,338.007738 252.036474,339.977761 257.203402,339.977761 C261.4525,339.977761 265.310745,338.615257 268.791323,335.876673 C272.271047,333.151162 274.726336,329.2528 276.156321,324.194255 L276.156321,324.194255 Z M328.214256,339.815866 L328.214256,346.533283 L315.022137,346.533283 L315.022137,341.865591 C311.393115,345.413581 307.332088,347.180948 302.854033,347.180948 C299.373497,347.180948 296.351995,346.047668 293.788842,343.781275 C291.212572,341.514883 289.930947,338.627897 289.930947,335.093834 C289.930947,331.54576 291.293492,328.591796 294.018191,326.257908 C296.756775,323.91061 300.047995,322.737255 303.892397,322.737255 C307.480546,322.737255 310.947574,323.816966 314.29365,325.975032 L314.29365,322.17065 C314.29365,320.201816 314.104376,318.703999 313.739699,317.637865 C313.36234,316.586428 312.49903,315.628537 311.136485,314.778216 C309.787783,313.928749 308.007076,313.510546 305.808095,313.510546 C302.030714,313.510546 299.306099,315.021101 297.606298,318.042561 L290.416646,316.140803 C293.613453,310.178369 299.130655,307.196928 306.968251,307.196928 C309.841393,307.196928 312.337135,307.588984 314.428181,308.357503 C316.532636,309.139572 318.097193,310.138294 319.122007,311.365974 C320.161574,312.592715 320.849229,313.915242 321.199979,315.331397 C321.563844,316.748323 321.739583,319.013862 321.739583,322.130575 L321.739583,339.815838 L328.214256,339.815838 L328.214256,339.815866 Z M314.293636,332.355264 C311.055523,329.833333 307.764219,328.565243 304.445578,328.565243 C302.368418,328.565243 300.628514,329.171909 299.225138,330.372517 C297.835549,331.586619 297.134092,333.138103 297.134092,335.053788 C297.134092,336.847988 297.741528,338.331542 298.968787,339.545742 C300.196425,340.74635 301.868847,341.353016 303.973386,341.353016 C307.615818,341.353016 311.055523,339.828533 314.293636,336.793664 L314.293636,332.355264 L314.293636,332.355264 Z M335.729195,356.974262 L335.729195,314.96756 L329.335148,314.96756 L329.335148,308.249289 L343.256957,308.249289 L343.256957,314.279135 C346.993032,309.881678 351.525859,307.682641 356.854584,307.682641 C362.223426,307.682641 366.674451,309.530872 370.195916,313.214106 C373.716485,316.910148 375.469925,321.712399 375.469925,327.620495 C375.469925,333.812237 373.554618,338.696163 369.736448,342.284214 C365.919426,345.871929 361.575873,347.66655 356.692647,347.66655 C351.633331,347.66655 347.154927,345.71002 343.256957,341.812008 L343.256957,356.974234 L350.702917,356.974234 L350.702917,363.692506 L328.768543,363.692506 L328.768543,356.974234 L335.729195,356.974234 L335.729195,356.974262 Z M343.135137,327.985046 C343.135137,330.102267 343.566834,332.125859 344.44368,334.055051 C345.306696,335.984146 346.696663,337.603042 348.58445,338.911627 C350.487062,340.220561 352.712623,340.867386 355.262311,340.867386 C358.837303,340.867386 361.791267,339.666694 364.125197,337.265744 C366.458652,334.864443 367.619241,331.559268 367.619241,327.351043 C367.619241,323.263799 366.405097,320.066166 363.963302,317.773123 C361.534972,315.466739 358.756355,314.319966 355.653094,314.319966 C352.335264,314.319966 349.421277,315.574226 346.912084,318.07001 C344.390153,320.565709 343.135137,323.870549 343.135137,327.985046 L343.135137,327.985046 Z M385.345768,295.191588 C385.345768,293.977486 385.777801,292.925195 386.627366,292.0348 C387.477603,291.130953 388.57001,290.68614 389.878553,290.68614 C391.120076,290.68614 392.171555,291.117109 393.075402,291.994739 C393.965797,292.857797 394.411338,293.936571 394.411338,295.191588 C394.411338,296.459342 393.965797,297.53897 393.075402,298.428511 C392.171555,299.306267 391.120076,299.750982 389.878553,299.750982 C388.624335,299.750982 387.545141,299.306253 386.668239,298.401972 C385.791309,297.511549 385.345768,296.432355 385.345768,295.191588 L385.345768,295.191588 Z M386.398017,339.815866 L386.398017,314.96756 L380.489949,314.96756 L380.489949,308.249289 L393.925737,308.249289 L393.925737,339.815866 L399.833749,339.815866 L399.833749,346.533283 L380.489949,346.533283 L380.489949,339.815866 L386.398017,339.815866 L386.398017,339.815866 Z M402.911171,314.96756 L402.911171,308.249289 L407.928843,308.249289 L407.928843,302.341235 L415.456941,295.461068 L415.456941,308.249303 L422.498191,308.249303 L422.498191,314.967574 L415.456941,314.967574 L415.456941,333.56938 C415.456941,336.550765 415.618836,338.38504 415.942584,339.087393 C416.27907,339.788458 417.102012,340.139684 418.410989,340.139684 C419.800535,340.139684 421.163024,339.869462 422.498191,339.330194 L422.498191,346.128685 C420.58259,346.829751 418.653831,347.180976 416.738146,347.180976 C414.444753,347.180976 412.58307,346.667855 411.166565,345.656494 C409.750493,344.644362 408.846646,343.376607 408.481969,341.838701 C408.118145,340.314219 407.928829,337.684045 407.928829,333.934001 L407.928829,314.96756 L402.911171,314.96756 L402.911171,314.96756 Z M465.949547,339.815866 L465.949547,346.533283 L452.757471,346.533283 L452.757471,341.865591 C449.128491,345.413581 445.067814,347.180948 440.589409,347.180948 C437.108873,347.180948 434.087371,346.047668 431.524567,343.781275 C428.947878,341.514883 427.666238,338.627897 427.666238,335.093834 C427.666238,331.54576 429.028784,328.591796 431.753525,326.257908 C434.492067,323.91061 437.783371,322.737255 441.628164,322.737255 C445.215837,322.737255 448.68288,323.816966 452.028984,325.975032 L452.028984,322.17065 C452.028984,320.201816 451.839668,318.703999 451.475075,317.637865 C451.097758,316.586428 450.234364,315.628537 448.872196,314.778216 C447.523103,313.928749 445.74241,313.510546 443.543415,313.510546 C439.766076,313.510546 437.041377,315.021101 435.341576,318.042561 L428.151966,316.140803 C431.348773,310.178369 436.865974,307.196928 444.703949,307.196928 C447.577091,307.196928 450.072455,307.588984 452.163444,308.357503 C454.267942,309.139572 455.832499,310.138294 456.857354,311.365974 C457.896921,312.592715 458.584493,313.915242 458.935326,315.331397 C459.29957,316.748323 459.474888,319.013862 459.474888,322.130575 L459.474888,339.815838 L465.949547,339.815838 L465.949547,339.815866 Z M452.02897,332.355264 C448.791193,329.833333 445.499511,328.565243 442.180912,328.565243 C440.103752,328.565243 438.363806,329.171909 436.960471,330.372517 C435.570925,331.586619 434.869384,333.138103 434.869384,335.053788 C434.869384,336.847988 435.476904,338.331542 436.704079,339.545742 C437.931773,340.74635 439.604223,341.353016 441.709056,341.353016 C445.351529,341.353016 448.791193,339.828533 452.02897,336.793664 L452.02897,332.355264 L452.02897,332.355264 Z M476.782456,339.815866 L476.782456,298.293995 L469.984035,298.293995 L469.984035,291.576535 L484.310176,291.576535 L484.310176,339.815866 L490.21823,339.815866 L490.21823,346.533283 L469.984035,346.533283 L469.984035,339.815866 L476.782456,339.815866 L476.782456,339.815866 Z" id="Shape" fill-rule="nonzero"></path>
                    <path d="M68.2282608,187.545646 C71.8060237,185.21061 136.774377,169.076397 145.458277,166.516365 C147.435047,165.90214 150.260905,165.025238 152.030932,163.942881 C152.139651,163.892854 152.350733,163.730581 152.451529,163.643264 C152.451529,163.643264 152.3579,163.736949 152.363443,163.741639 C152.231698,163.918273 152.161067,164.092822 152.103943,164.30473 C152.00792,164.726853 152.041276,165.07206 152.200778,165.474404 C152.34757,165.794989 152.513426,166.017171 152.794328,166.22593 C152.899883,166.298073 153.206975,166.428278 153.127651,166.414785 C151.792877,166.280647 149.538788,166.561563 148.196063,166.714737 C140.610842,167.604321 133.125969,169.207315 125.589137,170.406804 C110.83449,173.014371 90.4860334,177.225466 75.8337645,177.519875 C73.0440052,177.462681 70.2903596,177.365105 67.5148778,177.077064 C66.4967131,176.958827 65.5269938,176.81909 64.5294894,176.577059 C64.0858944,176.496112 63.6510338,176.292182 63.2320464,176.149337 C62.6507579,175.891461 62.2492114,175.64071 61.785754,175.193545 C61.442969,174.839548 61.229465,174.526172 61.0286988,174.073031 C60.7985797,173.502423 60.7263946,173.028649 60.7771636,172.414494 C60.8406562,171.871685 60.9723588,171.474128 61.2397952,170.997961 C61.4413593,170.662328 61.6349868,170.420255 61.9135652,170.144854 C62.7579088,169.366761 63.588325,168.976329 64.6398037,168.551042 C67.6862773,167.361464 71.1465871,166.586954 74.3375009,165.883873 C95.6342326,161.209392 117.115927,157.363408 138.28293,152.109654 C142.118569,151.131984 145.952683,150.128181 149.714919,148.893363 C150.714033,148.560894 151.76113,148.205315 152.714193,147.756191 C152.858619,147.687155 153.13479,147.527612 153.076042,147.564901 C152.95383,147.650636 152.845111,147.757815 152.745925,147.86652 C152.398339,148.262509 152.21185,148.6362 152.059487,149.140979 C151.943644,149.575839 151.913479,149.926547 151.947633,150.375713 C151.996008,150.85188 152.098386,151.208998 152.308671,151.63749 C152.602282,152.183883 152.918108,152.563985 153.432335,152.909136 C153.622813,153.026645 154.125113,153.20752 153.906108,153.165444 C152.960997,153.013151 151.799987,153.010729 150.844154,153.003591 C145.301938,153.05443 139.610132,153.530499 134.088129,153.987574 C114.581693,155.984976 95.2064968,160.257141 75.7194468,162.840157 C73.2764758,163.128198 70.8791647,163.363916 68.4203066,163.466308 C66.4419688,163.523418 64.604866,163.550419 62.6967397,162.947294 C61.869865,162.641015 61.3143739,162.301365 60.6715944,161.684705 C60.1668722,161.160988 59.8661218,160.687215 59.5979015,160.008699 C59.3241243,159.232622 59.2503154,158.596183 59.342391,157.77926 C59.4360064,157.13252 59.5931424,156.649186 59.8978821,156.074686 C60.1161033,155.684211 60.3287674,155.385057 60.6239888,155.050978 C61.0508988,154.586779 61.442955,154.261393 61.9571814,153.903477 C64.0898557,152.495691 66.6792266,151.535112 69.069077,150.655831 C69.468202,150.509865 69.8681387,150.362233 70.2681455,150.216995 C88.696564,143.953054 110.360716,140.667741 127.846389,133.50978 C129.131164,132.926518 130.805616,132.159972 131.9491,131.331474 C132.338763,131.038688 131.953887,131.350566 131.765803,131.626695 C131.41343,132.182228 131.262676,132.691668 131.180147,133.344735 C131.09843,134.418428 131.314257,135.260042 131.895952,136.166283 C132.300648,136.735268 132.699017,137.120927 133.31005,137.454194 C133.402923,137.536765 133.734188,137.626391 133.868298,137.679567 C133.946083,137.699472 133.461223,137.645484 133.102915,137.64232 C131.246005,137.65342 129.320816,137.910498 127.485715,138.177179 C111.516952,140.702693 96.8547173,144.368878 80.5776177,145.410069 C78.593709,145.500549 76.6027175,145.570382 74.6191727,145.424374 C73.7264257,145.343427 73.0098793,145.233126 72.1496205,144.958509 C71.4306665,144.709298 70.9235788,144.442701 70.310166,143.980881 C69.8189655,143.586474 69.484873,143.227788 69.1261589,142.70638 C68.6758171,142.009668 68.4409389,141.412913 68.2933212,140.595514 C68.1758681,139.788082 68.204451,139.161162 68.3996882,138.372388 C68.5591478,137.794641 68.7496259,137.354223 69.0610985,136.845554 C69.4562901,136.236075 69.8260902,135.822658 70.37762,135.359215 C71.0267544,134.836268 71.6100026,134.492237 72.3480212,134.118504 C73.7819818,133.415423 75.235385,132.876547 76.7399631,132.345663 C95.79533,126.003169 116.146936,122.148437 134.860288,115.223408 C135.627659,114.939343 136.290245,114.606874 137.021111,114.265601 C137.574236,113.960091 136.946546,114.333825 136.535481,114.841766 C136.251374,115.222624 136.068077,115.565479 135.892674,116.009088 C135.631592,116.728826 135.547481,117.318793 135.580026,118.084583 C135.645086,118.928968 135.829979,119.560662 136.238678,120.301858 C136.551327,120.828766 136.856052,121.204123 137.317116,121.604046 C138.065451,122.191325 138.806619,122.410288 138.643954,122.379312 C135.583987,121.958757 130.06519,122.384141 126.919124,122.584095 C116.132659,123.35659 105.305349,124.72871 94.5962755,125.408751 C92.8440675,125.484183 91.2581499,125.53729 89.5337549,125.149293 C88.7687632,124.947673 88.2140279,124.709603 87.5387462,124.283463 C86.93327,123.881161 86.5146465,123.486753 86.0631149,122.913065 C85.4473226,122.077778 85.130685,121.338989 84.9457919,120.314498 C84.8029473,119.321794 84.8592873,118.55042 85.1521152,117.594194 C85.3679707,116.957321 85.6068382,116.478089 85.9948771,115.930534 C86.433713,115.343255 86.8237535,114.952822 87.4022285,114.513189 C89.4107448,113.153037 91.594622,112.477727 93.8915849,111.764302 C105.558493,108.238148 120.529808,104.83492 131.513428,100.680656 C130.319916,101.197276 129.554127,101.83692 128.841527,102.926458 C128.185268,104.036586 127.942426,105.008741 128.004323,106.298667 C128.12256,107.56519 128.489994,108.481719 129.2772,109.483226 C130.120774,110.456109 130.964305,110.998149 132.205408,111.349276 C127.924187,110.663244 117.666631,112.302338 112.862043,112.837239 C111.191594,113.009436 109.554866,113.159406 107.873331,113.17052 C107.009125,113.165733 106.251286,113.122116 105.394247,112.97923 C104.809361,112.870511 104.325299,112.736429 103.767834,112.522925 C102.843313,112.145216 102.201359,111.73334 101.472859,111.042563 C100.392013,109.933162 99.8515977,108.835716 99.6183012,107.303324 C99.4857728,105.986019 99.6381637,104.988109 100.16188,103.780278 C100.78085,102.514567 101.41015,101.763909 102.450529,100.843349 C104.179291,99.393529 106.01477,98.3083022 107.97249,97.2084341 C108.209761,97.0759197 108.446249,96.9426074 108.684305,96.8132564 C114.388821,93.7953378 133.371149,80.3353906 138.790774,87.7440474 C143.662032,94.7634334 120.167146,104.093724 114.436427,107.220739 C114.223762,107.337394 113.96744,107.465206 113.766688,107.592163 C112.683477,108.197639 111.188403,109.026082 110.235355,109.800634 C110.186909,109.84271 110.636845,109.35151 110.968572,108.672995 C111.389183,107.703233 111.489181,106.871613 111.383584,105.817797 C111.18363,104.504803 110.72335,103.548591 109.796883,102.599504 C109.273152,102.102705 108.806517,101.777374 108.142307,101.504409 C108.018513,101.423462 107.659813,101.359171 107.497148,101.313931 C107.273356,101.2766 107.875669,101.325031 107.909795,101.326613 C109.140596,101.328964 110.425763,101.202049 111.650223,101.082958 C119.317987,100.279109 127.478576,98.6161774 135.118962,100.051342 C136.456899,100.428323 137.365534,101.003634 138.274938,102.056653 C139.120121,103.129618 139.514095,104.1136 139.641052,105.474186 C139.706967,106.85574 139.447439,107.899268 138.743952,109.090442 C137.986897,110.245041 137.164767,110.939359 135.897447,111.488187 C124.178958,115.734513 109.452488,119.055156 97.1959485,122.626984 C96.5269797,122.830494 93.2202365,124.229558 94.1661601,123.580424 C94.5748313,123.270939 94.8589247,122.961412 95.1684236,122.547576 C95.5151978,122.056375 95.7239147,121.634197 95.9167443,121.062007 C96.1913054,120.16457 96.2413045,119.437652 96.1087761,118.507615 C95.9342132,117.545763 95.6381799,116.845453 95.0597049,116.061467 C94.6557789,115.547199 94.2820034,115.191662 93.7407758,114.829084 C93.2773883,114.537796 92.8670654,114.337072 92.3389534,114.198973 C91.3613115,113.982361 93.6606401,114.160102 94.0923372,114.144172 C104.655416,113.634775 115.553764,112.285723 126.228725,111.606396 C130.656388,111.35167 136.284688,110.975123 140.644926,111.680163 C142.14634,111.977008 143.120049,112.346766 144.350836,113.311783 C144.917441,113.803753 145.290796,114.251337 145.674888,114.90043 C146.143091,115.748021 146.355755,116.467759 146.430361,117.434706 C146.467651,118.330659 146.366071,119.013863 146.05898,119.855057 C145.825655,120.44865 145.577297,120.893043 145.198763,121.403294 C144.262749,122.556352 143.423151,123.140804 142.140797,123.835137 C141.033748,124.412884 139.929891,124.87154 138.76534,125.320706 C119.692561,132.12586 99.4056231,135.905215 80.0935419,142.036642 C79.0365481,142.400885 77.8969691,142.793711 76.886783,143.270648 C76.6042993,143.408705 76.6265133,143.427756 76.8756549,143.226948 C77.2240389,142.931768 77.4597289,142.638185 77.7104943,142.253253 C77.9747392,141.821556 78.1310634,141.451028 78.2659854,140.959785 C78.4413601,140.248376 78.4659678,139.681729 78.3596147,138.955678 C78.2255046,138.215308 78.0167877,137.676432 77.6081305,137.04632 C77.3057563,136.606757 77.0200952,136.292456 76.6042853,135.959988 C76.2201797,135.669553 75.8749731,135.462376 75.421062,135.306892 C75.0353886,135.183056 75.179031,135.251364 75.5131236,135.283866 C76.9851994,135.416422 78.6564178,135.348968 80.1332249,135.29344 C95.8579968,134.447039 110.593999,130.914138 126.10808,128.628261 C128.497889,128.302119 130.816674,128.04108 133.232294,128.06405 C134.239694,128.085536 135.095138,128.15453 136.080744,128.379092 C136.695739,128.53151 137.179017,128.704044 137.747218,128.99375 C138.634408,129.475432 139.208949,129.980938 139.798958,130.807771 C140.522685,131.932247 140.782171,132.956011 140.67901,134.289119 C140.558421,135.265627 140.306844,135.967168 139.785451,136.794001 C139.121675,137.76855 138.479651,138.354961 137.54088,139.042967 C135.698221,140.323753 133.730997,141.251857 131.684813,142.160492 C113.394466,149.329049 92.1651324,152.410054 73.2351832,158.485995 C72.8574324,158.635124 72.4233697,158.778011 72.034533,158.909699 C70.5505872,159.442976 68.2036251,160.264336 66.8569529,161.082504 C66.7895269,161.12612 67.0633042,160.876139 67.0839085,160.853197 C67.260865,160.653201 67.3878364,160.464346 67.5179712,160.23021 C67.7584204,159.778692 67.8750896,159.393047 67.9488985,158.886715 C68.0258708,158.189149 67.9623501,157.642799 67.7274999,156.981025 C67.5084529,156.420704 67.260865,156.022363 66.8442432,155.590666 C66.4744431,155.235129 66.1197182,154.970842 65.63805,154.793144 C65.1095321,154.632873 67.4473678,154.866099 68.1592111,154.851836 C70.3688576,154.79152 72.54561,154.596339 74.7429667,154.359823 C94.3732252,152.053398 113.764238,147.922929 133.470727,146.225872 C139.218468,145.805275 145.143193,145.378365 150.90759,145.44894 C152.41179,145.473548 153.894966,145.522035 155.374167,145.808452 C156.203407,145.983043 156.783506,146.17667 157.516387,146.62858 C158.18852,147.07937 158.598773,147.532511 158.986028,148.250625 C159.227275,148.744261 159.347121,149.156096 159.40265,149.705218 C159.442332,150.226625 159.405043,150.636878 159.271717,151.142384 C159.061418,151.835163 158.795578,152.313262 158.320236,152.854475 C158.037753,153.16396 157.776643,153.391728 157.437022,153.63688 C156.918806,153.996434 156.435948,154.252728 155.866151,154.518513 C154.596479,155.086728 153.315693,155.520861 151.992803,155.944579 C148.04524,157.161886 144.034198,158.163772 140.020357,159.137467 C118.722813,164.040527 97.0824708,167.782103 75.6273852,171.983623 C72.8011205,172.571616 69.5729313,173.233474 66.8530196,174.207939 C66.5094088,174.341265 65.7856677,174.795176 66.1141892,174.484922 C66.2522886,174.348404 66.3514889,174.211102 66.4514591,174.043692 C66.6442888,173.702433 66.733201,173.408877 66.7799946,173.017591 C66.817312,172.543047 66.7625398,172.171666 66.5839875,171.730478 C66.4475118,171.422533 66.3046673,171.198783 66.0713428,170.958362 C65.9681812,170.858321 65.7824903,170.693263 65.6460146,170.638533 C65.711075,170.678943 65.9594468,170.748021 66.0372169,170.770235 C66.7538193,170.959901 67.4902422,171.06862 68.2242855,171.164685 C70.8037461,171.489203 73.3891558,171.613851 75.9853015,171.70741 C89.7646578,171.83287 110.7535,167.828925 124.788409,165.611692 C132.356176,164.419804 140.106092,163.134623 147.727035,162.387072 C149.609363,162.204544 152.016627,161.952253 153.882271,162.260884 C154.417927,162.365628 154.791689,162.495791 155.250373,162.808467 C155.633653,163.09172 155.868559,163.383051 156.066176,163.819451 C156.270091,164.332529 156.305029,164.766578 156.183587,165.303774 C156.085982,165.671993 155.957415,165.93313 155.734435,166.237828 C155.666981,166.382254 155.358294,166.641712 155.240855,166.76636 C154.992455,167.03535 154.487761,167.302801 154.179844,167.512245 C151.917398,168.76372 149.064188,169.607294 146.589849,170.331399 C143.573918,171.129733 128.372499,174.753128 112.125564,178.471384 L112.125564,234.40541 C144.652384,226.272942 180.970849,221.058912 219.511586,219.513028 L219.511586,166.768726 C197.441114,171.757437 176.211458,176.306487 173.198733,176.154166 C177.704153,173.213612 259.535205,152.891723 270.471262,149.667957 C272.960635,148.894175 276.520971,147.789603 278.74922,146.427058 C278.887361,146.363579 279.153146,146.15846 279.279333,146.049657 C279.279333,146.049657 279.161138,146.166312 279.167409,146.172681 C279.003205,146.396865 278.914264,146.6151 278.841309,146.882551 C278.721449,147.414204 278.764337,147.849107 278.96348,148.355354 C279.148443,148.759281 279.357076,149.038657 279.7118,149.302902 C279.844357,149.394193 280.232046,149.556047 280.130424,149.53862 C278.450877,149.371937 275.611525,149.72585 273.919282,149.91791 C264.367551,151.038467 254.939306,153.059231 245.447162,154.566972 C226.862783,157.851529 201.233991,163.156893 182.777773,163.527463 C179.266652,163.453654 175.796446,163.332198 172.300401,162.969578 C171.017977,162.819595 169.797521,162.64506 168.540922,162.340278 C167.981442,162.237159 167.434685,161.980864 166.906167,161.800674 C166.17372,161.476156 165.668214,161.15949 165.085764,160.5984 C164.653255,160.1509 164.384222,159.75645 164.131917,159.185926 C163.841469,158.46854 163.750989,157.86981 163.814468,157.096896 C163.895416,156.413594 164.060474,155.911335 164.39773,155.314481 C164.652471,154.889965 164.896111,154.585211 165.245251,154.237625 C166.308586,153.258429 167.355319,152.766403 168.679372,152.231502 C172.51704,150.731319 176.874884,149.756827 180.893877,148.871974 C207.71772,142.984973 234.773768,138.139078 261.434177,131.524388 C266.265767,130.290423 271.094963,129.027834 275.832923,127.470457 C277.091495,127.053878 278.410424,126.604754 279.610262,126.039688 C279.793602,125.952372 280.140726,125.750836 280.066175,125.797657 C279.911797,125.905606 279.776133,126.04127 279.649945,126.179383 C279.213503,126.676911 278.977841,127.148333 278.784158,127.784771 C278.640543,128.3315 278.60163,128.773121 278.64533,129.339713 C278.707185,129.938092 278.834997,130.38884 279.099241,130.928444 C279.470623,131.617261 279.868195,132.09333 280.514543,132.529003 C280.756574,132.678258 281.389052,132.905172 281.111299,132.852793 C279.922099,132.662315 278.458827,132.656002 277.255742,132.648821 C270.274457,132.7123 263.106585,133.312261 256.15107,133.887573 C231.582435,136.404367 207.17974,141.784323 182.634901,145.037903 C179.557101,145.400523 176.538412,145.696556 173.440764,145.825907 C170.949739,145.899674 168.636553,145.932274 166.233237,145.173623 C165.190521,144.787166 164.489806,144.36097 163.682751,143.58254 C163.046313,142.922306 162.66579,142.326362 162.329304,141.47082 C161.984112,140.493192 161.892078,139.692899 162.007922,138.663634 C162.124605,137.849441 162.322964,137.242397 162.707027,136.516249 C162.982036,136.025048 163.251838,135.647339 163.622436,135.227526 C164.158905,134.642682 164.653255,134.232779 165.300765,133.781304 C167.987027,132.007693 171.249734,130.798295 174.257322,129.691232 C174.760827,129.506395 175.265535,129.321474 175.769459,129.138176 C198.978628,121.249377 226.265229,117.110216 248.289692,108.096129 C249.906964,107.362086 252.016626,106.39714 253.456956,105.351988 C253.947344,104.982566 253.463282,105.376596 253.226025,105.724952 C252.784753,106.424869 252.59198,107.064555 252.4904,107.887454 C252.386426,109.240426 252.65704,110.299855 253.390313,111.44138 C253.900481,112.157954 254.399674,112.644465 255.17102,113.063383 C255.287676,113.168168 255.705109,113.281618 255.873331,113.34749 C255.973287,113.373722 255.361498,113.306226 254.909127,113.299899 C252.570493,113.314204 250.146615,113.637967 247.836564,113.974439 C227.72258,117.1554 209.25564,121.77315 188.753701,123.08606 C186.255566,123.198754 183.747479,123.286826 181.249385,123.101905 C180.124518,123.001179 179.22221,122.863038 178.138215,122.515872 C177.231933,122.201642 176.593954,121.865939 175.821838,121.284301 C175.202868,120.789125 174.782271,120.335984 174.331103,119.679725 C173.763714,118.802067 173.467709,118.050541 173.282844,117.020464 C173.134428,116.005169 173.17015,115.21396 173.41617,114.220445 C173.616894,113.492714 173.855776,112.938847 174.249386,112.296851 C174.745779,111.53025 175.211546,111.007653 175.906719,110.424391 C176.724915,109.76578 177.45816,109.333313 178.388197,108.862703 C180.194351,107.977095 182.027045,107.298579 183.919662,106.630394 C207.920894,98.6416249 233.55404,93.7874432 257.125198,85.0638186 C258.090942,84.7067422 258.924186,84.2877408 259.844648,83.8576674 C260.541444,83.4719381 259.752684,83.9449419 259.234441,84.5821504 C258.874971,85.0630208 258.644012,85.4947179 258.424223,86.0534144 C258.094918,86.959655 257.988593,87.7027967 258.029003,88.6678269 C258.111575,89.7311755 258.344899,90.5271298 258.860707,91.4603296 C259.252721,92.1237275 259.636785,92.5975431 260.218466,93.1006135 C261.160414,93.8414596 262.093614,94.1160347 261.889684,94.0786614 C258.036142,93.5478199 251.084168,94.0818668 247.12237,94.3357816 C233.537425,95.3078945 219.897287,97.0354949 206.409989,97.8933321 C204.20387,97.9870174 202.206887,98.0544154 200.034866,97.5656085 C199.070746,97.3116937 198.373222,97.012511 197.521306,96.4760705 C196.758722,95.9665892 196.231771,95.4722252 195.663585,94.7500098 C194.887507,93.6969913 194.489124,92.7649953 194.255029,91.4762168 C194.076435,90.2263654 194.148662,89.2550223 194.514529,88.049669 C194.787495,87.2469679 195.088217,86.6430874 195.577066,85.9558098 C196.130206,85.2146278 196.620594,84.7234272 197.349864,84.168706 C199.878584,82.456265 202.62985,81.6059024 205.521973,80.7075983 C220.217088,76.2652794 239.074475,71.9788926 252.908589,66.7464844 C251.405593,67.3956188 250.439373,68.2050946 249.541895,69.5747787 C248.716602,70.9741935 248.41028,72.1986675 248.48721,73.8222944 C248.635696,75.4189341 249.100707,76.5723287 250.091787,77.8317124 C251.15403,79.0609316 252.21896,79.7402166 253.779934,80.1846515 C248.387296,79.3196335 235.466561,81.3844898 229.416852,82.057028 C227.313125,82.2768869 225.250998,82.4641176 223.133049,82.4776671 C222.044281,82.472922 221.089259,82.4181637 220.011591,82.2364061 C219.273572,82.1007003 218.664849,81.9332901 217.96258,81.6630962 C216.796839,81.1861591 215.990639,80.6679154 215.071283,79.7965706 C213.711089,78.401565 213.02941,77.0191151 212.735001,75.088047 C212.567591,73.4302802 212.760462,72.1724782 213.420697,70.6520549 C214.199896,69.056619 214.993499,68.1106954 216.302518,66.9528916 C218.480012,65.1261049 220.791644,63.7599202 223.258425,62.3744469 C223.55681,62.2069527 223.855992,62.0403544 224.155091,61.8744419 C231.33885,58.0744686 255.248804,41.1225212 262.073821,50.4543935 C268.209181,59.2946313 238.617792,71.0464207 231.398353,74.9840315 C231.131715,75.1324331 230.807967,75.2912068 230.557173,75.4514363 C229.192276,76.2160641 227.307526,77.2579826 226.108065,78.2333009 C226.04621,78.2872053 226.613529,77.6675077 227.029423,76.8136457 C227.561511,75.5919013 227.688468,74.5443838 227.555142,73.2160203 C227.301997,71.5646224 226.722332,70.3583872 225.557306,69.1620902 C224.897071,68.5375634 224.30912,68.1264986 223.471901,67.7845115 C223.315563,67.6829316 222.864801,67.6011722 222.660871,67.5448742 C222.378304,67.4980105 223.135415,67.5599495 223.179031,67.5606774 C224.728037,67.5639248 226.347689,67.4052351 227.88922,67.2528162 C237.548046,66.2410204 247.825422,64.1463914 257.448149,65.9545614 C259.134443,66.4298747 260.278753,67.1535879 261.424673,68.4796977 C262.489995,69.8310871 262.985983,71.0710003 263.144672,72.7843372 C263.228783,74.5245913 262.902642,75.8387333 262.014248,77.3389582 C261.061997,78.7935512 260.026406,79.6672476 258.431362,80.3592704 C243.669128,85.7066682 225.121619,89.8906771 209.684552,94.38984 C208.84298,94.6453365 204.677602,96.4077906 205.868733,95.5904902 C206.383772,95.2000157 206.741618,94.8095832 207.131281,94.2882601 C207.566911,93.6700601 207.830386,93.1379729 208.074041,92.4174232 C208.419233,91.2873904 208.482754,90.3723873 208.314448,89.1995082 C208.095485,87.9893817 207.723291,87.1072728 206.993979,86.1185028 C206.48531,85.4725738 206.01393,85.0241777 205.332293,84.5671451 C204.749031,84.2005084 204.231641,83.9473634 203.567781,83.7735844 C202.336168,83.500535 205.232295,83.725139 205.77586,83.7045067 C219.078321,83.0633229 232.806923,81.3631016 246.250983,80.5068461 C251.828499,80.187017 258.917733,79.7132854 264.408787,80.6005314 C266.299865,80.9742649 267.526704,81.4400459 269.07767,82.6562473 C269.791081,83.275987 270.260935,83.8402405 270.744227,84.657583 C271.334614,85.7257608 271.602834,86.6311895 271.695666,87.8481188 C271.744069,88.9772978 271.614718,89.8367727 271.228219,90.8984977 C270.934663,91.6452787 270.622785,92.2055149 270.14428,92.8467407 C268.967426,94.300102 267.90843,95.035769 266.29351,95.9102772 C264.898462,96.6380076 263.509685,97.2148589 262.042061,97.7806802 C238.019426,106.353468 212.465983,111.112102 188.144208,118.837005 C186.814164,119.294121 185.377432,119.789297 184.105353,120.390756 C183.749858,120.564577 183.776817,120.588359 184.089508,120.335228 C184.529155,119.963888 184.826714,119.593234 185.142526,119.108444 C185.475079,118.563241 185.67187,118.097418 185.842485,117.479218 C186.06303,116.582888 186.094007,115.869477 185.959869,114.954558 C185.791647,114.02371 185.528171,113.344383 185.014799,112.55078 C184.633031,111.996913 184.273617,111.600153 183.749046,111.18195 C183.26497,110.815691 182.829312,110.555421 182.258732,110.357805 C181.771506,110.203902 181.954804,110.287957 182.373805,110.329992 C184.228363,110.496716 186.334008,110.412563 188.194165,110.342715 C207.99858,109.276161 226.557959,104.826326 246.100985,101.94883 C249.10933,101.536953 252.030875,101.20769 255.072576,101.237799 C256.342206,101.265612 257.418684,101.351248 258.660683,101.6346 C259.435949,101.82589 260.04463,102.043271 260.759623,102.408284 C261.876974,103.014614 262.602647,103.650241 263.344599,104.692187 C264.254087,106.109113 264.581769,107.399417 264.453229,109.077005 C264.300811,110.307036 263.982661,111.191412 263.32559,112.234128 C262.491535,113.460198 261.681667,114.197405 260.499353,115.064005 C258.178161,116.678925 255.701078,117.848165 253.125159,118.992517 C230.088131,128.020419 203.34879,131.900529 179.508641,139.553274 C179.030934,139.742128 178.483394,139.921492 177.994531,140.088091 C176.124128,140.759089 173.170094,141.794639 171.473456,142.823092 C171.388519,142.880243 171.73213,142.565215 171.758333,142.535863 C171.981342,142.282676 172.140815,142.046202 172.306686,141.75098 C172.607394,141.181996 172.754256,140.69638 172.847885,140.057128 C172.945518,139.180324 172.86457,138.491423 172.570161,137.657451 C172.293206,136.951935 171.981328,136.451258 171.455973,135.906867 C170.990934,135.458513 170.543364,135.12673 169.936292,134.903792 C169.271298,134.699862 172.215394,134.994272 173.11213,134.976789 C175.895577,134.901356 178.637324,134.655392 181.406409,134.357441 C206.128961,131.452216 230.554752,126.248391 255.371759,124.112917 C262.612977,123.582034 270.07516,123.044012 277.336633,123.134533 C279.229334,123.164642 281.098547,123.226539 282.961784,123.586009 C284.006124,123.805868 284.736206,124.050264 285.657522,124.619249 C286.505449,125.188234 287.022839,125.758044 287.511659,126.661849 C287.814817,127.284025 287.964801,127.802996 288.034606,128.493423 C288.085445,129.150844 288.039435,129.668318 287.869548,130.303091 C287.604575,131.177599 287.269671,131.77917 286.673727,132.460807 C286.315027,132.850469 285.986491,133.136117 285.559875,133.446371 C284.905282,133.899513 284.29891,134.220965 283.579942,134.556206 C281.982588,135.27201 280.369249,135.819565 278.701614,136.35203 C273.730343,137.886773 268.678503,139.147724 263.623961,140.373794 C236.797304,146.550026 209.541287,151.262231 182.518987,156.553289 C178.958651,157.294471 174.894083,158.128134 171.467101,159.356514 C171.034634,159.524736 170.124404,160.094574 170.537051,159.705723 C170.71083,159.533526 170.837003,159.359677 170.962421,159.148609 C171.204452,158.720075 171.315536,158.348693 171.37504,157.85787 C171.422645,157.258763 171.353623,156.79217 171.129005,156.234285 C170.957648,155.847828 170.775904,155.564477 170.482307,155.262131 C170.352914,155.137609 170.119645,154.92962 169.946608,154.86064 C170.029165,154.909855 170.343409,154.998697 170.439418,155.024929 C171.342495,155.265336 172.269368,155.401056 173.194688,155.522456 C176.443845,155.931169 179.699819,156.089103 182.968909,156.206486 C200.325301,156.363678 226.761861,151.320936 244.438081,148.528406 C253.96953,147.025409 263.729502,145.409383 273.329595,144.465811 C275.701109,144.238044 278.730897,143.92065 281.083458,144.307891 C281.755604,144.439636 282.229336,144.603882 282.803836,144.997478 C283.287912,145.355367 283.583119,145.722045 283.833143,146.272371 C284.091019,146.91753 284.134635,147.464259 283.97992,148.141962 C283.856896,148.603054 283.696625,148.934795 283.415709,149.318005 C283.329974,149.499763 282.941935,149.825135 282.793576,149.98465 C282.480073,150.321136 281.843677,150.658378 281.45722,150.922581 C278.607145,152.49982 275.015455,153.563169 271.896432,154.471803 C268.097187,155.478854 248.951382,160.042223 228.489125,164.726965 L228.489125,219.221138 C233.516708,219.094908 238.577213,219.027496 243.672292,219.027496 C284.625849,219.027496 323.52733,223.156733 358.61379,230.576126 L358.61379,149.98542 C330.817414,156.269265 304.076828,161.999873 300.283209,161.807057 C305.958331,158.104352 409.024302,132.507684 422.798899,128.446616 C425.933389,127.472151 430.418246,126.082619 433.225433,124.365348 C433.397672,124.285213 433.734872,124.028092 433.892078,123.890035 C433.892078,123.890035 433.744446,124.038395 433.753167,124.046331 C433.546843,124.326463 433.433394,124.601864 433.342102,124.938308 C433.191349,125.608075 433.243727,126.157197 433.496004,126.795218 C433.728601,127.302347 433.99118,127.653909 434.437995,127.988001 C434.605447,128.103033 435.091902,128.306962 434.965715,128.28472 C432.849264,128.075276 429.273936,128.519627 427.143208,128.762119 C415.111244,130.173026 403.236375,132.718739 391.279508,134.618145 C367.874262,138.756564 335.592636,145.435544 312.346905,145.902949 C307.923987,145.810132 303.554679,145.657713 299.151581,145.20145 C297.534701,145.012596 295.998334,144.791967 294.41439,144.407889 C293.712121,144.27935 293.023262,143.95556 292.358338,143.728562 C291.434195,143.319933 290.797798,142.921508 290.063755,142.212926 C289.519364,141.651878 289.18131,141.154267 288.863063,140.435299 C288.49728,139.530248 288.383004,138.777196 288.463098,137.804313 C288.564678,136.943271 288.771813,136.309981 289.197953,135.559281 C289.51858,135.024422 289.824874,134.641129 290.265277,134.204294 C291.604839,132.97033 292.924118,132.350506 294.590549,131.676009 C299.42372,129.786555 304.914005,128.560149 309.974902,127.443568 C343.760335,120.030544 377.835728,113.927659 411.416042,105.594887 C417.501459,104.041485 423.583683,102.450403 429.552445,100.49029 C431.137158,99.9641934 432.798509,99.39917 434.311037,98.6861369 C434.538805,98.5766904 434.977599,98.3218938 434.883997,98.3822511 C434.689502,98.5179149 434.518942,98.6885725 434.359385,98.8631214 C433.809535,99.4912736 433.513501,100.0832 433.270617,100.884697 C433.088901,101.574369 433.038916,102.129818 433.09373,102.842459 C433.173054,103.596323 433.332555,104.163698 433.666648,104.843794 C434.134011,105.71073 434.633204,106.313085 435.44979,106.859827 C435.752137,107.047912 436.548861,107.335183 436.200505,107.268541 C434.702296,107.02805 432.860378,107.021681 431.343496,107.01219 C422.551269,107.092326 413.522135,107.84696 404.760829,108.572339 C373.818807,111.742158 343.081022,118.519541 312.166729,122.615128 C308.291449,123.072622 304.48869,123.44721 300.587949,123.609105 C297.44898,123.70188 294.536617,123.743145 291.507976,122.78573 C290.196311,122.30094 289.313811,121.762022 288.296514,120.782 C287.495016,119.951192 287.01731,119.20045 286.592751,118.123552 C286.157849,116.892359 286.042005,115.88458 286.187201,114.587054 C286.334021,113.560266 286.584815,112.796016 287.068834,111.881867 C287.414069,111.264437 287.752907,110.787934 288.221081,110.259388 C288.897245,109.52137 289.518608,109.006373 290.335097,108.438998 C293.717678,106.204338 297.826339,104.681101 301.616402,103.28681 C302.250447,103.055109 302.884492,102.821757 303.519741,102.590014 C332.752486,92.6530992 367.121126,87.4398255 394.860392,76.087567 C396.897435,75.1626117 399.553882,73.9469282 401.368799,72.6311625 C401.986187,72.1661933 401.378332,72.6613691 401.077553,73.100191 C400.521292,73.9810541 400.279261,74.7872546 400.15145,75.8228462 C400.020559,77.5278126 400.361749,78.861817 401.284688,80.3005228 C401.928224,81.2027882 402.556712,81.815865 403.528447,82.343585 C403.675267,82.4760994 404.200635,82.6181321 404.413243,82.7006194 C404.538661,82.7347454 403.768938,82.6491086 403.198329,82.6419699 C400.25303,82.6593968 397.200215,83.0672981 394.289056,83.4902468 C368.955443,87.4953537 345.697828,93.3133617 319.874205,94.9667192 C316.727761,95.1095638 313.567376,95.2198222 310.422556,94.9873516 C309.0064,94.8603942 307.868417,94.6850054 306.503478,94.249333 C305.363185,93.8533435 304.558524,93.4307448 303.586425,92.6967015 C302.806708,92.0721747 302.276636,91.5024201 301.709233,90.6763572 C300.993471,89.5708901 300.621235,88.6241966 300.387995,87.3262778 C300.200638,86.0479274 300.246732,85.0527466 300.556987,83.8005016 C300.809362,82.8847707 301.110084,82.1856651 301.60526,81.3773791 C302.232222,80.4108652 302.81701,79.7553339 303.692708,79.0197369 C304.722785,78.1912804 305.647306,77.6453216 306.820185,77.0524852 C309.094486,75.9367159 311.400982,75.082462 313.785625,74.2397001 C344.015034,64.1789915 376.300243,58.0634105 405.987711,47.0777467 C407.205018,46.626999 408.254873,46.1004687 409.41472,45.5591991 C410.29319,45.0720579 409.298065,45.6672319 408.644578,46.4718926 C408.192206,47.0769349 407.903396,47.6197442 407.625643,48.3252186 C407.210603,49.4663654 407.077291,50.4012169 407.128032,51.6153187 C407.232005,52.956084 407.527227,53.9590754 408.173953,55.1335782 C408.669171,55.9700133 409.152771,56.5659152 409.885289,57.2007861 C411.071661,58.1324462 412.247704,58.4780307 411.99141,58.4304392 C407.13594,57.7634579 398.380275,58.436808 393.389954,58.7549574 C376.278029,59.9794873 359.10187,62.1562117 342.113697,63.2354616 C339.33389,63.3545104 336.818705,63.4393493 334.083285,62.8243968 C332.868371,62.5045677 331.988698,62.1260191 330.916586,61.4514792 C329.956357,60.8102954 329.292918,60.1865805 328.576371,59.2771904 C327.600283,57.9499747 327.098794,56.7778654 326.803909,55.1542246 C326.579347,53.5790291 326.668287,52.3557029 327.132066,50.8376732 C327.474095,49.8266472 327.852616,49.0679963 328.468464,48.2006688 C329.165176,47.2682388 329.783376,46.649227 330.702313,45.9497436 C333.887291,43.7920278 337.351983,42.7215404 340.994764,41.5915356 C359.503402,35.9956961 383.253799,30.5966895 400.678358,24.0073768 C398.784929,24.8247613 397.570828,25.8421141 396.438821,27.5681328 C395.399254,29.330167 395.011985,30.8736581 395.110402,32.9179241 C395.297674,34.9299399 395.881748,36.3829511 397.130788,37.9700585 C398.468348,39.5167131 399.809449,40.3729686 401.775875,40.9320151 C394.984214,39.8444787 378.71109,42.443004 371.090119,43.291323 C368.440377,43.5659121 365.842677,43.8039257 363.17632,43.8198129 C361.803095,43.813486 360.601633,43.7444643 359.243874,43.5166968 C358.31542,43.3436456 357.547236,43.1333611 356.662398,42.7945234 C355.195543,42.1954161 354.17896,41.5407387 353.021968,40.4443559 C351.307861,38.6850932 350.450024,36.9455809 350.079062,34.5121562 C349.868722,32.424232 350.109941,30.8403721 350.942848,28.9251071 C351.924438,26.9142112 352.922782,25.724661 354.571744,24.2661347 C357.314738,21.9636007 360.226275,20.243951 363.33424,18.4981398 C363.710367,18.2885691 364.085724,18.0783126 364.463503,17.8704496 C373.510456,13.0840999 403.626023,-8.26911179 412.221501,3.48515515 C419.950336,14.6202843 382.679271,29.4221866 373.586658,34.3819794 C373.250942,34.5684822 372.842313,34.7692485 372.524891,34.9711765 C370.806809,35.9337991 368.434092,37.2471432 366.923495,38.4739688 C366.844983,38.5414648 367.559975,37.7621395 368.08407,36.6860951 C368.754691,35.148203 368.912611,33.8273002 368.744305,32.1552279 C368.427723,30.0752963 367.696409,28.5568327 366.228365,27.0491332 C365.398326,26.2626272 364.656333,25.7460072 363.602502,25.3152059 C363.405655,25.185771 362.837482,25.0834212 362.580376,25.0128178 C362.224839,24.9532724 363.178756,25.0302867 363.233514,25.0310985 C365.18478,25.0358437 367.225071,24.8350634 369.165756,24.6438295 C381.332543,23.3701823 394.276346,20.7335138 406.397124,23.0078988 C408.51832,23.607426 409.962247,24.5192237 411.404116,26.1888184 C412.745217,27.892665 413.370556,29.4540169 413.571322,31.6117047 C413.675296,33.8018947 413.264231,35.4592696 412.148462,37.3478693 C410.947811,39.180213 409.644,40.280949 407.634336,41.1526298 C389.041628,47.8887203 365.68004,53.1568362 346.237446,58.8232372 C345.176435,59.1462157 339.931387,61.3658005 341.431234,60.3357239 C342.080313,59.8428997 342.529493,59.3533648 343.021547,58.6970637 C343.570669,57.9173465 343.902326,57.2468239 344.208648,56.3397715 C344.643158,54.9153291 344.724876,53.7638941 344.512198,52.2866952 C344.236419,50.7614428 343.765039,49.6520423 342.846956,48.4061942 C342.207354,47.5911473 341.613762,47.0278036 340.755057,46.452786 C340.020285,45.9909662 339.370339,45.6703393 338.531972,45.4513763 C336.982112,45.1077235 340.628911,45.3902492 341.315363,45.3656416 C358.069357,44.5569636 375.360604,42.4175705 392.293193,41.3391326 C399.31822,40.9360184 408.246153,40.3395986 415.163581,41.4557458 C417.545047,41.926356 419.090945,42.5135935 421.043486,44.0451587 C421.943316,44.8259817 422.534612,45.5370551 423.143238,46.5647381 C423.885232,47.9093806 424.223258,49.0512973 424.342306,50.5828766 C424.401768,52.0073609 424.239145,53.0901521 423.752647,54.4256963 C423.381307,55.3668327 422.990063,56.0723491 422.386981,56.8802152 C420.903805,58.7105573 419.57022,59.6374303 417.537152,60.7388381 C415.779429,61.654653 414.029237,62.3822855 412.182616,63.0949826 C381.926121,73.8913161 349.740952,79.8854547 319.106749,89.6145063 C317.430016,90.1914416 315.62305,90.8136168 314.018082,91.5714558 C313.572121,91.7912307 313.605393,91.8206255 314.000655,91.5016083 C314.55371,91.0325798 314.929109,90.5675966 315.325435,89.9573053 C315.744492,89.2709235 315.993662,88.6837 316.20711,87.9059425 C316.48643,86.7763717 316.523775,85.8779977 316.355511,84.7257508 C316.144443,83.5528717 315.811162,82.697414 315.165205,81.697922 C314.683831,80.9988165 314.232355,80.4996654 313.571309,79.9727152 C312.961102,79.513289 312.413505,79.1847535 311.693767,78.9355839 C311.081936,78.7419424 311.310474,78.8474976 311.838922,78.901416 C314.174392,79.1117145 316.826905,79.0046196 319.17027,78.9157214 C344.115032,77.5730385 367.490926,71.9685205 392.103527,68.3439079 C395.893548,67.8249363 399.573745,67.4098962 403.405381,67.4480534 C405.003644,67.4821374 406.358281,67.5916679 407.923174,67.9471626 C408.900032,68.1899633 409.667012,68.4630127 410.566925,68.9224809 C411.974711,69.685835 412.888076,70.4877242 413.822088,71.8003264 C414.969169,73.5834129 415.381004,75.2078657 415.218339,77.323127 C415.027091,78.8736729 414.627518,79.9846551 413.798292,81.2972153 C412.748395,82.8442479 411.73023,83.7727445 410.239972,84.8638782 C407.316074,86.8978001 404.195008,88.3694 400.950568,89.8097435 C371.93526,101.181431 338.255802,106.068562 308.228698,115.708338 C307.627156,115.946393 306.939164,116.171781 306.322574,116.379714 C303.967241,117.226787 300.246676,118.529829 298.108822,119.826503 C298.002497,119.897974 298.435776,119.499549 298.468236,119.463841 C298.749222,119.144824 298.950731,118.848077 299.157908,118.475113 C299.538822,117.759309 299.723743,117.147506 299.841938,116.342425 C299.96492,115.236958 299.8618,114.369588 299.490376,113.320489 C299.142062,112.431717 298.749236,111.800878 298.087378,111.115266 C297.500575,110.550592 296.938715,110.131619 296.173695,109.850717 C295.33572,109.594325 299.046026,109.964979 300.172867,109.942723 C303.680012,109.847511 307.13198,109.538796 310.619263,109.163439 C341.7597,105.504337 372.522484,98.949542 403.781592,96.2601729 C412.90073,95.591218 422.299706,94.9142846 431.445803,95.0277904 C433.830097,95.0666615 436.183806,95.1436337 438.530754,95.5959632 C439.847289,95.8737157 440.766996,96.1816609 441.927179,96.8974235 C442.992879,97.613186 443.645261,98.332154 444.259864,99.4705713 C444.643927,100.254558 444.832782,100.908423 444.92168,101.777416 C444.985159,102.605915 444.926425,103.256617 444.712151,104.058072 C444.380452,105.158808 443.957084,105.916213 443.205613,106.775646 C442.754866,107.266035 442.340595,107.626359 441.802615,108.01598 C440.980444,108.587316 440.215424,108.99288 439.310807,109.414275 C437.296314,110.315686 435.265639,111.004545 433.165831,111.676272 C426.903514,113.60776 420.541507,115.197303 414.175175,116.741522 C380.386619,124.520805 346.057228,130.454712 312.022247,137.120955 C307.538243,138.054197 302.41545,139.10247 298.10167,140.649503 C297.556425,140.862237 296.408587,141.580351 296.929127,141.090732 C297.148985,140.873309 297.306919,140.654332 297.464839,140.388855 C297.771553,139.846816 297.91115,139.381034 297.984959,138.763646 C298.045316,138.008201 297.959539,137.42011 297.675474,136.718653 C297.460052,136.231427 297.232327,135.874267 296.861673,135.494165 C296.698238,135.335475 296.405368,135.074379 296.186405,134.987889 C296.289524,135.050598 296.684744,135.161668 296.806956,135.195752 C297.944548,135.498098 299.112654,135.668756 300.27754,135.821902 C304.36799,136.336171 308.471513,136.534501 312.58811,136.682133 C334.449053,136.881276 367.745582,130.529305 390.009682,127.012585 C402.015512,125.119968 414.308487,123.083695 426.399184,121.895348 C429.384936,121.607265 433.203149,121.208154 436.163943,121.696206 C437.012262,121.863574 437.607436,122.069169 438.332297,122.563533 C438.941735,123.015485 439.31397,123.478144 439.628158,124.170937 C439.952761,124.98345 440.008303,125.67231 439.815473,126.523834 C439.659177,127.106284 439.457585,127.523662 439.102874,128.006926 C438.994113,128.234693 438.505348,128.645758 438.319615,128.845335 C437.92406,129.271517 437.123276,129.696089 436.635281,130.027746 C433.047608,132.01409 428.520758,133.352798 424.593828,134.497906 C419.809815,135.765576 395.693594,141.514563 369.921915,147.413476 L369.921915,233.112278 C409.759017,242.567552 444.170126,256.354859 470.365565,273.162842 C413.194369,247.826108 332.490158,232.029151 243.026237,232.029151 C155.712851,232.029151 76.746164,247.075408 19.851895,271.350361 C42.8429271,257.112698 71.8145622,245.137117 104.998047,236.250435 L104.998047,180.093387 C87.4760513,184.05366 70.6196649,187.66713 68.2282608,187.545646 L68.2282608,187.545646 Z M243.866759,237.508181 C324.276603,237.508181 395.543009,250.067025 439.745877,269.410097 C390.345538,254.478843 320.611481,245.170417 243.308917,245.170417 C167.866424,245.170417 99.6326207,254.036802 50.4727864,268.342339 C94.8351149,249.606787 164.946894,237.508181 243.866759,237.508181 L243.866759,237.508181 Z" id="Shape" fill-rule="nonzero"></path>
                    <path d="M327.234542,199.073293 C327.726988,196.785499 325.990276,195.872469 324.750334,195.000396 L325.207787,192.885093 C325.628426,193.137888 325.873662,193.520762 325.958921,194.113976 L328.337574,193.329906 C328.024156,191.821745 327.052854,190.858814 325.741876,190.394951 L326.04222,189.000631 L324.949141,188.766928 L324.653542,190.127122 C322.960459,189.926776 321.199153,190.645324 320.760737,192.681597 C320.309597,194.77939 321.772911,195.896741 323.016449,196.738649 C323.073951,196.781915 323.147382,196.816825 323.202476,196.859671 L322.737031,199.020943 C322.062533,198.744814 321.703063,198.209913 321.533651,197.385474 L319.10297,198.174625 C319.343811,199.799456 320.462352,200.990182 322.20542,201.49566 L321.911738,202.856666 L323.010458,203.093909 L323.305288,201.716247 C325.215388,201.899544 326.813175,201.028661 327.234542,199.073293 L327.234542,199.073293 Z M346.177649,215.165906 C345.083758,215.732553 343.737869,215.305979 343.17041,214.212074 C342.603049,213.11814 343.029959,211.77144 344.124327,211.204065 C345.218218,210.637418 346.564106,211.064426 347.131523,212.157897 C347.698842,213.251844 347.271596,214.598531 346.177649,215.165906 L346.177649,215.165906 Z M352.642356,213.462899 L342.835604,222.80387 L341.094118,221.006464 L350.704499,211.642089 L352.642356,213.462899 L352.642356,213.462899 Z M349.85695,224.264831 C348.763017,224.831437 347.41759,224.404904 346.850187,223.310999 C346.282784,222.217094 346.710114,220.870366 347.804061,220.303033 C348.897953,219.736386 350.243421,220.163352 350.810866,221.256865 C351.378227,222.35077 350.951667,223.697512 349.85695,224.264831 L349.85695,224.264831 Z M332.104667,207.793376 L334.182205,209.73875 L334.866655,202.201932 L347.956816,198.664664 L348.675406,201.060365 L337.6897,204.387419 L336.644968,216.181663 L331.024605,210.587447 L332.104667,207.793376 L332.104667,207.793376 Z M321.852235,218.271085 L319.558505,215.721005 L316.329098,217.901285 L314.943107,215.470603 L317.566618,212.9154 L315.425979,210.322782 L317.605139,208.336564 L320.149242,211.3675 C322.431521,209.707774 322.551004,209.701069 322.598204,209.697905 C322.666847,209.695946 322.787058,209.688765 324.622985,211.609531 L324.72973,211.720251 L322.062519,213.653755 L324.296409,216.118996 L321.852235,218.271085 L321.852235,218.271085 Z M323.262805,193.237858 C323.343375,192.860961 323.64295,192.612142 324.119495,192.601462 L323.768311,194.244489 C323.286587,193.814402 323.200139,193.53427 323.262805,193.237858 L323.262805,193.237858 Z M323.841742,199.226048 L324.203172,197.549665 C324.620984,197.886151 324.805527,198.174611 324.721416,198.563462 C324.650378,198.893971 324.403938,199.200251 323.841742,199.226048 L323.841742,199.226048 Z" id="Shape" fill-rule="nonzero"></path>
                    <path d="M273.66058,196.627579 L273.66058,196.630308 C273.736782,198.975689 274.043454,201.326612 274.295437,203.678697 L276.782808,203.893391 L276.379736,208.563127 L278.608027,208.755103 L278.021223,215.556716 C276.912635,215.699953 276.008354,216.60268 275.908314,217.75963 L275.699219,220.183984 L284.281189,220.924354 L284.490283,218.5 C284.605315,217.166499 283.609798,215.983248 282.276214,215.868161 L281.825886,215.82929 L281.890988,215.076616 L281.915596,215.078575 C282.627425,215.140094 283.259903,214.608007 283.321408,213.896206 L283.360279,213.443442 L282.041769,213.329559 L281.892178,213.316919 L281.913146,213.073642 L282.062402,213.086366 L283.381247,213.20025 L283.52097,211.582936 L282.202041,211.469052 L282.05287,211.456412 L282.07388,211.213178 L282.223093,211.226209 L283.54198,211.339715 L283.559799,211.13377 C283.617385,210.466396 283.120193,209.87524 282.452834,209.817654 L282.345277,209.808556 L282.407986,209.083219 L284.504197,209.263745 L284.906891,204.59405 L287.791484,204.84287 C287.757736,202.509751 287.719299,200.174757 287.718865,197.842828 L287.719299,197.840477 L290.637205,198.091998 L290.647073,197.256417 C291.186285,197.489307 291.645025,197.658341 292.035038,197.779014 C292.022356,198.5436 292.20291,199.29115 292.643328,199.9208 L292.033036,200.638537 L302.398569,206.466077 L303.140087,204.225482 L308.043959,202.545459 L311.207074,203.773152 C310.092075,202.491135 309.908007,197.436593 309.908007,197.436593 L307.593981,200.776678 L304.122964,201.260362 L305.482345,197.155215 L298.386281,193.165995 L297.332409,194.405166 C296.395668,193.710372 295.115651,193.074367 294.078058,193.704479 L293.93163,193.628235 L294.407364,193.158478 L292.614311,192.3859 L291.989784,192.784661 C291.382726,192.558139 290.941077,192.418108 290.941077,192.418108 L290.930397,192.44224 C291.04547,191.353514 291.199051,190.267895 291.400545,189.183914 C291.948561,186.245753 292.30645,183.27747 292.726991,180.320692 L285.050534,179.658456 L285.096152,178.968827 L285.274326,177.484112 C285.966293,177.700345 286.660275,177.913415 287.360962,178.117737 C287.429228,178.12132 287.487528,178.149861 287.574032,178.169723 C287.807735,178.227267 288.152507,178.204661 288.357627,178.118115 C288.422295,178.089966 288.476676,178.052676 288.521496,178.007856 L291.187895,178.708977 C291.352142,178.751824 291.517634,178.775956 291.680299,178.779973 L286.649175,171.760923 L287.95692,166.467135 L296.716644,166.357563 L297.169786,164.637941 C297.476835,163.467413 296.773418,162.258477 295.600497,161.949762 L290.598334,160.632022 L291.235934,158.212441 C292.113634,157.977199 292.844052,157.291937 293.092844,156.350409 C293.460726,154.954073 292.627063,153.52609 291.232001,153.158249 C289.83533,152.790493 288.404868,153.624114 288.038652,155.019596 C287.790686,155.961124 288.089827,156.919393 288.739815,157.554642 L288.103334,159.975371 L282.254868,158.41206 C281.085922,158.098558 279.876131,158.809631 279.567878,159.980116 L276.27572,172.481892 C275.965857,173.652336 276.678457,174.841116 277.842237,175.171233 C278.654037,175.400583 279.456724,175.643859 280.25587,175.890201 L279.979321,176.778973 L279.38773,178.219261 L279.39883,179.171203 L273.630835,178.673592 L273.43557,179.381502 L272.710275,179.318793 C271.480286,179.212468 270.249387,180.06591 269.931238,181.260191 C269.432437,183.137817 268.957935,185.023309 268.601629,186.933731 C268.246092,188.837154 268.017989,190.762665 267.883473,192.695021 C267.793385,194.001226 268.867455,195.10661 270.144308,195.216952 L270.756531,195.269709 L270.743037,196.375904 L273.66058,196.627579 L273.66058,196.627579 Z M292.913144,197.987731 C293.240489,198.038136 293.488497,198.03339 293.675294,197.998789 C294.228475,197.896103 294.912506,196.178833 295.26723,195.379253 C295.467997,194.925342 295.320757,194.585692 295.032324,194.311159 C295.589817,194.292151 296.232163,194.653188 296.775014,195.061916 L293.239328,199.220113 C293.031717,198.84673 292.930179,198.425363 292.913144,197.987731 L292.913144,197.987731 Z M289.517054,195.569395 L278.48107,190.427467 C276.72532,189.791028 276.201995,189.127294 277.053464,187.669482 L277.402632,187.038166 L277.418099,187.044535 L278.740961,184.779724 C278.565223,184.396431 278.483085,183.964384 278.521914,183.515218 C278.581852,182.818422 278.923111,182.206241 279.428967,181.787659 L279.451993,181.768567 L279.455926,181.766215 L279.47583,181.750748 L279.551613,181.693932 L279.571391,181.679319 L279.595229,181.661458 L279.601976,181.65821 L279.620257,181.645179 L279.645592,181.62848 L279.652003,181.625274 L279.670634,181.612242 L279.746416,181.565043 L279.754367,181.561068 L279.771416,181.549968 L279.797647,181.53485 L279.806745,181.530539 L279.860314,181.501536 L279.877405,181.492004 L279.914694,181.474143 L279.930497,181.465381 L279.957541,181.452741 L279.969411,181.447576 L279.984878,181.440437 L280.011921,181.427755 L280.024953,181.42259 L280.039258,181.415032 L280.067449,181.403932 L280.080565,181.398766 L280.096032,181.392832 L280.122991,181.381298 L280.138458,181.376594 L280.151182,181.371429 L280.236875,181.341657 L280.25349,181.336912 L280.294377,181.322984 L280.311076,181.318239 L280.323757,181.314264 L280.353152,181.305501 L280.371013,181.300798 L280.382463,181.297984 L280.383653,181.298362 L280.430852,181.286059 L280.440805,181.283329 L280.471389,181.275728 L280.490398,181.271375 L280.50035,181.269835 L280.530893,181.263901 L280.551147,181.259071 L280.559825,181.257532 L280.59041,181.251597 L280.613044,181.248391 L280.620519,181.246432 L280.651915,181.241602 L280.674507,181.238873 L280.682458,181.236871 L280.712566,181.23333 L280.736362,181.230558 L280.743963,181.229747 L280.774071,181.226205 L280.799099,181.224582 L280.804992,181.223854 L280.836388,181.221852 L280.861332,181.219039 L280.866497,181.219416 L280.897893,181.217065 L280.925272,181.215917 L280.928772,181.215917 L280.961358,181.215063 L280.988737,181.213915 L280.99232,181.213915 L281.023633,181.214251 L281.053405,181.214251 L281.055799,181.214727 L281.08672,181.214727 L281.11645,181.215917 L281.118802,181.216253 L281.150198,181.216253 L281.182323,181.219025 L281.246655,181.223378 L281.305781,181.229747 L281.310484,181.230181 L281.363282,181.236115 L281.375586,181.238509 L281.421162,181.244836 L281.438295,181.247649 L281.478748,181.254788 L281.536291,181.265888 L281.564482,181.270633 L281.592212,181.277002 L281.625148,181.284911 L281.648216,181.29051 L281.687087,181.30119 L281.70289,181.305165 L281.74659,181.317469 L281.75769,181.32101 L281.807283,181.33652 L281.81207,181.338101 L281.866409,181.356732 L281.919585,181.376175 L281.92433,181.377798 L281.971194,181.396807 L281.981832,181.400054 L282.023909,181.417481 L282.039376,181.42504 L282.074314,181.440507 L282.095716,181.449647 L282.125489,181.464723 L282.150516,181.477027 L282.175502,181.488854 L282.205232,181.505134 L282.224325,181.515422 L282.258801,181.534514 L282.273064,181.542031 L282.311935,181.563853 L282.32151,181.569788 L282.363964,181.596019 L282.368751,181.598749 L282.414761,181.628956 L282.460379,181.660268 L282.465166,181.663039 L282.506053,181.69123 L282.515529,181.698411 L282.550467,181.724936 L282.563107,181.734847 L282.593691,181.758684 L282.611118,181.772612 L282.63658,181.793202 L282.657548,181.811483 L282.678222,181.829302 L282.703558,181.851558 L282.719879,181.865009 L282.790874,181.933653 L282.799245,181.940442 L282.834532,181.976878 L282.838074,181.979691 L282.875755,182.018954 L282.875419,182.020144 L282.911897,182.060639 L282.916292,182.06495 L282.948024,182.101091 L282.955933,182.110624 L282.982934,182.143938 L282.994034,182.157431 L283.017872,182.186826 L283.030945,182.205415 L283.049996,182.230484 L283.066611,182.253076 L283.08331,182.275668 L283.102319,182.303481 L283.114273,182.320488 L283.136487,182.353466 L283.144045,182.365336 L283.167799,182.404599 L283.173398,182.41255 L283.199587,182.455816 L283.201939,182.45975 L283.23013,182.506991 L283.23013,182.508181 L283.255549,182.555423 L283.258713,182.561791 L283.281305,182.604638 L283.28647,182.616466 L283.305478,182.654231 L283.313037,182.670846 L283.328546,182.704594 L283.338079,182.726374 L283.350382,182.754957 L283.361832,182.782 L283.370595,182.806132 L283.384088,182.83988 L283.391227,182.858972 L283.403909,182.896262 L283.423771,182.954911 L283.428125,182.964052 L283.442388,183.012497 L283.4432,183.01643 L283.458667,183.071231 L283.459857,183.07242 L283.473701,183.124785 L283.474512,183.13226 L283.486466,183.179165 L283.489196,183.191805 L283.497916,183.23503 L283.50108,183.25254 L283.507868,183.290642 L283.512222,183.314437 L283.518157,183.34617 L283.521698,183.376278 L283.525673,183.40251 L283.530026,183.437797 L283.532028,183.4592 L283.536003,183.500464 L283.538397,183.51554 L283.541602,183.563215 L283.54198,183.573083 C283.548727,183.696541 283.547915,183.820713 283.537151,183.948091 C283.420958,185.295169 282.262342,186.303759 280.922445,186.245459 L279.806675,188.157855 L290.55427,193.273552 L290.253071,193.941387 L278.890861,188.543542 C278.894066,188.378484 278.852801,188.222187 278.776249,188.08651 L280.881558,184.818959 C280.915642,184.82537 280.950202,184.830871 280.98472,184.834035 C281.481897,184.876923 281.919921,184.508271 281.963159,184.011177 C282.006048,183.514 281.637395,183.075542 281.140218,183.032654 C280.642691,182.989807 280.204667,183.35846 280.161834,183.855637 C280.149111,184.001253 280.171744,184.142488 280.222919,184.269865 L278.060416,187.625796 C277.564093,187.585343 277.128378,187.952707 277.085994,188.448737 C277.042728,188.945873 277.411324,189.384331 277.908851,189.427177 C278.116029,189.44508 278.313211,189.392701 278.475107,189.287146 L289.902714,194.716219 L289.517054,195.569395 L289.517054,195.569395 Z M282.428255,165.810078 L282.051666,168.947046 C281.414023,168.676782 280.99344,168.019361 281.056149,167.291295 C281.122427,166.525029 281.702106,165.927545 282.428255,165.810078 L282.428255,165.810078 Z M282.959908,169.05533 L283.336035,165.920799 C283.972516,166.190559 284.394261,166.847294 284.331552,167.573736 C284.265721,168.339946 283.686057,168.936282 282.959908,169.05533 L282.959908,169.05533 Z M296.33657,167.79911 L293.877306,177.141313 C293.753554,177.610299 293.48448,178.005911 293.130609,178.289976 L288.233147,171.451494 L289.102476,167.932086 L296.33657,167.79911 L296.33657,167.79911 Z M282.527399,218.462375 C282.237399,218.437347 281.982672,218.652811 281.957686,218.941663 C281.932617,219.231706 282.146877,219.486054 282.436933,219.51104 C282.72664,219.536067 282.981324,219.322144 283.006352,219.032143 C283.031323,218.743319 282.817105,218.48736 282.527399,218.462375 L282.527399,218.462375 Z M278.10567,218.081083 C277.81567,218.056055 277.560943,218.271477 277.535958,218.560329 C277.51093,218.850036 277.725148,219.10472 278.015204,219.129748 C278.303721,219.154775 278.559596,218.940516 278.584665,218.650809 C278.609651,218.361985 278.394187,218.106026 278.10567,218.081083 L278.10567,218.081083 Z M280.201503,218.261944 C279.911839,218.237001 279.657154,218.452464 279.632085,218.740883 C279.607141,219.030925 279.821401,219.285694 280.111023,219.310638 C280.401066,219.335623 280.655834,219.121363 280.680778,218.831391 C280.705819,218.542888 280.491588,218.28693 280.201503,218.261944 L280.201503,218.261944 Z M279.232974,199.364161 L281.234351,201.809148 C280.597871,202.082071 279.832081,201.928967 279.351169,201.380614 C278.845313,200.803637 278.816352,199.969666 279.232974,199.364161 L279.232974,199.364161 Z M281.941743,201.229819 L279.940408,198.785253 C280.576426,198.513057 281.342636,198.665 281.823548,199.213744 C282.330594,199.790679 282.359597,200.624735 281.941743,201.229819 L281.941743,201.229819 Z M273.186848,180.290976 C272.959515,181.124989 272.73729,181.961046 272.524612,182.797817 L270.531997,182.62597 L270.827988,181.499143 C271.030336,180.740142 271.849652,180.175468 272.630559,180.242964 L273.186848,180.290976 L273.186848,180.290976 Z M272.300428,183.69454 C272.169453,184.233794 272.04097,184.773398 271.919906,185.313435 L269.919774,185.141196 C270.042322,184.601172 270.170903,184.061568 270.305419,183.522356 L272.300428,183.69454 L272.300428,183.69454 Z M271.725117,186.214063 C271.638234,186.630293 271.556433,187.047307 271.477907,187.465538 L271.386615,187.979765 L269.387673,187.807105 L269.513048,187.103297 C269.579691,186.748572 269.649958,186.395387 269.724159,186.041474 L271.725117,186.214063 L271.725117,186.214063 Z M271.242594,188.883234 C271.163649,189.425609 271.095439,189.970378 271.037083,190.517583 L269.029771,190.344154 C269.092857,189.798951 269.163475,189.254574 269.244086,188.711036 L271.242594,188.883234 L271.242594,188.883234 Z M270.949767,191.427001 C270.867615,192.395572 270.813711,193.366817 270.781978,194.340904 L270.224094,194.292892 C269.422163,194.223521 268.755993,193.531078 268.809142,192.758962 C268.84366,192.255835 268.885736,191.755116 268.93379,191.253194 L270.949767,191.427001 L270.949767,191.427001 Z M302.534666,191.534082 L305.089911,192.987485 C305.400544,193.163308 305.509263,193.560487 305.333104,193.871134 L305.010979,194.436115 L301.330055,192.341192 L301.652222,191.776169 C301.82796,191.46702 302.225181,191.358301 302.534666,191.534082 L302.534666,191.534082 Z M291.593865,201.151223 L302.187808,207.107681 L301.825567,208.42619 L290.656228,202.146754 L291.593865,201.151223 L291.593865,201.151223 Z M306.367968,195.580075 L299.271903,191.590856 L298.773998,192.477654 L305.868775,196.466481 L306.367968,195.580075 L306.367968,195.580075 Z" id="Shape"></path>
                </g>
            </g>
        </g>
    </g>
</svg>