<?xml version="1.0" encoding="UTF-8"?>
<svg width="161px" height="119px" viewBox="0 0 161 119" version="1.1" xmlns="http://www.w3.org/2000/svg" xmlns:xlink="http://www.w3.org/1999/xlink">
    <title>plus 41 LOGO</title>
    <g id="Page-1" stroke="none" stroke-width="1" fill="none" fill-rule="evenodd">
        <g id="Home-09" transform="translate(-640.000000, -7791.000000)" fill="#FFFFFF">
            <g id="FOOTER" transform="translate(-407.000000, 7730.000000)">
                <g id="plus-41-LOGO" transform="translate(1047.000000, 61.000000)">
                    <path d="M2.24839164,111.00925 L2.24839164,97.5444686 L0,97.5444686 L0,95.2960861 L6.42355653,95.2960861 C8.306375,95.2960861 9.72157456,95.4283668 10.660582,95.6970683 C11.5995941,95.9616068 12.384284,96.5656648 13.0191946,97.5090687 C13.6496905,98.4528751 13.9671549,99.5637125 13.9671549,100.842391 C13.9671549,101.869715 13.7599206,102.786658 13.3411972,103.597914 C12.9223184,104.413639 12.4065862,105.013136 11.7891834,105.401007 C11.1720368,105.784468 10.4798038,106.044843 9.70820696,106.181273 C8.93674282,106.313567 7.77273699,106.379829 6.21192119,106.379829 L4.97321327,106.379829 L4.97321327,111.009254 L7.30096873,111.009254 L7.30096873,113.257623 L0,113.257623 L0,111.009254 L2.24839164,111.009254 L2.24839164,111.00925 Z M4.97321327,104.210554 L6.52496637,104.210554 C8.28847834,104.210554 9.51434019,103.959365 10.1932193,103.456703 C10.8766229,102.954073 11.2161242,102.067955 11.2161242,100.793715 C11.2161242,99.9869923 11.0353551,99.316938 10.6739313,98.7834373 C10.3121278,98.2497993 9.86239183,97.9104123 9.32916098,97.7649242 C8.79565564,97.619436 7.90501766,97.544464 6.65295586,97.544464 L4.97321327,97.544464 L4.97321327,104.210554 L4.97321327,104.210554 Z M17.067015,111.062162 L17.067015,97.4915517 L14.8450841,97.4915517 L14.8450841,95.2960815 L19.5273028,95.2960815 L19.5273028,111.062162 L21.4582345,111.062162 L21.4582345,113.257619 L14.8450841,113.257619 L14.8450841,111.062162 L17.067015,111.062162 L17.067015,111.062162 Z M36.3782678,111.062162 L36.3782678,113.257619 L31.7489659,113.257619 L31.7489659,111.824806 C30.3117204,112.92255 28.9360792,113.4693 27.6180257,113.4693 C26.7845683,113.4693 26.0925961,113.284088 25.5457323,112.91814 C24.9990103,112.552187 24.6375957,112.080524 24.4568129,111.498535 C24.2760438,110.916518 24.1833215,109.98193 24.1833215,108.690068 L24.1833215,102.94098 L22.4111174,102.94098 L22.4111174,100.74524 L26.6437328,100.74524 L26.6437328,108.368207 C26.6437328,109.289592 26.6701889,109.911254 26.7230966,110.228705 C26.7714706,110.546183 26.9213735,110.810721 27.172828,111.017818 C27.4194789,111.22503 27.7369297,111.326723 28.11184,111.326723 C29.2493851,111.326723 30.4615043,110.784274 31.7489659,109.699628 L31.7489659,102.940975 L29.5270304,102.940975 L29.5270304,100.74524 L34.2092445,100.74524 L34.2092445,111.062157 L36.3782678,111.062157 L36.3782678,111.062162 Z M38.1776966,113.257619 L38.1776966,108.972114 L40.3731851,108.972114 L40.3731851,109.386564 C40.4525535,109.972991 40.7655941,110.458118 41.3211363,110.837191 C41.8766968,111.216351 42.5336534,111.405831 43.2918872,111.405831 C44.0855255,111.405831 44.7160214,111.269264 45.1922044,110.991381 C45.6638582,110.713722 45.9019497,110.330009 45.9019497,109.840724 C45.9019497,109.364537 45.7034075,109.016229 45.3111174,108.791454 C44.9187084,108.566735 44.1428341,108.359245 42.9788329,108.169902 C41.2505881,107.878921 40.0205769,107.407144 39.2843892,106.75887 C38.5480687,106.106461 38.1776966,105.264321 38.1776966,104.228428 C38.1776966,103.187759 38.5786788,102.315013 39.3768461,101.613827 C40.1793092,100.91292 41.2328242,100.560047 42.5380498,100.560047 C43.7195589,100.560047 44.7335338,100.802567 45.5844853,101.287694 L45.5844853,100.745244 L47.7800882,100.745244 L47.7800882,104.898345 L45.5844853,104.898345 L45.5844853,104.135701 C44.9231231,103.108377 43.9621931,102.597064 42.6967912,102.597064 C42.0529231,102.597064 41.5194224,102.738046 41.1051,103.015929 C40.6862211,103.297975 40.4789959,103.668366 40.4789959,104.135701 C40.4789959,104.611916 40.6685898,104.933754 41.0521786,105.109999 C41.4357857,105.290795 42.264563,105.475952 43.5299787,105.678918 C44.7424775,105.872784 45.659439,106.097783 46.2809957,106.348972 C46.9028132,106.604576 47.4185408,107.027851 47.8284622,107.61436 C48.2386352,108.204945 48.4414595,108.892759 48.4414595,109.673167 C48.4414595,110.837196 47.9961473,111.758554 47.1055048,112.441957 C46.2149903,113.125388 45.0599374,113.469309 43.6402042,113.469309 C42.3043685,113.469309 41.2153209,113.160655 40.3731805,112.547786 L40.3731805,113.257632 L38.1776966,113.257632 L38.1776966,113.257619 Z M57.4095809,108.416567 L50.1878571,108.416567 L50.1878571,106.388503 L57.6916409,95.1373539 L59.7638062,95.1373539 L59.7638062,106.247548 L62.6208994,106.247548 L62.6208994,108.416562 L59.7638062,108.416562 L59.7638062,111.062157 L61.4039859,111.062157 L61.4039859,113.257614 L55.4783975,113.257614 L55.4783975,111.062157 L57.4095809,111.062157 L57.4095809,108.416567 L57.4095809,108.416567 Z M57.4095809,106.247553 L57.4095809,99.1668842 L52.6788784,106.247553 L57.4095809,106.247553 L57.4095809,106.247553 Z M67.5941218,111.062162 L67.5941218,97.4650956 L65.1340994,97.4650956 L65.1340994,95.2960815 L70.0543958,95.2960815 L70.0543958,111.062162 L72.3822885,111.062162 L72.3822885,113.257619 L65.1340994,113.257619 L65.1340994,111.062162 L67.5941218,111.062162 L67.5941218,111.062162 Z M90.2562865,105.956545 L92.5929903,107.2615 C92.0683144,109.258707 91.005572,110.806197 89.4052115,111.904193 C87.8093618,113.001909 85.970768,113.548654 83.8942017,113.548654 C81.1696272,113.548654 78.9828537,112.666695 77.3383783,110.898901 C75.6937748,109.135403 74.8694075,106.948464 74.8694075,104.34735 C74.8694075,101.494932 75.6981849,99.2242112 77.3514622,97.5355203 C79.0047487,95.8470947 81.1652216,95.0050778 83.8282101,95.0050778 C86.182408,95.0050778 88.1576788,95.6441652 89.7624677,96.9273265 L89.7624677,95.2960861 L92.0902094,95.2960861 L92.0902094,101.062695 L89.7624677,101.062695 C89.246461,99.8945446 88.4486734,98.9861334 87.3729934,98.3470552 C86.2927707,97.7076018 85.1596083,97.3857409 83.9735747,97.3857409 C82.1791828,97.3857409 80.7065373,98.0340008 79.5558991,99.3256256 C78.4052563,100.617374 77.8322063,102.248756 77.8322063,104.223903 C77.8322063,106.252105 78.4492065,107.905391 79.6794968,109.188315 C80.9140325,110.471211 82.3731868,111.115074 84.061896,111.115074 C85.4506303,111.115074 86.7116221,110.669767 87.849181,109.774714 C88.9864608,108.883934 89.7889238,107.609831 90.2562865,105.956545 L90.2562865,105.956545 Z M107.270403,111.062162 L107.270403,113.257619 L102.958817,113.257619 L102.958817,111.732075 C101.772743,112.891666 100.445475,113.469295 98.981911,113.469295 C97.8443658,113.469295 96.8568471,113.098905 96.0191305,112.358179 C95.1771274,111.617453 94.7582531,110.673898 94.7582531,109.518859 C94.7582531,108.35924 95.2035744,107.393795 96.0940888,106.631009 C96.9891415,105.863841 98.0648123,105.480352 99.3212796,105.480352 C100.493996,105.480352 101.627126,105.833235 102.720726,106.538557 L102.720726,105.295169 C102.720726,104.651694 102.658865,104.162162 102.539678,103.813717 C102.416345,103.470075 102.134189,103.157007 101.688868,102.879097 C101.248071,102.601465 100.666082,102.464783 99.9473883,102.464783 C98.7128251,102.464783 97.8223381,102.958479 97.2667914,103.945984 L94.9169944,103.324432 C95.9618081,101.375727 97.7649974,100.401301 100.326562,100.401301 C101.265593,100.401301 102.081277,100.529437 102.764694,100.780612 C103.452494,101.036216 103.963839,101.362629 104.298779,101.763872 C104.638542,102.164808 104.863288,102.59705 104.977924,103.059893 C105.096846,103.522987 105.154283,104.263434 105.154283,105.282071 L105.154283,111.062153 L107.270403,111.062153 L107.270403,111.062162 Z M102.720721,108.623811 C101.662407,107.799567 100.586709,107.385116 99.5020762,107.385116 C98.823197,107.385116 98.2545434,107.583393 97.7958774,107.975789 C97.3417176,108.372594 97.1124601,108.879666 97.1124601,109.50577 C97.1124601,110.092169 97.3109886,110.57704 97.7120943,110.973877 C98.1133236,111.366273 98.659922,111.56455 99.3477495,111.56455 C100.538207,111.56455 101.662407,111.066302 102.720721,110.074415 L102.720721,108.623811 L102.720721,108.623811 Z M109.726514,116.670048 L109.726514,102.94098 L107.636745,102.94098 L107.636745,100.745244 L112.186815,100.745244 L112.186815,102.715982 C113.407878,101.278759 114.889344,100.560047 116.630933,100.560047 C118.385634,100.560047 119.840365,101.164105 120.991287,102.367898 C122.141916,103.575877 122.714993,105.145399 122.714993,107.076344 C122.714993,109.099993 122.089013,110.696209 120.841119,111.868893 C119.5936,113.041468 118.173994,113.628004 116.578007,113.628004 C114.924469,113.628004 113.460791,112.988551 112.186815,111.714562 L112.186815,116.670039 L114.620382,116.670039 L114.620382,118.865774 L107.451561,118.865774 L107.451561,116.670039 L109.726514,116.670039 L109.726514,116.670048 Z M112.147001,107.19549 C112.147001,107.887463 112.288093,108.548834 112.574673,109.179353 C112.856732,109.809839 113.311016,110.338944 113.928002,110.766629 C114.549834,111.194429 115.277215,111.405831 116.11053,111.405831 C117.278946,111.405831 118.244392,111.013408 119.007191,110.228705 C119.769835,109.443887 120.149151,108.363655 120.149151,106.988279 C120.149151,105.652443 119.752332,104.60736 118.954279,103.857923 C118.160627,103.104127 117.25249,102.729326 116.23825,102.729326 C115.153882,102.729326 114.201503,103.139257 113.381422,103.954955 C112.557178,104.770625 112.147001,105.850748 112.147001,107.19549 L112.147001,107.19549 Z M125.942719,96.4775906 C125.942719,96.0807852 126.083921,95.7368646 126.361584,95.4458563 C126.639468,95.1504516 126.9965,95.0050732 127.424171,95.0050732 C127.829939,95.0050732 128.173594,95.1459271 128.468999,95.4327632 C128.760007,95.7148369 128.905623,96.067413 128.905623,96.4775906 C128.905623,96.8919312 128.760007,97.2447864 128.468999,97.5355157 C128.173594,97.8223929 127.829939,97.9677393 127.424171,97.9677393 C127.014254,97.9677393 126.661541,97.8223884 126.374943,97.5268418 C126.088336,97.2358244 125.942719,96.883111 125.942719,96.4775906 L125.942719,96.4775906 Z M126.286626,111.062162 L126.286626,102.94098 L124.35569,102.94098 L124.35569,100.745244 L128.746914,100.745244 L128.746914,111.062162 L130.677832,111.062162 L130.677832,113.257619 L124.35569,113.257619 L124.35569,111.062162 L126.286626,111.062162 L126.286626,111.062162 Z M131.683627,102.94098 L131.683627,100.745244 L133.323555,100.745244 L133.323555,98.8143127 L135.783966,96.5656648 L135.783966,100.745249 L138.085261,100.745249 L138.085261,102.940985 L135.783966,102.940985 L135.783966,109.020621 C135.783966,109.995028 135.836879,110.594525 135.942689,110.824075 C136.052663,111.053205 136.321626,111.167996 136.749439,111.167996 C137.203585,111.167996 137.648888,111.079679 138.085261,110.90343 L138.085261,113.125384 C137.459184,113.354513 136.828808,113.469304 136.202703,113.469304 C135.453153,113.469304 134.844698,113.301601 134.381741,112.971057 C133.918926,112.640261 133.623521,112.225921 133.504333,111.723286 C133.385425,111.225039 133.323551,110.365418 133.323551,109.13979 L133.323551,102.94098 L131.683627,102.94098 L131.683627,102.94098 Z M152.286486,111.062162 L152.286486,113.257619 L147.974914,113.257619 L147.974914,111.732075 C146.788853,112.891666 145.461701,113.469295 143.998022,113.469295 C142.860477,113.469295 141.872958,113.098905 141.035356,112.358179 C140.193215,111.617453 139.774336,110.673898 139.774336,109.518859 C139.774336,108.35924 140.219658,107.393795 141.110186,106.631009 C142.005225,105.863841 143.080923,105.480352 144.337518,105.480352 C145.510079,105.480352 146.643214,105.833235 147.736823,106.538557 L147.736823,105.295169 C147.736823,104.651694 147.674948,104.162162 147.555788,103.813717 C147.43247,103.470075 147.150286,103.157007 146.705088,102.879097 C146.264164,102.601465 145.682179,102.464783 144.963481,102.464783 C143.728931,102.464783 142.838417,102.958479 142.28287,103.945984 L139.933087,103.324432 C140.977901,101.375727 142.78109,100.401301 145.342778,100.401301 C146.281809,100.401301 147.097369,100.529437 147.780768,100.780612 C148.468582,101.036216 148.979927,101.362629 149.314881,101.763872 C149.654643,102.164808 149.879362,102.59705 149.994026,103.059893 C150.113071,103.522987 150.170371,104.263434 150.170371,105.282071 L150.170371,111.062153 L152.286486,111.062153 L152.286486,111.062162 Z M147.736818,108.623811 C146.678614,107.799567 145.602792,107.385116 144.518173,107.385116 C143.839294,107.385116 143.270627,107.583393 142.811974,107.975789 C142.357828,108.372594 142.128543,108.879666 142.128543,109.50577 C142.128543,110.092169 142.327099,110.57704 142.728178,110.973877 C143.129425,111.366273 143.676033,111.56455 144.363956,111.56455 C145.554427,111.56455 146.678614,111.066302 147.736818,110.074415 L147.736818,108.623811 L147.736818,108.623811 Z M155.82701,111.062162 L155.82701,97.4915517 L153.60508,97.4915517 L153.60508,95.2960815 L158.287298,95.2960815 L158.287298,111.062162 L160.21823,111.062162 L160.21823,113.257619 L153.60508,113.257619 L153.60508,111.062162 L155.82701,111.062162 L155.82701,111.062162 Z" id="Shape" fill-rule="nonzero"></path>
                    <path d="M22.2990711,61.2956222 C23.4683929,60.5324614 44.7020271,55.2593097 47.5401896,54.4226134 C48.1862582,54.2218661 49.1098348,53.9352679 49.6883334,53.5815206 C49.723866,53.5651702 49.7928541,53.5121344 49.8257974,53.4835968 C49.8257974,53.4835968 49.7951964,53.514216 49.7970081,53.5157485 C49.7539499,53.5734781 49.7308654,53.630526 49.7121956,53.699784 C49.6808124,53.8377466 49.6917142,53.9505706 49.7438442,54.082069 C49.7918202,54.1868459 49.8460272,54.2594619 49.9378345,54.3276906 C49.9723331,54.3512692 50.0726999,54.3938241 50.0467745,54.389414 C49.6105296,54.3455735 48.8738249,54.4373854 48.4349815,54.4874476 C45.9559005,54.7781906 43.5096162,55.302098 41.0463503,55.6941273 C36.2240829,56.5463597 29.5735883,57.9226734 24.7847811,58.0188954 C23.8730029,58.0002027 22.9730277,57.9683117 22.0659159,57.8741712 C21.7331487,57.8355278 21.4162149,57.7898574 21.0902001,57.7107544 C20.9452198,57.6842982 20.8030941,57.6176478 20.6661563,57.5709619 C20.4761735,57.4866801 20.3449359,57.404727 20.1934639,57.25858 C20.0814314,57.1428831 20.0116518,57.0404622 19.9460352,56.8923618 C19.8708254,56.7058696 19.8472331,56.551026 19.8638259,56.3503016 C19.8845772,56.172895 19.9276216,56.0429612 20.015028,55.8873353 C20.0809053,55.7776404 20.1441886,55.6985237 20.2352365,55.6085142 C20.5111937,55.3542096 20.782599,55.2266044 21.1262542,55.0876079 C22.1219344,54.6988176 23.2528689,54.4456841 24.2957566,54.2158959 C31.2561764,52.6881332 38.2770478,51.4311489 45.1950682,49.7140621 C46.4486717,49.3945298 47.7017765,49.0664564 48.9313897,48.6628803 C49.2579306,48.5542193 49.6001539,48.4380054 49.9116437,48.291218 C49.9588466,48.268655 50.0491076,48.2165113 50.0299071,48.2286986 C49.9899645,48.2567194 49.9544319,48.2917487 49.9220148,48.3272767 C49.8084131,48.4566981 49.7474629,48.5788318 49.697666,48.7438087 C49.6598049,48.8859343 49.6499462,49.0005562 49.6611087,49.1473573 C49.6769193,49.3029833 49.7103794,49.4197004 49.7791068,49.5597445 C49.8750681,49.7383223 49.9782895,49.8625513 50.1463544,49.975357 C50.2086084,50.0137625 50.3727755,50.0728783 50.301198,50.0591264 C49.9923068,50.0093524 49.6128536,50.008561 49.3004581,50.0062278 C47.4890936,50.0228435 45.6288381,50.1784374 43.8240796,50.3278233 C37.4487828,50.9806352 31.1163793,52.3769087 24.7474186,53.221117 C23.9489814,53.3152574 23.1654672,53.3922973 22.3618375,53.425762 C21.7152566,53.4444272 21.1148355,53.453252 20.4912018,53.2561326 C20.220954,53.1560311 20.0394026,53.0450233 19.8293227,52.84348 C19.6643641,52.6723135 19.5660697,52.5174698 19.4784072,52.2957104 C19.3889285,52.0420646 19.3648055,51.8340571 19.3948986,51.5670619 C19.4254949,51.3556874 19.4768518,51.1977191 19.57645,51.0099551 C19.6477713,50.8823362 19.7172764,50.7845633 19.8137637,50.6753763 C19.9532909,50.5236619 20.0814268,50.4173158 20.2494916,50.3003379 C20.9465144,49.8402308 21.7927996,49.5262844 22.5738755,49.2389085 C22.7043216,49.1912023 22.8350331,49.1429518 22.9657675,49.0954836 C28.9887353,47.0482372 36.0692393,45.974497 41.7840889,43.6350575 C42.2039925,43.4444297 42.7512543,43.1938993 43.1249798,42.9231208 C43.2523334,42.8274294 43.1265444,42.9293608 43.0650727,43.0196081 C42.9499064,43.2011732 42.9006356,43.3676735 42.8736626,43.5811159 C42.8469548,43.9320313 42.9174938,44.2070964 43.1076093,44.5032834 C43.2398762,44.6892449 43.3700753,44.8152901 43.5697796,44.9242118 C43.6001334,44.9511986 43.7084009,44.9804912 43.7522322,44.9978709 C43.7776544,45.0043762 43.6191875,44.9867312 43.5020815,44.9856973 C42.895187,44.9893251 42.2659767,45.0733461 41.6662098,45.1605054 C36.4471324,45.9859203 31.6550679,47.1841411 26.3352166,47.5244339 C25.6868149,47.5540055 25.0360983,47.5768292 24.3878156,47.5291094 C24.0960387,47.5026532 23.8618495,47.4666037 23.5806908,47.3768505 C23.3457147,47.2954005 23.179983,47.2082687 22.9795011,47.0573319 C22.8189618,46.9284275 22.7097702,46.8111979 22.5925315,46.6407862 C22.4453461,46.4130796 22.3685808,46.2180416 22.3203348,45.950891 C22.2819476,45.6869976 22.2912894,45.4821009 22.3550988,45.2243057 C22.4072151,45.0354804 22.4694691,44.8915385 22.5712678,44.7252899 C22.7004285,44.5260935 22.8212904,44.3909764 23.0015471,44.239509 C23.213704,44.068594 23.4043272,43.9561543 23.6455341,43.8340069 C24.1141961,43.6042187 24.5892125,43.4280976 25.0809544,43.2545887 C31.3088279,41.1816685 37.9603519,39.921825 44.0764445,37.6585149 C44.3272448,37.5656737 44.5437981,37.4570128 44.7826672,37.3454743 C44.9634455,37.2456245 44.7582972,37.3677719 44.6239487,37.5337827 C44.5310938,37.6582587 44.4711866,37.7703141 44.4138597,37.915299 C44.3285303,38.1505313 44.3010403,38.3433504 44.3116767,38.5936338 C44.3329404,38.8696047 44.3933691,39.0760613 44.5269444,39.3183067 C44.6291274,39.4905164 44.7287211,39.6131945 44.8794108,39.7439014 C45.1239893,39.9358422 45.3662256,40.007406 45.3130617,39.9972819 C44.3129714,39.8598317 42.5092605,39.9988602 41.4810305,40.0642114 C37.9556856,40.3166861 34.4169913,40.7651365 30.9169404,40.9873946 C30.3442656,41.0120483 29.8259395,41.0294051 29.2623547,40.9025959 C29.0123321,40.8367003 28.8310278,40.7588919 28.6103252,40.6196164 C28.4124371,40.4881317 28.2756183,40.3592273 28.128044,40.1717286 C27.9267843,39.8987313 27.8232975,39.6572728 27.7628688,39.3224378 C27.7161829,38.9979922 27.7345965,38.7458835 27.8303016,38.4333598 C27.9008497,38.2252105 27.9789189,38.0685827 28.1057418,37.8896252 C28.2491667,37.6976844 28.3766438,37.5700792 28.565707,37.4263935 C29.2221513,36.9818546 29.9359088,36.7611428 30.6866261,36.5279738 C34.4997267,35.3755194 39.3928076,34.2632409 42.9825888,32.905501 C42.592513,33.0743481 42.3422296,33.2834033 42.1093305,33.6394975 C41.8948451,34.0023212 41.8154767,34.320051 41.8357065,34.7416381 C41.8743499,35.1555762 41.9944387,35.4551257 42.2517215,35.7824488 C42.5274271,36.1004165 42.803119,36.2775715 43.2087492,36.3923307 C41.8095157,36.1681146 38.4570346,36.7038204 36.8867489,36.8786422 C36.3407955,36.9349216 35.8058628,36.9839361 35.2562862,36.9875685 C34.9738373,36.9860039 34.7261525,36.9717488 34.4460459,36.9250491 C34.2548874,36.8895166 34.0966813,36.8456945 33.9144849,36.7759149 C33.6123232,36.6524681 33.4025132,36.5178543 33.1644171,36.2920874 C32.8111639,35.9295016 32.6345396,35.5708226 32.5582912,35.0699906 C32.5149769,34.6394551 32.5647829,34.3133077 32.7359494,33.9185518 C32.9382476,33.5048791 33.143922,33.2595411 33.4839494,32.958674 C34.0489614,32.4848288 34.6488519,32.1301437 35.2886941,31.7706733 C35.3662417,31.7273636 35.4435332,31.6837931 35.521337,31.6415173 C37.3857464,30.6551697 43.5897486,26.2560495 45.3610469,28.6774239 C46.9531224,30.9715728 39.2742788,34.0209955 37.4013054,35.0429992 C37.3318003,35.0811257 37.2480263,35.1228983 37.1824144,35.1643918 C36.828388,35.3622799 36.3397524,35.6330401 36.0282673,35.8861873 C36.0124338,35.8999391 36.1594866,35.7393999 36.267905,35.5176405 C36.4053735,35.200693 36.438056,34.9288943 36.4035436,34.584475 C36.3381924,34.1553486 36.1877589,33.8428295 35.8849613,33.532639 C35.7137902,33.3702698 35.5612797,33.2639421 35.3441957,33.1747287 C35.3037361,33.1482725 35.186502,33.1272604 35.1333381,33.1124746 C35.060196,33.1002736 35.2570502,33.1161025 35.2682035,33.1166194 C35.6704667,33.117388 36.0904984,33.0759082 36.4906892,33.0369857 C38.9967479,32.7742634 41.6638766,32.2307667 44.160987,32.6998221 C44.5982658,32.8230309 44.8952351,33.0110602 45.192456,33.3552187 C45.4686876,33.7058963 45.5974503,34.0274918 45.6389438,34.4721726 C45.6604866,34.9237064 45.575665,35.2647632 45.3457442,35.6540751 C45.0983155,36.0314329 44.8296185,36.2583573 44.4154197,36.4377311 C40.5854609,37.8255595 35.7724026,38.9108466 31.7665927,40.0782286 C31.5479533,40.1447418 30.467209,40.6019988 30.7763656,40.3898419 C30.9099318,40.2886928 31.0027822,40.18753 31.1039359,40.0522757 C31.2172722,39.8917365 31.2854872,39.7537556 31.3485098,39.5667464 C31.4382448,39.273437 31.454586,39.0358579 31.4112717,38.7318937 C31.3542192,38.417531 31.2574665,38.1886486 31.0684033,37.932418 C30.936388,37.7643394 30.8142268,37.6481392 30.6373371,37.5296379 C30.485888,37.4344361 30.351782,37.3688333 30.1791789,37.3236982 C29.8596558,37.252903 30.6111463,37.3109939 30.7522381,37.3057878 C34.2045737,37.1393013 37.7664851,36.6983901 41.2553871,36.4763654 C42.7024823,36.3931129 44.5419819,36.270046 45.9670401,36.5004746 C46.4577481,36.5974926 46.7759857,36.7183409 47.1782443,37.0337375 C47.3634281,37.1945284 47.485452,37.3408125 47.6109848,37.5529557 C47.7640077,37.8299742 47.8335128,38.0652065 47.8578965,38.3812344 C47.8700838,38.6740589 47.8368844,38.8973509 47.7365177,39.1722788 C47.6602601,39.3662828 47.5790892,39.5115239 47.4553726,39.6782895 C47.149455,40.0551441 46.8750487,40.2461608 46.4559365,40.4730897 C46.0941192,40.6619151 45.7333451,40.8118179 45.3527345,40.958619 C39.1191699,43.1827504 32.4887815,44.4179586 26.1770059,46.4218952 C25.8315482,46.540941 25.4590991,46.6693285 25.1289396,46.825206 C25.0366153,46.8703274 25.0438755,46.8765537 25.1253026,46.8109235 C25.2391651,46.7144498 25.3161957,46.6184977 25.3981535,46.4926904 C25.4845168,46.3515987 25.5356083,46.2304989 25.5797049,46.0699459 C25.6370227,45.8374356 25.6450652,45.6522381 25.6103058,45.4149427 C25.5664745,45.1729672 25.4982595,44.9968461 25.3646979,44.7909064 C25.2658728,44.6472436 25.1725101,44.5445208 25.0366107,44.4358599 C24.9110733,44.3409371 24.7982493,44.2732253 24.6498974,44.2224083 C24.5238476,44.181935 24.5707943,44.2042601 24.6799859,44.2148828 C25.1611051,44.2582062 25.7073101,44.2361602 26.1899755,44.2180119 C31.3293094,43.9413822 36.1454831,42.7867228 41.2159568,42.0396286 C41.9970189,41.9330355 42.7548684,41.8477199 43.5443665,41.8552271 C43.8736157,41.8622495 44.1532007,41.8847987 44.4753269,41.9581924 C44.6763258,42.0080075 44.8342757,42.0643967 45.019981,42.1590815 C45.3099417,42.3165099 45.4977194,42.4817247 45.6905523,42.7519588 C45.9270883,43.1194717 46.0118962,43.4540688 45.9781798,43.8897692 C45.9387678,44.2089218 45.8565447,44.4382068 45.6861376,44.7084409 C45.4691954,45.0269529 45.2593626,45.2186101 44.9525437,45.4434712 C44.3503064,45.862071 43.7073579,46.1654039 43.0386028,46.4623732 C37.060761,48.8052758 30.1223689,49.8122421 23.9354857,51.7980442 C23.8120252,51.8467842 23.6701604,51.8934839 23.5430767,51.9365237 C23.0580781,52.1108148 22.2910195,52.3792602 21.850886,52.6466625 C21.8288491,52.6609176 21.9183279,52.579216 21.925062,52.5717179 C21.9828968,52.506353 22.0243949,52.4446297 22.0669269,52.3681068 C22.145513,52.2205371 22.1836441,52.0944965 22.207767,51.9290118 C22.2329239,51.7010261 22.2121634,51.5224621 22.1354072,51.3061742 C22.063816,51.1230445 21.9828968,50.9928545 21.8467321,50.8517627 C21.7258701,50.7355625 21.6099353,50.6491855 21.4525114,50.5911083 C21.2797757,50.5387267 22.0438515,50.6149522 22.2765036,50.6102905 C22.9986833,50.5905776 23.7101122,50.5267865 24.4282752,50.4494859 C30.8440408,49.6956759 37.1816138,48.3457132 43.6222938,47.791063 C45.5008303,47.6535991 47.4372106,47.5140719 49.3211911,47.5371381 C49.8128095,47.5451807 50.2975565,47.5610278 50.7810042,47.6546376 C51.0520252,47.7116992 51.2416191,47.7749826 51.4811471,47.9226804 C51.7008203,48.0700122 51.8349035,48.2181125 51.9614702,48.4528141 C52.0403171,48.6141494 52.0794866,48.7487495 52.0976349,48.9282193 C52.1106045,49.098631 52.0984172,49.2327142 52.0548421,49.3979289 C51.9861102,49.62435 51.8992253,49.7806073 51.7438693,49.9574924 C51.6515451,50.0586414 51.5662065,50.1330828 51.4552079,50.213206 C51.2858392,50.3307192 51.1280265,50.414484 50.9417997,50.5013505 C50.5268323,50.6870604 50.1082325,50.8289482 49.6758716,50.9674323 C48.3856879,51.3652853 47.0747575,51.692732 45.7629121,52.010965 C38.8022269,53.6134345 31.7295047,54.8362953 24.7173301,56.2094797 C23.7936208,56.4016538 22.7385504,56.6179692 21.8496005,56.9364539 C21.737298,56.9800289 21.5007574,57.1283809 21.6081282,57.0269802 C21.6532633,56.9823621 21.685685,56.9374878 21.7183583,56.882773 C21.7813809,56.7712391 21.8104401,56.6752962 21.8257337,56.5474119 C21.8379301,56.3923167 21.8200289,56.2709378 21.7616726,56.1267443 C21.7170682,56.0260984 21.6703823,55.9529701 21.5941247,55.8743931 C21.5604084,55.8416969 21.4997189,55.7877508 21.4551145,55.7698633 C21.4763782,55.7830707 21.5575537,55.8056474 21.5829713,55.8129077 C21.8171788,55.8748964 22.0578642,55.9104289 22.2977719,55.9418258 C23.1408181,56.0478883 23.9858086,56.088627 24.834308,56.119205 C29.3378208,56.160209 36.197613,54.851598 40.7846482,54.1269387 C43.2580245,53.7373936 45.7909328,53.3173573 48.2816888,53.0730349 C48.8968911,53.0133794 49.683658,52.930923 50.2934071,53.031793 C50.468476,53.0660263 50.5906326,53.1085675 50.7405446,53.2107596 C50.8658121,53.3033355 50.9425866,53.398551 51.0071737,53.5411799 C51.0738196,53.7088696 51.0852383,53.8507299 51.0455473,54.026302 C51.0136471,54.146647 50.9716275,54.2319947 50.8987507,54.3315792 C50.8767047,54.3787821 50.7758164,54.4635808 50.7374337,54.5043195 C50.6562491,54.5922336 50.4912997,54.6796446 50.390663,54.7480975 C49.6512271,55.1571176 48.7187113,55.4328232 47.9100219,55.6694828 C46.924324,55.9304025 41.9560378,57.1146382 36.6460452,58.3298773 L36.6460452,76.6108185 C47.2767994,73.9528806 59.1467786,72.2487772 71.7430639,71.743535 L71.7430639,54.5050926 C64.5297623,56.1355554 57.591265,57.6223233 56.6066146,57.5725402 C58.0791228,56.6114776 84.8240001,49.9696659 88.3982361,48.9160412 C89.2118388,48.6631456 90.3754649,48.3021381 91.1037246,47.8568168 C91.1488734,47.83607 91.2357399,47.7690308 91.2769818,47.7334707 C91.2769818,47.7334707 91.2383521,47.7715972 91.2404016,47.7736788 C91.1867345,47.8469489 91.1576662,47.9182748 91.1338223,48.0056857 C91.0946482,48.1794462 91.1086654,48.3215856 91.1737512,48.4870428 C91.2342028,48.6190581 91.3023903,48.7103668 91.4183252,48.7967301 C91.4616487,48.826567 91.5883572,48.8794655 91.5551441,48.8737699 C91.006217,48.819293 90.0782303,48.9349626 89.5251539,48.9977336 C86.4033576,49.3639655 83.3219203,50.0244127 80.219599,50.5171885 C74.1456587,51.5906817 65.7693897,53.3246358 59.7373364,53.4457493 C58.5897953,53.4216264 57.4556264,53.3819307 56.3130124,53.2634157 C55.8938773,53.2143966 55.494995,53.1573532 55.0843004,53.0577413 C54.9014452,53.0240387 54.7227485,52.9402739 54.5500128,52.8813823 C54.3106266,52.7753199 54.1454119,52.671824 53.9550494,52.4884426 C53.8136923,52.3421859 53.7257645,52.2132677 53.6433035,52.026803 C53.5483762,51.7923394 53.5188046,51.5966564 53.5395514,51.3440445 C53.5660075,51.1207205 53.6199537,50.9565671 53.7301792,50.7614971 C53.8134362,50.6227523 53.8930653,50.5231495 54.0071748,50.4095478 C54.354705,50.0895168 54.6968093,49.9287077 55.1295499,49.7538858 C56.3838167,49.2635804 57.8080927,48.9450866 59.1216217,48.6558899 C67.8884697,46.7318387 76.7312093,45.1480528 85.4446419,42.9861708 C87.0237524,42.5828737 88.6020805,42.1702212 90.1505901,41.6612231 C90.5619297,41.5250722 90.9929958,41.3782848 91.3851395,41.1936042 C91.4450604,41.1650665 91.5585111,41.0991984 91.5341457,41.1145012 C91.4836901,41.1497821 91.439351,41.1941212 91.3981091,41.2392608 C91.2554665,41.4018679 91.178445,41.555943 91.1151433,41.7639505 C91.0682057,41.9426381 91.0554878,42.0869734 91.0697703,42.2721526 C91.0899864,42.4677212 91.131759,42.6150392 91.2181223,42.7913982 C91.3395012,43.0165247 91.4694396,43.1721186 91.680686,43.3145096 C91.7597891,43.3632908 91.966502,43.4374531 91.875724,43.4203341 C91.4870572,43.3580801 91.0088155,43.3560169 90.6156105,43.35367 C88.3339143,43.3744167 85.9912358,43.5705023 83.7179617,43.7585316 C75.6881844,44.5810964 67.7126414,46.3394297 59.6906413,47.4027988 C58.6847226,47.5213139 57.6981234,47.6180666 56.6857177,47.6603424 C55.8715751,47.6844516 55.1155555,47.6951064 54.3300787,47.4471562 C53.9892873,47.3208502 53.7602723,47.1815564 53.4965024,46.927142 C53.2884949,46.7113573 53.1641286,46.5165847 53.0541547,46.2369676 C52.9413353,45.9174491 52.9112559,45.6558888 52.9491171,45.3194938 C52.9872527,45.0533908 53.0520823,44.8549904 53.177606,44.6176629 C53.2674873,44.4571236 53.3556668,44.3336769 53.4767895,44.1964692 C53.6521237,44.0053244 53.8136923,43.8713556 54.0253185,43.7237997 C54.9032706,43.1441299 55.9696225,42.7488616 56.9525939,42.3870398 C57.1171544,42.3266294 57.2821084,42.2661916 57.4468062,42.2062844 C65.0322687,39.6279849 73.95036,38.2751811 81.1486242,35.3291033 C81.6771979,35.0891957 82.3666997,34.7738219 82.8374432,34.4322345 C82.9977172,34.3114961 82.839511,34.440277 82.761968,34.5541303 C82.6177471,34.7828846 82.5547428,34.9919535 82.5215434,35.2609021 C82.4875617,35.7030942 82.5760065,36.0493479 82.8156625,36.4224329 C82.9824007,36.6566312 83.1455522,36.8156379 83.3976517,36.9525529 C83.4357782,36.9867999 83.5722082,37.0238788 83.6271883,37.0454078 C83.659857,37.053981 83.4599058,37.0319213 83.312057,37.0298535 C82.5477204,37.0345289 81.7555232,37.1403443 81.0005284,37.2503136 C74.4266665,38.2899486 68.3911088,39.7991697 61.6904514,40.2282687 C60.8739848,40.2651005 60.0542656,40.2938852 59.2378127,40.2334474 C58.8701718,40.2005271 58.5752703,40.1553783 58.2209877,40.0419138 C57.924787,39.9392138 57.7162763,39.8294961 57.4639251,39.639399 C57.2616269,39.4775605 57.124163,39.3294601 56.9767077,39.1149747 C56.7912677,38.8281294 56.6945242,38.5825078 56.6341047,38.2458475 C56.5855979,37.9140181 56.5972729,37.6554269 56.6776797,37.3307159 C56.7432825,37.0928715 56.8213563,36.9118508 56.95,36.7020271 C57.1122365,36.4514784 57.2644633,36.2806778 57.4916668,36.09005 C57.7590782,35.874796 57.9987251,35.7334526 58.3026893,35.5796429 C58.8929955,35.2901992 59.4919755,35.0684398 60.1105403,34.8500566 C67.9548731,32.2390837 76.3325648,30.6525895 84.0363366,27.8014436 C84.3519711,27.6847401 84.6243005,27.5477977 84.9251355,27.4072367 C85.1528696,27.2811686 84.895079,27.4357606 84.7257011,27.6440197 C84.6082154,27.8011828 84.532731,27.9422746 84.4608973,28.1248736 C84.3532703,28.4210606 84.3185201,28.6639419 84.3317275,28.9793431 C84.3587144,29.3268778 84.4349719,29.5870199 84.6035537,29.8920179 C84.7316758,30.1088365 84.8571995,30.2636939 85.0473104,30.4281126 C85.3551677,30.6702437 85.6601658,30.7599832 85.5935154,30.7477684 C84.3340607,30.5742733 82.0619441,30.748816 80.7671078,30.8318031 C76.3271345,31.1495192 71.8691228,31.7141515 67.4610634,31.9945188 C66.7400366,32.0251381 66.087362,32.0471658 65.3774794,31.8874088 C65.0623755,31.8044217 64.8344035,31.7066397 64.5559713,31.5313146 C64.3067356,31.3648007 64.1345123,31.2032275 63.9488115,30.9671855 C63.6951657,30.623027 63.564962,30.3184224 63.4884529,29.8972104 C63.4300828,29.4887209 63.4536889,29.1712564 63.5732653,28.7773103 C63.6624787,28.5149632 63.7607639,28.3175967 63.9205346,28.0929734 C64.1013175,27.8507326 64.2615914,27.6901933 64.4999391,27.5088935 C65.3264016,26.9492157 66.225599,26.6712913 67.1708328,26.3776983 C71.9736435,24.9258133 78.1368109,23.5248917 82.6582204,21.8147815 C82.1669955,22.0269384 81.8512054,22.2914997 81.5578822,22.7391542 C81.2881514,23.1965255 81.1880362,23.5967208 81.2131794,24.1273715 C81.261709,24.6492019 81.4136888,25.0261663 81.7376037,25.4377713 C82.084777,25.8395175 82.4328286,26.0615285 82.9430024,26.2067833 C81.1805244,25.9240691 76.957635,26.598927 74.9804062,26.8187329 C74.2928441,26.8905895 73.6188783,26.9517822 72.9266682,26.9562106 C72.5708256,26.9546597 72.2586954,26.9367631 71.9064807,26.8773591 C71.6652738,26.8330064 71.4663244,26.7782916 71.2368015,26.689984 C70.8558021,26.5341065 70.5923113,26.3647287 70.2918377,26.0799467 C69.847285,25.6240164 69.6244917,25.1721897 69.5282697,24.5410579 C69.4735549,23.9992493 69.5365912,23.5881614 69.7523759,23.0912408 C70.007042,22.5698038 70.2664154,22.2606472 70.6942426,21.8822417 C71.405914,21.2851922 72.1614258,20.8386815 72.9676448,20.3858667 C73.065166,20.3311245 73.162948,20.2766751 73.2607026,20.2224498 C75.6085735,18.980503 83.423074,13.4400909 85.653697,16.4900306 C87.6589192,19.3792892 77.9875531,23.2201315 75.628021,24.5070625 C75.5408755,24.5555647 75.4350647,24.6074567 75.3530978,24.6598246 C74.9070079,24.9097283 74.2910142,25.2502589 73.898994,25.5690226 C73.8787779,25.5866402 74.064195,25.3841042 74.2001218,25.1050361 C74.3740241,24.7057328 74.4155176,24.3633723 74.3719426,23.9292227 C74.2892071,23.3894956 74.099755,22.9952612 73.7189889,22.604275 C73.5032042,22.4001606 73.3110438,22.2658122 73.0374152,22.1540404 C72.9863192,22.120841 72.8389965,22.0941195 72.7723461,22.0757196 C72.6799944,22.0604031 72.9274413,22.0806467 72.9416964,22.0808846 C73.4479588,22.0819459 73.9773102,22.0300813 74.4811296,21.9802662 C77.6379278,21.6495805 80.9968869,20.964992 84.1418866,21.555957 C84.6930187,21.7113039 85.0670141,21.9478353 85.4415356,22.3812484 C85.7897153,22.8229235 85.9518192,23.2281649 86.0036838,23.7881355 C86.0311739,24.3569035 85.9245808,24.7864051 85.6342266,25.2767242 C85.3230022,25.7521294 84.9845394,26.03768 84.4632305,26.2638541 C79.6384836,28.0115464 73.5765933,29.3790078 68.5312902,30.849471 C68.2562388,30.9329751 66.8948665,31.5089987 67.2841646,31.2418801 C67.4524948,31.1142611 67.5694498,30.9866559 67.6968034,30.8162716 C67.8391807,30.6142251 67.9252924,30.4403228 68.0049261,30.2048252 C68.1177455,29.8354962 68.138506,29.5364453 68.0834985,29.1531127 C68.0119347,28.7576066 67.8902905,28.4693065 67.6519291,28.1461464 C67.4856805,27.9350372 67.3316191,27.7884877 67.1088395,27.6391155 C66.9182117,27.5192875 66.749113,27.436552 66.5321434,27.3797558 C66.1296149,27.2905149 67.0761571,27.3639223 67.2538107,27.3571791 C71.6014597,27.1476207 76.0883843,26.5919367 80.4823121,26.3120863 C82.3052143,26.2075565 84.6221915,26.0527265 86.416835,26.3427055 C87.0348966,26.464853 87.4358651,26.6170844 87.9427679,27.014576 C88.1759323,27.2171258 88.329495,27.401541 88.4874495,27.6686734 C88.6804059,28.0177864 88.7680684,28.3137081 88.7984086,28.7114376 C88.8142283,29.0804876 88.7719524,29.3613902 88.6456327,29.7083942 C88.5496898,29.9524649 88.4477584,30.1355672 88.2913685,30.3451393 C87.9067367,30.8201419 87.5606248,31.0605803 87.0328196,31.3463962 C86.5768756,31.5842406 86.1229812,31.7727732 85.6433168,31.9577008 C77.7919891,34.7595485 69.4403464,36.3148151 61.4912504,38.8395482 C61.0565518,38.9889478 60.586984,39.1507863 60.1712298,39.3473614 C60.0550433,39.4041714 60.0638544,39.411944 60.1660511,39.3292131 C60.3097413,39.2078479 60.4069927,39.0867069 60.5102096,38.9282629 C60.6188979,38.750074 60.6832152,38.5978289 60.7389776,38.3957823 C60.8110583,38.1028343 60.8211824,37.8696699 60.7773419,37.5706465 C60.7223619,37.266417 60.6362502,37.0443922 60.4684644,36.7850187 C60.343691,36.603998 60.2262236,36.474325 60.054778,36.3376434 C59.8965673,36.2179389 59.7541808,36.1328748 59.5676978,36.0682876 C59.4084578,36.0179876 59.4683649,36.0454593 59.6053073,36.0591975 C60.2114332,36.1136881 60.8996221,36.0861843 61.5075779,36.063356 C67.9802633,35.7147737 74.046033,34.260432 80.4332884,33.3199789 C81.4165068,33.1853651 82.3713569,33.0777518 83.3654771,33.0875922 C83.7804308,33.0966824 84.1322566,33.1246711 84.5381796,33.217279 C84.7915601,33.2797983 84.9904958,33.3508452 85.2241772,33.4701425 C85.5893615,33.6683096 85.8265334,33.8760518 86.0690258,34.2165916 C86.3662742,34.679686 86.4733705,35.1013967 86.43136,35.6496832 C86.3815449,36.0516948 86.277564,36.3407359 86.0628133,36.6815273 C85.7902185,37.0822442 85.5255291,37.3231858 85.1391131,37.6064169 C84.3804767,38.1342221 83.5708907,38.5163652 82.7290019,38.8903743 C75.1998004,41.8409675 66.4605705,43.1091051 58.6688846,45.6102551 C58.5127555,45.6719784 58.3338026,45.7306001 58.1740273,45.7850495 C57.5627227,46.0043522 56.5972546,46.3428013 56.0427417,46.678931 C56.0149817,46.69761 56.1272842,46.5946493 56.1358482,46.5850559 C56.2087341,46.5023067 56.260855,46.4250198 56.3150665,46.3285325 C56.4133471,46.142571 56.4613461,45.9838571 56.491947,45.77493 C56.5238563,45.4883638 56.4974002,45.2632099 56.4011781,44.9906427 C56.3106609,44.7600584 56.2087296,44.596422 56.0370277,44.4184985 C55.8850388,44.2719627 55.7387592,44.1635259 55.5403496,44.0906629 C55.3230095,44.0240125 56.2852296,44.1202345 56.5783103,44.1145206 C57.4880252,44.0898669 58.3841118,44.0094783 59.289133,43.9120989 C67.3692149,42.9625831 75.3523063,41.2618147 83.4632591,40.5638769 C85.8299096,40.390368 88.2687781,40.214526 90.6420483,40.2441113 C91.2606406,40.2539517 91.8715563,40.2741815 92.4805186,40.3916673 C92.8218407,40.4635238 93.0604537,40.5434 93.3615678,40.7293615 C93.6386961,40.915323 93.8077949,41.1015544 93.9675564,41.3969454 C94.0666377,41.6002912 94.1156568,41.7699069 94.1384714,41.9955595 C94.1550871,42.2104246 94.1400497,42.3795508 94.0845252,42.587014 C93.997924,42.8728299 93.8884671,43.0694415 93.6936945,43.2922211 C93.5764604,43.4195747 93.469085,43.5129329 93.3296539,43.6143336 C93.1157128,43.7624339 92.917532,43.8674945 92.6825514,43.9770612 C92.1604877,44.2110079 91.6331995,44.3899654 91.0881656,44.5639912 C89.4634031,45.0655918 87.812308,45.4777091 86.1603299,45.878426 C77.3925623,47.8970065 68.484467,49.4370984 59.6527573,51.1663771 C58.4891312,51.4086179 57.1607066,51.6810845 56.0406647,52.0825562 C55.8993214,52.1375363 55.6018305,52.3237769 55.736696,52.1966886 C55.7934922,52.1404093 55.8347296,52.0835901 55.8757199,52.0146066 C55.954823,51.8745487 55.9911287,51.7531698 56.0105762,51.5927541 C56.0261351,51.3969476 56.0035767,51.2444508 55.9301647,51.0621171 C55.8741599,50.9358112 55.8147605,50.8432033 55.7188039,50.7443873 C55.6765143,50.7036898 55.6002751,50.6357127 55.5437213,50.613168 C55.5707035,50.6292531 55.673408,50.6582894 55.7047867,50.6668626 C55.9999398,50.745435 56.30287,50.7897924 56.6052925,50.8294697 C57.667216,50.9630496 58.7313674,51.0146672 59.7998054,51.0530316 C65.4724021,51.1044067 74.1126743,49.4562852 79.8898008,48.5436012 C83.0049682,48.0523763 86.194824,47.5242097 89.3324263,47.2158217 C90.1075091,47.1413804 91.0977361,47.0376465 91.8666247,47.1642087 C92.0863025,47.2072668 92.2411324,47.2609476 92.4288964,47.3895868 C92.5871071,47.5065555 92.6835899,47.6263973 92.7653052,47.8062606 C92.8495869,48.0171182 92.863842,48.1958057 92.8132766,48.4172998 C92.7730686,48.5679987 92.720687,48.6764217 92.6288752,48.8016663 C92.6008544,48.8610702 92.4740315,48.9674117 92.4255431,49.0195463 C92.323081,49.1295201 92.1150872,49.2397411 91.9887813,49.3260906 C91.0572902,49.8415804 89.8834165,50.1891151 88.8640251,50.4860844 C87.6223161,50.8152192 81.3648847,52.3066671 74.6771968,53.8377832 L74.6771968,71.6481365 C76.3203638,71.6068808 77.9742908,71.5848485 79.6395175,71.5848485 C93.0243859,71.5848485 105.738573,72.9344087 117.205896,75.359292 L117.205896,49.0197979 C108.121194,51.0735496 99.3815573,52.9464865 98.1416874,52.8834684 C99.9964897,51.6733119 133.681584,43.3075422 138.183542,41.9802613 C139.207988,41.6617767 140.673776,41.2076352 141.59125,40.646379 C141.647543,40.6201882 141.75775,40.5361535 141.80913,40.4910322 C141.80913,40.4910322 141.76088,40.5395206 141.76373,40.5421145 C141.696297,40.6336702 141.659218,40.7236796 141.629381,40.8336398 C141.58011,41.0525399 141.597229,41.2320098 141.679681,41.4405342 C141.755701,41.6062796 141.84152,41.7211806 141.987552,41.8303722 C142.042281,41.867968 142.201269,41.9346184 142.160027,41.927349 C141.468307,41.8588961 140.299781,42.0041235 139.603394,42.0833776 C135.670982,42.5445048 131.789914,43.3765212 127.882046,43.9973047 C120.232499,45.349866 109.681882,47.5327601 102.08447,47.6855222 C100.638926,47.6551866 99.2109031,47.6053715 97.7718368,47.4562509 C97.2433912,47.3945276 96.7412599,47.3224194 96.2235788,47.1968911 C95.994056,47.1548806 95.7689158,47.0490561 95.5515985,46.9748664 C95.2495604,46.8413139 95.0415666,46.7110965 94.8016589,46.4795104 C94.6237353,46.2961428 94.5132491,46.1335083 94.4092361,45.8985277 C94.2896872,45.6027295 94.2523384,45.3566093 94.2785155,45.0386416 C94.3117149,44.7572266 94.379413,44.5502485 94.5186885,44.3048968 C94.6234791,44.1300886 94.7235852,44.0048166 94.8675224,43.8620459 C95.3053319,43.4587488 95.7365124,43.2561716 96.2811528,43.0357252 C97.8607803,42.4181943 99.6551722,42.0173676 101.309227,41.6524349 C112.351335,39.2296332 123.488203,37.2350246 134.463278,34.5116212 C136.452177,34.0039223 138.440033,33.4839081 140.390806,32.8432836 C140.908739,32.6713393 141.451718,32.4866725 141.946059,32.2536316 C142.0205,32.2178611 142.163911,32.1345858 142.133319,32.1543124 C142.069752,32.1986515 142.014008,32.2544276 141.96186,32.3114755 C141.782152,32.5167747 141.6854,32.7102343 141.606018,32.972188 C141.546627,33.1975936 141.530291,33.3791312 141.548206,33.612044 C141.574131,33.8584296 141.626261,34.043865 141.735453,34.2661414 C141.888201,34.5494823 142.051353,34.7463502 142.318238,34.9250423 C142.417054,34.986514 142.677448,35.0804029 142.563594,35.0586222 C142.073934,34.9800224 141.471939,34.9779408 140.976176,34.9748391 C138.102609,35.0010299 135.151613,35.2476671 132.288152,35.484743 C122.175358,36.5207365 112.129315,38.7357914 102.025583,40.0743538 C100.759024,40.2238769 99.5161666,40.3463034 98.2412856,40.3992157 C97.215375,40.4295375 96.2635261,40.4430241 95.2736742,40.1301116 C94.8449823,39.9716676 94.5565542,39.7955327 94.2240707,39.4752319 C93.962117,39.2036986 93.8059878,38.9583331 93.6672292,38.60637 C93.5250898,38.2039788 93.4872287,37.8746061 93.5346832,37.4505348 C93.5826684,37.1149495 93.6646353,36.8651694 93.8228277,36.5663976 C93.9356608,36.3646027 94.0464033,36.208867 94.199417,36.0361221 C94.4204078,35.7949152 94.6234883,35.6265987 94.8903416,35.4411633 C95.9958722,34.7108085 97.3387074,34.2129683 98.5774153,33.7572714 C98.7846405,33.6815445 98.9918658,33.6052779 99.1994844,33.5295373 C108.753635,30.2818513 119.986352,28.5779949 129.052388,24.8677315 C129.718156,24.565428 130.586363,24.1681056 131.179533,23.7380733 C131.381314,23.5861073 131.182649,23.7479458 131.084345,23.8913661 C130.902542,24.179259 130.823439,24.4427498 130.781666,24.7812127 C130.738887,25.3384475 130.850398,25.7744408 131.152043,26.2446536 C131.36237,26.5395414 131.567779,26.7399135 131.885372,26.9123885 C131.933357,26.9556982 132.105063,27.0021188 132.17455,27.0290782 C132.21554,27.0402316 131.963972,27.0122429 131.777479,27.0099097 C130.814866,27.0156054 129.817113,27.1489199 128.865658,27.2871524 C120.585862,28.5961432 112.984566,30.4976452 104.544621,31.0380127 C103.516267,31.0846987 102.483357,31.1207345 101.455534,31.044756 C100.992691,31.0032625 100.620764,30.9459401 100.17466,30.8035491 C99.8019779,30.6741277 99.5389903,30.5360095 99.2212788,30.2961019 C98.9664435,30.0919875 98.7932,29.9057744 98.6077555,29.6357919 C98.3738225,29.2744916 98.2521645,28.9650834 98.1759344,28.540884 C98.1147006,28.1230803 98.1297654,27.7978249 98.2311661,27.3885531 C98.31365,27.0892644 98.4119352,26.8607755 98.5737738,26.596603 C98.7786841,26.2807168 98.9698106,26.0664693 99.2560154,25.8260538 C99.5926757,25.555289 99.8948374,25.3768531 100.27817,25.1830961 C101.021481,24.8184287 101.775314,24.5392326 102.554688,24.2637924 C112.434578,20.9756468 122.986366,18.9768889 132.689134,15.3864397 C133.086987,15.2391217 133.430112,15.0670356 133.809185,14.8901322 C134.096296,14.7309196 133.771059,14.9254406 133.557479,15.1884282 C133.40963,15.3861744 133.315238,15.563581 133.22446,15.7941515 C133.088812,16.167113 133.045242,16.4726509 133.061826,16.8694563 C133.095807,17.3076592 133.192295,17.6354673 133.403665,18.0193305 C133.565517,18.292703 133.723572,18.4874618 133.962981,18.694957 C134.350724,18.9994518 134.73509,19.1123993 134.651325,19.096845 C133.06441,18.8788552 130.202793,19.0989265 128.571804,19.2029074 C122.979106,19.603121 117.365415,20.3145408 111.813163,20.6672725 C110.904638,20.7061812 110.082599,20.7339092 109.18858,20.532924 C108.791509,20.4283941 108.504005,20.3046729 108.153607,20.0842128 C107.839775,19.8746544 107.622943,19.6708054 107.388753,19.373589 C107.069738,18.9398146 106.905836,18.5567336 106.809459,18.0260784 C106.736065,17.5112566 106.765133,17.1114364 106.916711,16.6152981 C107.028496,16.284864 107.152208,16.0369138 107.353486,15.7534448 C107.581193,15.4486983 107.783239,15.2463865 108.083576,15.017774 C109.124524,14.3125668 110.25689,13.962699 111.447462,13.5933791 C117.496648,11.7644885 125.259,9.99992887 130.953876,7.84634105 C130.335046,8.11348715 129.938241,8.44598901 129.568266,9.01010441 C129.228504,9.5859908 129.101933,10.0904507 129.134099,10.758579 C129.195305,11.4161669 129.386198,11.8910552 129.794422,12.4097702 C130.231577,12.9152639 130.66989,13.1951143 131.312578,13.3778277 C129.092857,13.0223877 123.774305,13.8716648 121.283539,14.1489213 C120.417523,14.2386653 119.568516,14.3164554 118.697069,14.3216478 C118.248257,14.31958 117.855583,14.2970216 117.411826,14.2225803 C117.108379,14.1660219 116.857313,14.0972945 116.568121,13.9865521 C116.088709,13.7907456 115.756458,13.5767771 115.378318,13.2184458 C114.818096,12.6434653 114.537729,12.0749397 114.416487,11.2796225 C114.347741,10.5972254 114.426579,10.0795718 114.698799,9.45360491 C115.019612,8.79638295 115.345901,8.40760176 115.884832,7.93091101 C116.781326,7.17837285 117.732905,6.61633899 118.748682,6.04575481 C118.871612,5.97726073 118.99429,5.90854249 119.11776,5.84060655 C122.074579,4.27628186 131.917263,-2.70259728 134.726526,1.13905472 C137.252545,4.77835367 125.071227,9.61606561 122.099484,11.2370768 C121.989762,11.2980316 121.85621,11.3636481 121.752467,11.4296443 C121.190945,11.7442587 120.415469,12.1734995 119.92176,12.5744634 C119.8961,12.5965231 120.129781,12.3418159 120.301071,11.9901319 C120.52025,11.4875019 120.571863,11.0557907 120.516856,10.5093067 C120.413387,9.82952172 120.174372,9.33324162 119.69457,8.84047955 C119.423288,8.58342549 119.180782,8.41457835 118.836358,8.27377939 C118.772023,8.23147611 118.586327,8.19802509 118.502297,8.17494974 C118.386096,8.15548849 118.697865,8.1806591 118.715762,8.18092444 C119.353495,8.1824753 120.020324,8.11685421 120.654599,8.05435314 C124.631075,7.63808649 128.861504,6.77634302 132.822943,7.51968122 C133.516214,7.71562496 133.988133,8.01362817 134.45938,8.55930251 C134.897693,9.11617141 135.102072,9.62646873 135.167689,10.3316667 C135.201671,11.0474874 135.067322,11.589168 134.702655,12.2064198 C134.310246,12.8052855 133.88412,13.1650395 133.227301,13.4499313 C127.150639,15.6514906 119.515361,17.3732711 113.16093,19.2252233 C112.814159,19.3307825 111.099918,20.0562103 111.590114,19.71955 C111.802252,19.55848 111.949058,19.3984852 112.109876,19.183986 C112.289346,18.9291507 112.397742,18.7100035 112.497857,18.4135512 C112.639868,17.9480001 112.666576,17.5716761 112.597066,17.0888825 C112.506933,16.5903837 112.352872,16.2277978 112.052815,15.8206168 C111.843773,15.5542347 111.649769,15.3701168 111.369118,15.1821836 C111.128973,15.0312468 110.91655,14.9264562 110.642547,14.8548924 C110.136005,14.7425762 111.32789,14.8349142 111.552243,14.8268717 C117.027958,14.5625711 122.679264,13.8633524 128.213349,13.5108861 C130.509342,13.3791361 133.427262,13.1842079 135.688087,13.5489988 C136.466423,13.7028085 136.97167,13.8947356 137.609819,14.3952977 C137.903911,14.6504944 138.097165,14.8828948 138.296082,15.2187729 C138.538588,15.658243 138.649065,16.0314561 138.687974,16.5320228 C138.707408,16.9975876 138.654258,17.3514767 138.495256,17.7879732 C138.373891,18.0955652 138.24602,18.3261494 138.048914,18.5901846 C137.564167,19.1883961 137.128311,19.4913264 136.463843,19.8513 C135.889365,20.1506162 135.317349,20.3884286 134.713817,20.6213597 C124.825075,24.1499299 114.305982,26.1089967 104.293793,29.2887467 C103.745785,29.4773067 103.155214,29.6806525 102.630661,29.9283374 C102.484908,30.0001665 102.495782,30.0097736 102.624966,29.9055091 C102.805721,29.7522163 102.928413,29.6002456 103.057944,29.4007839 C103.194905,29.1764534 103.276341,28.9845309 103.346102,28.7303361 C103.437393,28.361158 103.449598,28.067542 103.394605,27.6909527 C103.325621,27.3076201 103.216695,27.0280306 103.005576,26.7013662 C102.848249,26.4728772 102.700693,26.3097394 102.484643,26.1375161 C102.285208,25.9873616 102.106237,25.8799862 101.871005,25.79855 C101.67104,25.7352621 101.745733,25.7697607 101.918446,25.7873829 C102.681748,25.8561149 103.548671,25.821113 104.314553,25.7920584 C112.467261,25.3532288 120.107214,23.5215018 128.15136,22.3368681 C129.390055,22.1672524 130.592855,22.0316047 131.84515,22.0440756 C132.367511,22.0552153 132.810248,22.0910132 133.321702,22.2071997 C133.640969,22.2865544 133.891641,22.3757952 134.185761,22.5259634 C134.645868,22.7754507 134.944383,23.0375325 135.249647,23.4665308 C135.624548,24.0492977 135.759148,24.5802183 135.705984,25.2715501 C135.643478,25.7783156 135.512886,26.1414184 135.24187,26.570403 C134.898731,27.0760203 134.565964,27.3794813 134.078902,27.736097 C133.123284,28.4008445 132.103224,28.8818081 131.042842,29.3525562 C121.559757,33.0691695 110.552286,34.6664328 100.738515,37.8170047 C100.541912,37.8948085 100.317056,37.9684721 100.115535,38.0364309 C99.3457411,38.3132802 98.1297471,38.7391539 97.4310317,39.1629461 C97.3962814,39.1863051 97.5378901,39.0560877 97.5484991,39.0444174 C97.6403338,38.9401528 97.7061928,38.8431668 97.7739046,38.721271 C97.8983989,38.4873243 97.9588368,38.2873684 97.9974665,38.0242436 C98.0376608,37.6629433 98.0039581,37.3794606 97.8825655,37.036583 C97.7687259,36.7461054 97.6403384,36.5399278 97.424023,36.315849 C97.2322378,36.1312965 97.0486049,35.9943632 96.7985731,35.9025559 C96.5246975,35.8187591 97.7373381,35.9399001 98.1056242,35.9326262 C99.251866,35.9015083 100.380074,35.8006108 101.519824,35.6779327 C111.697466,34.4820267 121.75168,32.3397204 131.968107,31.4607527 C134.948519,31.2421179 138.02039,31.0208755 141.009613,31.0579726 C141.788873,31.0706769 142.558136,31.0958338 143.32519,31.2436688 C143.755474,31.3344468 144.056062,31.4350926 144.435246,31.6690256 C144.783549,31.9029586 144.996767,32.1379392 145.197638,32.5100086 C145.323162,32.7662392 145.384885,32.9799423 145.413939,33.2639558 C145.434686,33.5347343 145.41549,33.7474035 145.345459,34.0093435 C145.23705,34.3690975 145.09868,34.6166405 144.853077,34.8975294 C144.705759,35.0578033 144.570363,35.1755681 144.394534,35.302908 C144.125824,35.489638 143.875792,35.6221886 143.580136,35.7599133 C142.921738,36.054522 142.258052,36.2796622 141.571771,36.4992028 C139.525055,37.1304719 137.445757,37.6499829 135.365046,38.1546806 C124.321919,40.6971869 113.102029,42.6365683 101.978362,44.8152993 C100.512853,45.1203111 98.8385684,45.4629187 97.4286939,45.968536 C97.2504913,46.038064 96.8753431,46.2727655 97.0454711,46.1127432 C97.1173277,46.0416827 97.1689453,45.9701143 97.2205583,45.8833485 C97.3208016,45.7061935 97.3664262,45.553962 97.3905491,45.3521808 C97.4102757,45.1052783 97.3822413,44.9130722 97.2894001,44.6838146 C97.2189937,44.5245746 97.1445661,44.4078437 97.0234251,44.2836147 C96.9700096,44.2317501 96.8742908,44.1464161 96.8027271,44.1181484 C96.8364297,44.1386435 96.9655995,44.1749447 97.0055422,44.1860843 C97.3773417,44.2849003 97.7591142,44.3406764 98.1398346,44.3907294 C99.476718,44.5588079 100.817874,44.6236284 102.163303,44.671879 C109.308125,44.7369648 120.190443,42.6609475 127.467028,41.5115765 C131.390899,40.8930117 135.408617,40.2274956 139.360224,39.8391078 C140.336059,39.7449536 141.583967,39.614512 142.551645,39.774022 C142.828901,39.828723 143.023422,39.8959178 143.260329,40.057491 C143.459512,40.2052025 143.581169,40.3564138 143.683856,40.5828395 C143.789946,40.8483935 143.808098,41.0735337 143.745076,41.3518378 C143.693993,41.5422003 143.628107,41.678612 143.512177,41.8365573 C143.47663,41.9109987 143.316887,42.0453472 143.256184,42.1105748 C143.126904,42.2498641 142.865184,42.3886273 142.705692,42.4970228 C141.533132,43.1462206 140.053619,43.583751 138.770179,43.9580071 C137.206618,44.3723203 129.324703,46.2512639 120.901735,48.1792083 L120.901735,76.1881837 C133.921712,79.278455 145.168309,83.7845663 153.729775,89.2779265 C135.044489,80.9971109 108.667898,75.8341848 79.4283671,75.8341848 C50.8916964,75.8341848 25.082981,80.7517592 6.48820319,88.6855525 C14.0023718,84.0322512 23.4711835,80.1182668 34.3165559,77.213829 L34.3165559,58.8599973 C28.5898346,60.1543349 23.0806547,61.335327 22.2990711,61.2956222 L22.2990711,61.2956222 Z M79.7030753,77.6248986 C105.983458,77.6248986 129.275488,81.7295108 143.72233,88.051415 C127.576796,83.1714272 104.785585,80.1291503 79.5207554,80.1291503 C54.863854,80.1291503 32.5629713,83.0269547 16.496042,87.7024392 C30.9950004,81.579091 53.9096627,77.6248986 79.7030753,77.6248986 L79.7030753,77.6248986 Z" id="Shape" fill-rule="nonzero"></path>
                    <path d="M106.950203,65.063208 C107.111149,64.3154872 106.543539,64.0170814 106.138288,63.7320615 L106.287798,63.040716 C106.425275,63.1233371 106.505426,63.2484719 106.533291,63.4423524 L107.310707,63.1860944 C107.208273,62.6931813 106.890822,62.3784663 106.462354,62.2268617 L106.560516,61.7711556 L106.203264,61.6947745 L106.106653,62.1393272 C105.553303,62.0738479 104.977654,62.3086913 104.834366,62.9742074 C104.68692,63.6598298 105.165176,64.0250141 105.571602,64.3001753 C105.590395,64.314316 105.614395,64.3257256 105.632401,64.3397291 L105.480279,65.0460982 C105.259833,64.9558509 105.142347,64.7810291 105.086978,64.5115773 L104.292558,64.769496 C104.371272,65.3005401 104.736845,65.6897056 105.306533,65.8549111 L105.210549,66.2997292 L105.569644,66.3772677 L105.666003,65.9270056 C106.290282,65.9869128 106.812487,65.7022817 106.950203,65.063208 L106.950203,65.063208 Z M113.141386,70.3227633 C112.783869,70.5079608 112.343992,70.3685435 112.158529,70.011022 C111.973099,69.6534913 112.112626,69.2133487 112.470298,69.0279133 C112.827815,68.8427158 113.267692,68.982275 113.453141,69.3396547 C113.638559,69.6971899 113.498922,70.1373279 113.141386,70.3227633 L113.141386,70.3227633 Z M115.254249,69.7661689 L112.049104,72.8190823 L111.479934,72.2316353 L114.620899,69.1710729 L115.254249,69.7661689 L115.254249,69.7661689 Z M114.343894,73.296569 C113.986363,73.4817528 113.546637,73.3423492 113.361192,72.9848277 C113.175748,72.6273062 113.315412,72.1871544 113.672947,72.0017328 C114.030464,71.8165353 114.470204,71.9560807 114.655663,72.3134741 C114.841093,72.6709956 114.701681,73.1111519 114.343894,73.296569 L114.343894,73.296569 Z M108.541908,67.9131965 L109.22091,68.5490038 L109.44461,66.0857424 L113.722872,64.9296556 L113.957729,65.7126437 L110.367267,66.800026 L110.025816,70.6547436 L108.188911,68.8263837 L108.541908,67.9131965 L108.541908,67.9131965 Z M105.191101,71.3376303 L104.44144,70.5041866 L103.385972,71.2167684 L102.932988,70.4223478 L103.790431,69.5872297 L103.090805,68.7398832 L103.803021,68.0907266 L104.634511,69.0813288 C105.38043,68.5388797 105.41948,68.5366884 105.434906,68.5356545 C105.457341,68.535014 105.49663,68.5326671 106.096667,69.1604319 L106.131554,69.1966186 L105.259828,69.8285465 L105.989932,70.6342622 L105.191101,71.3376303 L105.191101,71.3376303 Z M105.652118,63.1560104 C105.678451,63.032829 105.776361,62.9515072 105.932111,62.9480166 L105.817333,63.485008 C105.659891,63.3444423 105.631637,63.2528866 105.652118,63.1560104 L105.652118,63.1560104 Z M105.841333,65.113133 L105.959459,64.5652398 C106.096012,64.6752137 106.156327,64.7694914 106.128837,64.8965797 C106.105619,65.0046001 106.025075,65.1047016 105.841333,65.113133 L105.841333,65.113133 Z" id="Shape" fill-rule="nonzero"></path>
                    <path d="M89.4406023,64.2638741 L89.4406023,64.2647662 C89.4655075,65.0313079 89.5657371,65.7996612 89.6480928,66.5683941 L90.4610414,66.6385626 L90.3293051,68.1647745 L91.0575785,68.2275181 L90.8657932,70.450492 C90.5034727,70.4973061 90.2079262,70.7923448 90.17523,71.1704713 L90.1068915,71.962824 L92.9117403,72.2047995 L92.9800788,71.4124468 C93.0176746,70.9766182 92.6923095,70.5898957 92.2564535,70.5522816 L92.1092727,70.5395773 L92.1305501,70.2935806 L92.1385926,70.2942211 C92.3712401,70.3143274 92.5779529,70.1404251 92.5980546,69.9077868 L92.6107589,69.7598099 L92.17983,69.7225893 L92.130939,69.7184582 L92.137792,69.638948 L92.1865733,69.6431065 L92.617612,69.6803271 L92.6632777,69.1517397 L92.2322116,69.1145191 L92.1834578,69.110388 L92.1903246,69.0308915 L92.2390921,69.0351507 L92.6701445,69.0722478 L92.6759683,69.0049386 C92.694789,68.7868208 92.5322917,68.5936128 92.3141785,68.574792 L92.2790256,68.5718184 L92.2995208,68.3347562 L92.9846262,68.3937576 L93.1162389,66.8675593 L94.0590115,66.9488812 C94.0479816,66.1863471 94.0354192,65.4231999 94.0352774,64.6610547 L94.0354192,64.6602861 L94.9890798,64.7424909 L94.992305,64.4693975 C95.1685359,64.5455132 95.3184662,64.6007587 95.4459341,64.6401981 C95.4417893,64.890088 95.5007998,65.1344104 95.6447417,65.3401991 L95.4452799,65.5747772 L98.8330512,67.4793946 L99.0754018,66.7471 L100.678137,66.1980174 L101.711939,66.599265 C101.347523,66.1802626 101.287364,64.5282845 101.287364,64.5282845 L100.53107,65.619926 L99.3966359,65.7780086 L99.8409233,64.4363217 L97.5217136,63.1325233 L97.177276,63.5375222 C96.8711205,63.3104423 96.4527723,63.1025766 96.1136553,63.3085163 L96.0657982,63.2835973 L96.2212823,63.1300666 L95.6352581,62.8775645 L95.4311438,63.0078917 C95.2327388,62.9338576 95.0883943,62.8880912 95.0883943,62.8880912 L95.0849037,62.8959781 C95.1225133,62.5401493 95.1727081,62.1853361 95.2385625,61.8310581 C95.4176709,60.8707778 95.5346397,59.9006525 95.6720853,58.9342877 L93.1631857,58.7178488 L93.178095,58.492457 L93.2363277,58.0072067 C93.4624835,58.0778784 93.6892981,58.1475162 93.918304,58.2142947 C93.9406154,58.2154659 93.9596694,58.2247939 93.9879418,58.2312856 C94.0643228,58.2500926 94.177005,58.2427043 94.2440443,58.2144182 C94.2651799,58.2052183 94.2829531,58.193031 94.2976016,58.1783824 L95.169062,58.4075302 C95.2227428,58.4215337 95.2768308,58.4294206 95.3299947,58.4307336 L93.6856703,56.1366945 L94.1130812,54.4065238 L96.9760255,54.3707121 L97.1241259,53.8086874 C97.2244789,53.4261234 96.9945809,53.0310061 96.6112346,52.9301086 L94.9763755,52.4994313 L95.1847627,51.7086386 C95.4716217,51.6317543 95.7103445,51.4077899 95.7916572,51.1000698 C95.9118924,50.6437049 95.6394258,50.1769964 95.1834772,50.0567749 C94.7270025,49.9365809 94.2594843,50.2090338 94.1397935,50.6651196 C94.0587507,50.9728397 94.156519,51.2860313 94.3689549,51.4936499 L94.1609337,52.2848178 L92.2494769,51.77388 C91.8674298,51.671418 91.4720335,51.9038184 91.371287,52.2863687 L90.2953097,56.3723293 C90.1940371,56.7548659 90.4269361,57.1433954 90.8072951,57.2512878 C91.0726159,57.3262461 91.3349584,57.4057563 91.5961435,57.4862684 L91.505759,57.776746 L91.3124092,58.2474758 L91.316037,58.5585996 L89.4308808,58.395965 L89.3670622,58.6273315 L89.1300138,58.6068364 C88.7280159,58.5720861 88.3257208,58.8510169 88.2217399,59.2413444 C88.0587165,59.8550096 87.903635,60.4712458 87.7871831,61.0956298 C87.6709829,61.7177263 87.5964318,62.347042 87.5524679,62.9785946 C87.5230244,63.4055023 87.8740634,63.7667752 88.2913777,63.8028384 L88.4914708,63.8200809 L88.4870606,64.181619 L89.4406023,64.2638741 L89.4406023,64.2638741 Z M95.7329258,64.7084131 C95.8399123,64.724887 95.9209688,64.7233362 95.9820197,64.7120272 C96.1628162,64.6784664 96.3863781,64.1172103 96.5023129,63.8558833 C96.5679295,63.7075313 96.519807,63.5965236 96.4255385,63.5067978 C96.607744,63.5005852 96.8176821,63.6185833 96.9951025,63.7521678 L95.8395326,65.1111932 C95.771679,64.9891601 95.7384933,64.8514446 95.7329258,64.7084131 L95.7329258,64.7084131 Z M94.6229805,63.9180276 L91.0160849,62.2374889 C90.4422526,62.0294814 90.2712141,61.812553 90.5494999,61.3360956 L90.6636186,61.1297624 L90.6686738,61.131844 L91.1010254,60.391635 C91.0435887,60.2663629 91.0167437,60.1251568 91.0294342,59.9783557 C91.0490236,59.7506215 91.1605575,59.5505422 91.3258866,59.413737 L91.3334121,59.407497 L91.3346976,59.4067284 L91.341203,59.4016732 L91.3659711,59.3831041 L91.3724353,59.378328 L91.3802262,59.3724905 L91.3824312,59.3714292 L91.3884059,59.36717 L91.3966863,59.3617123 L91.3987816,59.3606646 L91.4048707,59.3564055 L91.4296387,59.3409792 L91.4322372,59.33968 L91.4378093,59.3360522 L91.4463825,59.3311114 L91.4493561,59.3297023 L91.4668639,59.3202233 L91.4724498,59.3171079 L91.4846371,59.3112704 L91.489802,59.3084066 L91.4986406,59.3042755 L91.50252,59.3025874 L91.5075752,59.3002543 L91.5164137,59.2961095 L91.5206729,59.2944214 L91.5253483,59.291951 L91.534562,59.2883231 L91.5388486,59.286635 L91.5439038,59.2846953 L91.5527149,59.2809257 L91.55777,59.2793885 L91.5619285,59.2777004 L91.5899355,59.2679698 L91.5953658,59.2664189 L91.6087288,59.261867 L91.6141866,59.2603162 L91.6183314,59.2590169 L91.6279385,59.2561531 L91.6337759,59.2546159 L91.6375181,59.2536964 L91.637907,59.2538199 L91.6533333,59.2497987 L91.6565859,59.2489066 L91.6665819,59.2464224 L91.6727945,59.2449997 L91.6760472,59.2444965 L91.6860294,59.2425567 L91.6926492,59.2409784 L91.6954856,59.2404752 L91.7054815,59.2385355 L91.712879,59.2374878 L91.7153219,59.2368474 L91.7255832,59.2352691 L91.732967,59.234377 L91.7355655,59.2337228 L91.7454059,59.2325653 L91.7531831,59.2316595 L91.7556672,59.2313942 L91.7655076,59.2302368 L91.7736874,59.2297061 L91.7756134,59.2294682 L91.7858747,59.228814 L91.794027,59.2278945 L91.7957151,59.228018 L91.8059764,59.2272494 L91.8149247,59.2268743 L91.8160684,59.2268743 L91.8267186,59.2265952 L91.8356669,59.2262201 L91.8368381,59.2262201 L91.8470719,59.2263299 L91.8568026,59.2263299 L91.8575848,59.2264854 L91.8676906,59.2264854 L91.8774075,59.2268743 L91.8781761,59.2269841 L91.8884374,59.2269841 L91.8989366,59.2278899 L91.9199624,59.2293127 L91.9392864,59.2313942 L91.9408235,59.231536 L91.9580797,59.2334757 L91.962101,59.234258 L91.9769966,59.2363258 L91.9825961,59.2372454 L91.9958173,59.2395785 L92.0146244,59.2432064 L92.0238381,59.2447572 L92.0329008,59.2468388 L92.0436653,59.2494235 L92.0512046,59.2512535 L92.0639088,59.254744 L92.0690738,59.2560433 L92.0833564,59.2600645 L92.0869842,59.261222 L92.1031927,59.2662909 L92.1047573,59.2668078 L92.1225167,59.2728969 L92.1398965,59.2792513 L92.1414473,59.279782 L92.1567638,59.2859946 L92.1602406,59.2870559 L92.1739925,59.2927516 L92.1790477,59.295222 L92.1904664,59.3002771 L92.1974613,59.3032645 L92.2071919,59.3081916 L92.2153717,59.3122128 L92.2235377,59.3160785 L92.2332546,59.321399 L92.2394947,59.3247615 L92.2507624,59.3310016 L92.2554242,59.3334582 L92.2681284,59.3405904 L92.2712576,59.3425301 L92.285133,59.3511033 L92.2866976,59.3519954 L92.301735,59.3618678 L92.3166443,59.3721017 L92.3182089,59.3730075 L92.3315719,59.3822211 L92.334669,59.384568 L92.3460878,59.3932373 L92.3502188,59.3964763 L92.3602148,59.4042672 L92.3659104,59.4088191 L92.374232,59.4155486 L92.3810851,59.4215234 L92.3878421,59.4273471 L92.3961225,59.434621 L92.4014567,59.4390174 L92.4246602,59.4614523 L92.4273959,59.4636711 L92.438929,59.4755793 L92.4400864,59.4764989 L92.4524018,59.4893312 L92.452292,59.4897201 L92.464214,59.502955 L92.4656505,59.504364 L92.4760216,59.5161762 L92.4786063,59.5192916 L92.4874311,59.5301797 L92.491059,59.5345898 L92.4988499,59.5441969 L92.5031227,59.5502723 L92.5093491,59.5584658 L92.5147794,59.5658495 L92.5202371,59.5732332 L92.5264497,59.5823234 L92.5303566,59.5878818 L92.5376168,59.59866 L92.5400872,59.6025395 L92.5478507,59.6153718 L92.5496806,59.6179703 L92.5582401,59.6321111 L92.5590086,59.6333966 L92.5682223,59.6488366 L92.5682223,59.6492254 L92.5765302,59.6646654 L92.5775641,59.666747 L92.5849478,59.6807505 L92.5866359,59.6846162 L92.5928485,59.696959 L92.5953189,59.7023893 L92.6003878,59.7134192 L92.6035032,59.7205376 L92.6075245,59.7298794 L92.6112667,59.7387179 L92.6141305,59.7466049 L92.6185407,59.7576347 L92.6208738,59.7638748 L92.6250186,59.7760621 L92.6315102,59.7952305 L92.632933,59.7982179 L92.6375947,59.8140513 L92.6378601,59.8153368 L92.6429152,59.8332472 L92.6433041,59.8336361 L92.6478286,59.8507504 L92.6480939,59.8531934 L92.6520008,59.8685236 L92.6528929,59.8726546 L92.655743,59.8867817 L92.6567769,59.8925047 L92.6589957,59.9049574 L92.6604185,59.9127346 L92.6623582,59.9231057 L92.6635156,59.9329461 L92.6648149,59.9415193 L92.6662376,59.9530524 L92.6668918,59.9600473 L92.6681911,59.9735338 L92.6689734,59.9784609 L92.670021,59.9940427 L92.6701445,59.9972679 C92.6723496,60.0376178 92.6720842,60.0782009 92.6685662,60.1198317 C92.6305907,60.5600978 92.2519199,60.8897358 91.8140006,60.8706817 L91.4493333,61.4957107 L94.961974,63.1676762 L94.8635332,63.385945 L91.1500171,61.6217651 C91.1510647,61.5678189 91.1375782,61.5167366 91.1125585,61.4723929 L91.8006376,60.4044581 C91.8117773,60.4065534 91.8230725,60.4083513 91.834354,60.4093852 C91.9968467,60.4234024 92.1400062,60.3029156 92.1541378,60.1404504 C92.1681551,59.9779576 92.0476683,59.8346563 91.8851755,59.820639 C91.7225684,59.8066355 91.5794089,59.9271223 91.56541,60.0896151 C91.5612514,60.1372068 91.5686489,60.1833667 91.5853744,60.2249975 L90.8786027,61.3218176 C90.716389,61.3085964 90.5739843,61.4286623 90.5601318,61.5907799 C90.545991,61.7532589 90.6664595,61.8965603 90.8290666,61.9105638 C90.8967784,61.916415 90.9612238,61.899296 91.014136,61.8647974 L94.7490257,63.6391837 L94.6229805,63.9180276 L94.6229805,63.9180276 Z M92.3061451,54.1917775 L92.1830644,55.2170339 C91.9746634,55.1287035 91.8372041,54.9138383 91.8576992,54.6758841 C91.879361,54.4254452 92.0688176,54.2301694 92.3061451,54.1917775 L92.3061451,54.1917775 Z M92.4799056,55.2524247 L92.6028353,54.2279643 C92.8108566,54.3161301 92.9486956,54.5307711 92.9282005,54.7681946 C92.9066851,55.0186152 92.7172331,55.2135159 92.4799056,55.2524247 L92.4799056,55.2524247 Z M96.8518056,54.8418536 L96.0480433,57.8951696 C96.0075974,58.0484487 95.9196558,58.1777465 95.804,58.2705878 L94.2033605,56.0355637 L94.4874837,54.8853144 L96.8518056,54.8418536 L96.8518056,54.8418536 Z M92.3385485,71.4001497 C92.2437675,71.3919699 92.1605151,71.46239 92.1523491,71.5567958 C92.1441556,71.6515904 92.2141822,71.7347193 92.3089815,71.7428854 C92.4036663,71.7510651 92.486905,71.6811483 92.4950848,71.5863674 C92.5032463,71.4919707 92.4332333,71.4083157 92.3385485,71.4001497 L92.3385485,71.4001497 Z M90.8933931,71.2755318 C90.7986121,71.267352 90.7153597,71.3377584 90.7071937,71.4321642 C90.6990139,71.5268491 90.7690268,71.6100878 90.863826,71.6182675 C90.9581221,71.6264473 91.0417496,71.5564206 91.0499431,71.4617358 C91.0581091,71.3673391 90.9876891,71.2836841 90.8933931,71.2755318 L90.8933931,71.2755318 Z M91.578375,71.3346429 C91.4837038,71.3264906 91.4004651,71.3969107 91.3922716,71.4911747 C91.3841193,71.5859693 91.454146,71.6692355 91.5488034,71.6773878 C91.6435981,71.6855538 91.7268642,71.6155272 91.7350165,71.5207554 C91.7432008,71.426464 91.6731834,71.342809 91.578375,71.3346429 L91.578375,71.3346429 Z M91.2618301,65.1582726 L91.9159411,65.9573686 C91.7079199,66.0465683 91.4576365,65.996529 91.3004598,65.8173108 C91.1351307,65.6287371 91.1256654,65.3561698 91.2618301,65.1582726 L91.2618301,65.1582726 Z M92.1471384,65.7680263 L91.493041,64.9690676 C91.7009113,64.8801058 91.9513319,64.9297654 92.1085087,65.1091117 C92.2742266,65.2976717 92.2837056,65.5702664 92.1471384,65.7680263 L92.1471384,65.7680263 Z M89.2857724,58.9245753 C89.2114728,59.1971563 89.1388431,59.4704052 89.0693335,59.7438874 L88.4180862,59.6877225 L88.5148252,59.319441 C88.5809586,59.0713764 88.8487361,58.886824 89.1039602,58.9088837 L89.2857724,58.9245753 L89.2857724,58.9245753 Z M88.9960633,60.0369636 C88.9532568,60.2132082 88.9112646,60.3895671 88.871697,60.5660679 L88.2179931,60.5097749 C88.2580456,60.3332787 88.3000698,60.1569197 88.3440337,59.9806888 L88.9960633,60.0369636 L88.9960633,60.0369636 Z M88.808034,60.8604204 C88.7796381,60.996457 88.7529029,61.1327498 88.7272382,61.2694406 L88.6974013,61.4375054 L88.0440862,61.3810751 L88.0850628,61.151049 C88.1068435,61.0351142 88.129809,60.9196825 88.1540601,60.804013 L88.808034,60.8604204 L88.808034,60.8604204 Z M88.6503311,61.7327866 C88.6245291,61.9100514 88.6022361,62.0880985 88.5831637,62.2669416 L87.9271129,62.2102597 C87.9477316,62.0320708 87.9708115,61.8541518 87.9971578,61.6765073 L88.6503311,61.7327866 L88.6503311,61.7327866 Z M88.554626,62.5641671 C88.5277765,62.8807257 88.5101589,63.1981581 88.4997878,63.5165193 L88.3174541,63.5008276 C88.0553586,63.4781549 87.8376342,63.2518435 87.8550047,62.9994924 C87.8662862,62.8350554 87.8800381,62.6714052 87.8957434,62.5073616 L88.554626,62.5641671 L88.554626,62.5641671 Z M98.8775321,62.5991644 L99.7126639,63.0741808 C99.8141881,63.131645 99.8497206,63.2614552 99.7921466,63.362984 L99.6868665,63.5476371 L98.4838284,62.8629526 L98.5891222,62.6782857 C98.646559,62.5772465 98.776383,62.5417139 98.8775321,62.5991644 L98.8775321,62.5991644 Z M95.3017452,65.7423388 L98.7641682,67.6890902 L98.6457767,68.1200191 L94.9952969,66.0677085 L95.3017452,65.7423388 L95.3017452,65.7423388 Z M100.130372,63.9215181 L97.8111619,62.6177198 L97.6484313,62.9075524 L99.9672201,64.2112226 L100.130372,63.9215181 L100.130372,63.9215181 Z" id="Shape"></path>
                </g>
            </g>
        </g>
    </g>
</svg>