<?xml version="1.0" encoding="UTF-8"?>
<svg width="206px" height="253px" viewBox="0 0 206 253" version="1.1" xmlns="http://www.w3.org/2000/svg" xmlns:xlink="http://www.w3.org/1999/xlink">
    <title>robot copy</title>
    <g id="Page-1" stroke="none" stroke-width="1" fill="none" fill-rule="evenodd">
        <g id="Homepage-Final" transform="translate(-195.000000, -963.000000)" fill="#003850">
            <g id="COMPANY" transform="translate(0.000000, 715.000000)">
                <g id="content" transform="translate(195.000000, 216.000000)">
                    <g id="robot-copy" transform="translate(0.000000, 32.000000)">
                        <path d="M21.6194718,162.405835 L21.6194718,162.416013 C21.9043809,171.161115 23.0509777,179.926884 23.9931036,188.696986 L33.292999,189.497504 L31.7859743,206.909315 L40.1172102,207.625126 L37.9232427,232.985957 C33.7784016,233.520036 30.397435,236.88599 30.0234003,241.199851 L29.2416273,250.239419 L61.3282837,253 L62.1100567,243.960432 C62.5401417,238.988276 58.8180588,234.576346 53.8319927,234.147225 L52.1482867,234.002288 L52.3916946,231.195831 L52.4836986,231.203138 C55.145118,231.432521 57.5098529,229.448554 57.7398108,226.794496 L57.8851437,225.1063 L52.9554419,224.681668 L52.396143,224.634538 L52.4745401,223.727445 L53.032583,223.774887 L57.9635408,224.19952 L58.4859439,218.169122 L53.5546721,217.74449 L52.9969432,217.697361 L53.0754973,216.790424 L53.6333832,216.839014 L58.5644981,217.262238 L58.6311199,216.49434 C58.8464241,214.005939 56.9875022,211.801723 54.4923496,211.587006 L54.0902112,211.553081 L54.3246698,208.848554 L62.1620772,209.521672 L63.6676888,192.110017 L74.4527329,193.037778 C74.3265544,184.338396 74.1828438,175.632021 74.1812215,166.937075 L74.1828438,166.928307 L85.0924441,167.866142 L85.12934,164.750552 C87.1453701,165.618919 88.8605291,166.249187 90.3187256,166.699133 C90.2713105,169.550006 90.9463734,172.337361 92.5930266,174.685105 L90.3112418,177.361292 L129.066362,199.090148 L131.838783,190.735754 L150.173604,184.471538 L162,189.049176 C157.83119,184.268981 157.142991,165.422365 157.142991,165.422365 L148.491206,177.876373 L135.513608,179.67986 L140.596126,164.373205 L114.06504,149.498803 L110.124774,154.119239 C106.622444,151.528594 101.836662,149.157155 97.9572618,151.506621 L97.4097905,151.222333 L99.1884836,149.470776 L92.4845371,146.590101 L90.1495281,148.076941 C87.8798326,147.232322 86.2285741,146.710195 86.2285741,146.710195 L86.1886428,146.800173 C86.6188849,142.740695 87.1930991,138.692803 87.9464545,134.651018 C89.995403,123.695646 91.3334918,112.627956 92.9058299,101.603169 L64.2047455,99.1339226 L64.3753037,96.5625369 L65.0414697,91.0265524 C67.6286264,91.8328114 70.2233192,92.627275 72.8430803,93.3891187 C73.0983157,93.4024798 73.316289,93.5088989 73.6397163,93.5829591 C74.5134933,93.7975196 75.8025447,93.7132298 76.5694546,93.3905279 C76.8112401,93.2855702 77.0145597,93.1465312 77.1821348,92.9794131 L87.1513885,95.5936482 C87.7654817,95.7534074 88.3842327,95.843386 88.992412,95.8583651 L70.181818,69.6867859 L75.0712745,49.9481074 L107.822527,49.5395499 L109.516752,43.1276827 C110.664762,38.7631954 108.034796,34.2554939 103.649425,33.1044037 L84.9471112,28.1910152 L87.3310006,19.1692447 C90.6125839,18.2921093 93.3435035,15.7370074 94.2736971,12.2263781 C95.6491528,7.01993268 92.5322139,1.69548161 87.3162946,0.323933243 C82.0943569,-1.04730197 76.7460836,2.0609808 75.3768558,7.2642425 C74.4497499,10.7748719 75.5681907,14.3479226 77.9983962,16.7165432 L75.6186935,25.7425934 L53.7521826,19.913552 C49.381675,18.7446122 44.8584554,21.3959558 43.7059447,25.7602865 L31.3970766,72.3750291 C30.2385474,76.7392032 32.9028452,81.1717486 37.2540413,82.40264 C40.2892337,83.2578027 43.2903564,84.1648962 46.2782384,85.0834197 L45.2442654,88.3973382 L43.0323995,93.7676659 L43.0739008,97.3171259 L21.508261,95.4617074 L20.7781945,98.1012556 L18.0664294,97.8674363 C13.467691,97.4709874 8.86555093,100.653174 7.67603977,105.10623 C5.8110994,112.107239 4.03701173,119.137579 2.7048367,126.260873 C1.37554006,133.35807 0.522696836,140.537627 0.0197621641,147.742705 C-0.317062763,152.613088 3.69872144,156.734674 8.47267573,157.146102 L10.7616827,157.342813 L10.7112322,161.467427 L21.6194718,162.405835 L21.6194718,162.405835 Z M93.6018266,167.477365 C94.8257216,167.665308 95.7529845,167.647615 96.4513885,167.518597 C98.5196485,167.135717 101.077131,160.732618 102.403393,157.751266 C103.154027,156.05879 102.60352,154.792356 101.525115,153.768718 C103.609494,153.697842 106.011125,155.044025 108.040762,156.568026 L94.8213778,172.072488 C94.0451523,170.680271 93.6655177,169.109142 93.6018266,167.477365 L93.6018266,167.477365 Z M80.9043747,158.46024 L39.6425361,139.28779 C33.0780611,136.914733 31.1214307,134.439902 34.3049391,129.00423 L35.6104236,126.650276 L35.6682532,126.674023 L40.614231,118.229337 C39.9571712,116.800169 39.6500723,115.189217 39.7952482,113.514434 C40.0193446,110.916326 41.2952601,108.633718 43.186577,107.072974 L43.2726673,107.001785 L43.2873733,106.993016 L43.361793,106.935344 L43.645132,106.723498 L43.7190807,106.66901 L43.8082064,106.602413 L43.8334316,106.590304 L43.9017805,106.541714 L43.996506,106.479449 L44.0204752,106.467497 L44.0901324,106.418906 L44.3734714,106.242916 L44.4031975,106.228093 L44.4669409,106.186705 L44.5650158,106.130338 L44.5990332,106.114263 L44.7993174,106.006122 L44.8632178,105.970579 L45.002637,105.903982 L45.0617226,105.87131 L45.1628329,105.824181 L45.2072126,105.804922 L45.2650422,105.778304 L45.3661525,105.731019 L45.4148759,105.71176 L45.4683618,105.683576 L45.5737635,105.642188 L45.6228009,105.622929 L45.6806306,105.6008 L45.7814269,105.557794 L45.8392565,105.540257 L45.8868286,105.520999 L46.2072205,105.409987 L46.2693415,105.392294 L46.4222106,105.340363 L46.4846457,105.32267 L46.5320608,105.307847 L46.6419633,105.275175 L46.7087421,105.257639 L46.7515517,105.247148 L46.7560002,105.248558 L46.9324721,105.202681 L46.969682,105.192504 L47.0840329,105.164163 L47.1551032,105.147932 L47.192313,105.142191 L47.3065069,105.120061 L47.3822349,105.102055 L47.4146823,105.096314 L47.5290333,105.074185 L47.6136582,105.062233 L47.6416048,105.054926 L47.7589911,105.03692 L47.843459,105.026742 L47.873185,105.019279 L47.9857566,105.006074 L48.0747252,104.99574 L48.1031429,104.992713 L48.2157144,104.979509 L48.3092885,104.973455 L48.3313213,104.970741 L48.4487077,104.963277 L48.5419678,104.952787 L48.5612792,104.954196 L48.6786655,104.945428 L48.7810318,104.941148 L48.7941154,104.941148 L48.9159502,104.937964 L49.0183165,104.933684 L49.0317141,104.933684 L49.1487864,104.934937 L49.260102,104.934937 L49.2690512,104.936711 L49.3846581,104.936711 L49.4958166,104.941148 L49.5046088,104.9424 L49.6219951,104.9424 L49.7421028,104.952734 L49.9826322,104.968966 L50.2036932,104.992713 L50.2212776,104.994331 L50.4186834,105.016461 L50.4646854,105.025385 L50.6350866,105.048976 L50.6991441,105.059467 L50.8503908,105.086084 L51.065538,105.127473 L51.1709397,105.145166 L51.2746144,105.168913 L51.3977575,105.198401 L51.4840048,105.219278 L51.6293377,105.2591 L51.6884234,105.273923 L51.8518117,105.319799 L51.893313,105.333004 L52.0787342,105.390832 L52.0966326,105.39673 L52.2997951,105.466197 L52.498614,105.538692 L52.5163554,105.544746 L52.6915713,105.615622 L52.7313455,105.627731 L52.8886631,105.69271 L52.9464927,105.720893 L53.0771197,105.778565 L53.1571391,105.812647 L53.2684547,105.868857 L53.3620288,105.914734 L53.4554459,105.958836 L53.5666044,106.019535 L53.6379887,106.057896 L53.7668886,106.129085 L53.8202174,106.157112 L53.9655504,106.238479 L54.0013472,106.260609 L54.1600778,106.358416 L54.1779762,106.368594 L54.3499997,106.481223 L54.5205579,106.597977 L54.5384563,106.608311 L54.6913254,106.713425 L54.7267559,106.740199 L54.8573828,106.839103 L54.9046409,106.876054 L55.0189918,106.964937 L55.0841483,107.016868 L55.1793447,107.093642 L55.2577418,107.161805 L55.3350399,107.228245 L55.4297654,107.31123 L55.4907874,107.361386 L55.7562281,107.617335 L55.7875241,107.642648 L55.9194594,107.778503 L55.9327001,107.788993 L56.0735846,107.935391 L56.0723285,107.939828 L56.2087123,108.090819 L56.2251453,108.106894 L56.3437877,108.241653 L56.3733567,108.277196 L56.4743099,108.401412 L56.5158112,108.451725 L56.6049369,108.561328 L56.6538173,108.630638 L56.7250446,108.724114 L56.7871656,108.808352 L56.8496007,108.892589 L56.920671,108.996294 L56.9653647,109.059707 L57.0484195,109.182671 L57.0766802,109.22693 L57.1654918,109.373328 L57.1864257,109.402973 L57.2843435,109.564298 L57.2931357,109.578964 L57.3985374,109.755111 L57.3985374,109.759547 L57.4935769,109.935694 L57.5054045,109.959442 L57.5898724,110.119201 L57.6091838,110.163303 L57.6802541,110.304116 L57.7085148,110.366068 L57.7665014,110.491903 L57.8021412,110.573113 L57.8481432,110.679689 L57.8909529,110.780523 L57.9237143,110.870502 L57.9741647,110.996336 L58.0008553,111.067526 L58.0482704,111.206565 L58.1225331,111.425249 L58.1388091,111.45933 L58.192138,111.639966 L58.1951734,111.654631 L58.253003,111.858962 L58.2574515,111.863399 L58.3092103,112.058648 L58.3122457,112.086519 L58.3569394,112.261413 L58.3671446,112.308543 L58.399749,112.469711 L58.4115766,112.535003 L58.4369588,112.677069 L58.4532349,112.765795 L58.4754247,112.884114 L58.4886653,112.996378 L58.5035283,113.094186 L58.5198044,113.225761 L58.5272882,113.305563 L58.5421512,113.459424 L58.5511004,113.515635 L58.563085,113.6934 L58.5644981,113.730195 C58.5897233,114.190527 58.5866879,114.65352 58.5464426,115.128466 C58.1120139,120.151248 53.7801292,123.911928 48.7704602,123.69455 L44.5987715,130.825202 L84.7823621,149.899845 L83.6562281,152.389968 L41.1746813,132.263295 C41.1866659,131.647849 41.0323838,131.065076 40.7461663,130.559181 L48.6175911,118.375631 C48.7450257,118.399535 48.8742396,118.420046 49.0032965,118.431841 C50.8621661,118.591757 52.49987,117.217182 52.6615313,115.363694 C52.8218843,113.509893 51.4435502,111.875037 49.5846806,111.715122 C47.7245027,111.555363 46.0867987,112.929938 45.9266551,114.783739 C45.8790831,115.32669 45.963708,115.853305 46.1550429,116.328251 L38.0697793,128.84134 C36.2141022,128.690505 34.5850334,130.060279 34.4265645,131.9098 C34.2647986,133.763444 35.6429233,135.3983 37.5031012,135.558059 C38.2777044,135.624813 39.0149406,135.429511 39.6202416,135.035932 L82.3462952,155.279045 L80.9043747,158.46024 L80.9043747,158.46024 Z M54.4004502,47.498172 L52.9924424,59.1948246 C50.608396,58.1871052 49.0359009,55.7358129 49.2703595,53.0211085 C49.5181634,50.1639727 51.6854926,47.9361656 54.4004502,47.498172 L54.4004502,47.498172 Z M56.3882197,59.5985803 L57.7945004,47.9110091 C60.174203,48.9168496 61.7510419,51.3655845 61.5165833,54.0742347 C61.2704541,56.9311617 59.1031772,59.1546891 56.3882197,59.5985803 L56.3882197,59.5985803 Z M106.401488,54.9145749 L97.2066802,89.7483752 C96.7439908,91.4970615 95.7379645,92.9721584 94.4148956,94.0313388 L76.1040438,68.533034 L79.3543311,55.410397 L106.401488,54.9145749 L106.401488,54.9145749 Z M54.7711355,243.820141 C53.6868691,243.726822 52.7344856,244.53021 52.6410685,245.60724 C52.5473374,246.688706 53.3484218,247.637084 54.4328976,247.730246 C55.516065,247.823565 56.4682915,247.025918 56.5618656,245.944608 C56.6552303,244.867682 55.854303,243.913303 54.7711355,243.820141 L54.7711355,243.820141 Z M38.2389768,242.398436 C37.1547104,242.305117 36.2023269,243.108349 36.1089098,244.185379 C36.0153357,245.265592 36.8162631,246.215222 37.9007389,246.308541 C38.9794578,246.40186 39.9361327,245.60296 40.0298639,244.522747 C40.123281,243.445821 39.3176958,242.491442 38.2389768,242.398436 L38.2389768,242.398436 Z M46.0749711,243.072806 C44.9919607,242.9798 44.0397343,243.783189 43.9460031,244.858601 C43.852743,245.940067 44.6538274,246.89001 45.7366808,246.983016 C46.8211043,247.076178 47.7736448,246.277278 47.8669049,245.196073 C47.9605313,244.120348 47.1595516,243.165968 46.0749711,243.072806 L46.0749711,243.072806 Z M42.4537892,172.609594 L49.9366302,181.726092 C47.5569276,182.743728 44.6937587,182.172854 42.8957018,180.12824 C41.0043848,177.976894 40.8961047,174.867307 42.4537892,172.609594 L42.4537892,172.609594 Z M52.5814595,179.565978 L45.0987755,170.451045 C47.4767511,169.436123 50.34149,170.002665 52.1395469,172.048741 C54.0353123,174.19993 54.1437494,177.309831 52.5814595,179.565978 L52.5814595,179.565978 Z M19.8482625,101.492366 C18.9982977,104.60211 18.167435,107.719474 17.3722644,110.8395 L9.92218475,110.198741 L11.0288504,105.997197 C11.7853981,103.167148 14.8486941,101.061679 17.7683843,101.313348 L19.8482625,101.492366 L19.8482625,101.492366 Z M16.5340748,114.183063 C16.0443808,116.193753 15.5640023,118.205746 15.1113611,120.219358 L7.63317781,119.577138 C8.09136647,117.563579 8.57211131,115.551585 9.07504598,113.541052 L16.5340748,114.183063 L16.5340748,114.183063 Z M14.383074,123.577483 C14.0582337,125.129459 13.7523908,126.684357 13.4587941,128.243796 L13.1174685,130.161166 L5.64373362,129.51738 L6.11249386,126.893124 C6.36165848,125.570479 6.62437773,124.253576 6.90180299,122.933958 L14.383074,123.577483 L14.383074,123.577483 Z M12.5789986,133.529886 C12.283832,135.552214 12.0288059,137.583467 11.8106233,139.623801 L4.30559245,138.977144 C4.54146411,136.944274 4.80549172,134.914482 5.10688619,132.887822 L12.5789986,133.529886 L12.5789986,133.529886 Z M11.4841606,143.014702 C11.1770094,146.626166 10.9754692,150.247599 10.8568268,153.879626 L8.77098246,153.700608 C5.77268586,153.441946 3.28198171,150.860069 3.48069586,147.981117 C3.60975277,146.105135 3.76707031,144.23813 3.9467347,142.366636 L11.4841606,143.014702 L11.4841606,143.014702 Z M129.57521,143.413969 L139.128876,148.833201 C140.290283,149.488782 140.696765,150.969724 140.038136,152.128017 L138.833761,154.234635 L125.071354,146.423401 L126.275886,144.316627 C126.932945,143.163918 128.418094,142.758545 129.57521,143.413969 L129.57521,143.413969 Z M88.6692464,179.272921 L128.278361,201.482464 L126.923996,206.398723 L85.1635667,182.984906 L88.6692464,179.272921 L88.6692464,179.272921 Z M143.907331,158.500062 L117.376245,143.625659 L115.514654,146.932219 L142.040925,161.80516 L143.907331,158.500062 L143.907331,158.500062 Z" id="robot"></path>
                        <path d="M179.715531,183.667176 C180.224969,181.299289 178.428333,180.354296 177.14561,179.451693 L177.618846,177.262336 C178.053999,177.523981 178.307697,177.920258 178.395897,178.53424 L180.856621,177.722721 C180.532389,176.161761 179.527575,175.165119 178.171363,174.685017 L178.48207,173.241884 L177.351276,173 L177.045478,174.407812 C175.293978,174.200452 173.471901,174.944155 173.018358,177.051716 C172.551652,179.222949 174.065455,180.379417 175.3519,181.250799 C175.411386,181.29558 175.48735,181.331712 175.544345,181.376058 L175.062841,183.612992 C174.36507,183.327197 173.993198,182.77357 173.81794,181.920268 L171.303393,182.737047 C171.552543,184.418761 172.709678,185.651172 174.512887,186.174346 L174.209072,187.582999 L175.345702,187.828548 L175.650704,186.402655 C177.626709,186.59237 179.279626,185.690998 179.715531,183.667176 L179.715531,183.667176 Z M199.312239,200.323168 C198.180605,200.909652 196.788279,200.468145 196.201241,199.335943 C195.614304,198.203713 196.055944,196.809867 197.18807,196.222629 C198.319704,195.636144 199.71203,196.078101 200.299025,197.209853 C200.885918,198.342098 200.443931,199.73593 199.312239,200.323168 L199.312239,200.323168 Z M206,198.560541 L195.854882,208.228526 L194.053309,206.368195 L203.99528,196.675987 L206,198.560541 L206,198.560541 Z M203.118488,209.740634 C201.986811,210.327075 200.594962,209.885611 200.007982,208.753409 C199.421002,207.621208 199.863076,206.227333 200.994768,205.640138 C202.126402,205.053654 203.518294,205.495567 204.105318,206.627363 C204.692254,207.759564 204.250977,209.153454 203.118488,209.740634 L203.118488,209.740634 Z M184.753692,192.692537 L186.902912,194.706015 L187.610978,186.905344 L201.152793,183.244241 L201.896177,185.723813 L190.531428,189.167342 L189.450649,201.374485 L183.636364,195.584424 L184.753692,192.692537 L184.753692,192.692537 Z M174.147516,203.537055 L171.774645,200.8977 L168.433813,203.154308 L167,200.638532 L169.714031,197.993875 L167.499533,195.310493 L169.753881,193.25474 L172.385764,196.391785 C174.74679,194.673954 174.870395,194.667015 174.919223,194.663741 C174.990236,194.661712 175.114594,194.65428 177.013867,196.642289 L177.124295,196.756886 L174.365056,198.758079 L176.676023,201.309624 L174.147516,203.537055 L174.147516,203.537055 Z M175.606756,177.627451 C175.690106,177.237359 176.000017,176.979829 176.493004,176.968775 L176.129704,178.669322 C175.631358,178.224178 175.541927,177.934239 175.606756,177.627451 L175.606756,177.627451 Z M176.205668,183.825278 L176.579569,182.090207 C177.011796,182.438473 177.202707,182.737032 177.115693,183.139496 C177.042205,183.481576 176.787262,183.798578 176.205668,183.825278 L176.205668,183.825278 Z" id="Shape" fill-rule="nonzero"></path>
                    </g>
                </g>
            </g>
        </g>
    </g>
</svg>