<?xml version="1.0" encoding="UTF-8"?>
<svg width="226px" height="284px" viewBox="0 0 226 284" version="1.1" xmlns="http://www.w3.org/2000/svg" xmlns:xlink="http://www.w3.org/1999/xlink">
    <title>robot</title>
    <defs>
        <linearGradient x1="50%" y1="0%" x2="50%" y2="100%" id="linearGradient-1">
            <stop stop-color="#999999" stop-opacity="0.0550717441" offset="0%"></stop>
            <stop stop-color="#999999" offset="51.8669075%"></stop>
            <stop stop-color="#999999" stop-opacity="0.0562667313" offset="100%"></stop>
        </linearGradient>
    </defs>
    <g id="Page-1" stroke="none" stroke-width="1" fill="none" fill-rule="evenodd">
        <g id="Home-09" transform="translate(-202.000000, -924.000000)">
            <g id="COMPANY" transform="translate(0.000000, 715.000000)">
                <g id="robot" transform="translate(202.000000, 209.000000)">
                    <line x1="225.5" y1="0.5" x2="225.5" y2="283.5" id="v-separ" stroke="url(#linearGradient-1)" stroke-linecap="square"></line>
                    <path d="M18.7669988,173.363495 L18.7669988,173.372354 C19.014317,180.984384 20.0096319,188.614405 20.8274537,196.248196 L28.9003209,196.944993 L27.5921331,212.100819 L34.8241457,212.723885 L32.9196503,234.798805 C29.3216795,235.263685 26.3867976,238.193524 26.062113,241.948453 L25.3834872,249.816797 L53.2366303,252.2197 L53.9152562,244.351356 C54.2885958,240.023424 51.0576045,236.183132 46.7293999,235.809611 L45.2678421,235.683453 L45.4791347,233.240618 L45.5589998,233.246978 C47.8692714,233.446641 49.9220033,231.719729 50.1216205,229.409549 L50.2477782,227.940086 L45.9685012,227.570472 L45.4829962,227.529449 L45.5510496,226.739884 L46.0354643,226.78118 L50.3158316,227.150794 L50.7693089,221.901734 L46.488669,221.532119 L46.0045268,221.491096 L46.0727165,220.701668 L46.556995,220.743963 L50.8374985,221.112351 L50.8953303,220.443946 C51.0822272,218.277959 49.4685715,216.359335 47.3026293,216.172438 L46.9535491,216.142909 L47.1570732,213.788798 L53.9604131,214.374702 L55.2673743,199.219012 L64.6294398,200.026567 C64.5199093,192.454333 64.3951599,184.876011 64.3937516,177.307639 L64.3951599,177.300007 L73.8653476,178.116329 L73.8973754,175.404415 C75.6474105,176.160271 77.1362714,176.708878 78.4020735,177.100526 C78.3609144,179.582021 78.9469095,182.008229 80.3763032,184.051784 L78.3955771,186.381227 L112.037347,205.294753 L114.443975,198.022808 L130.359699,192.570224 L140.625721,196.554754 C137.006943,192.393912 136.409546,175.989184 136.409546,175.989184 L128.899277,186.829571 L117.633943,188.399387 L122.045874,175.07596 L99.0152993,162.12878 L95.5949124,166.150563 C92.5546796,163.895579 88.4003337,161.831399 85.0327813,163.876453 L84.5575433,163.628999 L86.1015557,162.104385 L80.2821279,159.596949 L78.2551999,160.891145 C76.2849681,160.155959 74.8515765,159.701482 74.8515765,159.701482 L74.8169138,159.779803 C75.1903897,156.246296 75.6888422,152.722875 76.3427998,149.20477 C78.1214101,139.668845 79.2829515,130.035157 80.6478353,120.438812 L55.7335718,118.289497 L55.8816265,116.051276 L56.4598986,111.232569 C58.7057059,111.934364 60.9580549,112.625892 63.2321647,113.289026 C63.4537244,113.300656 63.6429383,113.393287 63.9236925,113.457751 C64.6821834,113.644512 65.8011574,113.571144 66.4668813,113.290253 C66.6767655,113.198894 66.8532591,113.07787 66.9987244,112.932405 L75.6526349,115.207923 C76.1857046,115.346983 76.7228176,115.425303 77.2507538,115.438341 L60.9220293,92.6577196 L65.166371,75.4765107 L93.5964234,75.1208886 L95.0671125,69.5397839 C96.063654,65.7407876 93.7806854,61.8171327 89.9739206,60.8151851 L73.7391899,56.5384067 L75.8085489,48.6855546 C78.6571601,47.9220665 81.0277622,45.69802 81.8352261,42.6422502 C83.0292042,38.1103852 80.3235141,33.4758042 75.7957832,32.2819624 C71.2628279,31.0883932 66.6202058,33.7939469 65.4316339,38.3230407 C64.6268503,41.3788105 65.5977241,44.4889139 67.7072883,46.5506408 L65.6415636,54.4072181 L46.6601199,49.3334247 C42.8662571,48.3159402 38.9398311,50.6237587 37.9393827,54.4226187 L27.2545465,94.9976568 C26.2488737,98.7963805 28.561644,102.654617 32.3387433,103.726026 C34.9734725,104.470388 37.578627,105.259953 40.1722879,106.059467 L39.2747373,108.944013 L37.354705,113.618526 L37.3907306,116.708096 L18.6704611,115.093077 L18.0367196,117.390629 L15.6827448,117.187104 C11.6907639,116.842022 7.69583019,119.611904 6.66326313,123.487994 C5.04438298,129.581907 3.50436843,135.701351 2.34796056,141.901705 C1.19405132,148.079345 0.453732219,154.328672 0.0171547443,160.600214 C-0.275229504,164.839558 3.21071216,168.427126 7.35479095,168.785247 L9.34178633,168.95647 L9.29799229,172.546673 L18.7669988,173.363495 L18.7669988,173.363495 Z M81.2520022,177.777925 C82.3144164,177.941516 83.1193363,177.926116 83.7255929,177.813814 C85.5209667,177.480543 87.7410154,171.907071 88.8922897,169.312002 C89.543885,167.838814 89.0660121,166.736467 88.1298919,165.845458 C89.9392579,165.783765 92.0240176,166.955528 93.7858644,168.28207 L82.3106458,181.777674 C81.6368355,180.565842 81.3072899,179.198278 81.2520022,177.777925 L81.2520022,177.777925 Z M70.229852,169.929116 L34.4121002,153.240772 C28.7137419,151.175183 27.0152693,149.021007 29.7787457,144.289616 L30.9119845,142.240655 L30.9621841,142.261325 L35.2555896,134.910787 C34.6852223,133.666791 34.418642,132.264564 34.5446634,130.806777 C34.7391925,128.545297 35.8467637,126.558438 37.4885403,125.199914 L37.5632718,125.137948 L37.5760375,125.130316 L37.6406383,125.080116 L37.8865936,124.895718 L37.9507855,124.848289 L38.0281519,124.790321 L38.0500489,124.779782 L38.1093798,124.737487 L38.1916072,124.68329 L38.2124139,124.672886 L38.2728806,124.630591 L38.5188359,124.477403 L38.5446399,124.464501 L38.599973,124.428475 L38.6851079,124.379412 L38.714637,124.365419 L38.8884957,124.271289 L38.9439651,124.240352 L39.0649893,124.182384 L39.1162792,124.153945 L39.204049,124.112922 L39.2425732,124.096159 L39.2927728,124.07299 L39.3805426,124.031831 L39.4228375,124.015067 L39.4692664,123.990535 L39.5607614,123.95451 L39.6033289,123.937746 L39.6535285,123.918484 L39.7410257,123.88105 L39.7912253,123.865786 L39.8325207,123.849022 L40.1106401,123.752394 L40.1645649,123.736993 L40.2972645,123.691791 L40.3514618,123.67639 L40.392621,123.663488 L40.4880229,123.635049 L40.545991,123.619785 L40.5831523,123.610654 L40.5870138,123.61188 L40.7402021,123.571948 L40.7725024,123.563089 L40.8717659,123.538421 L40.9334591,123.524292 L40.9657595,123.519295 L41.0648867,123.500033 L41.1306232,123.48436 L41.1587895,123.479362 L41.2580529,123.4601 L41.3315124,123.449697 L41.3557718,123.443337 L41.4576701,123.427664 L41.5309933,123.418805 L41.5567973,123.412308 L41.6545161,123.400815 L41.7317463,123.39182 L41.7564145,123.389185 L41.8541333,123.377691 L41.9353613,123.372421 L41.9544871,123.370059 L42.0563855,123.363563 L42.1373408,123.354431 L42.1541043,123.355658 L42.2560027,123.348026 L42.3448628,123.344301 L42.3562202,123.344301 L42.46198,123.341529 L42.5508401,123.337804 L42.5624701,123.337804 L42.6640959,123.338894 L42.7607244,123.338894 L42.7684928,123.340439 L42.8688466,123.340439 L42.9653389,123.344301 L42.972971,123.345391 L43.0748694,123.345391 L43.1791301,123.354386 L43.3879241,123.368514 L43.5798183,123.389185 L43.5950826,123.390593 L43.7664426,123.409855 L43.8063752,123.417624 L43.9542936,123.438158 L44.0098993,123.447289 L44.1411906,123.470458 L44.3279512,123.506484 L44.4194462,123.521884 L44.5094421,123.542555 L44.6163377,123.568223 L44.6912055,123.586394 L44.8173632,123.621057 L44.8686531,123.633959 L45.010484,123.673892 L45.0465096,123.685385 L45.2074663,123.735721 L45.2230032,123.740855 L45.3993605,123.801321 L45.5719472,123.864423 L45.5873478,123.869693 L45.7394457,123.931386 L45.7739721,123.941926 L45.9105332,123.998485 L45.9607328,124.023017 L46.0741248,124.073217 L46.1435865,124.102882 L46.2402151,124.15181 L46.321443,124.191742 L46.4025347,124.23013 L46.4990269,124.282965 L46.5609928,124.316355 L46.6728856,124.378321 L46.7191783,124.402717 L46.845336,124.473542 L46.8764098,124.492804 L47.0141974,124.577939 L47.0297343,124.586797 L47.1790611,124.684834 L47.3271158,124.78646 L47.3426527,124.795455 L47.4753523,124.88695 L47.506108,124.910255 L47.6195001,124.996344 L47.6605229,125.028508 L47.7597863,125.105875 L47.8163461,125.151077 L47.8989823,125.217904 L47.9670357,125.277235 L48.0341351,125.335067 L48.1163625,125.407299 L48.1693333,125.450957 L48.3997517,125.673743 L48.4269185,125.695777 L48.5414463,125.81403 L48.55294,125.823161 L48.6752362,125.950591 L48.6741459,125.954452 L48.7925351,126.08588 L48.8068,126.099872 L48.9097887,126.217171 L48.9354563,126.248109 L49.0230898,126.356231 L49.0591154,126.400025 L49.1364819,126.495427 L49.178913,126.555757 L49.2407425,126.637121 L49.2946674,126.710445 L49.3488648,126.783768 L49.410558,126.874036 L49.4493548,126.929233 L49.5214514,127.036265 L49.5459833,127.074789 L49.6230772,127.202219 L49.641249,127.228023 L49.7262476,127.368445 L49.7338797,127.381211 L49.8253748,127.534536 L49.8253748,127.538397 L49.9078747,127.691722 L49.9181418,127.712392 L49.991465,127.851452 L50.0082285,127.88984 L50.0699217,128.012409 L50.0944537,128.066333 L50.1447896,128.175864 L50.175727,128.246552 L50.2156596,128.339319 L50.2528209,128.427089 L50.2812598,128.505409 L50.3250538,128.61494 L50.3482228,128.676906 L50.389382,128.79793 L50.4538464,128.98828 L50.467975,129.017945 L50.5142677,129.175177 L50.5169026,129.187942 L50.5671022,129.365799 L50.5709637,129.36966 L50.6158935,129.539612 L50.6185284,129.563871 L50.6573252,129.716106 L50.6661839,129.757128 L50.6944865,129.897415 L50.7047535,129.954247 L50.7267869,130.077906 L50.7409154,130.155136 L50.7601775,130.258125 L50.7716712,130.355844 L50.7845732,130.440979 L50.7987017,130.555506 L50.8051982,130.624968 L50.8181001,130.758894 L50.8258686,130.807822 L50.8362719,130.962555 L50.8374985,130.994583 C50.8593956,131.395271 50.8567606,131.798276 50.8218254,132.211684 C50.4447151,136.583683 46.6843793,139.857105 42.335686,139.667891 L38.7144099,145.874651 L73.5961778,162.477861 L72.6186259,164.645347 L35.7420941,147.126416 C35.7524975,146.590711 35.6185713,146.083445 35.3701174,145.643097 L42.2029865,135.038126 C42.3136073,135.058933 42.4257727,135.076786 42.5378019,135.087053 C44.1514122,135.226249 45.5730375,134.029773 45.7133692,132.416435 C45.8525652,130.802825 44.6560885,129.379791 43.0424781,129.240595 C41.4277321,129.101535 40.0061068,130.298012 39.8670925,131.911622 C39.8257971,132.384225 39.8992566,132.842609 40.0653469,133.256018 L33.0468529,144.14783 C31.4360137,144.016539 30.0218843,145.208836 29.8843238,146.818722 C29.7439012,148.432196 30.9401962,149.855229 32.5549423,149.994289 C33.2273443,150.052393 33.8673096,149.882396 34.3927472,149.539812 L71.4815255,167.160097 L70.229852,169.929116 L70.229852,169.929116 Z M47.2228551,73.3440046 L46.0006199,83.5251639 C43.9311246,82.6480112 42.5661044,80.514324 42.7696286,78.1513541 C42.9847373,75.6644071 44.8661091,73.7252489 47.2228551,73.3440046 L47.2228551,73.3440046 Z M48.9483583,83.8766065 L50.1690943,73.7033519 C52.234819,74.5788692 53.6036098,76.7103304 53.4000857,79.0680305 C53.1864307,81.5547958 51.3051044,83.4902287 48.9483583,83.8766065 L48.9483583,83.8766065 Z M92.3628762,79.7994908 L84.3812314,110.120001 C83.9795893,111.642116 83.106298,112.92609 81.9577949,113.848036 L66.0628767,91.6534551 L68.8843211,80.231071 L92.3628762,79.7994908 L92.3628762,79.7994908 Z M47.5446322,244.229241 C46.6034239,244.148013 45.7766979,244.84731 45.6956063,245.784793 C45.614242,246.726137 46.3096313,247.551637 47.2510214,247.632729 C48.1912757,247.713956 49.0178654,247.019657 49.0990934,246.078449 C49.1801396,245.141057 48.4848866,244.310333 47.5446322,244.229241 L47.5446322,244.229241 Z M33.1937264,242.991742 C32.2525181,242.910514 31.4257921,243.609674 31.3447005,244.547157 C31.2634725,245.487411 31.9587256,246.314001 32.9001156,246.395229 C33.8365084,246.476457 34.6669596,245.781068 34.7483239,244.840813 C34.8294155,243.903421 34.1301193,243.072697 33.1937264,242.991742 L33.1937264,242.991742 Z M39.9958397,243.578736 C39.0557217,243.497781 38.229132,244.197077 38.1477678,245.133152 C38.0668124,246.074497 38.7622017,246.901359 39.7021835,246.982314 C40.6435281,247.063406 41.4703904,246.368017 41.5513457,245.426899 C41.6326191,244.490552 40.9373206,243.659828 39.9958397,243.578736 L39.9958397,243.578736 Z M36.8524365,182.245189 L43.3479915,190.180496 C41.2822668,191.06628 38.7968644,190.569372 37.2360432,188.789672 C35.5942665,186.917068 35.5002729,184.210378 36.8524365,182.245189 L36.8524365,182.245189 Z M45.6438621,188.30026 L39.1484433,180.366316 C41.2126688,179.482894 43.6994341,179.976031 45.2602554,181.757004 C46.9058935,183.629471 47.0000234,186.336433 45.6438621,188.30026 L45.6438621,188.30026 Z M17.2294829,120.342365 C16.4916624,123.049191 15.7704237,125.762649 15.0801679,128.478424 L8.61305175,127.920686 L9.57370391,124.263521 C10.2304327,121.800152 12.8895575,119.967481 15.4240238,120.186542 L17.2294829,120.342365 L17.2294829,120.342365 Z M14.3525691,131.388774 C13.9274853,133.138946 13.5104879,134.890253 13.1175682,136.642968 L6.62605638,136.083958 C7.02379163,134.331288 7.441107,132.579981 7.87768447,130.829946 L14.3525691,131.388774 L14.3525691,131.388774 Z M12.4853713,139.565993 C12.2033904,140.916885 11.9379004,142.27032 11.6830409,143.627708 L11.3867497,145.296652 L4.89909944,144.736279 L5.30601146,142.452038 C5.5223013,141.300764 5.75035737,140.154487 5.99117914,139.005847 L12.4853713,139.565993 L12.4853713,139.565993 Z M10.9193256,148.228899 C10.6631033,149.989201 10.4417253,151.757271 10.2523298,153.533247 L3.73751261,152.970375 C3.94226336,151.200896 4.17145518,149.434098 4.43308365,147.670025 L10.9193256,148.228899 L10.9193256,148.228899 Z M9.96894055,156.484801 C9.70231482,159.628341 9.52736583,162.780557 9.42437716,165.941996 L7.61373909,165.786173 C5.01103773,165.561024 2.84895706,163.313672 3.02145287,160.807736 C3.13348201,159.174818 3.27004308,157.549714 3.42600255,155.920703 L9.96894055,156.484801 L9.96894055,156.484801 Z M112.479058,156.832337 L120.772213,161.549418 C121.780384,162.120058 122.133235,163.40912 121.561505,164.417337 L120.516036,166.251008 L108.569441,159.451847 L109.615046,157.61804 C110.185413,156.614684 111.474612,156.261833 112.479058,156.832337 L112.479058,156.832337 Z M76.9702266,188.045173 L111.353315,207.377105 L110.177645,211.656382 L73.9270863,191.27621 L76.9702266,188.045173 L76.9702266,188.045173 Z M124.920198,169.963779 L101.889624,157.016599 L100.273651,159.894739 L123.300046,172.840647 L124.920198,169.963779 L124.920198,169.963779 Z" fill="#003850"></path>
                    <path d="M156.165261,191.362068 C156.612588,189.283887 155.034997,188.454512 153.908663,187.662341 L154.324202,185.740847 C154.706301,185.970481 154.929069,186.318274 155.006516,186.857137 L157.16723,186.144905 C156.882528,184.774926 156.00022,183.900221 154.809357,183.478858 L155.082183,182.21229 L154.089254,182 L153.820739,183.235569 C152.282781,183.053579 150.68285,183.706292 150.284603,185.555996 C149.874798,187.461583 151.204039,188.47656 152.333641,189.24133 C152.385874,189.280632 152.452577,189.312343 152.502624,189.351264 L152.079824,191.314514 C151.467125,191.063684 151.140591,190.577793 150.986701,189.828891 L148.778725,190.545738 C148.9975,192.021698 150.013557,193.103326 151.59692,193.562491 L151.330146,194.798797 L152.328199,195.014304 L152.596015,193.762867 C154.331107,193.92937 155.782501,193.13828 156.165261,191.362068 L156.165261,191.362068 Z M173.372749,205.980232 C172.379083,206.494961 171.156509,206.107471 170.641042,205.113792 C170.125664,204.120088 170.513459,202.896776 171.507558,202.381386 C172.501224,201.866656 173.723798,202.254541 174.239227,203.247825 C174.754566,204.241542 174.366466,205.464841 173.372749,205.980232 L173.372749,205.980232 Z M179.245142,204.433259 L170.336911,212.918385 L168.754985,211.285662 L177.484837,202.779277 L179.245142,204.433259 L179.245142,204.433259 Z M176.714942,214.245489 C175.721238,214.76018 174.499083,214.372728 173.983668,213.37905 C173.468252,212.385371 173.856428,211.162034 174.850145,210.646681 C175.843811,210.131952 177.066004,210.519798 177.581458,211.513121 C178.096836,212.5068 177.709359,213.73015 176.714942,214.245489 L176.714942,214.245489 Z M160.589172,199.283193 L162.47636,201.050327 L163.098099,194.204052 L174.988904,190.990878 L175.641655,193.167079 L165.662489,196.189299 L164.713478,206.902922 L159.608068,201.821264 L160.589172,199.283193 L160.589172,199.283193 Z M151.276095,208.800906 L149.192523,206.484471 L146.259003,208.464988 L145,206.257012 L147.383138,203.935924 L145.43863,201.580848 L147.418129,199.776612 L149.729135,202.529846 C151.802306,201.022188 151.910841,201.016098 151.953716,201.013224 C152.016071,201.011444 152.125267,201.004921 153.792982,202.749702 L153.889946,202.850277 L151.467112,204.606628 L153.496328,206.845997 L151.276095,208.800906 L151.276095,208.800906 Z M152.557425,186.061291 C152.630613,185.718927 152.90274,185.492904 153.335623,185.483203 L153.016615,186.975692 C152.579028,186.58501 152.5005,186.330544 152.557425,186.061291 L152.557425,186.061291 Z M153.083318,191.500827 L153.411633,189.978038 C153.791163,190.283694 153.958798,190.545725 153.882394,190.898949 C153.817865,191.199176 153.594004,191.477393 153.083318,191.500827 L153.083318,191.500827 Z" id="Shape" fill="#003850" fill-rule="nonzero"></path>
                </g>
            </g>
        </g>
    </g>
</svg>