<?xml version="1.0" encoding="UTF-8"?>
<svg width="20px" height="20px" viewBox="0 0 20 20" version="1.1" xmlns="http://www.w3.org/2000/svg" xmlns:xlink="http://www.w3.org/1999/xlink">
    <title>map-with-a-pin-small-symbol-inside-a-circle (1)</title>
    <g id="Page-1" stroke="none" stroke-width="1" fill="none" fill-rule="evenodd">
        <g id="Homepage-Final" transform="translate(-732.000000, -6866.000000)" fill="#999999" fill-rule="nonzero">
            <g id="CONTACT" transform="translate(0.000000, 6668.000000)">
                <g id="map+info" transform="translate(101.000000, 121.000000)">
                    <g id="txt-info-data" transform="translate(378.000000, 0.000000)">
                        <g id="3-data-sets" transform="translate(253.000000, 10.000000)">
                            <g id="map-with-a-pin-small-symbol-inside-a-circle-(1)" transform="translate(0.000000, 67.000000)">
                                <polygon id="Path" points="12.2192263 14.0582339 13.9055125 15.2413725 15.2164346 12.9656087 13.1969985 11.9885971"></polygon>
                                <path d="M11.8495668,7.13206227 C11.8495668,6.32048472 11.1897322,5.66026981 10.377394,5.66026981 C9.56581644,5.66026981 8.90598183,6.32048472 8.90598183,7.13206227 C8.90598183,7.94363982 9.56581644,8.60385474 10.377394,8.60385474 C11.1897322,8.60385474 11.8495668,7.94325952 11.8495668,7.13206227 Z" id="Path"></path>
                                <polygon id="Path" points="8.78048015 12.3677643 7.64297853 13.9692418 8.91472892 15.2044827 10.1142208 12.9728345"></polygon>
                                <path d="M10.5135443,13.0329232 L9.43004644,15.0489366 L11.7035284,13.8243444 C11.7666596,13.7897364 11.8434818,13.7946804 11.9024296,13.8357537 L11.9031902,13.8365143 L12.7231345,12.1015486 L10.5135443,13.0329232 Z" id="Path"></path>
                                <polygon id="Path" points="5.79163855 14.0053711 7.28662981 13.8140761 8.06588117 12.7168872"></polygon>
                                <path d="M10,0 C4.477,0 0,4.47725 0,10 C0,15.523 4.477,20 10,20 C15.523,20 20,15.523 20,10 C20,4.47725 15.523,0 10,0 Z M10.3777743,3.95725 C12.1283326,3.95725 13.5525866,5.38150395 13.5525866,7.13206227 C13.5525866,8.84002609 10.6356232,11.7463408 10.5116428,11.8691803 C10.4743726,11.9064505 10.4260734,11.9247053 10.3777743,11.9247053 C10.3294752,11.9247053 10.281176,11.9064505 10.2439058,11.8691803 C10.1199254,11.7467211 7.20296203,8.84002609 7.20296203,7.13206227 C7.20334233,5.38150395 8.62759628,3.95725 10.3777743,3.95725 Z M15.6480844,12.9789195 L14.1314155,15.612173 C14.1051743,15.6581903 14.0599176,15.6908968 14.0081957,15.702306 C13.9553329,15.7133349 13.9017094,15.7034469 13.8575937,15.6722617 L11.7803507,14.2156815 L9.05316108,15.6840512 C9.02463797,15.6992635 8.99383301,15.70725 8.96302805,15.70725 C8.93488525,15.70725 8.90750307,15.6992635 8.88164211,15.6863331 C8.87897996,15.6848118 8.87555718,15.6855724 8.87327533,15.6840512 C8.86528886,15.6798678 8.86110547,15.6730223 8.85387962,15.6680783 C8.84627346,15.6623736 8.83752637,15.6597115 8.83030052,15.6528659 L7.32656217,14.1921024 L4.91731016,14.5009126 L4.86140487,14.5320979 C4.80169649,14.5670862 4.72981825,14.5648044 4.67315234,14.5320979 L4.48908321,14.555677 C4.3860197,14.5682271 4.28980175,14.495208 4.27611065,14.3906233 C4.26241956,14.2867991 4.33657965,14.1917221 4.44078407,14.1776507 L4.79523125,14.132394 L8.61656735,11.9684408 C8.61694765,11.9684408 8.61732796,11.9676802 8.61732796,11.9676802 L8.62341289,11.9646377 C8.62797659,11.9615952 8.6329206,11.9623558 8.63748429,11.960074 C8.65688001,11.9513269 8.67665603,11.9444814 8.69757298,11.9421995 C8.7078413,11.9410586 8.71810962,11.9425798 8.72875824,11.9433404 C8.74587211,11.944101 8.76222536,11.9475238 8.77895892,11.9524678 C8.78466354,11.9547497 8.79036816,11.9536088 8.79569248,11.9562709 L10.3815774,12.6761942 L13.0346069,11.5588489 C13.0368887,11.5580883 13.03841,11.5584686 13.0406918,11.557708 C13.0570451,11.5508624 13.0741589,11.5497215 13.0916531,11.5482003 C13.0996396,11.5474397 13.1076261,11.5443972 13.1156125,11.5443972 C13.1403326,11.5455381 13.1661935,11.5512427 13.1897726,11.5622717 C13.1901529,11.5622717 13.1901529,11.562652 13.1905332,11.5630323 C13.1909135,11.5630323 13.1909135,11.5630323 13.1912938,11.5630323 L15.5666984,12.7127038 C15.6142369,12.7359026 15.6499859,12.7773562 15.6655785,12.8279371 C15.6811712,12.8785181 15.6743256,12.9329022 15.6480844,12.9789195 Z" id="Shape"></path>
                            </g>
                        </g>
                    </g>
                </g>
            </g>
        </g>
    </g>
</svg>