<?xml version="1.0" encoding="UTF-8"?>
<svg width="52px" height="47px" viewBox="0 0 52 47" version="1.1" xmlns="http://www.w3.org/2000/svg" xmlns:xlink="http://www.w3.org/1999/xlink">
    <title>pie-chart</title>
    <g id="Page-1" stroke="none" stroke-width="1" fill="none" fill-rule="evenodd">
        <g id="Homepage-Final" transform="translate(-577.000000, -3449.000000)" fill="#FFFFFF" fill-rule="nonzero">
            <g id="PORTFOLIOS" transform="translate(0.000000, 3067.000000)">
                <g id="chart-+-center" transform="translate(507.000000, 297.000000)">
                    <g id="pie-chart" transform="translate(70.559575, 85.861651)">
                        <path d="M37.3585852,9.56559102 L37.3585852,13.5487136 L41.3418074,13.5487136 C40.8141049,11.616926 39.2903727,10.0930942 37.3585852,9.56559102 Z" id="Path"></path>
                        <path d="M46.5238914,0 L4.48303022,0 C2.01108736,0 0,2.01108736 0,4.48303022 L0,31.1819658 C0,33.6539086 2.01108736,35.664996 4.48303022,35.664996 L46.5238914,35.664996 C48.9958343,35.664996 51.0069216,33.6539086 51.0069216,31.1819658 L51.0069216,4.48303022 C51.0069216,2.01108736 48.9958343,0 46.5238914,0 Z M8.91724523,22.5745477 C7.90657097,23.3721286 6.4754881,22.6657027 6.4754881,21.4189222 C6.4754881,20.5618664 7.21010732,19.8482676 8.11727339,19.9314527 C9.4362805,20.0710244 9.94475575,21.7081274 8.91724523,22.5745477 Z M9.45620508,15.1895026 C9.39194832,15.9766231 8.65752834,16.6144089 7.82238962,16.5294305 C7.03048724,16.4633806 6.39648714,15.7276655 6.48345793,14.8965117 C6.54910942,14.0847844 7.33373933,13.4038619 8.26172659,13.5776042 C9.04745235,13.7406869 9.53211773,14.4574736 9.45620508,15.1895026 L9.45620508,15.1895026 Z M9.45720131,8.81453402 C9.32251116,10.1143139 7.6908874,10.655864 6.81420594,9.61450586 C6.26478568,8.91943693 6.42039664,8.00360367 7.02241779,7.51146657 C8.06048834,6.66556858 9.59109448,7.50947411 9.45720131,8.81453402 Z M16.7366462,29.2891308 L14.3456967,29.2891308 C13.5204207,29.2891308 12.8513533,28.6200634 12.8513533,27.7947874 C12.8513533,26.9695113 13.5204207,26.300444 14.3456967,26.300444 L16.7366462,26.300444 C17.5619222,26.300444 18.2309896,26.9695113 18.2309896,27.7947874 C18.2309896,28.6200634 17.5619222,29.2891308 16.7366462,29.2891308 Z M22.3155282,22.9132656 L14.3456967,22.9132656 C13.5204207,22.9132656 12.8513533,22.2441982 12.8513533,21.4189222 C12.8513533,20.5936461 13.5204207,19.9245788 14.3456967,19.9245788 L22.3155282,19.9245788 C23.1408043,19.9245788 23.8098716,20.5936461 23.8098716,21.4189222 C23.8098716,22.2441982 23.1408043,22.9132656 22.3155282,22.9132656 Z M22.3155282,16.5374004 L14.3456967,16.5374004 C13.5204207,16.5374004 12.8513533,15.868333 12.8513533,15.043057 C12.8513533,14.2177809 13.5204207,13.5487136 14.3456967,13.5487136 L22.3155282,13.5487136 C23.1408043,13.5487136 23.8098716,14.2177809 23.8098716,15.043057 C23.8098716,15.868333 23.1408043,16.5374004 22.3155282,16.5374004 Z M22.3155282,10.1615352 L14.3456967,10.1615352 C13.5204207,10.1615352 12.8513533,9.49246782 12.8513533,8.66719176 C12.8513533,7.84191571 13.5204207,7.17284836 14.3456967,7.17284836 L22.3155282,7.17284836 C23.1408043,7.17284836 23.8098716,7.84191571 23.8098716,8.66719176 C23.8098716,9.49246782 23.1408043,10.1615352 22.3155282,10.1615352 Z M31.0823429,29.2891308 L28.6913934,29.2891308 C27.8661174,29.2891308 27.19705,28.6200634 27.19705,27.7947874 C27.19705,26.9695113 27.8661174,26.300444 28.6913934,26.300444 L31.0823429,26.300444 C31.9076189,26.300444 32.5766863,26.9695113 32.5766863,27.7947874 C32.5766863,28.6200634 31.9076189,29.2891308 31.0823429,29.2891308 Z M35.8642418,23.7102487 C31.0851323,23.7102487 27.19705,19.8221664 27.19705,15.043057 C27.19705,10.2639475 31.0851323,6.37586521 35.8642418,6.37586521 C40.6433512,6.37586521 44.5314335,10.2639475 44.5314335,15.043057 C44.5314335,19.8221664 40.6433512,23.7102487 35.8642418,23.7102487 Z" id="Shape"></path>
                        <path d="M34.3698984,15.043057 L34.3698984,9.56559102 C31.9616145,10.223401 30.1857368,12.4291515 30.1857368,15.043057 C30.1857368,18.1742045 32.7330942,20.7215619 35.8642418,20.7215619 C38.4781473,20.7215619 40.6839974,18.9456842 41.3418074,16.5374004 L35.8642418,16.5374004 C35.0389657,16.5374004 34.3698984,15.868333 34.3698984,15.043057 Z" id="Path"></path>
                        <path d="M41.4431238,42.240107 L31.7797031,42.240107 L31.7797031,38.6536828 L19.2272185,38.6536828 L19.2272185,42.240107 L9.56379781,42.240107 C8.73852176,42.240107 8.0694544,42.9091743 8.0694544,43.7344504 C8.0694544,44.5597264 8.73852176,45.2287938 9.56379781,45.2287938 L41.4431238,45.2287938 C42.2683999,45.2287938 42.9374672,44.5597264 42.9374672,43.7344504 C42.9374672,42.9091743 42.2683999,42.240107 41.4431238,42.240107 Z" id="Path"></path>
                    </g>
                </g>
            </g>
        </g>
    </g>
</svg>