<?xml version="1.0" encoding="UTF-8"?>
<svg width="77px" height="89px" viewBox="0 0 77 89" version="1.1" xmlns="http://www.w3.org/2000/svg" xmlns:xlink="http://www.w3.org/1999/xlink">
    <title>businessman</title>
    <g id="Page-1" stroke="none" stroke-width="1" fill="none" fill-rule="evenodd">
        <g id="Home-09" transform="translate(-682.000000, -4411.000000)" fill="#003850" fill-rule="nonzero">
            <g id="CONSULTING" transform="translate(0.000000, 4148.000000)">
                <g id="upper-row" transform="translate(225.000000, 262.000000)">
                    <g id="s--2" transform="translate(370.000000, 1.350890)">
                        <g id="businessman" transform="translate(87.000000, 0.000000)">
                            <path d="M66.3715294,59.8173872 C57.0393959,56.263327 51.457559,52.6220505 51.457559,52.6220505 L44.2840264,75.3418711 L43.3028441,78.4162422 L40.0758447,69.3021491 C47.4674177,58.9888333 39.5089393,58.5091441 38.1352842,58.4873401 L38.1352842,58.4873401 L38.1134801,58.4873401 L38.0916761,58.4873401 L38.069872,58.4873401 L38.048068,58.4873401 L38.048068,58.4873401 C36.6744128,58.4873401 28.7159344,58.9888333 36.1075075,69.3021491 L32.9023121,78.4162422 L31.9211298,75.3418711 L24.7475972,52.6220505 C24.7475972,52.6220505 19.1657603,56.263327 9.83362673,59.8173872 C-0.436081008,63.5458798 0.196236454,72.0058513 0,87.8355919 L36.1947237,87.8355919 L38.1570882,87.8355919 L76.2269602,87.8355919 C76.0089197,72.0058513 76.6412372,63.5458798 66.3715294,59.8173872 Z" id="Path"></path>
                            <path d="M21.9566788,38.1877692 C22.7852327,43.5297615 26.8843942,50.3108212 33.6654538,52.7092667 C36.4345682,53.690449 39.4871353,53.690449 42.2562497,52.6874627 C48.9282891,50.2890171 53.180079,43.5297615 53.9868288,38.1877692 C54.8807949,38.122357 56.0582136,36.8577221 57.3228485,32.3660877 C59.0671726,26.2173455 57.2138283,25.3233794 55.6439366,25.4760078 C55.9491934,24.6256498 56.1672339,23.7970959 56.3198622,22.9467379 C58.9799564,7.05158518 51.1523023,6.50648392 51.1523023,6.50648392 C51.1523023,6.50648392 49.8658633,4.02082217 46.4426274,2.12386978 C44.1532021,0.772018659 40.9698107,-0.296379811 36.761629,0.0742890463 C35.4097779,0.139701197 34.1233389,0.401349802 32.9023121,0.81562676 L32.9023121,0.81562676 C31.3542245,1.33892397 29.9369612,2.10206573 28.6505222,2.9960318 C27.0806306,3.99901812 25.5979552,5.22004494 24.2897122,6.61550417 C22.2183274,8.73049706 20.3649831,11.4778074 19.5582332,14.9010433 C18.8823077,17.4521172 19.034936,20.1122114 19.6018413,22.990346 L19.6018413,22.990346 C19.7544697,23.8188999 19.9725102,24.6692579 20.2777669,25.5196159 C18.7078753,25.3669875 16.876335,26.2827576 18.598855,32.4096958 C19.8634899,36.8577221 21.0409086,38.122357 21.9566788,38.1877692 Z" id="Path"></path>
                        </g>
                    </g>
                </g>
            </g>
        </g>
    </g>
</svg>