<?xml version="1.0" encoding="UTF-8"?>
<svg width="689px" height="898px" viewBox="0 0 689 898" version="1.1" xmlns="http://www.w3.org/2000/svg" xmlns:xlink="http://www.w3.org/1999/xlink">
    <title>Group 2</title>
    <defs>
        <linearGradient x1="50%" y1="0%" x2="50%" y2="100%" id="linearGradient-1">
            <stop stop-color="#F9F9F9" offset="0%"></stop>
            <stop stop-color="#FFFFFF" offset="100%"></stop>
        </linearGradient>
        <filter x="-28.2%" y="-23.3%" width="156.4%" height="146.6%" filterUnits="objectBoundingBox" id="filter-2">
            <feGaussianBlur stdDeviation="50" in="SourceGraphic"></feGaussianBlur>
        </filter>
    </defs>
    <g id="Page-1" stroke="none" stroke-width="1" fill="none" fill-rule="evenodd">
        <g id="Home-09" transform="translate(0.000000, -5945.000000)">
            <g id="TEAM" transform="translate(-39.000000, 6034.000000)">
                <g id="Group-2" transform="translate(0.000000, 38.000000)">
                    <g id="lonelytreerobot" transform="translate(104.400614, 157.000000)" fill="#003850">
                        <path d="M276.701968,303.759925 L289.116702,303.35601 C296.069174,303.181335 303.067174,303.088051 310.112985,303.088051 C366.746264,303.088051 420.541796,308.802047 469.061666,319.068929 L469.061666,207.548319 C430.623004,216.243841 393.644359,224.173798 388.398293,223.906982 C396.246225,218.783216 538.772644,183.362804 557.821065,177.743138 C562.155644,176.394684 568.357601,174.471862 572.239563,172.095521 C572.477747,171.98463 572.944049,171.62883 573.161444,171.437787 C573.161444,171.437787 572.957289,171.643086 572.969348,171.654068 C572.684031,172.041712 572.527145,172.422809 572.400901,172.888377 C572.192429,173.815194 572.264862,174.575064 572.613727,175.45795 C572.935377,176.159711 573.298489,176.646198 573.916374,177.108512 C574.147938,177.267691 574.82064,177.549887 574.64614,177.519109 C571.719372,177.229281 566.775173,177.84417 563.828661,178.179729 C547.190069,180.132127 530.768717,183.654859 514.233973,186.283238 C481.867656,192.00994 437.226496,201.252247 405.080767,201.899037 C398.964464,201.770597 392.922297,201.559681 386.833403,200.92831 C384.597474,200.666975 382.472886,200.361671 380.282503,199.830188 C379.31136,199.652317 378.35876,199.204259 377.439259,198.890142 C376.161293,198.324685 375.281242,197.773349 374.266158,196.79282 C373.513338,196.016447 373.045855,195.327858 372.605762,194.332957 C372.099933,193.080557 371.941905,192.038491 372.052664,190.692226 C372.193136,189.500724 372.479576,188.624384 373.06887,187.585573 C373.512254,186.845441 373.935817,186.315043 374.544836,185.710556 C376.39727,184.003008 378.221656,183.145303 380.526107,182.211939 C387.209735,179.597332 394.802062,177.900245 401.800604,176.355131 C448.521329,166.097063 495.643028,157.651951 542.0801,146.121145 C550.495415,143.971563 558.906317,141.769839 567.160313,139.057454 C569.35176,138.329448 571.649184,137.547574 573.740809,136.560886 C574.05578,136.409435 574.662573,136.05685 574.533135,136.140372 C574.264174,136.328102 574.028313,136.564256 573.807667,136.805795 C573.047298,137.675026 572.637923,138.494128 572.302046,139.603232 C572.050758,140.557592 571.981635,141.326217 572.057436,142.312363 C572.16713,143.355552 572.387699,144.140679 572.849705,145.081791 C573.496005,146.281448 574.186322,147.11498 575.315552,147.871557 C575.733656,148.131826 576.835418,148.529349 576.353689,148.43713 C574.281866,148.104341 571.734741,148.095528 569.637096,148.082395 C557.478626,148.193286 544.992544,149.237541 532.876833,150.241313 C490.088165,154.627677 447.58193,164.006152 404.831608,169.673584 C399.472615,170.30666 394.21391,170.82501 388.819707,171.049039 C384.478934,171.177421 380.451526,171.234522 376.263322,169.90966 C374.449466,169.238813 373.229086,168.493064 371.8223,167.13692 C370.713937,165.987256 370.053333,164.948387 369.466225,163.458186 C368.864813,161.754473 368.704617,160.35992 368.905404,158.564415 C369.108436,157.143557 369.45525,156.085996 370.124584,154.821005 C370.601997,153.966612 371.070565,153.307231 371.717987,152.575835 C372.653031,151.554572 373.512293,150.841925 374.641387,150.056798 C379.319044,146.964497 385.000771,144.856658 390.24192,142.927251 C391.118719,142.606626 391.995519,142.283715 392.873983,141.963032 C433.298949,128.212429 480.82617,120.998353 519.185856,105.289212 C522.002814,104.009268 525.676324,102.327017 528.18611,100.506274 C529.039875,99.8628541 528.199292,100.548073 527.783356,101.155311 C527.014122,102.37424 526.679425,103.489852 526.50268,104.922894 C526.321675,107.282209 526.793494,109.128191 528.069796,111.119058 C528.959719,112.367603 529.828834,113.215973 531.172613,113.946227 C531.375645,114.129599 532.102159,114.326142 532.396168,114.440287 C532.569604,114.48751 531.50518,114.369007 530.716105,114.359129 C526.643151,114.383244 522.421518,114.947694 518.395775,115.532966 C483.362785,121.075192 451.200622,129.126093 415.490013,131.413993 C411.138903,131.61166 406.768514,131.764234 402.41965,131.442544 C400.461296,131.266862 398.887618,131.02416 397.00009,130.421281 C395.423218,129.873315 394.31048,129.288527 392.966198,128.272765 C391.887953,127.408551 391.154935,126.620131 390.370293,125.477033 C389.38049,123.947299 388.865738,122.637274 388.543197,120.841227 C388.284108,119.072258 388.34785,117.695137 388.77689,115.962293 C389.125891,114.695114 389.54175,113.727699 390.226512,112.609201 C391.093517,111.271748 391.9022,110.364631 393.113173,109.346719 C394.537631,108.200309 395.81612,107.444817 397.438054,106.624456 C400.583108,105.080465 403.772682,103.898357 407.070324,102.732152 C448.873543,88.8102445 493.519658,80.3475648 534.573446,65.1457135 C536.256818,64.5219733 537.708627,63.793366 539.312541,63.0443626 C540.527346,62.3702614 539.151222,63.1938572 538.247536,64.3073386 C537.621967,65.1445901 537.222581,65.8957242 536.838486,66.8719525 C536.264542,68.45106 536.080189,69.7446982 536.150357,71.4247601 C536.294138,73.2800976 536.70239,74.668027 537.596726,76.2932923 C538.281546,77.4507428 538.9503,78.2753458 539.963273,79.1538739 C541.603868,80.4430958 543.230177,80.9213121 542.875756,80.8554554 C536.161293,79.9324935 524.053383,80.8642686 517.152437,81.3045204 C493.488939,82.9990127 469.736614,86.0111421 446.244248,87.5045971 C442.400148,87.6693357 438.921986,87.7867349 435.139265,86.9357698 C433.459203,86.4931936 432.242732,85.9693618 430.760146,85.0359403 C429.432278,84.1486766 428.51483,83.2855861 427.523942,82.0271812 C426.174143,80.1905935 425.480652,78.5686404 425.072865,76.3218625 C424.762326,74.1421227 424.885318,72.4492963 425.526663,70.348662 C425.999643,68.9496144 426.523086,67.8998009 427.374722,66.6996018 C428.338181,65.4093145 429.193069,64.5527322 430.463834,63.5847941 C434.868233,60.5989686 439.659436,59.1176389 444.696914,57.5539497 C470.291879,49.810483 503.135494,42.3393918 527.231323,33.2211671 C524.612965,34.3522555 522.934025,35.7600582 521.368612,38.1485055 C519.93103,40.5867908 519.395489,42.7226583 519.531586,45.5514931 C519.790559,48.3357003 520.598255,50.3463627 522.325509,52.5425859 C524.175175,54.682831 526.029738,55.8677088 528.749041,56.6413117 C519.357085,55.1363898 496.853536,58.7322031 486.314755,59.9060983 C482.650517,60.2860719 479.058247,60.6154328 475.371033,60.6374173 C473.472046,60.6286622 471.810585,60.5331507 469.932987,60.2179684 C468.649059,59.9785019 467.586765,59.6875122 466.363152,59.2186321 C464.334688,58.3895934 462.92889,57.4836573 461.328925,55.9664939 C458.958546,53.5320437 457.772272,51.1249242 457.259281,47.7575755 C456.968408,44.8683269 457.301982,42.6765974 458.453782,40.026273 C459.811188,37.2436154 461.191764,35.5975278 463.472058,33.5792337 C467.26525,30.3930103 471.291516,28.0133762 475.589415,25.5975403 C476.109548,25.3075385 476.628616,25.0165875 477.151034,24.7289488 C489.661757,18.1056461 531.307549,-11.4427139 543.193941,4.82272273 C553.881885,20.2314028 502.340999,40.7141266 489.767135,47.5774381 C489.302884,47.8355188 488.737805,48.1133371 488.298853,48.3927631 C485.922976,49.7248306 482.641826,51.542223 480.552873,53.2398919 C480.444301,53.3332922 481.43304,52.2548697 482.157793,50.7658503 C483.085171,48.6377306 483.303553,46.8098786 483.070809,44.4960818 C482.633019,41.6178932 481.62171,39.5166585 479.591601,37.430319 C478.443769,36.34196 477.417691,35.6270664 475.960385,35.0309279 C475.688172,34.8518171 474.902465,34.7101865 474.546922,34.6124862 C474.055262,34.5300879 475.374401,34.6366595 475.450124,34.6377829 C478.148464,34.6443492 480.969912,34.3665116 483.653619,34.1018839 C500.478654,32.3394237 518.378199,28.6908283 535.139609,31.8380995 C538.072939,32.6677192 540.069696,33.9294557 542.063608,36.2398241 C543.918171,38.5975899 544.782931,40.7581731 545.060564,43.7439598 C545.204345,46.7747227 544.635898,49.0681814 543.092938,51.6816068 C541.4326,54.2171856 539.629603,55.740373 536.850507,56.9465961 C511.139286,66.2679306 478.833342,73.5578966 451.946841,81.3990054 C450.479605,81.8459398 443.226407,84.9173789 445.300494,83.4919693 C446.198083,82.810004 446.819239,82.1325907 447.499684,81.2244077 C448.259046,80.145443 448.717683,79.2175805 449.141285,77.9624104 C449.742155,75.9912813 449.855159,74.3979372 449.561054,72.3538041 C449.179688,70.2431751 448.527833,68.7079979 447.258248,66.9840057 C446.373764,65.8561521 445.552905,65.0766027 444.365431,64.2808991 C443.349341,63.6418376 442.450553,63.1981573 441.291204,62.8951585 C439.147956,62.4196152 444.190989,62.8105714 445.14026,62.7765196 C468.308788,61.6574791 492.220264,58.6970085 515.635764,57.2046768 C525.350435,56.6468514 537.696568,55.8215317 547.262444,57.3660451 C550.555692,58.0172707 552.693462,58.829884 555.393564,60.9492487 C556.637908,62.0297436 557.455592,63.0137198 558.297239,64.4358173 C559.323317,66.2965202 559.790762,67.876693 559.95539,69.996077 C560.037618,71.9672642 559.812732,73.4656197 559.139971,75.3137324 C558.626458,76.6160675 558.085419,77.592354 557.251437,78.710271 C555.200404,81.24308 553.356235,82.5256775 550.544775,84.0497947 C548.114079,85.3170902 545.693798,86.3239806 543.140168,87.3102037 C501.299494,102.250062 456.791721,110.544691 414.428725,124.007655 C412.110028,124.806012 409.611236,125.666972 407.39178,126.715662 C406.775076,127.019784 406.821087,127.06046 407.367681,126.619007 C408.132482,125.96997 408.651609,125.326531 409.199674,124.482016 C409.779174,123.532208 410.123742,122.719614 410.418912,121.643361 C410.805175,120.080272 410.856819,118.837111 410.624132,117.242644 C410.332253,115.619625 409.87137,114.435852 408.978098,113.052765 C408.312422,112.085349 407.688092,111.394629 406.773954,110.665441 C405.930119,110.029691 405.172866,109.575067 404.177565,109.230269 C403.331485,108.96231 403.647521,109.108376 404.378294,109.182988 C407.607936,109.473997 411.276007,109.3258 414.516566,109.202783 C449.011827,107.344792 481.337554,99.5893164 515.373481,94.5736139 C520.614572,93.8554663 525.703791,93.2811379 531.002429,93.3339395 C533.212613,93.3811045 535.085894,93.5326717 537.249932,94.0246017 C538.600796,94.360587 539.661425,94.73843 540.905885,95.3742374 C542.852664,96.4305591 544.115726,97.5402054 545.407338,99.3565712 C546.993599,101.823988 547.563111,104.07189 547.338167,106.998967 C547.073697,109.144597 546.521141,110.681963 545.374432,112.498271 C543.922565,114.639039 542.51458,115.923883 540.453752,117.433783 C536.410394,120.248304 532.094378,122.284689 527.607752,124.277822 C487.483473,140.013848 440.909297,146.776612 399.385839,160.116037 C398.553986,160.445456 397.602586,160.757345 396.749925,161.045081 C393.492815,162.217252 388.347772,164.020389 385.391408,165.814712 C385.244374,165.913613 385.843541,165.362276 385.888429,165.312865 C386.276995,164.871412 386.555654,164.460776 386.842152,163.944673 C387.368905,162.95415 387.624626,162.107543 387.788074,160.99348 C387.958142,159.463746 387.815541,158.263489 387.301912,156.811756 C386.82024,155.581882 386.277014,154.708933 385.361753,153.76019 C384.550283,152.9788 383.773306,152.399029 382.715386,152.01032 C381.556579,151.655527 386.687434,152.168434 388.245705,152.137636 C393.095616,152.005884 397.869224,151.578687 402.691669,151.059272 C445.754718,145.995843 488.295524,136.925383 531.522679,133.203861 C544.133224,132.278168 557.130748,131.341435 569.778574,131.498503 C573.075733,131.552292 576.330596,131.658806 579.576111,132.284735 C581.396703,132.669086 582.668533,133.095217 584.272912,134.085682 C585.746632,135.076147 586.648789,136.071048 587.498702,137.646378 C588.02981,138.731251 588.29097,139.636063 588.413905,140.838568 C588.501687,141.985035 588.420466,142.885471 588.124154,143.994516 C587.665459,145.517704 587.079997,146.565793 586.040815,147.755068 C585.417491,148.433663 584.844611,148.932276 584.100656,149.471429 C582.963703,150.262038 581.905784,150.823253 580.65482,151.406375 C577.869046,152.653739 575.060895,153.606976 572.157142,154.536504 C563.497198,157.209278 554.699395,159.408872 545.895611,161.545746 C499.170569,172.31064 451.697624,180.521921 404.631808,189.746601 C398.431033,191.038012 391.346896,192.488602 385.381517,194.62937 C384.627516,194.92375 383.04021,195.917469 383.760046,195.239939 C384.064082,194.939071 384.282483,194.636053 384.500865,194.268689 C384.925009,193.51862 385.118053,192.874077 385.220121,192.019741 C385.303587,190.974364 385.184969,190.160569 384.792144,189.189899 C384.494245,188.515682 384.179331,188.021447 383.666767,187.495465 C383.440758,187.275872 383.035758,186.914571 382.732962,186.794886 C382.875563,186.881662 383.422098,187.03536 383.591101,187.082525 C385.164238,187.500908 386.779572,187.737062 388.390454,187.948985 C394.046997,188.660625 399.72162,188.935073 405.414321,189.139364 C435.645075,189.414936 481.68971,180.625142 512.477974,175.75874 C529.080427,173.139756 546.079964,170.321981 562.799776,168.67756 C566.928672,168.278914 572.208747,167.726628 576.303129,168.401988 C577.476241,168.633591 578.299286,168.918091 579.301672,169.602187 C580.144442,170.227593 580.659194,170.867817 581.093674,171.826496 C581.542556,172.950844 581.619363,173.904081 581.352705,175.082412 C581.136569,175.888401 580.857794,176.465964 580.367276,177.134699 C580.216875,177.449882 579.540978,178.018709 579.284135,178.294881 C578.737134,178.884628 577.629758,179.472147 576.954927,179.93109 C571.993656,182.679773 565.733629,184.532264 560.30321,186.116853 C553.687563,187.871042 520.338062,195.826432 484.699286,203.989289 L484.699286,322.578431 C539.788657,335.662545 587.374606,354.741282 623.599386,378 C544.539288,342.939281 432.936185,321.079611 309.219577,321.079611 C188.476871,321.079611 79.2765318,341.90047 0.599386331,375.491907 C32.392901,355.789972 72.4567877,339.218282 118.345098,326.920981 C188.38523,312.906397 241.170854,305.186045 276.701968,303.759925 Z" id="Shape" fill-rule="nonzero"></path>
                        <path d="M425.553428,275.126801 C426.232678,271.99095 423.837164,270.739473 422.126866,269.544134 L422.757848,266.644715 C423.338051,266.991218 423.676315,267.516018 423.793916,268.329129 L427.074881,267.254414 C426.642572,265.187197 425.302819,263.86732 423.494537,263.231509 L423.908814,261.320333 L422.401088,261 L421.993356,262.8644 C419.658024,262.589788 417.228587,263.574692 416.623864,266.365786 C416.00159,269.241203 418.019993,270.772741 419.735253,271.926734 C419.814567,271.986038 419.915853,272.033889 419.991847,272.092618 L419.349841,275.055044 C418.41948,274.676558 417.92365,273.943376 417.689974,272.813328 L414.337243,273.895008 C414.669444,276.122142 416.21229,277.754255 418.616569,278.447107 L418.211483,280.31262 L419.726989,280.637807 L420.133659,278.749462 C422.768332,279.000706 424.972221,277.806998 425.553428,275.126801 L425.553428,275.126801 Z M451.682372,297.184736 C450.173526,297.961431 448.317091,297.376732 447.534374,295.87733 C446.751791,294.37789 447.340644,292.531986 448.850146,291.754292 C450.358992,290.977596 452.215427,291.562891 452.998086,293.061698 C453.780611,294.561157 453.191294,296.407042 451.682372,297.184736 L451.682372,297.184736 Z M460.599386,294.850446 L447.072563,307.653994 L444.670465,305.190313 L457.926427,292.354686 L460.599386,294.850446 L460.599386,294.850446 Z M456.75737,309.656515 C455.248467,310.433153 453.392669,309.848511 452.610029,308.34911 C451.827389,306.849708 452.416821,305.003765 453.925744,304.226129 C455.434589,303.449433 457.290445,304.03467 458.073143,305.533535 C458.855726,307.032936 458.267355,308.878898 456.75737,309.656515 L456.75737,309.656515 Z M432.270975,287.079305 L435.136602,289.745804 L436.08069,279.415185 L454.136444,274.566698 L455.127623,277.850455 L439.974623,282.410804 L438.533585,298.577021 L430.781205,290.909102 L432.270975,287.079305 L432.270975,287.079305 Z M418.129407,301.440964 L414.96558,297.945603 L410.511136,300.934084 L408.599386,297.602381 L412.218094,294.099997 L409.26543,290.546329 L412.271228,287.823845 L415.780405,291.97831 C418.92844,289.703345 419.093247,289.694155 419.158351,289.689819 C419.253034,289.687132 419.418845,289.67729 421.951209,292.310059 L422.098446,292.461822 L418.419461,295.11205 L421.50075,298.491124 L418.129407,301.440964 L418.129407,301.440964 Z M420.075061,267.128246 C420.186194,266.611638 420.599409,266.270584 421.256725,266.255945 L420.772325,268.508021 C420.107864,267.918506 419.988622,267.534533 420.075061,267.128246 L420.075061,267.128246 Z M420.873611,275.33618 L421.372144,273.038382 C421.948448,273.4996 422.202995,273.894989 422.086977,274.427981 C421.988993,274.881006 421.649069,275.300819 420.873611,275.33618 L420.873611,275.33618 Z" id="Shape" fill-rule="nonzero"></path>
                        <path d="M351.606598,272.340508 L351.606598,272.344289 C351.71212,275.593458 352.136785,278.850305 352.485721,282.108762 L355.930127,282.406187 L355.371969,288.875398 L358.457612,289.141351 L357.645032,298.563953 C356.109905,298.762385 354.857696,300.012976 354.719164,301.615755 L354.429619,304.97433 L366.313565,306 L366.603111,302.641425 C366.762402,300.794063 365.383853,299.154848 363.537161,298.995412 L362.913567,298.941562 L363.003718,297.898846 L363.037793,297.901561 C364.023504,297.986786 364.899332,297.24966 364.984501,296.263568 L365.038328,295.636333 L363.212513,295.478564 L363.005365,295.461054 L363.034401,295.124031 L363.241084,295.141658 L365.067364,295.299426 L365.260847,293.058883 L363.43445,292.901115 L363.227884,292.883604 L363.256978,292.54664 L363.463602,292.564693 L365.289941,292.721938 L365.314616,292.436632 C365.394358,291.512088 364.705869,290.69313 363.781738,290.613354 L363.632798,290.600749 L363.719634,289.595905 L366.622378,289.845997 L367.180012,283.376844 L371.174473,283.721546 C371.12774,280.489365 371.074514,277.254585 371.073913,274.024052 L371.074514,274.020794 L375.115106,274.369238 L375.128771,273.211668 C375.875449,273.534302 376.510693,273.768473 377.050766,273.935646 C377.033205,274.994864 377.283228,276.030482 377.8931,276.902766 L377.047994,277.897081 L391.401743,285.970253 L392.428565,282.866249 L399.21924,280.538832 L403.599386,282.239615 C402.055383,280.463574 401.800494,273.461274 401.800494,273.461274 L398.596129,278.088455 L393.789611,278.758525 L395.672026,273.071468 L385.845697,267.54501 L384.38634,269.261693 C383.08918,268.299161 381.316669,267.418073 379.879854,268.290998 L379.677087,268.185373 L380.335862,267.534597 L377.852919,266.464306 L376.9881,267.016729 C376.147472,266.702918 375.535895,266.508926 375.535895,266.508926 L375.521106,266.542357 C375.680455,265.034092 375.893127,263.530132 376.172147,262.028441 C376.931017,257.958066 377.426606,253.84596 378.008953,249.749794 L367.378922,248.832366 L367.442091,247.87699 L367.68882,245.820142 C368.647026,246.119701 369.608023,246.414877 370.578305,246.697933 C370.672837,246.702898 370.753567,246.742437 370.873355,246.769953 C371.196976,246.849671 371.674403,246.818354 371.958444,246.698457 C372.047994,246.659461 372.123297,246.607802 372.185362,246.545711 L375.877678,247.517008 C376.10512,247.576365 376.334287,247.609796 376.559539,247.615361 L369.592652,237.891533 L371.403562,230.557795 L383.533656,230.405999 L384.161146,228.023724 C384.586335,226.402136 383.612274,224.727338 381.988062,224.29966 L375.061279,222.474132 L375.944201,219.12217 C377.159603,218.796278 378.171054,217.846951 378.51557,216.542607 C379.024998,214.608196 377.870577,212.629942 375.938755,212.120355 C374.004704,211.610884 372.023862,212.76574 371.51674,214.698968 C371.173368,216.003312 371.587605,217.330849 372.487681,218.21089 L371.60631,221.564442 L363.507602,219.398711 C361.888896,218.964401 360.213629,219.949486 359.786773,221.571016 L355.227933,238.890327 C354.798848,240.511799 355.785625,242.158673 357.397179,242.616001 C358.521325,242.933729 359.632852,243.270752 360.739475,243.612022 L360.356522,244.84328 L359.537312,246.838579 L359.552683,248.157351 L351.565409,247.467986 L351.295014,248.448688 L350.290656,248.361814 C348.58742,248.214517 346.882924,249.396831 346.442364,251.051327 C345.751645,253.652492 345.094576,256.264555 344.601178,258.911154 C344.108846,261.548058 343.792978,264.215561 343.606706,266.892547 C343.481956,268.702096 344.969283,270.233436 346.737414,270.386299 L347.585195,270.459385 L347.566509,271.99185 L351.606598,272.340508 L351.606598,272.340508 Z M378.26673,274.224792 C378.720024,274.29462 379.063455,274.288047 379.322123,274.240111 C380.088145,274.097855 381.035361,271.718838 381.526569,270.611142 C381.804581,269.982317 381.60069,269.511785 381.201281,269.131461 C381.973273,269.105127 382.862766,269.60529 383.614483,270.171519 L378.718415,275.932071 C378.430924,275.414804 378.290319,274.831064 378.26673,274.224792 L378.26673,274.224792 Z M373.56397,270.874555 L358.281807,263.751195 C355.85052,262.869506 355.125842,261.950003 356.304919,259.930425 L356.788432,259.055834 L356.80985,259.064657 L358.641694,255.927106 C358.398339,255.39611 358.284598,254.797575 358.338367,254.175323 C358.421366,253.210018 358.893927,252.361935 359.594415,251.782054 L359.6263,251.755604 L359.631747,251.752346 L359.65931,251.730918 L359.76425,251.652209 L359.791638,251.631964 L359.824648,251.607221 L359.833991,251.602722 L359.859305,251.584668 L359.894389,251.561534 L359.903266,251.557094 L359.929065,251.53904 L360.034005,251.473652 L360.045015,251.468145 L360.068624,251.452768 L360.104948,251.431825 L360.117547,251.425853 L360.191726,251.385674 L360.215393,251.372468 L360.26703,251.347725 L360.288913,251.335586 L360.326361,251.318075 L360.342798,251.31092 L360.364217,251.30103 L360.401665,251.283461 L360.419711,251.276306 L360.43952,251.265835 L360.478558,251.250457 L360.49672,251.243302 L360.518138,251.23508 L360.55547,251.219101 L360.576889,251.212586 L360.594508,251.20543 L360.713172,251.164185 L360.736179,251.157611 L360.792798,251.138317 L360.815922,251.131743 L360.833483,251.126236 L360.874188,251.114097 L360.89892,251.107581 L360.914776,251.103684 L360.916423,251.104207 L360.981783,251.087162 L360.995565,251.083381 L361.037917,251.072851 L361.064239,251.06682 L361.078021,251.064687 L361.120315,251.056465 L361.148362,251.049775 L361.16038,251.047642 L361.202732,251.03942 L361.234075,251.03498 L361.244425,251.032265 L361.287902,251.025575 L361.319186,251.021794 L361.330196,251.019021 L361.371889,251.014115 L361.40484,251.010275 L361.415365,251.00915 L361.457058,251.004244 L361.491715,251.001995 L361.499876,251.000987 L361.543352,250.998214 L361.577893,250.994316 L361.585045,250.99484 L361.628522,250.991582 L361.666435,250.989992 L361.671281,250.989992 L361.716405,250.988809 L361.754318,250.987219 L361.75928,250.987219 L361.802641,250.987684 L361.843869,250.987684 L361.847183,250.988343 L361.89,250.988343 L361.93117,250.989992 L361.934427,250.990457 L361.977903,250.990457 L362.022387,250.994297 L362.111472,251.000327 L362.193347,251.00915 L362.19986,251.009752 L362.272973,251.017973 L362.290011,251.021289 L362.353122,251.030054 L362.376847,251.033952 L362.432864,251.043842 L362.512549,251.059219 L362.551586,251.065793 L362.589984,251.074616 L362.635593,251.085572 L362.667536,251.093329 L362.721363,251.108124 L362.743247,251.113631 L362.803761,251.130676 L362.819132,251.135582 L362.887806,251.157068 L362.894435,251.159259 L362.969681,251.185069 L363.043317,251.212004 L363.049888,251.214253 L363.114783,251.240587 L363.129514,251.245086 L363.18778,251.269228 L363.209198,251.279699 L363.257579,251.301127 L363.287216,251.31379 L363.328444,251.334674 L363.363101,251.351719 L363.3977,251.368105 L363.438869,251.390657 L363.465308,251.40491 L363.513049,251.43136 L363.5328,251.441773 L363.586627,251.472004 L363.599885,251.480226 L363.658674,251.516566 L363.665303,251.520347 L363.729016,251.562194 L363.792186,251.605572 L363.798815,251.609412 L363.855433,251.648466 L363.868555,251.658414 L363.916936,251.695161 L363.934439,251.70889 L363.976791,251.741913 L364.000923,251.761208 L364.036181,251.789733 L364.065217,251.815058 L364.093846,251.839743 L364.128929,251.870575 L364.15153,251.889211 L364.249841,251.984306 L364.261432,251.993711 L364.310297,252.044187 L364.315201,252.048085 L364.367381,252.102477 L364.366915,252.104126 L364.417428,252.160225 L364.423514,252.166198 L364.467456,252.216266 L364.478407,252.229472 L364.515797,252.275623 L364.531168,252.294317 L364.564178,252.335039 L364.582282,252.360791 L364.608662,252.395521 L364.63167,252.426818 L364.654794,252.458116 L364.681116,252.496647 L364.69767,252.520207 L364.728431,252.565894 L364.738898,252.582338 L364.771791,252.63673 L364.779544,252.647745 L364.81581,252.707684 L364.819066,252.713133 L364.858104,252.778579 L364.858104,252.780227 L364.893304,252.845673 L364.897684,252.854496 L364.928969,252.913853 L364.936121,252.930239 L364.962443,252.982557 L364.97291,253.005575 L364.994387,253.052327 L365.007587,253.0825 L365.024625,253.122098 L365.04048,253.159562 L365.052614,253.192993 L365.071299,253.239745 L365.081185,253.266195 L365.098746,253.317854 L365.12625,253.399104 L365.132279,253.411767 L365.15203,253.47888 L365.153154,253.484329 L365.174573,253.560247 L365.17622,253.561895 L365.19539,253.634438 L365.196514,253.644793 L365.213068,253.709774 L365.216847,253.727285 L365.228923,253.787165 L365.233304,253.811424 L365.242704,253.864207 L365.248733,253.897173 L365.256951,253.941133 L365.261855,253.982844 L365.26736,254.019184 L365.273388,254.068069 L365.27616,254.097719 L365.281665,254.154885 L365.284979,254.175769 L365.289418,254.241817 L365.289941,254.255487 C365.299284,254.42652 365.29816,254.598541 365.283254,254.775003 C365.122354,256.641175 363.517953,258.038424 361.66252,257.957659 L360.11745,260.606992 L375.000261,267.694013 L374.583175,268.619197 L358.849268,261.141303 C358.853707,260.91264 358.796566,260.696115 358.690559,260.508154 L361.605902,255.98146 C361.6531,255.990341 361.700957,255.997962 361.748755,256.002344 C362.437226,256.06176 363.043783,255.551048 363.103657,254.8624 C363.163047,254.173636 362.652553,253.566219 361.964083,253.506804 C361.275128,253.447447 360.668571,253.958159 360.609259,254.646923 C360.591639,254.848652 360.622982,255.044311 360.693847,255.220773 L357.699305,259.869905 C357.012017,259.813864 356.408658,260.322791 356.349966,261.009965 C356.290052,261.698671 356.800469,262.306088 357.489424,262.365445 C357.776314,262.390247 358.049364,262.317684 358.27355,262.171453 L374.098014,269.69261 L373.56397,270.874555 L373.56397,270.874555 Z M363.747701,229.647542 L363.226217,233.993334 C362.343237,233.618924 361.760831,232.708168 361.847668,231.699542 C361.939447,230.637998 362.742161,229.810275 363.747701,229.647542 L363.747701,229.647542 Z M364.483912,234.143346 L365.004757,229.800928 C365.886128,230.17464 366.470143,231.084446 366.383306,232.090822 C366.292147,233.152289 365.489452,233.978422 364.483912,234.143346 L364.483912,234.143346 Z M383.007345,232.403044 L379.60186,245.345246 C379.430494,245.994956 379.057892,246.543015 378.567866,246.936545 L371.786069,237.462866 L372.989879,232.587262 L383.007345,232.403044 L383.007345,232.403044 Z M363.884992,302.589301 C363.483412,302.554629 363.130677,302.853121 363.096078,303.253283 C363.061363,303.655092 363.358061,304.007454 363.759719,304.042068 C364.160892,304.07674 364.513568,303.78038 364.548225,303.378629 C364.582805,302.978506 364.286165,302.623915 363.884992,302.589301 L363.884992,302.589301 Z M357.76197,302.061079 C357.36039,302.026407 357.007656,302.324841 356.973057,302.725002 C356.9384,303.126347 357.235039,303.479174 357.636697,303.513845 C358.036223,303.548517 358.390547,303.251693 358.425262,302.850349 C358.459861,302.450226 358.161496,302.095634 357.76197,302.061079 L357.76197,302.061079 Z M360.66419,302.311635 C360.263075,302.27708 359.910399,302.575572 359.875684,302.975132 C359.841143,303.376942 360.137841,303.729885 360.538898,303.764441 C360.940536,303.799054 361.293329,303.50223 361.32787,303.100517 C361.362546,302.700841 361.065887,302.346249 360.66419,302.311635 L360.66419,302.311635 Z M359.323012,276.131628 L362.094435,279.518785 C361.213063,279.896879 360.15263,279.684776 359.486683,278.925117 C358.786196,278.125803 358.746092,276.970462 359.323012,276.131628 L359.323012,276.131628 Z M363.074001,278.716213 L360.302637,275.329637 C361.183368,274.952552 362.244383,275.163046 362.91033,275.923247 C363.612465,276.722504 363.652627,277.877961 363.074001,278.716213 L363.074001,278.716213 Z M350.950595,249.708626 C350.635793,250.864025 350.328066,252.022255 350.033558,253.181474 L347.27427,252.943406 L347.684146,251.382358 C347.964349,250.330877 349.098903,249.548608 350.180269,249.642113 L350.950595,249.708626 L350.950595,249.708626 Z M349.723118,254.423747 C349.54175,255.170801 349.363832,255.918341 349.196187,256.666481 L346.426489,256.42787 C346.596189,255.679749 346.774242,254.932209 346.960514,254.185213 L349.723118,254.423747 L349.723118,254.423747 Z M348.926451,257.914164 C348.80614,258.490787 348.692864,259.068496 348.584125,259.647892 L348.457708,260.360275 L345.689658,260.121082 L345.863273,259.146062 C345.955556,258.654645 346.05286,258.16536 346.15561,257.675068 L348.926451,257.914164 L348.926451,257.914164 Z M348.258275,261.611894 C348.148954,262.363273 348.0545,263.117968 347.973691,263.876037 L345.19405,263.635777 C345.28141,262.880481 345.379198,262.126329 345.490826,261.373341 L348.258275,261.611894 L348.258275,261.611894 Z M347.852779,265.135897 C347.739019,266.477706 347.664375,267.823218 347.620433,269.172667 L346.847898,269.106155 C345.737418,269.010051 344.814935,268.050777 344.888533,266.981127 C344.936332,266.284121 344.994598,265.590451 345.06114,264.895114 L347.852779,265.135897 L347.852779,265.135897 Z M391.590205,265.284242 L395.1286,267.297711 C395.55875,267.541287 395.709299,268.091518 395.465362,268.521872 L395.019298,269.304568 L389.92211,266.40237 L390.368233,265.619616 C390.611588,265.191337 391.161643,265.040724 391.590205,265.284242 L391.590205,265.284242 Z M376.439848,278.60733 L391.10989,286.859097 L390.608274,288.685691 L375.141448,279.986487 L376.439848,278.60733 L376.439848,278.60733 Z M396.898398,270.889351 L387.07207,265.362893 L386.382591,266.591417 L396.207136,272.117332 L396.898398,270.889351 L396.898398,270.889351 Z" id="Shape"></path>
                    </g>
                    <path d="M412.934256,458.142328 C536.87791,458.142328 646.727877,486.095496 714.862136,529.148833 C638.716502,495.915214 531.228495,475.196745 412.074398,475.196745 C295.787415,475.196745 190.611897,494.931329 114.836976,526.772244 C183.217026,485.071109 291.287254,458.142328 412.934256,458.142328 L412.934256,458.142328 Z" id="Path" fill="#003850"></path>
                    <path d="M0,0 L483,0 L482.667343,346 C451.889114,350.375637 430.833333,382.542303 419.5,442.5 C413.555396,473.949246 470.277584,474.914693 494.322724,493.64558 C508.853854,504.965164 521.238111,500.260581 531.475495,479.53183 L483,644 L0,644 L0,0 Z" id="Rectangle" fill="url(#linearGradient-1)" filter="url(#filter-2)"></path>
                </g>
            </g>
        </g>
    </g>
</svg>