<?xml version="1.0" encoding="UTF-8"?>
<svg width="70px" height="70px" viewBox="0 0 70 70" version="1.1" xmlns="http://www.w3.org/2000/svg" xmlns:xlink="http://www.w3.org/1999/xlink">
    <title>shuttle</title>
    <g id="Page-1" stroke="none" stroke-width="1" fill="none" fill-rule="evenodd">
        <g id="Home-09" transform="translate(-257.000000, -1598.000000)" fill="#003850" fill-rule="nonzero">
            <g id="PHILOSOPHY" transform="translate(0.000000, 1296.000000)">
                <g id="philosophy-points" transform="translate(108.000000, 237.000000)">
                    <g id="oval+icon" transform="translate(84.000000, 0.000000)">
                        <g id="shuttle" transform="translate(65.000000, 65.000000)">
                            <path d="M17.8070122,18.9047462 L11.7421473,19.3733041 C10.0545458,19.5037401 8.55152363,20.3882167 7.61823612,21.7999063 L0.623775359,32.3786232 C-0.0840519835,33.449183 -0.196576979,34.7889551 0.322569326,35.9626058 C0.841852356,37.1362566 1.90899402,37.9541478 3.17712201,38.1506222 L8.73022372,39.0106249 C10.0292516,32.1169308 13.1389339,25.2401906 17.8070122,18.9047462 Z" id="Path"></path>
                            <path d="M30.9932189,61.2736201 L31.8533584,66.8267218 C32.0498327,68.0948498 32.867724,69.1619915 34.041238,69.6811378 C34.5294844,69.8971639 35.0463064,70.0038097 35.5605306,70.0038097 C36.2828508,70.0038097 37.0001122,69.7933893 37.6253574,69.3799318 L48.2043477,62.3856077 C49.6160374,61.4521835 50.5005139,59.9490246 50.6306765,58.2616965 L51.0992344,52.1968317 C44.7636533,56.8650467 37.8870498,59.9747289 30.9932189,61.2736201 L30.9932189,61.2736201 Z" id="Path"></path>
                            <path d="M28.9047386,57.4246637 C29.0975214,57.4246637 29.291398,57.4088035 29.4848644,57.3765363 C32.3730516,56.8936223 35.1567805,56.0801062 37.812261,55.0152889 L14.9886917,32.1917196 C13.9238744,34.8470634 13.1103583,37.6307923 12.6274442,40.5191161 C12.4371225,41.6576285 12.8189965,42.8174699 13.6351103,43.6337205 L26.37026,56.3688702 C27.0478711,57.0463445 27.9624272,57.4246637 28.9047386,57.4246637 Z" id="Path"></path>
                            <path d="M64.4220298,31.0370736 C70.0071253,20.2393227 70.2139908,8.82876859 69.9220821,3.47733684 C69.8221358,1.64371264 68.3602679,0.181844768 66.526507,0.0818985084 C65.6551561,0.0343180728 64.6224692,0 63.458526,0 C57.4746026,0 48.0062326,0.906352608 38.9667702,5.58195076 C31.7829448,9.29773668 22.3629756,17.4795207 16.805362,28.2318788 C16.8709901,28.2831508 16.9351144,28.3375675 16.995547,28.3980002 L41.6061171,53.0085703 C41.6665497,53.0690029 41.7208297,53.1329904 41.7721017,53.1986186 C52.5244598,47.6408682 60.7062439,38.2208991 64.4220298,31.0370736 Z M40.7029092,14.7991562 C44.7008963,10.8011691 51.2064271,10.8007589 55.2046877,14.7991562 C57.1415395,16.7358713 58.2081343,19.311094 58.2081343,22.0501138 C58.2081343,24.7891335 57.1415395,27.3643562 55.2046877,29.3010714 C53.2058992,31.2998598 50.5794045,32.2994592 47.9538668,32.2997326 C45.3275088,32.2997326 42.7022446,31.3004067 40.7029092,29.3010714 C38.7660573,27.3643562 37.6993258,24.7891335 37.6993258,22.0501138 C37.6993258,19.311094 38.7660573,16.7358713 40.7029092,14.7991562 Z" id="Shape"></path>
                            <path d="M43.6032649,26.400579 C46.0021119,28.7994259 49.9056217,28.7995626 52.3044687,26.400579 C53.4664978,25.2384131 54.1065093,23.6934162 54.1065093,22.0499771 C54.1065093,20.4065379 53.4664978,18.861541 52.3044687,17.6995119 C51.1051136,16.50002 49.5294902,15.9003425 47.9538668,15.9003425 C46.3783801,15.9003425 44.8027567,16.50002 43.6034016,17.6995119 C42.4413725,18.861541 41.8012243,20.4065379 41.8012243,22.0499771 C41.8012243,23.6934162 42.4412358,25.2385499 43.6032649,26.400579 Z" id="Path"></path>
                            <path d="M2.09261622,57.6896375 C2.61750499,57.6896375 3.14239376,57.4894715 3.5427257,57.0888661 L10.2385782,50.3930136 C11.0395155,49.5920763 11.0395155,48.2935953 10.2385782,47.4926579 C9.43777761,46.6917206 8.13915986,46.6917206 7.33822252,47.4926579 L0.642370012,54.1885104 C-0.158567321,54.9894478 -0.158567321,56.2879288 0.642370012,57.0888661 C1.04283868,57.4893348 1.56772745,57.6896375 2.09261622,57.6896375 Z" id="Path"></path>
                            <path d="M16.3749504,53.6290301 C15.5741498,52.8280928 14.2755321,52.8280928 13.4745947,53.6290301 L0.60121567,66.5024092 C-0.199721663,67.3033465 -0.199721663,68.6018276 0.60121567,69.4027649 C1.00168434,69.8032336 1.52657311,70.0033995 2.05146188,70.0033995 C2.57635065,70.0033995 3.10123942,69.8032336 3.50157136,69.4026282 L16.3748137,56.5293858 C17.1758878,55.7284485 17.1758878,54.4299675 16.3749504,53.6290301 Z" id="Path"></path>
                            <path d="M19.6108302,59.7654024 L12.9151144,66.4612549 C12.1141771,67.2621922 12.1141771,68.5606732 12.9151144,69.3616106 C13.3155831,69.7620792 13.8404719,69.9623819 14.3652239,69.9623819 C14.889976,69.9623819 15.4150015,69.762216 15.8153334,69.3616106 L22.5111859,62.665758 C23.3121233,61.8648207 23.3121233,60.5663397 22.5111859,59.7654024 C21.7103853,58.964465 20.4117676,58.964465 19.6108302,59.7654024 Z" id="Path"></path>
                        </g>
                    </g>
                </g>
            </g>
        </g>
    </g>
</svg>