<?xml version="1.0" encoding="UTF-8"?>
<svg width="89px" height="89px" viewBox="0 0 89 89" version="1.1" xmlns="http://www.w3.org/2000/svg" xmlns:xlink="http://www.w3.org/1999/xlink">
    <title>start-up</title>
    <g id="Page-1" stroke="none" stroke-width="1" fill="none" fill-rule="evenodd">
        <g id="Home-09" transform="translate(-306.000000, -4711.000000)" fill="#003850" fill-rule="nonzero">
            <g id="CONSULTING" transform="translate(0.000000, 4148.000000)">
                <g id="lower-row" transform="translate(225.000000, 561.000000)">
                    <g id="s--1" transform="translate(0.000000, 2.000000)">
                        <g id="start-up" transform="translate(81.000000, 0.000000)">
                            <path d="M12.9922116,57.0292221 C12.4883794,58.0341702 12.6846159,59.2489351 13.478389,60.0433874 L14.1159879,60.6809863 C15.9581666,58.4979402 18.1052246,56.128843 20.7092625,53.525484 C20.8932765,53.3414698 21.0827229,53.2525183 21.267416,53.0827636 L17.1654623,48.9801309 C14.7807476,53.2932596 13.3901166,56.2402019 12.9922116,57.0292221 Z" id="Path"></path>
                            <path d="M35.4589131,68.2751348 C32.8487641,70.8852837 30.485778,73.0364159 28.3149543,74.8799525 L29.1786664,75.7436647 C29.9799089,76.5449071 31.2062173,76.7377485 32.2145604,76.218978 C33.5651292,75.5229836 35.6891006,74.5234676 40.1977868,72.0124554 L35.9023125,67.7169811 C35.7325578,67.9023533 35.6436063,68.0911206 35.4589131,68.2751348 L35.4589131,68.2751348 Z" id="Path"></path>
                            <path d="M34.0689614,54.918831 C32.1846836,53.0345532 26.8856193,54.7239525 24.3963356,57.2125571 C16.0688466,65.5400461 12.3077604,71.4441164 10.6190401,74.9302 C10.1348996,75.929037 10.3365682,77.1247894 11.1215142,77.9097354 C11.9078181,78.6967183 13.1056076,78.8963499 14.1051236,78.4122094 C17.51312,76.75744 23.3452142,73.0140083 31.77184,64.5880616 C34.5089657,61.849578 35.8595344,56.7100832 34.0709983,54.9208681 L34.0689614,54.918831 Z" id="Path"></path>
                            <path d="M8.13858361,34.7152998 L0.763758295,42.0901251 C-0.070077037,42.9239604 -0.241189825,44.2147755 0.349556792,45.2373782 C0.92604388,46.2464003 2.13333975,46.7604177 3.28223972,46.4528221 C7.26808134,45.3840463 10.7752144,44.9324985 13.1368426,45.5381835 C16.4966286,39.5648534 20.1069726,34.0661574 23.9305286,29.0712938 C21.7189636,27.6535022 14.4106822,28.4432011 8.13858361,34.7152998 L8.13858361,34.7152998 Z" id="Path"></path>
                            <path d="M44.1340599,88.7203968 C45.138329,89.2283031 46.3544521,89.0320666 47.1495834,88.2362563 L54.5250877,80.861431 C60.2349584,75.1502022 61.2399065,67.781488 59.9443383,65.4449836 C54.3736664,69.643358 48.7303396,73.1885161 43.4652262,76.1565082 C43.8285014,78.2078246 43.5867706,80.1980293 42.7278117,86.010432 C42.5600939,87.1355666 43.1413342,88.2240339 44.1340599,88.7203968 L44.1340599,88.7203968 Z" id="Path"></path>
                            <path d="M51.7662334,26.1555862 C48.7167591,29.2057395 48.7167591,34.1673314 51.7662334,37.2174847 C54.8163868,40.2676381 59.7786576,40.2676381 62.828811,37.2174847 C65.8789643,34.1673314 65.8789643,29.2057395 62.828811,26.1555862 C59.7786576,23.1054328 54.8163868,23.1054328 51.7662334,26.1555862 Z" id="Path"></path>
                            <path d="M88.8467821,2.54337937 C88.7530774,1.25392242 87.7264007,0.234714769 86.4410178,0.138294158 C80.0371895,-0.343809245 73.6584851,0.443852795 67.4060782,2.3559703 C67.8766383,6.65144441 70.0983885,11.3000084 73.8913885,15.0930086 C77.7298829,18.930824 82.5047445,21.1518952 86.8769479,21.5674548 C88.560915,15.6661007 89.3594414,9.3457918 88.8467821,2.54337937 L88.8467821,2.54337937 Z" id="Path"></path>
                            <path d="M70.2043154,18.7807609 C65.865384,14.4418294 63.2158519,9.23782774 62.3657201,4.17098804 C46.7082209,10.5924707 31.7195554,24.6155711 19.8754272,44.3152703 L25.7598057,50.1996489 C29.7802772,48.5672874 34.6610659,48.1361103 37.7567134,51.2310788 C40.8564351,54.3314796 40.41711,59.2102311 38.7854273,63.2252704 L44.8633264,69.3031695 C60.0203884,60.1683269 77.6667342,45.7765192 85.1705732,26.6288624 C79.980152,25.8445956 74.6138647,23.1903101 70.2043154,18.7807609 L70.2043154,18.7807609 Z M66.5158842,40.9052368 C61.4334269,45.9876941 53.1622965,45.9876941 48.0791603,40.9052368 C42.996024,35.8221007 42.996024,27.5502913 48.0791603,22.4678339 C53.1622965,17.3853768 61.4334269,17.3853768 66.5158842,22.4678339 C71.5990204,27.5509703 71.5990204,35.8221007 66.5158842,40.9052368 Z" id="Shape"></path>
                        </g>
                    </g>
                </g>
            </g>
        </g>
    </g>
</svg>