<?xml version="1.0" encoding="UTF-8"?>
<svg width="310px" height="340px" viewBox="0 0 310 340" version="1.1" xmlns="http://www.w3.org/2000/svg" xmlns:xlink="http://www.w3.org/1999/xlink">
    <title>shield</title>
    <defs>
        <linearGradient x1="36.6608811%" y1="50%" x2="91.2912727%" y2="50.0157035%" id="linearGradient-1">
            <stop stop-color="#003850" offset="0%"></stop>
            <stop stop-color="#00202E" offset="100%"></stop>
        </linearGradient>
    </defs>
    <g id="Page-1" stroke="none" stroke-width="1" fill="none" fill-rule="evenodd">
        <g id="Home-09" transform="translate(-232.000000, -2494.000000)">
            <g id="CORE-EQUITY" transform="translate(0.000000, 2235.000000)">
                <g id="shield" transform="translate(232.000000, 259.000000)">
                    <path d="M155.044141,339.220388 L149.597504,337.357065 C99.9088833,320.10938 35.0270119,271.662976 15.533784,191.492298 C-6.44387495,101.049454 1.20052816,51.0263908 1.63052583,48.9241799 L3.35051653,38.5564582 L13.4315731,35.594252 C14.1004584,35.594252 30.8225902,30.5298349 77.7878918,18.394345 C127.667622,5.54219226 150.744164,0.85999535 151.747492,0.668885272 L155.044141,0 L158.34079,0.668885272 C159.29634,0.668885272 182.229549,5.44663722 232.252612,18.394345 C279.265691,30.5298349 295.940046,35.4031419 296.608931,35.594252 L306.689987,38.5564582 L308.409978,48.9241799 C308.744421,51.0263908 316.484379,101.049454 294.50672,191.492298 C275.013492,271.662976 210.274953,320.10938 160.490778,337.213732 L155.044141,339.220388 Z M33.7847964,64.6429838 C32.9248011,82.5117761 33.3547987,123.218223 48.1180523,183.609007 C63.7413011,247.774216 114.289917,287.668445 155.139696,303.578359 C195.941697,287.668445 246.394758,247.774216 262.018007,183.609007 C276.829038,122.69267 277.211258,82.3684435 276.351263,64.6429838 C266.795759,61.9674427 249.978072,57.4763559 223.795991,50.7875032 C185.573976,40.8975566 162.879654,35.8809171 154.900808,34.1609264 C146.921962,35.8809171 124.418751,40.8975566 86.0056252,50.7875032 C60.1579872,57.3330233 43.4836329,62.1107753 33.7847964,64.6429838 Z" id="Shape" fill="#999999" fill-rule="nonzero"></path>
                    <path d="M155.044141,328.995999 L152.94193,328.183781 C105.16441,311.843869 43.3880778,265.643008 24.8504003,189.246755 C3.30273901,100.667233 10.756032,52.5552714 11.0904747,50.5008381 L11.8071375,46.0575287 L16.1548917,44.7675357 C16.823777,44.7675357 33.3547987,39.7031187 80.1767678,27.6631838 C129.817611,14.8588085 152.655265,10.2243892 153.610815,10.0332791 L155.044141,9.74661397 L156.429689,10.0332791 C157.385239,10.0332791 180.318449,14.811031 229.863736,27.6631838 C276.733483,39.7031187 293.264505,44.5764256 293.93339,44.7675357 L298.233367,46.0575287 L298.997807,50.5008381 C299.284472,52.5074939 306.737765,100.667233 285.237881,189.055644 C266.652426,265.499676 204.732761,311.652759 157.385239,327.992671 L155.044141,328.995999 Z M24.7548452,57.3330233 C23.5126297,70.8062838 21.601529,115.287154 38.7536584,185.854551 C55.6669003,255.418619 111.375488,297.940611 155.044141,313.802748 C198.665016,297.940611 254.373604,255.418619 271.286846,185.854551 C288.53453,115.048267 286.718984,70.7585063 285.333436,57.3330233 C277.641256,55.1352574 259.533576,50.1663954 226.3282,41.6142194 C183.901763,30.62539 160.729666,25.5609729 155.044141,24.3665349 C149.310838,25.5609729 126.377629,30.62539 83.7600818,41.5186644 C50.5547057,50.0708404 32.4470259,55.0397024 24.7548452,57.3330233 Z" id="Shape" fill="#FFFFFF" fill-rule="nonzero"></path>
                    <path d="M154.625248,17.2222222 C154.625248,17.2222222 177.654012,21.9999742 227.677075,34.7565719 C274.929042,46.9398393 291.507841,51.8131463 291.507841,51.8131463 C291.507841,51.8131463 299.295576,99.5906657 277.84347,187.692412 C260.548008,258.880916 203.788315,304.604002 154.625248,321.469466 C105.414403,304.508447 48.6547094,258.785361 31.3592474,187.692412 C9.95491868,99.5428882 17.7426543,51.8131463 17.7426543,51.8131463 C17.7426543,51.8131463 34.2736761,47.0353944 81.5256428,34.7565719 C131.548706,21.8566416 154.625248,17.2222222 154.625248,17.2222222 Z" id="Path" fill="url(#linearGradient-1)" fill-rule="nonzero"></path>
                    <g id="plus-41-LOGO" transform="translate(77.500000, 96.444444)" fill="#FFFFFF">
                        <path d="M2.17779976,107.523935 L2.17779976,94.4819027 L0,94.4819027 L0,92.3041118 L6.22187861,92.3041118 C8.04558296,92.3041118 9.41635005,92.4322393 10.3258759,92.6925045 C11.2354061,92.9487374 11.9954594,93.5338301 12.610436,94.4476142 C13.2211364,95.3617883 13.5286336,96.4377492 13.5286336,97.6762811 C13.5286336,98.6713508 13.3279057,99.559505 12.9223288,100.34529 C12.5166014,101.135405 12.0170614,101.716079 11.419043,102.091772 C10.8212727,102.463194 10.1507734,102.715394 9.40340215,102.847541 C8.65615936,102.975682 7.52869938,103.039863 6.0168879,103.039863 L4.81707122,103.039863 L4.81707122,107.52394 L7.07174304,107.52394 L7.07174304,109.701717 L0,109.701717 L0,107.52394 L2.17779976,107.52394 L2.17779976,107.523935 Z M4.81707122,100.938696 L6.32010453,100.938696 C8.02824819,100.938696 9.21562213,100.695393 9.87318674,100.208513 C10.5351338,99.7216639 10.8639759,98.863367 10.8639759,97.6291333 C10.8639759,96.8477395 10.6888824,96.1987226 10.338806,95.6819719 C9.98836191,95.1650884 9.55274613,94.836357 9.03625692,94.6954367 C8.51950184,94.5545164 7.65682688,94.4818983 6.44407559,94.4818983 L4.81707122,94.4818983 L4.81707122,100.938696 L4.81707122,100.938696 Z M16.5311686,107.575186 L16.5311686,94.4306473 L14.3789987,94.4306473 L14.3789987,92.3041074 L18.9142116,92.3041074 L18.9142116,107.575186 L20.7845187,107.575186 L20.7845187,109.701713 L14.3789987,109.701713 L14.3789987,107.575186 L16.5311686,107.575186 L16.5311686,107.575186 Z M35.2361134,107.575186 L35.2361134,109.701713 L30.7521559,109.701713 L30.7521559,108.313886 C29.360035,109.377165 28.0275843,109.906748 26.7509133,109.906748 C25.9436236,109.906748 25.273377,109.727352 24.7436829,109.372893 C24.2141261,109.01843 23.8640586,108.561575 23.6889518,107.997859 C23.5138582,107.434115 23.4240471,106.52887 23.4240471,105.277568 L23.4240471,99.7089819 L21.7074842,99.7089819 L21.7074842,97.5821806 L25.8072098,97.5821806 L25.8072098,104.965812 C25.8072098,105.858269 25.8328353,106.460413 25.8840819,106.767897 C25.9309372,107.075407 26.0761335,107.33164 26.3196932,107.532235 C26.5586002,107.732941 26.866084,107.831441 27.2292235,107.831441 C28.3310535,107.831441 29.5051162,107.306023 30.7521559,106.255431 L30.7521559,99.7089775 L28.5999817,99.7089775 L28.5999817,97.5821806 L33.1351901,97.5821806 L33.1351901,107.575182 L35.2361134,107.575182 L35.2361134,107.575186 Z M36.9790462,109.701713 L36.9790462,105.550759 L39.1056038,105.550759 L39.1056038,105.952197 C39.1824803,106.520212 39.4856925,106.990107 40.0237926,107.357279 C40.5619104,107.724535 41.1982408,107.908065 41.9326686,107.908065 C42.7013893,107.908065 43.3120898,107.775786 43.7733222,107.506627 C44.2301678,107.237686 44.460784,106.866021 44.460784,106.392097 C44.460784,105.930861 44.2684753,105.593488 43.8885018,105.375771 C43.5084131,105.158107 42.7568987,104.957131 41.6294431,104.773734 C39.9554594,104.491889 38.7640664,104.034924 38.0509924,103.407004 C37.3377899,102.775078 36.9790462,101.959378 36.9790462,100.956008 C36.9790462,99.9480129 37.3674389,99.1026683 38.1405465,98.4234973 C38.917815,97.7445965 39.9382531,97.4028021 41.2024992,97.4028021 C42.3469128,97.4028021 43.3290523,97.6377077 44.1532868,98.107603 L44.1532868,97.582185 L46.2799552,97.582185 L46.2799552,101.604892 L44.1532868,101.604892 L44.1532868,100.866193 C43.5126892,99.8711231 42.5819292,99.3758637 41.3562566,99.3758637 C40.7326038,99.3758637 40.2158531,99.5124193 39.8145391,99.7815779 C39.4088116,100.054769 39.2080925,100.41353 39.2080925,100.866193 C39.2080925,101.327456 39.3917338,101.63919 39.7632792,101.809901 C40.1348423,101.985021 40.9375989,102.164364 42.1632848,102.360958 C43.3377153,102.548738 44.2258873,102.766672 44.8279292,103.009974 C45.4302237,103.257553 45.9297593,103.667539 46.3268105,104.235634 C46.7241055,104.807677 46.9205617,105.473895 46.9205617,106.229801 C46.9205617,107.357283 46.4892309,108.249714 45.6265515,108.911661 C44.7639962,109.573634 43.645208,109.906757 42.2700496,109.906757 C40.9761546,109.906757 39.9212995,109.607794 39.1055994,109.014167 L39.1055994,109.701726 L36.9790462,109.701726 L36.9790462,109.701713 Z M55.6071145,105.012654 L48.6121284,105.012654 L48.6121284,103.048264 L55.8803188,92.1503632 L57.8874252,92.1503632 L57.8874252,102.911735 L60.6548153,102.911735 L60.6548153,105.01265 L57.8874252,105.01265 L57.8874252,107.575182 L59.4761087,107.575182 L59.4761087,109.701709 L53.7365638,109.701709 L53.7365638,107.575182 L55.6071145,107.575182 L55.6071145,105.012654 L55.6071145,105.012654 Z M55.6071145,102.91174 L55.6071145,96.05338 L51.02494,102.91174 L55.6071145,102.91174 L55.6071145,102.91174 Z M65.4718953,107.575186 L65.4718953,94.4050217 L63.0891093,94.4050217 L63.0891093,92.3041074 L67.8549251,92.3041074 L67.8549251,107.575186 L70.1097298,107.575186 L70.1097298,109.701713 L63.0891093,109.701713 L63.0891093,107.575186 L65.4718953,107.575186 L65.4718953,107.575186 Z M87.4225449,102.629868 L89.6858841,103.893853 C89.1776812,105.828354 88.1483053,107.327258 86.5981907,108.39078 C85.0524453,109.454032 83.2715771,109.983611 81.260208,109.983611 C78.6211758,109.983611 76.5030596,109.129342 74.9102152,107.417051 C73.3172467,105.708921 72.5187617,103.590645 72.5187617,101.071197 C72.5187617,98.3083354 73.3215183,96.1089071 74.9228883,94.4732353 C76.5242672,92.8378206 78.6169086,92.0222401 81.1962882,92.0222401 C83.4765723,92.0222401 85.3898263,92.6412624 86.9442303,93.8841368 L86.9442303,92.3041118 L89.1988888,92.3041118 L89.1988888,97.8896689 L86.9442303,97.8896689 C86.4444244,96.7581942 85.6716846,95.8783041 84.6297774,95.2592908 C83.58347,94.639914 82.485885,94.3281585 81.3370889,94.3281585 C79.5990348,94.3281585 78.1726254,94.9560653 77.0581133,96.2071374 C75.9435968,97.4583292 75.3885386,99.0384915 75.3885386,100.951626 C75.3885386,102.916149 75.9861671,104.517528 77.1778305,105.760172 C78.3736059,107.002789 79.7869478,107.626437 81.4226372,107.626437 C82.76777,107.626437 83.9891709,107.195111 85.0910143,106.32816 C86.1925873,105.465348 86.9698558,104.231247 87.4225449,102.629868 L87.4225449,102.629868 Z M103.902476,107.575186 L103.902476,109.701713 L99.7262591,109.701713 L99.7262591,108.224066 C98.5774232,109.34725 97.2918277,109.906744 95.8742142,109.906744 C94.7723842,109.906744 93.8158702,109.547982 93.0044551,108.830512 C92.188888,108.113043 91.7831649,107.199112 91.7831649,106.080337 C91.7831649,104.957127 92.2145046,104.021993 93.0770599,103.283157 C93.944011,102.540075 94.9859093,102.168627 96.2029279,102.168627 C97.3388248,102.168627 98.4363788,102.51043 99.4956429,103.193607 L99.4956429,101.989257 C99.4956429,101.365985 99.4357246,100.891823 99.3202791,100.554318 C99.200819,100.221465 98.9275216,99.9182265 98.496182,99.6490414 C98.0692247,99.3801265 97.505508,99.2477362 96.8093788,99.2477362 C95.6135768,99.2477362 94.7510481,99.7259312 94.2129436,100.682432 L91.9369223,100.080394 C92.9489324,98.1928722 94.6955077,97.2490402 97.1766481,97.2490402 C98.0861961,97.2490402 98.8762706,97.3731531 99.538231,97.6164424 C100.204436,97.8640212 100.699727,98.1801857 101.024151,98.568831 C101.353246,98.9571794 101.570936,99.3758504 101.681973,99.8241615 C101.797161,100.272716 101.852795,100.989916 101.852795,101.976571 L101.852795,107.575177 L103.902476,107.575177 L103.902476,107.575186 Z M99.4956385,105.213391 C98.470552,104.415026 97.4286271,104.013587 96.378048,104.013587 C95.7204834,104.013587 95.1696836,104.205639 94.7254181,104.585714 C94.2855174,104.970062 94.0634578,105.461213 94.0634578,106.06766 C94.0634578,106.635648 94.2557532,107.105295 94.6442655,107.489673 C95.0328976,107.869749 95.5623347,108.061801 96.2285667,108.061801 C97.3816477,108.061801 98.470552,107.579197 99.4956385,106.618451 L99.4956385,105.213391 L99.4956385,105.213391 Z M106.281473,113.007004 L106.281473,99.7089819 L104.257316,99.7089819 L104.257316,97.582185 L108.664529,97.582185 L108.664529,99.4910477 C109.847255,98.0989489 111.282208,97.4028021 112.969117,97.4028021 C114.668726,97.4028021 116.077783,97.9878948 117.19257,99.1538927 C118.307073,100.323945 118.862158,101.844189 118.862158,103.71451 C118.862158,105.674623 118.255831,107.220723 117.047117,108.356589 C115.838766,109.492349 114.463731,110.06047 112.917853,110.06047 C111.31623,110.06047 109.898506,109.441093 108.664529,108.207103 L108.664529,113.006995 L111.02169,113.006995 L111.02169,115.133792 L104.077946,115.133792 L104.077946,113.006995 L106.281473,113.006995 L106.281473,113.007004 Z M108.625965,103.829915 C108.625965,104.500162 108.762627,105.140768 109.040209,105.751491 C109.313413,106.362182 109.753434,106.874675 110.351049,107.288932 C110.953357,107.703301 111.657901,107.908065 112.465053,107.908065 C113.596785,107.908065 114.531918,107.527963 115.270768,106.767897 C116.009468,106.007719 116.376875,104.961403 116.376875,103.629209 C116.376875,102.335314 115.992514,101.323043 115.219517,100.597136 C114.450783,99.8670066 113.571159,99.5039735 112.588763,99.5039735 C111.538441,99.5039735 110.615962,99.9010336 109.82163,100.691121 C109.023264,101.481183 108.625965,102.527393 108.625965,103.829915 L108.625965,103.829915 Z M121.988545,93.448521 C121.988545,93.064174 122.125313,92.7310513 122.394259,92.4491797 C122.663417,92.1630497 123.00924,92.0222357 123.423484,92.0222357 C123.816512,92.0222357 124.149377,92.1586672 124.435507,92.4364977 C124.717379,92.7097152 124.858423,93.0512216 124.858423,93.448521 C124.858423,93.8498528 124.717379,94.1916295 124.435507,94.4732309 C124.149377,94.7511012 123.816512,94.8918841 123.423484,94.8918841 C123.026437,94.8918841 122.684798,94.7510967 122.407198,94.4648294 C122.129589,94.1829488 121.988545,93.8413095 121.988545,93.448521 L121.988545,93.448521 Z M122.321654,107.575186 L122.321654,99.7089819 L120.451342,99.7089819 L120.451342,97.582185 L124.704697,97.582185 L124.704697,107.575186 L126.574991,107.575186 L126.574991,109.701713 L120.451342,109.701713 L120.451342,107.575186 L122.321654,107.575186 L122.321654,107.575186 Z M127.549207,99.7089819 L127.549207,97.582185 L129.137647,97.582185 L129.137647,95.711878 L131.52081,93.5338301 L131.52081,97.5821894 L133.749852,97.5821894 L133.749852,99.7089863 L131.52081,99.7089863 L131.52081,105.597742 C131.52081,106.541557 131.572061,107.122231 131.674549,107.344575 C131.781071,107.56651 132.041588,107.677697 132.45597,107.677697 C132.895857,107.677697 133.327179,107.592153 133.749852,107.421438 L133.749852,109.57363 C133.143432,109.795565 132.532846,109.906752 131.9264,109.906752 C131.200382,109.906752 130.611031,109.744314 130.162609,109.424148 C129.714325,109.103739 129.428195,108.702407 129.312749,108.215554 C129.197574,107.73295 129.137643,106.900318 129.137643,105.71317 L129.137643,99.7089819 L127.549207,99.7089819 L127.549207,99.7089819 Z M147.505206,107.575186 L147.505206,109.701713 L143.329003,109.701713 L143.329003,108.224066 C142.18018,109.34725 140.894696,109.906744 139.476972,109.906744 C138.375142,109.906744 137.418627,109.547982 136.607323,108.830512 C135.791623,108.113043 135.385896,107.199112 135.385896,106.080337 C135.385896,104.957127 135.817235,104.021993 136.679804,103.283157 C137.546742,102.540075 138.588667,102.168627 139.805809,102.168627 C140.941556,102.168627 142.039114,102.51043 143.098387,103.193607 L143.098387,101.989257 C143.098387,101.365985 143.038455,100.891823 142.923036,100.554318 C142.80359,100.221465 142.530266,99.9182265 142.099046,99.6490414 C141.671964,99.3801265 141.108252,99.2477362 140.412118,99.2477362 C139.21633,99.2477362 138.353774,99.7259312 137.81567,100.682432 L135.539662,100.080394 C136.551672,98.1928722 138.298247,97.2490402 140.779507,97.2490402 C141.689055,97.2490402 142.47901,97.3731531 143.140953,97.6164424 C143.807172,97.8640212 144.302462,98.1801857 144.6269,98.568831 C144.955994,98.9571794 145.173658,99.3758504 145.284721,99.8241615 C145.400029,100.272716 145.45553,100.989916 145.45553,101.976571 L145.45553,107.575177 L147.505206,107.575177 L147.505206,107.575186 Z M143.098383,105.213391 C142.073402,104.415026 141.031358,104.013587 139.980792,104.013587 C139.323227,104.013587 138.772414,104.205639 138.328162,104.585714 C137.888275,104.970062 137.666189,105.461213 137.666189,106.06766 C137.666189,106.635648 137.858511,107.105295 138.246996,107.489673 C138.635646,107.869749 139.165092,108.061801 139.831417,108.061801 C140.984511,108.061801 142.073402,107.579197 143.098383,106.618451 L143.098383,105.213391 L143.098383,105.213391 Z M150.93457,107.575186 L150.93457,94.4306473 L148.7824,94.4306473 L148.7824,92.3041074 L153.317613,92.3041074 L153.317613,107.575186 L155.18792,107.575186 L155.18792,109.701713 L148.7824,109.701713 L148.7824,107.575186 L150.93457,107.575186 L150.93457,107.575186 Z" id="Shape" fill-rule="nonzero"></path>
                        <path d="M21.5989558,59.3711473 C22.7315648,58.6319471 43.2985348,53.5243546 46.0475887,52.7139277 C46.6733729,52.5194831 47.5679524,52.2418832 48.1282881,51.8992423 C48.162705,51.8834053 48.2295272,51.8320347 48.2614361,51.804393 C48.2614361,51.804393 48.2317959,51.8340509 48.2335507,51.8355353 C48.1918444,51.8914523 48.1694847,51.9467091 48.1514011,52.0137927 C48.1210032,52.1474237 48.1315627,52.2567054 48.182056,52.3840752 C48.2285257,52.4855625 48.2810308,52.5558986 48.3699556,52.6219851 C48.4033711,52.6448234 48.5005868,52.6860423 48.4754753,52.6817706 C48.052927,52.6393066 47.3393523,52.7282359 46.9142872,52.7767263 C44.5130409,53.0583409 42.1435616,53.5657994 39.7576339,53.9455203 C35.0867694,54.7709955 28.6450778,56.1040976 24.0066229,56.1972986 C23.1234715,56.1791928 22.2517525,56.148303 21.3731208,56.0571183 C21.0508014,56.0196881 20.7438183,55.9754517 20.4280393,55.8988322 C20.2876108,55.8732067 20.1499474,55.8086488 20.017309,55.7634287 C19.833291,55.6817931 19.7061738,55.602413 19.5594575,55.4608546 C19.4509424,55.3487901 19.3833537,55.2495849 19.3197973,55.1061344 C19.2469487,54.9254974 19.2240972,54.7755153 19.240169,54.581093 C19.2602689,54.4092564 19.3019618,54.283402 19.3866239,54.1326622 C19.4504329,54.0264115 19.5117293,53.9497787 19.5999186,53.8625953 C19.8672117,53.6162749 20.1300957,53.4926761 20.4629614,53.3580436 C21.4273806,52.98146 22.5228076,52.7362741 23.5329522,52.5137005 C30.2748384,51.0339042 37.0752781,49.816385 43.7760961,48.1532089 C44.9903407,47.8437089 46.2041023,47.5259358 47.3951098,47.1350306 C47.7113984,47.0297813 48.0428771,46.9172161 48.3445871,46.7750373 C48.390308,46.7531828 48.4777352,46.7026762 48.4591375,46.7144809 C48.4204489,46.7416218 48.3860319,46.7755514 48.3546326,46.8099639 C48.2445976,46.9353219 48.185561,47.053621 48.1373277,47.2134182 C48.1006552,47.3510816 48.0911061,47.4621047 48.1019181,47.6042968 C48.1172323,47.7550366 48.1496419,47.8680892 48.2162115,48.0037364 C48.3091599,48.1767075 48.4091405,48.2970361 48.5719287,48.4063001 C48.6322282,48.4434998 48.791241,48.5007595 48.7219108,48.4874394 C48.4227177,48.4392282 48.0551781,48.4384616 47.7525907,48.4362017 C45.9980969,48.4522957 44.1962471,48.6030045 42.4481519,48.7477002 C36.2730178,49.3800159 30.1394304,50.7324512 23.9704335,51.5501542 C23.1970645,51.6413389 22.43815,51.71596 21.6597516,51.748374 C21.0334711,51.7664532 20.4519012,51.775001 19.8478475,51.5840704 C19.5860845,51.4871118 19.4102332,51.3795893 19.2067491,51.1843737 C19.0469697,51.0185812 18.9517614,50.8685992 18.8668512,50.6538023 C18.7801818,50.40812 18.7568162,50.2066432 18.7859645,49.9480309 C18.8156002,49.7432927 18.8653446,49.5902842 18.9618158,49.4084153 C19.0308978,49.2848032 19.0982207,49.1901001 19.1916787,49.0843412 C19.3268252,48.93739 19.450938,48.8343829 19.6137262,48.7210776 C20.2888648,48.2754164 21.1085795,47.9713268 21.8651322,47.6929735 C21.9914828,47.6467652 22.1180904,47.6000296 22.2447202,47.5540517 C28.0785872,45.5710819 34.9367873,44.5310535 40.4722101,42.2650645 C40.8789301,42.0804217 41.4090098,41.8377571 41.7710015,41.5754802 C41.8943566,41.4827932 41.772517,41.5815243 41.7129753,41.6689381 C41.6014248,41.8448027 41.553701,42.0060754 41.5275748,42.2128164 C41.5017056,42.5527144 41.5700299,42.8191433 41.7541763,43.1060311 C41.8822906,43.286154 42.0084019,43.4082418 42.2018361,43.5137437 C42.2312369,43.5398833 42.3361052,43.5682561 42.3785603,43.5850901 C42.4031844,43.5913913 42.2496928,43.5743002 42.1362635,43.5732988 C41.5484235,43.5768127 40.9389682,43.6581957 40.3580319,43.7426185 C35.3028159,44.5421182 30.661206,45.7027189 25.50838,46.0323276 C24.8803359,46.0609708 24.2500497,46.0830779 23.6221208,46.0368563 C23.3395047,46.0112308 23.1126683,45.9763131 22.840337,45.8893779 C22.6127384,45.8104852 22.4522101,45.726089 22.2580226,45.5798911 C22.1025237,45.4550338 21.9967604,45.3414849 21.8832026,45.1764235 C21.7406383,44.9558661 21.6662831,44.7669517 21.6195519,44.5081886 C21.5823699,44.2525806 21.5914184,44.054117 21.6532245,43.8044157 C21.7037044,43.6215188 21.7640039,43.4820963 21.8626065,43.3210673 C21.9877119,43.1281249 22.1047792,42.9972501 22.2793764,42.8505382 C22.4848723,42.6849894 22.6695106,42.57608 22.9031445,42.4577675 C23.357092,42.2351939 23.8171945,42.0646024 24.2934974,41.8965411 C30.3258368,39.8887036 36.7685254,38.6684149 42.6925934,36.4761651 C42.9355194,36.3862388 43.1452737,36.2809894 43.3766432,36.1729529 C43.5517456,36.076238 43.3530383,36.1945504 43.2229079,36.355349 C43.1329683,36.4759169 43.074942,36.5844542 43.0194149,36.7248871 C42.9367646,36.9527338 42.9101377,37.1394991 42.9204402,37.3819244 C42.9410363,37.6492307 42.9995677,37.8492054 43.1289492,38.0838451 C43.227924,38.2506479 43.3243907,38.3694744 43.4703493,38.4960775 C43.7072489,38.681992 43.9418798,38.7513089 43.8903851,38.7415028 C42.9216942,38.608368 41.1746138,38.7430315 40.1786667,38.8063309 C36.7640056,39.0508787 33.3364143,39.4852493 29.9462532,39.7005292 C29.3915584,39.7244089 28.889506,39.7412207 28.3436159,39.6183929 C28.1014432,39.5545663 27.9258312,39.4792008 27.7120579,39.344298 C27.5203829,39.2169415 27.3878596,39.0920842 27.2449187,38.9104724 C27.0499779,38.6460463 26.9497402,38.4121688 26.8912088,38.0878464 C26.8459886,37.7735873 26.8638241,37.529394 26.9565244,37.2266825 C27.0248576,37.0250684 27.1004756,36.8733581 27.2233167,36.7000193 C27.3622386,36.5141048 27.4857133,36.390506 27.6688406,36.2513316 C28.3046747,35.8207496 28.9960226,35.6069674 29.72317,35.3811192 C33.4165522,34.2648479 38.1560069,33.1874912 41.6330811,31.8723797 C41.2552523,32.0359256 41.012827,32.2384172 40.7872402,32.5833312 C40.5794889,32.9347635 40.5026124,33.2425176 40.522207,33.6508684 C40.5596372,34.0518102 40.6759556,34.3419548 40.9251606,34.6590012 C41.19221,34.9669857 41.459246,35.1385787 41.8521408,35.2497347 C40.4968385,35.0325583 37.2496139,35.5514448 35.7286299,35.7207778 C35.1998176,35.7752901 34.68168,35.8227658 34.1493582,35.8262841 C33.8757773,35.8247687 33.6358689,35.8109611 33.3645567,35.7657277 C33.1794,35.7313107 33.026161,35.6888645 32.8496849,35.6212757 C32.5570101,35.5017048 32.3537874,35.3713174 32.1231668,35.1526388 C31.7810045,34.8014369 31.6099256,34.4540193 31.5360712,33.9689117 C31.4941168,33.5518936 31.542359,33.235986 31.7081515,32.8536242 C31.9040982,32.4529393 32.1033151,32.2153042 32.4326668,31.9238833 C32.9799394,31.4649152 33.5609953,31.121366 34.1807487,30.7731818 C34.2558616,30.7312318 34.3307263,30.6890293 34.4060873,30.6480808 C36.2119606,29.6927012 42.2211782,25.4316984 43.9368637,27.7770499 C45.4789534,29.9991703 38.0411995,32.9528515 36.2270311,33.9427677 C36.1597082,33.9796972 36.0785645,34.0201583 36.0150125,34.060349 C35.6721014,34.2520241 35.1988073,34.5142833 34.8971017,34.7594825 C34.8817654,34.7728027 35.0242012,34.6173038 35.1292157,34.4025069 C35.2623681,34.0955104 35.2940244,33.8322453 35.2605956,33.4986397 C35.1972963,33.0829863 35.0515859,32.7802793 34.7582951,32.4798277 C34.5924981,32.3225564 34.4447759,32.2195669 34.2345077,32.1331545 C34.1953184,32.107529 34.081765,32.0871766 34.0302703,32.0728551 C33.9594246,32.0610371 34.1500982,32.076369 34.1609014,32.0768697 C34.5505349,32.0776142 34.957379,32.0374367 35.3450051,31.9997362 C37.7723821,31.7452625 40.355772,31.2188298 42.7744816,31.6731584 C43.1980313,31.7924989 43.4856767,31.9746247 43.7735659,32.3079778 C44.0411249,32.6476453 44.1658448,32.9591438 44.2060356,33.3898631 C44.226902,33.8272204 44.1447435,34.1575691 43.9220414,34.5346579 C43.6823812,34.900168 43.4221204,35.1199677 43.020926,35.2937098 C39.3112149,36.6379651 34.6492704,37.6891778 30.7692293,38.819908 C30.5574544,38.8843329 29.5106419,39.3272335 29.810092,39.1217377 C29.9394647,39.0237643 30.0293999,38.9257777 30.1273776,38.7947699 C30.2371556,38.6392711 30.3032289,38.5056223 30.3642728,38.3244846 C30.4511904,38.0403841 30.4670185,37.8102642 30.4250641,37.5158434 C30.3698029,37.2113506 30.2760879,36.9896544 30.0929607,36.7414686 C29.9650902,36.5786671 29.8467644,36.4661152 29.6754285,36.3513344 C29.5287344,36.2591216 29.3988388,36.1955785 29.2316549,36.1518605 C28.9221638,36.083288 29.65006,36.1395551 29.786722,36.1345124 C33.1306659,35.973253 36.5807454,35.546185 39.9601077,35.331131 C41.361769,35.2504925 43.1435145,35.1312894 44.5238308,35.3544834 C44.9991322,35.4484553 45.3073782,35.5655093 45.6970072,35.8710036 C45.8763769,36.0267462 45.9945697,36.1684375 46.1161612,36.3739201 C46.2643796,36.6422412 46.3317025,36.8700879 46.3553207,37.1761937 C46.3671254,37.4598245 46.3349683,37.6761058 46.2377527,37.9424019 C46.1638894,38.1303148 46.085267,38.2709959 45.9654347,38.4325256 C45.6691218,38.7975483 45.4033309,38.9825677 44.9973774,39.2023718 C44.64692,39.3852687 44.2974729,39.5304651 43.9288122,39.6726571 C37.8909604,41.8269584 31.4687438,43.0233852 25.3551366,44.964405 C25.0205251,45.0797131 24.6597696,45.2040696 24.339976,45.3550532 C24.2505504,45.3987579 24.2575827,45.4047887 24.3364532,45.341219 C24.4467408,45.2477743 24.5213529,45.1548348 24.6007375,45.0329774 C24.6843893,44.8963155 24.7338767,44.7790178 24.7765888,44.6235056 C24.832107,44.3982954 24.839897,44.2189125 24.8062289,43.9890673 C24.7637738,43.754689 24.6977005,43.5840976 24.5683323,43.3846237 C24.47261,43.2454714 24.3821785,43.1459737 24.250546,43.0407244 C24.12895,42.9487819 24.0196683,42.883196 23.8759741,42.8339745 C23.7538818,42.7947719 23.7993546,42.816396 23.9051179,42.8266852 C24.3711316,42.8686485 24.9001876,42.8472946 25.367699,42.8297161 C30.3456752,42.5617717 35.0106373,41.4433646 39.9219154,40.7197267 C40.6784548,40.6164803 41.4125104,40.5338432 42.1772209,40.5411148 C42.4961327,40.5479166 42.7669397,40.5697579 43.0789522,40.6408473 C43.2736405,40.6890984 43.4266313,40.7437171 43.6065061,40.8354292 C43.887363,40.9879149 44.0692451,41.1479424 44.2560237,41.4096921 C44.4851333,41.7656663 44.5672785,42.0897582 44.5346207,42.5117791 C44.4964461,42.8209114 44.4168045,43.0429976 44.2517476,43.3047472 C44.0416167,43.6132591 43.8383719,43.7988989 43.5411861,44.0167001 C42.957857,44.4221573 42.3350949,44.7159666 41.6873365,45.003612 C35.8971786,47.2729555 29.1766286,48.2483064 23.1839925,50.171761 C23.0644083,50.2189708 22.9269975,50.2642042 22.8039038,50.3058928 C22.3341325,50.4747118 21.5911569,50.7347288 21.1648422,50.9937356 C21.1434972,51.0075432 21.2301666,50.9284068 21.2366893,50.9211441 C21.2927083,50.8578314 21.3329035,50.7980459 21.3741001,50.7239256 C21.4502189,50.5809891 21.4871528,50.4589058 21.5105184,50.2986168 C21.5348854,50.077789 21.5147767,49.9048313 21.4404304,49.6953341 C21.3710869,49.517954 21.2927083,49.3918516 21.1608187,49.2551896 C21.0437514,49.1426377 20.9314565,49.0589727 20.7789753,49.0027189 C20.6116628,48.9519819 21.3517493,49.0258142 21.5770968,49.0212988 C22.2766025,49.0022048 22.965695,48.9404165 23.6613101,48.8655429 C29.8756424,48.1354 36.014237,46.8278215 42.2527016,46.2905855 C44.0722583,46.1574375 45.9478429,46.022291 47.7726728,46.044633 C48.248856,46.052423 48.7183836,46.0677726 49.1866527,46.1584434 C49.4491645,46.2137135 49.6328058,46.27501 49.8648134,46.4180705 C50.0775897,46.5607766 50.2074631,46.7042271 50.3300561,46.9315598 C50.4064274,47.0878297 50.4443672,47.2182039 50.4619456,47.392039 C50.474508,47.5571003 50.4627034,47.6869737 50.4204964,47.8470013 C50.3539224,48.0663135 50.2697655,48.2176648 50.1192871,48.3889963 C50.0298615,48.4869697 49.9472023,48.5590738 49.8396886,48.6366814 C49.6756376,48.7505051 49.5227797,48.83164 49.3423997,48.9157792 C48.9404609,49.0956584 48.5350037,49.2330914 48.1162175,49.3672275 C46.8665412,49.7525893 45.5967696,50.0697553 44.3261116,50.3779969 C37.5839684,51.9301542 30.7333057,53.1146213 23.9412896,54.4446925 C23.0465817,54.630833 22.0246369,54.8403568 21.163597,55.1488421 C21.0548205,55.191049 20.8257065,55.3347433 20.9297062,55.2365262 C20.9734242,55.1933089 21.0048279,55.1498435 21.0364754,55.0968466 C21.0975193,54.9888145 21.1256662,54.8958839 21.1404796,54.7720147 C21.1522931,54.6217889 21.1349539,54.5042209 21.0784298,54.3645546 C21.0352258,54.2670687 20.9900057,54.1962363 20.9161424,54.1201264 C20.8834846,54.0884568 20.8247006,54.0362044 20.7814966,54.0188785 C20.8020927,54.0316713 20.8807195,54.0535391 20.9053391,54.0605714 C21.1321933,54.1206139 21.365322,54.1550308 21.5976974,54.185442 C22.4142748,54.2881744 23.2327355,54.3276341 24.0545948,54.357252 C28.4167126,54.3969687 35.0611306,53.1294436 39.5041484,52.4275362 C41.899869,52.0502214 44.3532526,51.6433729 46.7658073,51.4067214 C47.3616943,51.3489388 48.1237594,51.2690713 48.7143645,51.3667743 C48.8839368,51.3999328 49.0022581,51.4411383 49.1474634,51.540122 C49.2687979,51.6297913 49.3431619,51.7220174 49.4057213,51.8601682 C49.4702747,52.022593 49.4813349,52.1599994 49.44289,52.3300592 C49.4119914,52.4466257 49.371291,52.5292938 49.3007023,52.6257516 C49.2793485,52.6714725 49.1816277,52.7536088 49.1444502,52.7930685 C49.0658145,52.8782224 48.9060439,52.9628889 48.8085669,53.0291927 C48.0923468,53.425371 47.1891088,53.6924203 46.4058095,53.9216496 C45.4510591,54.1743773 40.6387603,55.321432 35.4954835,56.4985167 L35.4954835,74.2054983 C45.7924681,71.6310107 57.2897701,69.9804103 69.4905747,69.491031 L69.4905747,52.7938174 C62.5037463,54.3730891 55.7830943,55.8131775 54.8293587,55.7649574 C56.2556351,54.8340689 82.1608138,48.4007877 85.6228309,47.3802432 C86.4108893,47.1352877 87.5379815,46.7856146 88.2433762,46.3542749 C88.2871075,46.3341795 88.3712467,46.269245 88.4111938,46.2348015 C88.4111938,46.2348015 88.3737769,46.2717309 88.3757621,46.2737471 C88.3237799,46.3447168 88.2956242,46.4138033 88.2725289,46.4984698 C88.2345848,46.6667748 88.2481619,46.8044515 88.3112043,46.9647139 C88.3697578,47.0925844 88.4358045,47.1810263 88.5480994,47.264678 C88.5900627,47.2935782 88.712793,47.3448159 88.6806227,47.3392991 C88.1489301,47.2865326 87.250079,47.3985705 86.7143673,47.4593707 C83.6905849,47.8141042 80.7058942,48.4538156 77.7009753,48.9311199 C71.8177361,49.970909 63.7044537,51.6504229 57.8617864,51.7677339 C56.7502742,51.7443683 55.6517143,51.7059189 54.5449745,51.5911248 C54.1389989,51.5436448 53.7526401,51.4883924 53.35484,51.3919079 C53.1777258,51.3592635 53.0046396,51.2781286 52.8373272,51.221086 C52.6054569,51.1183536 52.4454294,51.0181071 52.2610436,50.8404833 C52.1241247,50.6988186 52.0389575,50.573948 51.9590855,50.3933376 C51.8671385,50.1662353 51.8384954,49.9766961 51.8585908,49.7320154 C51.8842163,49.515703 51.9364687,49.3567035 52.0432335,49.1677581 C52.1238765,49.0333693 52.2010056,48.9368937 52.3115325,48.8268587 C52.6481513,48.5168757 52.9795148,48.3611154 53.3986688,48.1917823 C54.6135559,47.7168709 55.9931144,47.4083767 57.265403,47.1282598 C65.7570017,45.2646173 74.3221093,43.7305568 82.7619695,41.6365507 C84.2915013,41.2459158 85.8202753,40.8462191 87.3201669,40.3532018 C87.7185918,40.2213256 88.136124,40.0791468 88.5159557,39.9002646 C88.5739952,39.8726229 88.683884,39.8088228 88.6602836,39.8236451 C88.6114121,39.8578183 88.5684651,39.9007653 88.5285181,39.9444877 C88.3903539,40.1019895 88.3157506,40.2512271 88.2544364,40.4527039 C88.2089726,40.6257813 88.1966539,40.765585 88.210488,40.9449502 C88.2300694,41.1343786 88.2705305,41.2770714 88.3541822,41.4478933 C88.4717503,41.6659515 88.597609,41.8166603 88.8022231,41.9545807 C88.8788425,42.0018304 89.0790653,42.0736642 88.9911374,42.0570827 C88.6146735,41.9967832 88.151447,41.9947848 87.7705873,41.9925116 C85.5605286,42.012607 83.2914022,42.2025361 81.0895013,42.3846619 C73.3118318,43.181401 65.5866939,44.8845286 57.8165573,45.9145115 C56.8422211,46.0293056 55.8865978,46.1230206 54.9059782,46.1639691 C54.1173969,46.1873214 53.3851138,46.1976416 52.6242983,45.9574762 C52.2942066,45.8351358 52.0723818,45.7002153 51.8168934,45.4537887 C51.6154166,45.2447789 51.4949551,45.0561215 51.388434,44.7852835 C51.2791567,44.4757967 51.2500217,44.2224486 51.2866941,43.8966152 C51.3236324,43.6388669 51.3864267,43.4466956 51.5080093,43.2168194 C51.5950687,43.0613205 51.6804796,42.9417496 51.7977995,42.8088497 C51.9676288,42.6237063 52.1241247,42.4939437 52.3291065,42.3510204 C53.1794938,41.7895504 54.2123659,41.4066922 55.1644753,41.0562303 C55.3238692,40.9977166 55.4836442,40.9391763 55.643171,40.8811501 C62.9904757,38.3838004 71.6285692,37.0734701 78.6008323,34.2198892 C79.1128105,33.9875138 79.7806643,33.6820417 80.2366281,33.3511789 C80.39187,33.2342313 80.238631,33.358969 80.1635225,33.4692477 C80.0238297,33.6908198 79.9628035,33.8933247 79.9306464,34.1538292 C79.8977316,34.5821379 79.9833996,34.9175205 80.2155313,35.2788919 C80.3770344,35.5057372 80.5350635,35.6597516 80.779248,35.7923679 C80.8161774,35.8255397 80.948324,35.8614544 81.0015779,35.8823075 C81.0332209,35.8906115 80.8395474,35.8692444 80.6963406,35.8672415 C79.9560016,35.8717702 79.1886767,35.9742633 78.4573862,36.08078 C72.0899212,37.0877739 66.2438597,38.5496106 59.7535802,38.9652373 C58.9627479,39.0009128 58.1687651,39.0287937 57.3779461,38.9702534 C57.0218478,38.9383667 56.7362052,38.8946354 56.3930459,38.7847333 C56.1061449,38.6852578 55.9041807,38.5789849 55.6597525,38.3948562 C55.4638058,38.2380988 55.3306578,38.0946483 55.1878321,37.886897 C55.0082143,37.6090577 54.9145082,37.3711478 54.8559856,37.0450574 C54.8090018,36.7236464 54.8203102,36.473174 54.8981926,36.1586579 C54.9617357,35.928281 55.0373581,35.7529437 55.1619629,35.5497077 C55.3191057,35.3070254 55.4665531,35.1415874 55.6866232,34.9569447 C55.9456388,34.7484489 56.1777616,34.6115432 56.4721823,34.4625626 C57.0439549,34.1822064 57.624129,33.9674095 58.223273,33.7558828 C65.8213203,31.2268857 73.9359809,29.690202 81.3978802,26.9285724 C81.7036049,26.8155331 81.9673841,26.6828902 82.2587739,26.5467423 C82.4793579,26.4246323 82.229661,26.5743707 82.0656011,26.7760912 C81.951804,26.9283198 81.8786896,27.0649818 81.8091113,27.2418478 C81.7048634,27.5287355 81.6712041,27.7639912 81.683997,28.0694899 C81.7101365,28.4061132 81.7839998,28.6580876 81.9472887,28.9535098 C82.0713882,29.1635211 82.1929709,29.3135164 82.3771129,29.472773 C82.6753046,29.7073019 82.9707268,29.7942239 82.9061689,29.7823926 C81.6862569,29.6143447 79.485477,29.7834074 78.2312942,29.8637889 C73.9307211,30.1715298 69.6126758,30.7184346 65.3430145,30.9899993 C64.6446255,31.0196572 64.0124427,31.0409933 63.324848,30.8862522 C63.0196373,30.8058706 62.7988229,30.7111586 62.5291325,30.5413382 C62.287722,30.3800522 62.1209058,30.2235518 61.9410355,29.9949208 C61.6953533,29.6615677 61.5692375,29.3665266 61.4951305,28.9585392 C61.4385931,28.5628749 61.461458,28.2553778 61.5772801,27.8738002 C61.6636925,27.6196899 61.7588919,27.42852 61.9136464,27.2109492 C62.0887532,26.9763139 62.2439951,26.820815 62.4748595,26.6452075 C63.2753739,26.1031016 64.1463396,25.8339031 65.0618962,25.5495279 C69.7139149,24.1432272 75.6835797,22.7862898 80.0630323,21.1298713 C79.5872301,21.3353671 79.2813548,21.5916221 78.997241,22.0252217 C78.7359788,22.4682332 78.6390069,22.8558637 78.6633606,23.3698537 C78.7103666,23.8753005 78.8575747,24.2404295 79.1713198,24.6391114 C79.507593,25.0282441 79.844717,25.2432848 80.3388731,25.3839791 C78.6317309,25.1101412 74.541426,25.7638108 72.6262754,25.9767156 C71.9603004,26.0463161 71.3074949,26.1055875 70.6370178,26.1098769 C70.2923475,26.1083747 69.9900171,26.09104 69.6488608,26.0335011 C69.4152269,25.9905408 69.2225239,25.937544 69.0002073,25.8520089 C68.6311699,25.7010254 68.3759518,25.5369655 68.0849121,25.2611247 C67.6543168,24.8195091 67.4385185,24.3818683 67.3453175,23.7705518 C67.2923206,23.2457542 67.3533778,22.847573 67.5623876,22.366254 C67.809058,21.8611884 68.060288,21.5617383 68.4746829,21.1952134 C69.1640102,20.6169093 69.8958014,20.1844175 70.6767079,19.7458195 C70.7711673,19.692796 70.8658793,19.6400562 70.9605647,19.5875334 C73.2347204,18.3845795 80.803872,13.0181175 82.9644611,15.9722995 C84.906726,18.7708452 75.5390081,22.491098 73.2535574,23.7376238 C73.1691478,23.7846031 73.0666591,23.834866 72.9872657,23.8855896 C72.5551816,24.1276472 71.958528,24.4574863 71.5788159,24.7662419 C71.5592345,24.7833064 71.7388302,24.5871293 71.8704893,24.316823 C72.0389317,23.9300565 72.0791225,23.5984449 72.0369155,23.1779261 C71.9567776,22.6551447 71.7732737,22.2732879 71.4044624,21.8945773 C71.1954526,21.6968715 71.0093254,21.5667411 70.7442878,21.4584785 C70.694796,21.4263215 70.5520987,21.400439 70.4875409,21.3826168 C70.3980887,21.3677812 70.6377667,21.3873892 70.6515743,21.3876196 C71.1419417,21.3886476 71.6546732,21.3384114 72.1426744,21.2901603 C75.2003598,20.969857 78.453859,20.3067623 81.5001164,20.879173 C82.0339448,21.0296425 82.396198,21.2587476 82.7589608,21.678553 C83.0962088,22.106361 83.2532232,22.4988792 83.3034595,23.0412686 C83.3300864,23.5921792 83.22684,24.0081959 82.945602,24.4831207 C82.644149,24.9435998 82.3163127,25.220185 81.8113712,25.439258 C77.138105,27.1320787 71.2665375,28.4566064 66.3796398,29.8809021 C66.1132241,29.9617844 64.7945943,30.5197229 65.1716698,30.2609908 C65.3347149,30.1373787 65.447998,30.0137799 65.5713531,29.8487451 C65.7092602,29.6530421 65.7926683,29.4845998 65.8698018,29.256496 C65.9790791,28.8987626 65.9991878,28.609101 65.9459073,28.2378037 C65.8765904,27.8547151 65.7587653,27.5754667 65.5278877,27.2624528 C65.3668587,27.0579717 65.2176344,26.9160233 65.0018493,26.7713409 C64.8172066,26.6552751 64.6534169,26.5751373 64.4432595,26.5201242 C64.053369,26.4336852 64.970193,26.5047879 65.1422689,26.4982563 C69.3534164,26.2952774 73.6994668,25.7570399 77.9554401,25.4859759 C79.7211093,25.384728 81.9653413,25.2347592 83.7036391,25.5156338 C84.3022957,25.6339462 84.6906751,25.7813981 85.1816629,26.1664099 C85.4075067,26.3626002 85.556248,26.5412254 85.7092433,26.7999708 C85.8961415,27.1381228 85.9810517,27.4247535 86.0104393,27.8099957 C86.0257623,28.1674588 85.9848138,28.439542 85.8624601,28.7756512 C85.7695295,29.012059 85.6707984,29.1894124 85.5193186,29.3924047 C85.1467629,29.8524939 84.8115177,30.0853833 84.3002839,30.3622255 C83.858655,30.5926025 83.4190113,30.7752157 82.9544067,30.9543372 C75.3495842,33.6682164 67.2601547,35.1746529 59.5606334,37.6201179 C59.1395829,37.7648269 58.684758,37.9215842 58.282057,38.1119875 C58.1695184,38.1670139 58.1780528,38.1745424 58.2770409,38.094409 C58.4162197,37.9768543 58.5104177,37.8595167 58.6103939,37.7060473 C58.7156699,37.5334529 58.7779678,37.3859878 58.8319794,37.1902848 C58.9017971,36.9065344 58.9116033,36.6806905 58.8691393,36.3910555 C58.8158854,36.0963777 58.7324773,35.8813238 58.5699595,35.6300937 C58.4491035,35.4547565 58.3353242,35.3291547 58.1692613,35.1967644 C58.0160179,35.0808183 57.878102,34.9984249 57.6974739,34.9358656 C57.5432334,34.8871448 57.6012597,34.913754 57.7339026,34.9270608 C58.3209982,34.9798406 58.9875802,34.9532003 59.5764483,34.9310888 C65.8459133,34.5934507 71.7212384,33.1847705 77.9079556,32.2738444 C78.8603043,32.143457 79.7851753,32.0392224 80.7480835,32.0487539 C81.150009,32.0575587 81.4907887,32.0846686 81.8839671,32.1743689 C82.1293923,32.2349254 82.3220821,32.3037416 82.5484267,32.4192934 C82.9021454,32.6112387 83.131871,32.8124585 83.36675,33.1423065 C83.6546657,33.5908613 83.7583996,33.9993317 83.7177081,34.5304039 C83.669457,34.9197937 83.5687408,35.1997599 83.3607324,35.5298516 C83.0966963,35.9179874 82.8403172,36.1513642 82.4660333,36.4257028 C81.7312156,36.9369367 80.9470478,37.3070818 80.1315915,37.6693483 C72.8387814,40.5273028 64.3739337,41.7556253 56.8268804,44.1782476 C56.6756532,44.238033 56.5023188,44.2948141 56.3475599,44.347554 C55.7554482,44.5599714 54.8202925,44.8877943 54.2831894,45.2133707 C54.256301,45.2314632 54.3650776,45.1317351 54.3733728,45.1224429 C54.4439703,45.0422918 54.4944547,44.9674315 54.5469641,44.8739735 C54.6421591,44.6938506 54.688651,44.5401197 54.7182912,44.3377523 C54.7491987,44.0601833 54.7235732,43.8420984 54.6303722,43.5780889 C54.5426969,43.3547442 54.4439658,43.1962454 54.2776549,43.0239081 C54.1304379,42.881973 53.988751,42.7769408 53.7965708,42.7063654 C53.5860544,42.6418076 54.518064,42.7350086 54.801943,42.729474 C55.6830959,42.7055944 56.5510484,42.6277298 57.427655,42.5334077 C65.2540498,41.6137035 72.9864991,39.9663334 80.8427955,39.2903085 C83.1351412,39.1222473 85.4974374,38.9519261 87.7961951,38.9805825 C88.3953656,38.990114 88.9871006,39.0097086 89.5769436,39.1235057 C89.9075493,39.1931062 90.1386707,39.2704746 90.4303308,39.4505975 C90.6987582,39.6307205 90.8625479,39.8111049 91.0172934,40.0972216 C91.1132639,40.294183 91.160744,40.4584733 91.1828422,40.6770412 C91.1989363,40.8851603 91.184371,41.0489765 91.1305898,41.249926 C91.0467076,41.5267682 90.9406872,41.7172069 90.7520299,41.932992 C90.6384765,42.0563471 90.5344723,42.1467742 90.3994189,42.2449912 C90.1921949,42.3884417 90.0002362,42.4902037 89.7726332,42.5963304 C89.2669605,42.822932 88.7562274,42.9962708 88.2283058,43.1648328 C86.6545553,43.6506849 85.055299,44.0498631 83.4551874,44.4379988 C74.962698,46.3932028 66.3342867,47.884941 57.7798627,49.5599262 C56.6527706,49.7945615 55.366054,50.0584735 54.2811777,50.4473404 C54.144272,50.5005943 53.8561214,50.6809875 53.9867525,50.5578894 C54.0417656,50.5033771 54.0817082,50.4483418 54.1214116,50.3815241 C54.1980311,50.2458636 54.2331969,50.1282956 54.2520338,49.9729164 C54.2671043,49.7832575 54.2452541,49.6355486 54.174147,49.4589396 C54.1199005,49.3365992 54.0623661,49.2468989 53.9694222,49.1511855 C53.9284604,49.1117657 53.8546148,49.0459228 53.7998366,49.024086 C53.8259717,49.039666 53.9254516,49.0677907 53.955845,49.0760947 C54.2417313,49.1522002 54.5351506,49.1951649 54.8280781,49.2335965 C55.8566607,49.3629825 56.8874014,49.4129794 57.9222941,49.4501393 C63.4167905,49.4999014 71.7857874,47.9035254 77.3815317,47.0194965 C80.3988934,46.5436944 83.4885985,46.0321105 86.5276907,45.7334048 C87.2784385,45.6613007 88.2375758,45.5608238 88.9823238,45.6834123 C89.1951046,45.7251185 89.3450733,45.777114 89.5269422,45.9017143 C89.6801856,46.0150106 89.7736391,46.1310897 89.8527888,46.3053059 C89.9344244,46.5095433 89.9482319,46.6826207 89.8992541,46.8971606 C89.8603085,47.043128 89.8095715,47.1481469 89.7206422,47.2694593 C89.6935013,47.3269981 89.5706602,47.4300008 89.5236941,47.4804986 C89.424449,47.5870196 89.2229855,47.69378 89.1006451,47.7774185 C88.1983998,48.2767236 87.0613817,48.6133468 86.0739957,48.9009923 C84.8712722,49.2197934 78.8103029,50.6644149 72.3325858,52.1474592 L72.3325858,69.3986277 C73.9241629,69.3586673 75.5261622,69.3373268 77.1391064,69.3373268 C90.1037353,69.3373268 102.41874,70.6445153 113.526028,72.9932655 L113.526028,47.4807423 C104.726555,49.4700131 96.2613131,51.2841461 95.0603709,51.2231067 C96.8569387,50.050945 129.484435,41.947832 133.845047,40.6622233 C134.837329,40.353738 136.257096,39.913855 137.145764,39.3702204 C137.20029,39.3448519 137.307037,39.2634556 137.356804,39.2197509 C137.356804,39.2197509 137.310068,39.2667169 137.312829,39.2692294 C137.247513,39.3579106 137.211598,39.445094 137.182698,39.5516018 C137.134975,39.7636292 137.151556,39.9374643 137.231419,40.1394418 C137.305052,40.2999834 137.388176,40.4112768 137.529624,40.5170402 C137.582634,40.5534556 137.736631,40.6180134 137.696684,40.6109723 C137.026681,40.5446686 135.894843,40.6853363 135.22032,40.762102 C131.411373,41.2087515 127.652157,42.0146453 123.866983,42.6159384 C116.457606,43.9260338 106.238243,46.0403924 98.8793636,46.1883583 C97.4792045,46.1589751 96.0960168,46.110724 94.7021323,45.9662854 C94.1902781,45.9064999 93.703912,45.8366557 93.2024844,45.7150686 C92.9801678,45.6743771 92.7620962,45.5718751 92.551602,45.5000147 C92.2590468,45.3706553 92.0575833,45.2445263 91.8252079,45.0202112 C91.6528705,44.8426008 91.5458532,44.6850724 91.4451059,44.4574694 C91.3293104,44.1709583 91.2931343,43.9325654 91.3184895,43.6245808 C91.3506465,43.3520013 91.4162191,43.1515216 91.5511218,42.9138731 C91.6526224,42.7445533 91.7495854,42.6232144 91.8890036,42.4849262 C92.3130673,42.0942913 92.7307102,41.8980743 93.2582508,41.6845492 C94.7882832,41.0864066 96.5263374,40.6981646 98.1284607,40.3446895 C108.823883,37.9979556 119.611098,36.065971 130.241586,33.4280732 C132.168041,32.9363144 134.093485,32.4326268 135.98301,31.8121157 C136.484681,31.6455699 137.010614,31.466701 137.489433,31.2409768 C137.561537,31.2063294 137.700446,31.1256687 137.670815,31.1447759 C137.609243,31.1877229 137.55525,31.2417478 137.504739,31.2970046 C137.330673,31.4958581 137.236958,31.6832438 137.160068,31.936973 C137.102543,32.1553016 137.086719,32.3311396 137.104071,32.5567397 C137.129183,32.7953896 137.179676,32.975003 137.28544,33.1903006 C137.433392,33.4647456 137.591421,33.6554325 137.849927,33.8285143 C137.945641,33.888056 138.197859,33.9789971 138.08758,33.9579002 C137.613294,33.8817682 137.030199,33.879752 136.550001,33.8767476 C133.766655,33.9021161 130.90831,34.1410098 128.134752,34.3706423 C118.339465,35.374109 108.608834,37.5196188 98.8223255,38.8161548 C97.5955318,38.9609834 96.391696,39.0795662 95.156842,39.1308172 C94.1631416,39.160187 93.2411774,39.1732501 92.2824035,38.870162 C91.8671712,38.7166926 91.5877987,38.5460878 91.265754,38.2358433 C91.0120248,37.9728352 90.8607975,37.7351734 90.7263955,37.3942608 C90.5887188,37.0045033 90.5520464,36.6854718 90.598011,36.2747149 C90.6444896,35.9496658 90.723883,35.707728 90.8771087,35.4183366 C90.9863993,35.2228774 91.0936648,35.0720312 91.2418744,34.90471 C91.4559269,34.6710761 91.6526313,34.5080442 91.9111063,34.3284309 C92.981927,33.6210066 94.2826017,33.138797 95.4824184,32.6974074 C95.6831374,32.6240581 95.8838565,32.550186 96.0849566,32.4768234 C105.339139,29.3311038 116.219187,27.6807427 125.00058,24.0869689 C125.645445,23.7941567 126.486394,23.4093089 127.06094,22.9927782 C127.256386,22.8455834 127.063958,23.0023407 126.968741,23.1412581 C126.792646,23.4201122 126.716026,23.6753303 126.675565,24.0031665 C126.634129,24.5429061 126.742139,24.9652106 127.034313,25.4206604 C127.238037,25.7062897 127.436997,25.9003708 127.744618,26.0674306 C127.791096,26.1093806 127.957412,26.1543438 128.024717,26.1804567 C128.06442,26.1912599 127.82075,26.16415 127.640113,26.1618901 C126.707722,26.1674069 125.741296,26.2965358 124.819713,26.4304283 C116.799875,27.6983211 109.437234,29.5401224 101.262274,30.0635243 C100.266207,30.1087444 99.2657269,30.1436488 98.2701742,30.0700558 C97.8218631,30.029865 97.4616127,29.9743424 97.0295153,29.836422 C96.6685339,29.711064 96.4138032,29.5772823 96.1060667,29.3449069 C95.8592324,29.147201 95.6914282,28.9668344 95.5118059,28.7053284 C95.2852177,28.3553717 95.1673794,28.0556779 95.0935426,27.644797 C95.0342313,27.2401108 95.0488232,26.9250674 95.1470403,26.5286453 C95.2269344,26.2387533 95.3221338,26.0174381 95.4788912,25.7615597 C95.677368,25.4555913 95.8624938,25.2480704 96.1397127,25.0152032 C96.465803,24.7529395 96.7584779,24.5801058 97.1297751,24.3924322 C97.8497485,24.0392141 98.5799135,23.7687838 99.3348178,23.5019915 C108.904513,20.3170825 119.125011,18.3810788 128.523145,14.9033576 C128.908506,14.7606649 129.240858,14.5939817 129.60803,14.4226325 C129.886126,14.2684186 129.5711,14.4568323 129.364226,14.711563 C129.22102,14.9031006 129.129591,15.0749373 129.041663,15.2982686 C128.910274,15.6595204 128.868072,15.9554655 128.884135,16.3398125 C128.91705,16.7642573 129.010508,17.0817733 129.215241,17.4535846 C129.372012,17.718374 129.525105,17.9070181 129.756997,18.1079986 C130.132566,18.4029334 130.504865,18.5123347 130.42373,18.4972687 C128.886639,18.2861231 126.114866,18.4992849 124.535085,18.6000012 C119.117979,18.9876494 113.680538,19.676733 108.302609,20.0183901 C107.422608,20.0560773 106.626378,20.0829346 105.760429,19.8882597 C105.375825,19.7870117 105.097347,19.667175 104.75795,19.4536365 C104.453971,19.2506576 104.243947,19.0532087 104.01711,18.765324 C103.708111,18.3451686 103.549355,17.974115 103.456004,17.4601206 C103.384914,16.9614624 103.41307,16.5741952 103.559888,16.093634 C103.668164,15.7735745 103.787992,15.5334091 103.98295,15.25884 C104.203508,14.9636615 104.399211,14.7677016 104.690118,14.5462668 C105.698383,13.8632007 106.795197,13.5243175 107.948389,13.166593 C113.807651,11.3951234 121.326292,9.68596497 126.842368,7.59999251 C126.242967,7.85875113 125.85862,8.18081356 125.500262,8.72721765 C125.171167,9.28502316 125.04857,9.77364469 125.079725,10.420796 C125.13901,11.0577379 125.32391,11.5177163 125.719317,12.0201454 C126.142747,12.5097684 126.567298,12.7808324 127.189808,12.9578092 C125.039778,12.6135289 119.888211,13.4361415 117.475647,13.7046931 C116.636821,13.7916195 115.814469,13.8669672 114.970383,13.8719966 C114.535663,13.8699937 114.155317,13.8481436 113.725493,13.7760395 C113.431573,13.7212568 113.18839,13.6546872 112.908277,13.5474217 C112.443916,13.3577629 112.122098,13.1505123 111.75583,12.8034314 C111.213197,12.2465033 110.941632,11.6958275 110.824197,10.9254806 C110.75761,10.2645084 110.833972,9.76310735 111.097645,9.15679374 C111.408386,8.52020632 111.72443,8.14363155 112.246441,7.68190726 C113.114788,6.95299626 114.03649,6.40860836 115.020376,5.85593859 C115.139446,5.78959499 115.258272,5.72303427 115.377866,5.65723129 C118.241851,4.1420211 127.775507,-2.61774488 130.49657,1.10329226 C132.94328,4.62832955 121.144414,9.31415372 118.265974,10.8842706 C118.159697,10.9433116 118.030337,11.006868 117.929852,11.0707922 C117.38596,11.3755287 116.634831,11.7912928 116.156623,12.1796678 C116.131768,12.201035 116.358113,11.9543247 116.524025,11.6136824 C116.736323,11.1268333 116.786315,10.7086764 116.733035,10.17935 C116.632815,9.52090804 116.401304,9.04020945 115.936566,8.56291844 C115.673802,8.313935 115.438909,8.15038909 115.105299,8.01401074 C115.042984,7.97303564 114.863118,7.94063487 114.781726,7.91828401 C114.669174,7.89943378 114.971154,7.92381412 114.988489,7.92407112 C115.6062,7.92557329 116.252093,7.86201248 116.866453,7.80147373 C120.718082,7.39827644 124.815689,6.5635888 128.652752,7.2835887 C129.324257,7.47338047 129.78136,7.76202739 130.237811,8.2905694 C130.662362,8.8299545 130.860325,9.32423022 130.923881,10.0072874 C130.956796,10.7006338 130.826666,11.2253074 130.473448,11.8231796 C130.093359,12.4032429 129.680613,12.7517018 129.044415,13.027649 C123.158539,15.1600868 115.762984,16.8278092 109.60806,18.6216164 C109.272177,18.7238614 107.611757,19.4265133 108.086562,19.1004229 C108.29204,18.94441 108.434237,18.7894384 108.590006,18.5816738 C108.763841,18.3348395 108.868833,18.1225728 108.965805,17.835428 C109.103358,17.3844937 109.129227,17.019985 109.0619,16.5523495 C108.974597,16.0695018 108.825372,15.7183 108.534736,15.323903 C108.332258,15.0658844 108.144345,14.8875472 107.872505,14.7055144 C107.639899,14.5593166 107.434146,14.457816 107.168746,14.3884991 C106.678108,14.2797093 107.832571,14.3691482 108.049881,14.3613581 C113.353677,14.1053557 118.827551,13.4280901 124.187884,13.08669 C126.41179,12.9590765 129.238097,12.7702685 131.427941,13.1236061 C132.18184,13.2725868 132.671223,13.458488 133.289337,13.9433341 C133.574195,14.1905185 133.761382,14.4156223 133.954054,14.740955 C134.188946,15.1666272 134.295954,15.5281227 134.333642,16.0129733 C134.352465,16.4639209 134.300984,16.8066991 134.146974,17.2294911 C134.029419,17.5274257 133.905563,17.7507704 133.714646,18.0065158 C133.245118,18.5859455 132.822947,18.8793647 132.17934,19.2280364 C131.6229,19.5179551 131.068843,19.748301 130.48426,19.9739188 C120.90599,23.3917039 110.717162,25.2892627 101.019321,28.3691793 C100.488519,28.5518191 99.9164896,28.7487806 99.4084063,28.988689 C99.267229,29.0582629 99.2777619,29.0675683 99.4028895,28.9665774 C99.5779698,28.8180975 99.6968095,28.6708982 99.8222739,28.4776988 C99.9549345,28.2604116 100.033814,28.0745148 100.101385,27.8283009 C100.189809,27.4707137 100.201631,27.1863163 100.148364,26.8215506 C100.081547,26.4502534 99.9760402,26.1794419 99.7715502,25.8630337 C99.619162,25.6417185 99.4762388,25.4837027 99.266972,25.3168866 C99.0737993,25.1714465 98.9004472,25.0674423 98.6726004,24.9885629 C98.4789137,24.927262 98.5512615,24.9606775 98.7185517,24.9777464 C99.4578893,25.0443205 100.297593,25.0104175 101.03943,24.9822751 C108.936169,24.5572232 116.336254,22.7830063 124.127842,21.6355661 C125.327645,21.4712758 126.492682,21.3398869 127.705659,21.3519663 C128.21162,21.3627562 128.640456,21.3974302 129.135852,21.5099688 C129.445095,21.586832 129.687897,21.673271 129.972782,21.8187244 C130.418444,22.0603787 130.707587,22.314232 131.003266,22.7297613 C131.366397,23.2942313 131.496771,23.8084827 131.445276,24.478109 C131.384733,24.9689638 131.25824,25.3206664 130.995733,25.7361824 C130.663368,26.225925 130.341049,26.5198583 129.869279,26.8652775 C128.943663,27.5091542 127.95563,27.9750172 126.928541,28.4309854 C117.743193,32.0309096 107.081318,33.5780242 97.5756668,36.6296788 C97.385237,36.7050398 97.1674401,36.7763907 96.9722468,36.8422158 C96.2266214,37.110373 95.0488055,37.5228757 94.3720273,37.9333623 C94.3383681,37.9559879 94.4755307,37.8298588 94.4858066,37.8185549 C94.5747581,37.7175639 94.6385493,37.623623 94.7041352,37.5055542 C94.8247208,37.2789527 94.8832611,37.0852748 94.920678,36.8304112 C94.9596103,36.4804545 94.9269658,36.2058721 94.8093845,35.8737598 C94.6991191,35.5924021 94.5747625,35.3926978 94.3652387,35.1756543 C94.1794749,34.9968962 94.0016074,34.8642622 93.7594258,34.7753373 C93.4941489,34.6941714 94.6687168,34.811509 95.0254399,34.8044634 C96.1356936,34.7743226 97.2284796,34.6765929 98.3324455,34.5577665 C108.190544,33.3994079 117.929089,31.3243627 127.824756,30.4729917 C130.711593,30.2612213 133.687018,30.0469251 136.582389,30.0828575 C137.337182,30.0951629 138.082294,30.1195299 138.825265,30.2627234 C139.242039,30.3506513 139.53319,30.4481372 139.900468,30.6747255 C140.237836,30.9013137 140.44436,31.1289168 140.638924,31.4893044 C140.760506,31.7374903 140.820292,31.9444839 140.848434,32.2195802 C140.86853,32.4818572 140.849937,32.6878494 140.782104,32.9415653 C140.677098,33.2900243 140.543073,33.5297953 140.305181,33.8018652 C140.162488,33.957107 140.031343,34.0711744 139.861035,34.1945162 C139.600761,34.3753836 139.358579,34.5037726 139.072206,34.6371732 C138.434479,34.9225322 137.791631,35.1406037 137.126896,35.3532515 C135.144441,35.9647008 133.130426,36.4679009 131.115042,36.9567529 C120.418631,39.4194331 109.551009,41.2979245 98.7765869,43.4082507 C97.3570901,43.7036862 95.7353721,44.0355371 94.3697629,44.5252797 C94.1971553,44.5926247 93.8337854,44.8199574 93.9985721,44.6649593 C94.0681726,44.5961298 94.1181695,44.5268084 94.1681621,44.4427667 C94.2652581,44.2711738 94.3094502,44.1237219 94.3328158,43.928276 C94.351923,43.6891253 94.3247688,43.5029538 94.2348425,43.2808942 C94.1666466,43.1266538 94.0945558,43.0135879 93.9772182,42.8932592 C93.9254798,42.843023 93.8327663,42.7603682 93.7634493,42.732988 C93.7960938,42.7528396 93.9212081,42.788001 93.9598967,42.798791 C94.320023,42.8945044 94.6898092,42.9485293 95.0585762,42.9970108 C96.353486,43.1598123 97.6525345,43.2225976 98.9557217,43.2693333 C105.87622,43.3323756 116.41687,41.3215382 123.464995,40.2082536 C127.265669,39.6091096 131.157245,38.9644885 134.984785,38.5882948 C135.929982,38.4970967 137.13871,38.3707505 138.076006,38.5252524 C138.344558,38.578236 138.532971,38.6433211 138.76244,38.7998215 C138.955369,38.9428953 139.073207,39.0893591 139.172669,39.3086758 C139.275428,39.5658923 139.293011,39.7839639 139.231967,40.0535302 C139.182489,40.2379159 139.118671,40.3700447 139.00638,40.5230312 C138.97195,40.5951353 138.817222,40.7252657 138.758425,40.7884454 C138.633204,40.9233615 138.379701,41.0577679 138.225217,41.1627603 C137.089471,41.7915754 135.65641,42.2153688 134.413265,42.5778746 C132.898795,42.9791798 125.264346,44.7991309 117.10583,46.6665444 L117.10583,73.7961328 C129.717024,76.78938 140.610516,81.1540147 148.903181,86.474902 C130.80455,78.454076 105.256094,73.4532483 76.9345854,73.4532483 C49.2938695,73.4532483 24.2954604,78.2164275 6.28449558,85.9011265 C13.5627448,81.3939231 22.7342679,77.6028246 33.2391323,74.7895763 L33.2391323,57.0119928 C27.6922106,58.2656926 22.3560004,59.4096055 21.5989558,59.3711473 L21.5989558,59.3711473 Z M77.2006687,75.1877397 C102.655937,75.1877397 125.216675,79.163481 139.209935,85.2868988 C123.571317,80.5601261 101.495673,77.6133664 77.024073,77.6133664 C53.1413148,77.6133664 31.5406043,80.4201896 15.9781221,84.9488797 C30.0218624,79.0177839 52.2170819,75.1877397 77.2006687,75.1877397 L77.2006687,75.1877397 Z" id="Shape" fill-rule="nonzero"></path>
                        <path d="M103.592329,63.0204437 C103.748222,62.2961987 103.198432,62.0071619 102.805905,61.7310906 L102.950721,61.0614511 C103.083882,61.1414781 103.161516,61.2626841 103.188507,61.4504774 L103.941514,61.202265 C103.842296,60.7248278 103.534812,60.4199938 103.119797,60.273149 L103.214877,59.8317505 L102.868841,59.7577676 L102.775264,60.1883628 C102.239286,60.1249394 101.681711,60.3524095 101.542922,60.9970306 C101.400105,61.6611268 101.863345,62.0148455 102.257011,62.2813676 C102.275214,62.2950643 102.29846,62.3061157 102.315901,62.3196795 L102.168556,63.0038711 C101.955031,62.9164572 101.841234,62.7471242 101.787603,62.4861323 L101.018125,62.7359532 C101.094368,63.2503243 101.448463,63.6272713 102.000264,63.78729 L101.907294,64.2181423 L102.255115,64.2932463 L102.348448,63.8571209 C102.953127,63.9151472 103.458937,63.6394526 103.592329,63.0204437 L103.592329,63.0204437 Z M109.58913,68.1148667 C109.242838,68.2942497 108.816771,68.1592095 108.637131,67.812913 C108.457523,67.4666076 108.592669,67.040284 108.939112,66.8606707 C109.285404,66.6812877 109.71147,66.8164652 109.891097,67.1626244 C110.070693,67.5089342 109.93544,67.9352534 109.58913,68.1148667 L109.58913,68.1148667 Z M111.635656,67.5757475 L108.531142,70.5328097 L107.979842,69.9638067 L111.022191,66.9993355 L111.635656,67.5757475 L111.635656,67.5757475 Z M110.753883,70.9953051 C110.407577,71.1746747 109.981657,71.0396479 109.802035,70.6933513 C109.622413,70.3470548 109.757692,69.9207223 110.104002,69.7411223 C110.450294,69.5617393 110.876228,69.6969035 111.055863,70.043076 C111.235472,70.3893725 111.100436,70.8157094 110.753883,70.9953051 L110.753883,70.9953051 Z M105.13406,65.7809522 L105.791744,66.3967972 L106.00842,64.0108739 L110.152359,62.8910843 L110.379843,63.6494892 L106.902108,64.7027314 L106.571378,68.436424 L104.792145,66.6654684 L105.13406,65.7809522 L105.13406,65.7809522 Z M101.888457,69.0978703 L101.162333,68.290594 L100.140003,68.9808031 L99.7012407,68.2113246 L100.531763,67.4024264 L99.8541031,66.5816837 L100.543958,65.9529085 L101.349342,66.9124091 C102.071841,66.3869911 102.109666,66.3848685 102.124607,66.3838671 C102.146338,66.3832467 102.184393,66.3809735 102.765591,66.9890286 L102.799383,67.0240792 L101.955026,67.6361666 L102.662207,68.4165856 L101.888457,69.0978703 L101.888457,69.0978703 Z M102.335,61.1731256 C102.360506,61.0538117 102.455342,60.9750431 102.606201,60.9716621 L102.495027,61.4917937 C102.342528,61.3556414 102.315161,61.2669602 102.335,61.1731256 L102.335,61.1731256 Z M102.518273,63.0688011 L102.632691,62.53811 C102.764957,62.6446311 102.823378,62.7359488 102.796751,62.8590469 C102.774262,62.9636759 102.696247,63.0606345 102.518273,63.0688011 L102.518273,63.0688011 Z" id="Shape" fill-rule="nonzero"></path>
                        <path d="M86.6324703,62.2462062 L86.6324703,62.2470703 C86.6565936,62.9895451 86.7536763,63.7337747 86.8334464,64.478372 L87.6208711,64.5463374 L87.4932709,66.0246315 L88.1986789,66.0854051 L88.0129151,68.2385852 C87.6619703,68.2839295 87.3757029,68.569705 87.3440333,68.9359595 L87.2778403,69.7034351 L89.9946264,69.9378134 L90.0608193,69.1703378 C90.0972347,68.7481928 89.7820849,68.3736121 89.3599133,68.3371789 L89.2173535,68.3248736 L89.2379629,68.0866003 L89.2457529,68.0872206 C89.471096,68.1066957 89.6713188,67.9382533 89.6907894,67.7129191 L89.7030948,67.5695882 L89.2856956,67.5335361 L89.2383396,67.5295348 L89.2449775,67.4525209 L89.2922271,67.4565488 L89.7097327,67.4926009 L89.7539647,66.9806093 L89.3364325,66.9445573 L89.2892095,66.9405559 L89.2958607,66.8635553 L89.343097,66.8676808 L89.7606159,66.9036132 L89.7662568,66.8384173 C89.7844866,66.6271476 89.6270912,66.4400057 89.4158259,66.4217758 L89.3817768,66.4188955 L89.4016285,66.1892763 L90.0652239,66.2464252 L90.1927044,64.7681445 L91.1058771,64.8469131 C91.0951935,64.10832 91.0830255,63.3691331 91.0828882,62.6309166 L91.0830255,62.6301721 L92.0067444,62.709796 L92.0098684,62.4452768 C92.1805662,62.5190028 92.3257892,62.5725137 92.4492551,62.6107148 C92.4452404,62.8527591 92.5023982,63.0894105 92.6418208,63.2887382 L92.4486214,63.5159513 L95.7300281,65.3607702 L95.9647698,64.6514671 L97.5171841,64.1196239 L98.5185284,64.5082736 C98.1655541,64.1024265 98.1072841,62.5023149 98.1072841,62.5023149 L97.3747351,63.5596826 L96.2759182,63.7128019 L96.7062565,62.4132394 L94.4598621,61.1503759 L94.1262387,61.5426592 C93.8296954,61.3227089 93.424482,61.1213694 93.0960121,61.3208433 L93.0496575,61.2967067 L93.2002599,61.1479964 L92.632635,60.903422 L92.4349291,61.0296574 C92.2427534,60.9579476 92.1029408,60.9136181 92.1029408,60.9136181 L92.0995598,60.9212575 C92.1359886,60.5766005 92.1846074,60.2329272 92.2483942,59.8897724 C92.4218793,58.9596416 92.5351756,58.0199749 92.6683059,57.0839506 L90.2381772,56.8743072 L90.2526184,56.6559919 L90.3090229,56.1859769 C90.5280781,56.2544298 90.7477715,56.3218811 90.9695874,56.386563 C90.9911982,56.3876974 91.0096541,56.3967326 91.0370388,56.4030204 C91.1110217,56.421237 91.220166,56.4140807 91.2851005,56.3866827 C91.3055726,56.3777716 91.3227877,56.3659669 91.3369763,56.3517783 L92.1810758,56.5737316 C92.2330712,56.5872954 92.285461,56.5949347 92.3369558,56.5962065 L90.7442576,54.3741924 L91.1582492,52.6983432 L93.9313068,52.6636559 L94.0747573,52.1192769 C94.1719596,51.7487241 93.9492796,51.3660121 93.5779691,51.2682825 L91.994439,50.851127 L92.1962836,50.0851625 C92.4741362,50.0106921 92.7053639,49.7937594 92.7841236,49.4957007 C92.9005838,49.0536641 92.6366718,48.6016087 92.1950384,48.4851617 C91.7528955,48.3687414 91.3000558,48.6326402 91.1841228,49.0744065 C91.1056245,49.3724652 91.2003232,49.6758236 91.4060894,49.8769237 L91.2045993,50.6432516 L89.3531558,50.1483555 C88.9831037,50.0491105 88.6001215,50.2742143 88.5025381,50.6447538 L87.4603428,54.6024291 C87.3622498,54.9729553 87.5878367,55.3492864 87.9562536,55.4537913 C88.2132442,55.5263961 88.4673501,55.60341 88.7203349,55.6813943 L88.6327881,55.9627519 L88.4455088,56.4187024 L88.4490227,56.7200579 L86.6230541,56.5625295 L86.5612391,56.7866319 L86.3316332,56.7667802 C85.9422568,56.733121 85.5525923,57.0032943 85.4518761,57.3813669 C85.2939711,57.975765 85.1437586,58.5726535 85.0309629,59.177434 C84.918411,59.7799988 84.8462006,60.389556 84.8036169,61.0012801 C84.7750979,61.4147843 85.1151154,61.7647144 85.5193275,61.7996454 L85.7131383,61.8163465 L85.7088667,62.1665336 L86.6324703,62.2462062 L86.6324703,62.2462062 Z M92.7272362,62.6767881 C92.8308637,62.6927448 92.9093753,62.6912426 92.9685094,62.6802888 C93.1436295,62.6477816 93.3601723,62.104147 93.4724672,61.8510249 C93.5360236,61.7073307 93.489412,61.5998081 93.3981032,61.5128994 C93.5745881,61.5068819 93.7779349,61.6211753 93.9497848,61.7505657 L92.8304959,63.0669223 C92.7647727,62.9487206 92.7326289,62.8153289 92.7272362,62.6767881 L92.7272362,62.6767881 Z M91.6521394,61.911218 L88.1584881,60.2834426 C87.6026722,60.0819658 87.4370038,59.8718482 87.7065523,59.4103499 L87.8170881,59.210495 L87.8219845,59.2125112 L88.2407618,58.4955422 C88.1851284,58.3742032 88.1591262,58.2374305 88.1714183,58.0952384 C88.1903926,57.8746544 88.2984247,57.6808569 88.4585631,57.5483469 L88.4658524,57.5423028 L88.4670975,57.5415584 L88.4733986,57.5366619 L88.497389,57.5186758 L88.5036503,57.5140496 L88.5111966,57.5083954 L88.5133324,57.5073674 L88.5191195,57.503242 L88.52714,57.4979556 L88.5291695,57.4969408 L88.5350673,57.4928154 L88.5590577,57.4778735 L88.5615747,57.476615 L88.5669718,57.4731011 L88.5752759,57.4683154 L88.5781561,57.4669506 L88.5951142,57.4577692 L88.6005247,57.4547516 L88.6123294,57.4490974 L88.6173322,57.4463235 L88.6258932,57.4423221 L88.6296508,57.440687 L88.6345473,57.4384271 L88.6431083,57.4344125 L88.6472337,57.4327774 L88.6517624,57.4303845 L88.6606868,57.4268706 L88.6648388,57.4252355 L88.6697353,57.4233567 L88.6782697,57.4197054 L88.6831662,57.4182165 L88.6871941,57.4165814 L88.7143218,57.4071563 L88.7195816,57.4056541 L88.7325251,57.4012451 L88.7378115,57.399743 L88.7418261,57.3984845 L88.7511316,57.3957106 L88.7567858,57.3942217 L88.7604105,57.393331 L88.7607871,57.3934507 L88.775729,57.3895557 L88.7788796,57.3886916 L88.7885617,57.3862855 L88.7945793,57.3849074 L88.7977298,57.3844199 L88.8073987,57.3825411 L88.8138106,57.3810124 L88.8165579,57.3805249 L88.82624,57.3786461 L88.8334052,57.3776314 L88.8357715,57.377011 L88.8457106,57.3754823 L88.8528625,57.3746182 L88.8553795,57.3739845 L88.8649109,57.3728634 L88.8724439,57.3719861 L88.8748501,57.371729 L88.8843815,57.370608 L88.8923045,57.3700939 L88.89417,57.3698635 L88.9041091,57.3692299 L88.9120055,57.3683392 L88.9136406,57.3684588 L88.9235797,57.3677144 L88.9322471,57.367351 L88.9333549,57.367351 L88.9436707,57.3670807 L88.9523381,57.3667174 L88.9534724,57.3667174 L88.963385,57.3668237 L88.9728101,57.3668237 L88.9735678,57.3669744 L88.9833563,57.3669744 L88.9927681,57.367351 L88.9935126,57.3674574 L89.0034517,57.3674574 L89.0136212,57.3683348 L89.0339869,57.3697129 L89.0527042,57.371729 L89.0541931,57.3718664 L89.0709075,57.3737452 L89.0748025,57.374503 L89.0892304,57.3765059 L89.0946542,57.3773965 L89.1074603,57.3796564 L89.1256769,57.3831703 L89.1346013,57.3846725 L89.1433794,57.3866887 L89.153806,57.3891923 L89.1611086,57.3909648 L89.1734139,57.3943458 L89.1784167,57.3956042 L89.1922509,57.3994992 L89.1957648,57.4006203 L89.2114645,57.4055301 L89.2129799,57.4060308 L89.2301818,57.4119287 L89.2470158,57.4180836 L89.248518,57.4185976 L89.2633536,57.4246152 L89.2667213,57.4256432 L89.2800414,57.43116 L89.2849378,57.4335528 L89.295998,57.4384493 L89.3027733,57.4413429 L89.3121984,57.4461152 L89.3201214,57.4500102 L89.328031,57.4537546 L89.3374428,57.458908 L89.343487,57.462165 L89.354401,57.4682091 L89.3589163,57.4705886 L89.3712217,57.4774968 L89.3742526,57.4793756 L89.3876924,57.4876797 L89.3892079,57.4885438 L89.4037731,57.4981062 L89.4182144,57.5080188 L89.4197298,57.5088962 L89.4326733,57.5178205 L89.4356732,57.5200937 L89.4467334,57.5284908 L89.4507348,57.5316281 L89.4604169,57.5391744 L89.4659337,57.5435834 L89.473994,57.5501017 L89.4806319,57.5558888 L89.4871768,57.5615297 L89.4951972,57.5685753 L89.500364,57.5728336 L89.5228389,57.5945641 L89.5254887,57.5967132 L89.5366597,57.6082476 L89.5377808,57.6091383 L89.5497096,57.6215677 L89.5496032,57.6219444 L89.5611509,57.6347638 L89.5625422,57.6361286 L89.5725877,57.6475699 L89.5750913,57.6505875 L89.5836391,57.6611337 L89.587153,57.6654053 L89.5946993,57.6747108 L89.598838,57.6805954 L89.6048689,57.6885317 L89.6101287,57.6956836 L89.6154151,57.7028355 L89.6214326,57.7116403 L89.6252168,57.7170241 L89.6322491,57.727464 L89.6346419,57.7312216 L89.6421616,57.7436511 L89.6439341,57.746168 L89.6522248,57.7598648 L89.6529693,57.7611099 L89.6618937,57.7760651 L89.6618937,57.7764418 L89.6699407,57.791397 L89.6709421,57.7934132 L89.6780941,57.806977 L89.6797292,57.8107214 L89.6857467,57.8226767 L89.6881395,57.8279365 L89.6930493,57.8386201 L89.6960669,57.845515 L89.6999619,57.8545635 L89.7035866,57.8631245 L89.7063605,57.8707638 L89.7106322,57.8814474 L89.7128921,57.8874915 L89.7169067,57.8992962 L89.7231946,57.9178628 L89.7245727,57.9207564 L89.7290881,57.9360927 L89.7293451,57.9373379 L89.7342415,57.9546859 L89.7346182,57.9550626 L89.7390006,57.9716396 L89.7392576,57.9740059 L89.7430418,57.9888547 L89.7439059,57.9928561 L89.7466665,58.0065396 L89.747668,58.012083 L89.7498171,58.0241446 L89.7511952,58.0316776 L89.753074,58.0417231 L89.7541951,58.0512546 L89.7554536,58.0595586 L89.7568317,58.0707296 L89.7574653,58.0775049 L89.7587238,58.090568 L89.7594815,58.0953404 L89.7604962,58.110433 L89.7606159,58.1135569 C89.7627517,58.1526399 89.7624947,58.1919489 89.7590871,58.2322726 C89.7223039,58.6587159 89.3555221,58.9780044 88.931352,58.9595485 L88.578134,59.5649537 L91.9804897,61.1844251 L91.8851396,61.395841 L88.2882153,59.6870504 C88.28923,59.634798 88.2761669,59.5853194 88.2519328,59.542368 L88.9184085,58.5079628 C88.9291984,58.5099922 88.940139,58.5117337 88.9510663,58.5127351 C89.1084573,58.5263123 89.2471222,58.4096083 89.2608101,58.2522439 C89.2743872,58.0948529 89.1576833,57.9560507 89.0002923,57.9424736 C88.8427905,57.9289098 88.7041256,58.0456137 88.6905662,58.2030047 C88.6865383,58.2491022 88.6937035,58.2938128 88.7099039,58.3341365 L88.0253224,59.3965202 C87.8682017,59.3837141 87.730268,59.5000104 87.7168504,59.657038 C87.7031536,59.8144157 87.8198398,59.953218 87.9773416,59.9667818 C88.0429275,59.9724493 88.1053495,59.9558678 88.1566005,59.9224523 L91.7742272,61.6411289 L91.6521394,61.911218 L91.6521394,61.911218 Z M89.4080448,52.4903393 L89.2888284,53.4834061 C89.0869705,53.3978489 88.9538269,53.1897298 88.9736786,52.9592465 C88.9946602,52.7166706 89.1781686,52.5275257 89.4080448,52.4903393 L89.4080448,52.4903393 Z M89.5763498,53.5176857 L89.69542,52.5253899 C89.89691,52.6107876 90.0304214,52.8186896 90.0105698,53.0486588 C89.9897299,53.291217 89.806226,53.4799985 89.5763498,53.5176857 L89.5763498,53.5176857 Z M93.810987,53.1200052 L93.0324601,56.0774574 C92.9932841,56.225924 92.9081035,56.3511624 92.7960789,56.4410887 L91.2456941,54.2762368 L91.5208968,53.1621014 L93.810987,53.1200052 L93.810987,53.1200052 Z M89.4394308,69.1584268 C89.3476257,69.1505039 89.2669871,69.218713 89.2590775,69.3101548 C89.2511412,69.4019732 89.3189693,69.4824921 89.4107921,69.4904018 C89.5025042,69.4983247 89.5831295,69.430603 89.5910524,69.3387979 C89.5989577,69.247365 89.5311429,69.1663365 89.4394308,69.1584268 L89.4394308,69.1584268 Z M88.0396484,69.0377215 C87.9478433,69.0297986 87.8672047,69.0979944 87.859295,69.1894362 C87.8513721,69.2811483 87.9191868,69.3617736 88.0110097,69.3696965 C88.1023451,69.3776195 88.1833471,69.3097914 88.1912833,69.2180793 C88.1991929,69.1266464 88.1309838,69.0456179 88.0396484,69.0377215 L88.0396484,69.0377215 Z M88.7031242,69.0949768 C88.6114254,69.0870804 88.5308001,69.1552895 88.5228639,69.246594 C88.5149675,69.3384124 88.5827956,69.4190643 88.6744811,69.4269606 C88.7662995,69.4348703 88.8469514,69.3670422 88.8548477,69.275246 C88.8627751,69.183915 88.7949559,69.1028864 88.7031242,69.0949768 L88.7031242,69.0949768 Z M88.3965177,63.1125236 L89.0300919,63.8865307 C88.8286019,63.9729298 88.5861766,63.9244615 88.4339346,63.7508702 C88.2737963,63.568217 88.2646281,63.3042074 88.3965177,63.1125236 L88.3965177,63.1125236 Z M89.2540304,63.7031331 L88.6204694,62.9292589 C88.8218133,62.8430902 89.0643715,62.8911907 89.2166135,63.0649061 C89.3771285,63.247546 89.3863099,63.5115821 89.2540304,63.7031331 L89.2540304,63.7031331 Z M86.4825015,57.0745433 C86.4105348,57.3385661 86.3401854,57.6032359 86.2728581,57.8681317 L85.6420578,57.8137302 L85.7357595,57.4570115 C85.7998166,57.2167353 86.0591867,57.0379772 86.3063977,57.0593443 L86.4825015,57.0745433 L86.4825015,57.0745433 Z M86.2018883,58.1520063 C86.1604258,58.3227174 86.119752,58.4935393 86.0814268,58.6644985 L85.4482469,58.6099729 C85.4870419,58.4390181 85.5277467,58.2681962 85.5703303,58.0974983 L86.2018883,58.1520063 L86.2018883,58.1520063 Z M86.0197625,58.9496094 C85.9922582,59.0813749 85.9663624,59.2133885 85.9415035,59.3457877 L85.9126033,59.5085759 L85.2798002,59.4539173 L85.3194902,59.2311132 C85.340587,59.1188183 85.3628316,59.0070109 85.3863212,58.894973 L86.0197625,58.9496094 L86.0197625,58.9496094 Z M85.867011,59.7945862 C85.8420191,59.9662855 85.820426,60.1387425 85.8019524,60.3119705 L85.1664994,60.2570682 C85.1864707,60.0844739 85.208826,59.9121409 85.2343451,59.7400739 L85.867011,59.7945862 L85.867011,59.7945862 Z M85.7743107,60.5998641 C85.7483041,60.9064839 85.7312397,61.21395 85.7211942,61.5223157 L85.5445852,61.5071168 C85.2907186,61.4851558 85.07983,61.2659499 85.0966551,61.0215217 C85.1075824,60.8622475 85.1209026,60.7037354 85.1361148,60.5448422 L85.7743107,60.5998641 L85.7743107,60.5998641 Z M95.7731125,60.6337627 L96.582024,61.0938651 C96.6803607,61.1495251 96.7147776,61.2752598 96.6590113,61.3736009 L96.5570366,61.5524566 L95.3917698,60.8892688 L95.4937578,60.7103999 C95.5493912,60.6125329 95.6751391,60.5781159 95.7731125,60.6337627 L95.7731125,60.6337627 Z M92.3095932,63.678252 L95.6633079,65.5638821 L95.5486335,65.9812813 L92.0127664,63.9934062 L92.3095932,63.678252 L92.3095932,63.678252 Z M96.9866171,61.914599 L94.7402227,60.6517355 L94.5826013,60.9324683 L96.828588,62.1952077 L96.9866171,61.914599 L96.9866171,61.914599 Z" id="Shape"></path>
                    </g>
                </g>
            </g>
        </g>
    </g>
</svg>