<?xml version="1.0" encoding="UTF-8"?>
<svg width="78px" height="86px" viewBox="0 0 78 86" version="1.1" xmlns="http://www.w3.org/2000/svg" xmlns:xlink="http://www.w3.org/1999/xlink">
    <title>stopwatch</title>
    <g id="Page-1" stroke="none" stroke-width="1" fill="none" fill-rule="evenodd">
        <g id="Home-09" transform="translate(-312.000000, -4412.000000)" fill="#003850" fill-rule="nonzero">
            <g id="CONSULTING" transform="translate(0.000000, 4148.000000)">
                <g id="upper-row" transform="translate(225.000000, 262.000000)">
                    <g id="s--1" transform="translate(0.000000, 2.000000)">
                        <g id="stopwatch" transform="translate(87.000000, 0.000000)">
                            <path d="M38.5205075,17.1186003 C19.6117542,17.1186003 4.28330694,32.4470475 4.28330694,51.3558008 C4.28330694,70.2645541 19.6117542,85.5930013 38.5205075,85.5930013 C57.4292609,85.5930013 72.757708,70.2645541 72.757708,51.3558008 C72.7326319,32.4574958 57.4188125,17.1436763 38.5205075,17.1186003 Z M38.5205075,79.8868013 C22.7636774,79.8868013 9.98950703,67.1133276 9.98950703,51.3558008 C9.98950703,35.5982741 22.7636774,22.8248004 38.5205075,22.8248004 C54.2780342,22.8248004 67.0515079,35.5982741 67.0515079,51.3558008 C67.0333975,67.1056654 54.2703721,79.8686908 38.5205075,79.8868013 Z" id="Shape"></path>
                            <path d="M59.9187578,49.9292508 L64.1259659,49.9292508 C63.8097288,44.1206567 61.5208404,38.5941685 57.6361385,34.2643663 L54.6590513,37.2330949 C54.0962327,37.7506372 53.2248391,37.7332233 52.6843104,37.1919979 C52.1437817,36.6514692 52.1256711,35.7800757 52.6432134,35.2172572 L55.6133352,32.2471354 C51.2842295,28.3603439 45.7570446,26.0679727 39.9470575,25.7503424 L39.9470575,29.9575505 C39.9470575,30.7453572 39.3083142,31.3841005 38.5205075,31.3841005 C37.7327008,31.3841005 37.0939575,30.7453572 37.0939575,29.9575505 L37.0939575,25.7503424 C31.2846668,26.0686692 25.7581787,28.3603439 21.429073,32.2471354 L24.3978015,35.2172572 C24.782998,35.571805 24.9432062,36.1095474 24.8143431,36.6173379 C24.6861765,37.1244319 24.2898352,37.5214698 23.7820448,37.6496364 C23.2742541,37.7784995 22.7365116,37.6182914 22.3819638,37.2330949 L19.4118421,34.2629731 C15.5250505,38.5920788 13.2326793,44.1192637 12.9157458,49.9292508 L17.1222571,49.9292508 C17.9100639,49.9292508 18.5488072,50.5679941 18.5488072,51.3558008 C18.5488072,52.1436075 17.9100639,52.7823508 17.1222571,52.7823508 L12.9157458,52.7823508 C13.233376,58.5916414 15.5250505,64.1181296 19.4118421,68.4472353 L22.3819638,65.4785068 C22.9447824,64.9609644 23.816176,64.9783783 24.3567048,65.5196037 C24.89793,66.0601324 24.9160404,66.9315259 24.3978015,67.4943444 L21.429073,70.4714318 C25.7588752,74.3561337 31.2853633,76.645022 37.0939575,76.9612592 L37.0939575,72.7540511 C37.0939575,71.9662444 37.7327008,71.3275011 38.5205075,71.3275011 C39.3083142,71.3275011 39.9470575,71.9662444 39.9470575,72.7540511 L39.9470575,76.9612592 C45.7556516,76.645022 51.2821399,74.3561337 55.6119421,70.4714318 L52.6432134,67.4943444 C52.1256711,66.9315259 52.1437817,66.0601324 52.6843104,65.5196037 C53.2248391,64.9783783 54.0962327,64.9609644 54.6590513,65.4785068 L57.6361385,68.4472353 C61.5208404,64.1174331 63.8097288,58.5909449 64.1259659,52.7823508 L59.9187578,52.7823508 C59.1309511,52.7823508 58.4922078,52.1436075 58.4922078,51.3558008 C58.4922078,50.5679941 59.1309511,49.9292508 59.9187578,49.9292508 Z M49.5149731,42.3785661 L42.3724713,49.5238542 C42.6510943,50.0943349 42.7973713,50.7205403 42.8001575,51.3558008 C42.8001575,53.7192208 40.8839276,55.6354509 38.5205075,55.6354509 C36.1570875,55.6354509 34.2408574,53.7192208 34.2408574,51.3558008 C34.2408574,48.9923808 36.1570875,47.0761507 38.5205075,47.0761507 C39.155768,47.078937 39.7819734,47.2252142 40.3524541,47.5038372 L47.4977422,40.358549 C48.0577745,39.8180203 48.9472787,39.8256824 49.4975592,40.3759629 C50.0478396,40.9262435 50.0555018,41.8157475 49.5149731,42.3757799 L49.5149731,42.3785661 Z" id="Shape"></path>
                            <path d="M76.6236029,23.2385555 L66.6377528,13.2527053 C66.0770239,12.6961559 65.172892,12.6961559 64.6121632,13.2527053 L60.3325131,17.5323554 C59.7759635,18.0930844 59.7759635,18.9972161 60.3325131,19.5579452 L62.1728183,21.3982503 L61.3864048,22.1839673 C63.7630594,24.0486521 65.9042776,26.1940496 67.7647829,28.5734904 L68.5867209,27.8051875 L70.3183633,29.5437953 C70.8811819,30.095469 71.7818308,30.095469 72.3439529,29.5437953 L76.6236029,25.2641453 C77.1801524,24.7034162 77.1801524,23.7992845 76.6236029,23.2385555 Z" id="Path"></path>
                            <path d="M27.1081073,11.4124002 L34.2408574,11.4124002 L34.2408574,14.5197437 C37.0842057,14.1805203 39.9575059,14.1805203 42.8001575,14.5197437 L42.8001575,11.4124002 L49.9329077,11.4124002 C50.7207144,11.4124002 51.3594577,10.7736569 51.3594577,9.98585016 L51.3594577,1.42655002 C51.3594577,0.6387433 50.7207144,0 49.9329077,0 L27.1081073,0 C26.3203006,0 25.6815573,0.6387433 25.6815573,1.42655002 L25.6815573,9.98585016 C25.6815573,10.7736569 26.3203006,11.4124002 27.1081073,11.4124002 Z" id="Path"></path>
                            <path d="M5.70985696,29.9575505 C6.0880878,29.9561574 6.45169097,29.8077905 6.72265184,29.5437953 L8.46195619,27.8051875 L9.28319768,28.5734904 C11.1416134,26.1947463 13.2807418,24.0493488 15.6546102,22.1839673 L14.8681967,21.3982503 L16.708502,19.5579452 C17.2650514,18.9972161 17.2650514,18.0930844 16.708502,17.5323554 L12.4288519,13.2527053 C11.8681231,12.6961559 10.9639912,12.6961559 10.4032623,13.2527053 L0.417412192,23.2385555 C-0.139137397,23.7992845 -0.139137397,24.7034162 0.417412192,25.2641453 L4.69706226,29.5437953 C4.96802313,29.8077905 5.3316263,29.9561574 5.70985696,29.9575505 Z" id="Path"></path>
                        </g>
                    </g>
                </g>
            </g>
        </g>
    </g>
</svg>